<svg width="58" height="57" viewBox="0 0 58 57" fill="none" xmlns="http://www.w3.org/2000/svg">
<path d="M0.00116485 26.7083C0.0308754 25.6855 0.214688 24.359 0.4343 23.364C0.502334 23.0529 0.525727 23.221 0.576458 23.0078C0.676558 22.5931 0.735134 22.194 0.856068 21.788C0.896598 21.6537 0.937932 21.8425 0.978666 21.7016C1.20248 20.9309 1.38943 20.1945 1.66134 19.4266C3.00283 15.6549 5.04582 12.2152 7.78037 9.25364C8.68025 8.27345 9.90142 7.21605 10.9444 6.32973C11.0659 6.22586 10.9456 6.22869 10.9654 6.20478C11.2807 5.83258 11.2495 6.04852 11.5071 5.87251C12.5314 5.17558 13.6738 4.4195 14.6888 3.80136C15.1214 3.53935 14.6078 3.66254 15.0932 3.48379C15.1268 3.47147 15.0526 3.60219 15.1779 3.54216C15.4616 3.40465 15.9815 3.11631 16.2031 3.01374C16.6291 2.8157 16.6984 2.78197 17.101 2.59643C17.6533 2.34426 18.3318 2.10173 18.9345 1.85669C19.0633 1.80416 18.8624 1.7934 19.0661 1.70313C19.2693 1.61176 19.8262 1.42495 20.0212 1.38233C20.2156 1.33854 20.1548 1.42496 20.1926 1.42782C20.5034 1.45291 21.1 1.10016 21.1852 1.07357C22.7009 0.574565 24.072 0.407466 25.5494 0.228351C26.6663 0.0936285 27.8622 -0.0049601 28.9399 0.000180286C28.9489 0.000211241 28.9578 0.000248719 28.9667 0.000292729C30.2576 0.00994974 31.3374 0.124449 32.5785 0.272726C32.7092 0.288921 32.5681 0.17539 32.7281 0.19535C34.4287 0.410124 36.0983 0.798721 37.6995 1.38367C37.8601 1.44268 37.6252 1.45325 37.7836 1.51699C38.7592 1.89611 40.2027 2.67045 40.9122 2.61346C41.5491 2.92261 42.3077 3.33106 42.8222 3.70584C43.153 3.94774 42.7658 3.82904 43.2163 4.04579C43.3175 4.0954 43.2315 3.95291 43.3805 4.03295C44.0088 4.37102 44.6482 4.81527 45.2487 5.18809C45.3709 5.26379 45.3798 5.18356 45.4205 5.19672C45.7617 5.31049 46.1176 5.79074 46.2071 5.87638C46.8984 6.52584 47.4458 6.94119 48.094 7.53507C48.2438 7.67357 48.1307 7.44005 48.2772 7.57142C49.0355 8.25484 49.7673 9.02362 50.3899 9.80494C50.528 9.97901 50.3332 9.87772 50.3958 9.96353C50.67 10.3417 50.8538 10.3238 51.11 10.6938C51.1638 10.7718 51.0763 10.7735 51.0811 10.7917C51.1551 11.0759 51.4306 11.1566 51.4761 11.2099C52.0487 11.8786 52.2267 12.4408 52.7067 13.1327C52.7641 13.2161 52.7145 12.9763 52.8712 13.2142C53.9152 14.8001 54.8009 16.6213 55.3977 18.3999C55.4906 18.6768 55.3554 18.5049 55.3543 18.525C55.3402 18.8488 55.5632 18.9707 55.6011 19.0587C55.8944 19.7516 55.9581 20.4605 56.2882 20.8975C56.912 23.3741 57.3086 25.9037 57.2415 28.4426C57.2249 29.0708 57.1805 29.6851 57.1042 30.3061C57.0995 30.3459 57.0206 30.269 57.0115 30.3481C56.8931 31.299 57.0344 31.1207 57.1238 31.7756C57.1459 31.9415 56.8909 32.4 56.8701 32.4393C56.7966 32.5866 56.6962 32.4087 56.6788 32.4589C56.5376 32.8711 56.9577 32.8676 56.8572 33.449C56.8533 33.467 56.7921 33.3777 56.7761 33.425C56.726 33.5715 56.7278 33.7261 56.6737 33.8678C56.5479 34.1913 56.3293 34.2697 56.3274 34.8022C56.3265 34.8697 56.5807 34.8248 56.4447 35.3323C56.3937 35.5341 56.1512 36.4327 56.0576 36.6743C55.9675 36.9175 55.9474 36.7253 55.9389 36.7421C55.6354 37.3772 55.6742 37.1123 55.4255 37.3945C55.1752 37.6734 55.5368 37.6972 55.5268 37.8443C55.5174 37.9917 55.2629 38.4427 55.1903 38.5483C55.1185 38.6546 55.1301 38.4921 55.0749 38.5896C54.7067 39.2329 55.1173 38.9541 55.0776 39.2008C54.979 39.784 54.5564 40.0914 54.3094 40.5503C54.242 40.6749 54.3455 40.5963 54.2954 40.7127C54.0941 41.1732 53.8859 41.4034 53.6797 41.9389C53.6466 42.0262 53.5572 42.508 53.3057 42.7079C53.27 42.7359 53.2752 42.6 53.1543 42.7761C52.9745 43.0391 52.6593 43.519 52.4892 43.8162C52.3637 44.036 52.6127 43.8531 52.4087 44.1003C52.3176 44.2096 52.4118 43.9574 52.2449 44.1649C52.08 44.3725 51.6926 44.9246 51.54 45.1309C51.3891 45.3378 51.5374 45.2737 51.5295 45.2936C51.4804 45.4136 51.2097 45.8294 51.1818 45.8632C49.8231 47.6047 48.2903 48.9578 46.6621 50.3399C46.5336 50.4481 46.6742 50.4443 46.6552 50.4615C46.2265 50.8488 46.4411 50.3892 46.0796 50.5759C46.2313 50.6769 46.0265 50.7992 45.7131 51.056C45.562 51.1795 45.687 51.1703 45.6769 51.1864C45.5033 51.4409 45.2606 51.451 45.2031 51.4588C44.9898 51.4886 44.8851 51.703 44.7396 51.7217C44.5952 51.7401 44.7877 51.4929 44.4685 51.7093C44.4127 51.8212 44.7424 51.796 44.5115 51.9815C43.6445 52.6992 41.7526 53.5987 40.9316 53.9503C40.117 54.3148 39.8513 54.4314 39.3618 54.6058C38.4718 54.9085 38.8345 54.8959 38.3028 55.1462C37.7649 55.39 37.9403 55.0157 37.8405 54.9828C37.7426 54.9486 37.6782 55.0389 37.5702 55.0372C37.4627 55.0351 37.6586 54.9266 37.4274 54.9872C37.1964 55.0496 36.6055 55.3417 36.5398 55.4275C36.4038 55.6107 36.7313 55.6774 36.0982 55.7925C36.0618 55.7988 36.1577 55.6934 36.0194 55.7212C34.9278 55.9427 33.7876 56.1611 32.6815 56.2543C32.5294 56.2668 32.6532 56.1633 32.5648 56.1695C31.6431 56.2256 31.9859 56.3296 31.4965 56.5407C31.5895 56.3141 31.3019 56.2155 30.605 56.2571C30.1842 56.2796 30.2639 56.3688 29.9944 56.4463C29.9135 56.4698 29.6141 56.4136 29.561 56.4587C29.3851 56.6057 29.6717 56.7681 28.9399 56.7079C28.9396 56.7079 28.9393 56.7079 28.939 56.7079C28.9277 56.7068 28.9331 56.6962 28.9399 56.6828C28.949 56.6651 28.9605 56.6425 28.9399 56.63C28.9318 56.625 28.9186 56.6216 28.8983 56.6207C28.1838 56.5837 28.0975 56.7341 27.3239 56.7138C26.7141 56.6981 25.651 56.5046 24.9735 56.3895C25.0208 56.1526 24.3774 56.1133 24.0884 56.2306C23.6495 56.1478 23.1768 56.0633 22.7595 55.946C22.6164 55.9057 22.7271 55.8586 22.7105 55.8471C22.4585 55.668 22.2344 55.78 22.1392 55.7631C21.1103 55.5693 20.3351 55.2025 19.3599 54.9808C19.3255 54.9728 19.2133 55.1124 19.0053 54.9033C18.9924 54.8892 19.3271 54.9335 18.8907 54.7624C18.4531 54.5917 17.676 54.1718 17.0567 53.9659C16.9071 53.9174 16.4866 53.8682 16.2487 53.6277C16.2172 53.5956 16.2805 53.5734 16.238 53.5218C16.1009 53.3558 15.9259 53.4571 15.7881 53.2203C15.651 52.9832 15.282 52.6627 14.6749 52.417C14.6557 52.4089 14.4544 52.4463 14.2802 52.3367C14.0023 52.1625 13.6267 51.8878 13.3435 51.6978C13.2077 51.6068 13.2475 51.7347 13.2231 51.7201C12.2849 51.1363 11.6988 50.6026 10.8185 49.8195C10.6574 49.6766 10.1125 49.3523 9.86749 48.9992C9.60179 48.6114 10.2179 48.642 9.40723 47.9834C9.08624 47.7172 8.3278 47.6879 8.0205 46.9336C6.98936 45.8655 6.27323 44.6892 5.39271 43.4958C5.35318 43.4422 5.1166 43.3414 5.03518 43.2057C4.9146 43.0043 4.90704 42.8593 4.82579 42.7138C4.48775 42.1029 4.13091 41.5686 3.83687 40.9608C3.72599 40.7297 3.82812 40.779 3.6994 40.503C3.5724 40.2273 3.40182 40.0818 3.27583 39.685C3.18142 39.3842 3.23545 39.0258 3.10525 38.6367C2.92627 38.6909 2.8227 38.4265 2.60397 37.9683C2.56205 37.8804 2.53614 38.0003 2.51314 37.9598C2.41811 37.7948 2.41191 37.6133 2.32026 37.4564C2.29807 37.4182 2.23693 37.4366 2.2154 37.4063C2.02864 37.149 2.01789 36.6282 2.01857 36.5406C2.01628 36.2012 1.89552 36.0776 1.86528 35.8257C1.83624 35.5745 1.97837 35.923 1.92479 35.6356C1.81427 35.0425 1.63203 34.2893 1.52247 33.6895C1.47822 33.45 1.42516 33.6289 1.41687 33.595C1.30241 33.1014 1.31537 32.5809 1.10948 32.3277C1.49881 31.9217 1.02175 32.0325 1.03182 31.2974C1.03329 31.2402 1.2323 31.148 1.28478 31.3612C1.33741 31.5747 1.31096 31.9104 1.39864 32.2024C1.41858 32.2727 1.66935 32.6455 1.6902 32.6981C1.84855 33.112 1.55613 33.224 1.5428 33.2503C1.40577 33.5421 1.70771 33.9938 1.74943 34.1185C1.9373 34.695 2.01493 35.1963 2.19148 35.6708C2.30737 35.9799 2.51201 35.9546 2.57723 36.2011C2.80004 37.0156 2.62995 37.3968 3.13694 38.0661C3.24754 38.2088 3.39028 37.9711 3.45203 38.6051C3.45528 38.6447 3.47924 39.1283 3.67837 39.3318C3.70323 39.3573 3.76218 39.3306 3.78455 39.3684C3.93365 39.6221 3.96663 39.8208 4.124 40.0983C4.2812 40.3748 4.48318 40.7022 4.63066 41.0336C4.71922 41.2334 4.7461 41.5372 4.77128 41.6442C4.83976 41.947 5.11959 42.1546 5.12376 42.365C5.1295 42.5782 4.80662 42.3426 5.00119 42.8002C5.15471 42.7293 5.32398 42.6758 5.48352 42.6129C6.02851 43.524 6.577 44.4182 7.23764 45.2579C7.31975 45.3617 7.30793 45.1996 7.39779 45.3088C7.77715 45.7683 8.06213 46.2106 8.49315 46.6566C8.82724 47.0013 9.25625 47.3181 9.62473 47.654C9.70205 48.0072 10.2839 48.4795 10.6755 48.8505C10.8126 48.9811 10.7693 49.011 10.8596 49.1127C11.2038 49.4935 11.1347 49.2076 11.2575 49.2778C11.7864 49.5727 11.5804 49.9039 12.148 50.333C12.1781 50.3569 12.6672 50.4686 12.7251 50.4941C13.0959 50.662 12.7358 50.591 12.9296 50.75C13.2848 51.0382 13.5206 51.2609 14.0029 51.5036C14.1441 51.5746 14.5272 51.667 14.7352 51.9081C14.7626 51.9398 14.7086 51.9864 14.7341 52.0065C15.2008 52.3629 15.3235 52.1838 15.6463 52.2834C15.9693 52.3829 16.3506 52.7492 16.4255 52.8344C16.6188 53.0568 16.2175 52.7803 16.2 52.7822C15.9861 52.8142 16.3283 52.9708 16.581 53.1091C16.5239 53.315 16.8942 53.4826 16.8439 53.2508C16.8378 53.2255 16.6282 53.1438 16.581 53.1091C16.8995 53.0398 17.2994 53.2066 17.6653 53.5806C17.8377 53.7545 17.5956 53.7678 18.2528 54.0056C18.5513 54.1107 18.4931 53.9314 18.7647 53.9984C19.3849 54.151 20.1115 54.5518 20.746 54.7255C20.9742 54.788 20.7773 54.6449 20.9339 54.6846C21.3488 54.7884 21.6977 54.9475 22.1236 55.0255C22.1619 55.0323 22.0904 54.9291 22.2197 54.9609C23.2015 55.1969 24.0581 55.4207 25.1065 55.5711C25.6122 55.646 26.5264 55.6959 27.0534 55.7375C27.6463 55.7883 28.3149 55.8651 28.9399 55.8934C29.2845 55.9095 29.6093 55.9114 29.8884 55.8915C30.3992 55.8534 30.2816 55.7739 30.4982 55.7066C30.9141 55.5772 31.6696 55.7043 31.7743 55.722C31.7772 55.7235 31.3419 55.7843 31.5794 55.8044C31.7239 55.8791 31.7693 55.7229 31.7743 55.722C31.8433 55.738 32.722 55.6512 32.8913 55.6069C32.9838 55.5848 32.9201 55.5151 32.9684 55.505C34.1222 55.2638 35.2597 55.0004 36.4144 54.7106C36.435 54.7064 36.4285 54.7991 36.4767 54.7881C37.15 54.6346 37.5414 54.3934 38.0531 54.1462C38.5649 53.8973 38.9881 53.7518 39.3559 53.7627C39.7449 53.5837 40.3353 53.3928 40.6729 53.2761C41.0111 53.1597 40.9806 52.9831 41.007 52.9668C41.8264 52.4373 42.3618 52.2544 43.2315 51.7437C43.6462 51.5021 44.4248 50.9567 44.8325 50.6363C45.1557 50.3852 45.377 50.269 45.6601 50.0179C45.6983 49.9839 45.6112 49.9557 45.6217 49.9439C45.896 49.6141 45.8517 49.8833 45.9406 49.8555C46.2617 49.7524 46.4576 49.6787 46.8335 49.2829C46.921 49.1913 47.0181 48.7521 47.1736 48.5894C47.3771 48.3772 47.3604 48.5226 47.5698 48.2957C47.5877 48.2762 47.5437 48.2373 47.6828 48.1086C48.3277 47.5105 49.0161 46.8371 49.6071 46.1372C49.6879 46.0417 49.513 46.1028 49.6279 45.9641C50.1669 45.3129 50.7329 44.581 51.2387 43.9288C51.3635 43.7683 51.3448 43.9101 51.3859 43.8848C51.6381 43.7274 51.708 43.3107 51.7391 43.2562C52.4866 41.9449 53.1802 41.0018 53.7523 39.5659C53.7848 39.4871 53.8727 38.8257 54.1232 38.6191C54.1401 38.6054 54.3965 38.3994 54.3836 38.1235C54.3825 38.1065 54.2427 38.2429 54.3599 37.9564C54.4773 37.6685 54.5903 37.1849 54.8071 36.8072C54.8757 36.6881 55.1268 36.4299 55.1158 36.0066C55.1164 35.9778 55.0031 35.3059 55.2482 35.1418C55.288 35.1152 55.4867 35.2038 55.4934 34.7099C55.4938 34.6157 55.4105 34.7672 55.4362 34.5252C55.4749 34.1546 55.6299 33.6854 55.6165 33.2221C55.6143 33.1408 55.5302 32.7867 55.6776 32.5365C55.7007 32.4974 55.7586 32.5872 55.7873 32.4476C55.9242 31.7826 55.9552 31.067 56.0519 30.3834C56.0856 30.1399 56.1912 30.2728 56.237 30.0176C56.2832 29.7616 56.3323 29.2482 56.2843 28.9772C56.2364 28.7074 56.0517 28.9977 56.0409 28.597C56.0393 28.5455 56.0378 28.4941 56.0362 28.4426C55.9843 26.7617 55.9327 25.0894 55.6386 23.4289C55.5929 23.1762 55.5702 23.3968 55.4954 23.0272C55.2375 21.6509 54.4677 19.375 54.1155 18.2085C53.8437 17.268 54.3951 18.3671 54.1465 17.6608C54.0236 17.318 53.6683 17.051 53.6258 16.9762C53.2061 16.2394 53.0172 15.6765 52.6168 15.025C52.5337 14.8912 52.5359 15.0675 52.4659 14.9536C52.2264 14.5661 52.0093 14.1371 51.767 13.7741C51.658 13.6117 51.6229 13.6776 51.5284 13.525C51.3008 13.161 51.1061 12.8331 50.9084 12.4575C50.8902 12.4231 51.1086 12.5846 50.9224 12.3244C50.6205 11.9045 50.2713 11.3577 49.8395 10.9409C49.7108 10.8176 49.5945 10.9086 49.4239 10.5552C49.3874 10.4817 49.5903 10.4374 49.1793 10.2105C49.1106 10.1698 48.4571 9.76963 48.2973 9.41939C48.2558 9.32633 48.1863 9.04813 48.0173 8.91557C47.9941 8.89811 48.0207 9.03591 47.8892 8.91879C47.4264 8.50576 46.9511 8.0631 46.4484 7.67205C46.3141 7.56809 46.4542 7.79381 46.2558 7.63765C45.711 7.20862 45.0366 6.66631 44.495 6.25633C44.2954 6.10491 44.4765 6.14763 44.4659 6.13108C44.2936 5.86286 44.0558 5.90187 43.9702 5.85613C43.4357 5.56969 43.0846 5.26114 42.593 4.99684C42.4573 4.92414 42.5123 5.04673 42.4823 5.03738C42.1739 4.9385 42.4486 4.93407 42.2815 4.82105C41.812 4.50426 41.2525 4.21799 40.7334 3.97892C40.5431 3.89172 40.7157 4.07507 40.5458 3.99649C39.539 3.53394 38.4709 3.09742 37.4594 2.71098C37.2684 2.63806 37.4121 2.61177 37.3766 2.5833C37.13 2.38442 36.6721 2.40581 36.5737 2.39279C36.1239 2.33154 35.9705 2.22669 35.5828 2.1398C33.6916 1.70774 31.3169 1.36423 29.4813 1.31709C29.2983 1.31102 29.118 1.30662 28.9399 1.30378C26.803 1.27949 25.0461 1.4176 22.9876 1.8828C22.8461 1.91561 23.0093 1.97415 22.888 2.00374C21.3251 2.3834 19.8006 2.83911 18.3265 3.49564C18.2056 3.54961 18.4154 3.55544 18.2232 3.64498C17.8289 3.82942 17.3309 4.05539 16.9243 4.2269C16.7263 4.31063 16.9501 4.11406 16.7512 4.20024C16.2882 4.4015 15.8087 4.65312 15.3671 4.92508C15.1798 5.0411 15.5119 4.95201 15.2658 5.09687C13.5923 6.09133 12.0649 7.24067 10.5364 8.4906C10.432 8.57637 10.219 8.52333 10.0341 8.74913C10.0536 8.8009 10.0959 8.84319 10.1268 8.88891C8.10272 10.8784 6.33266 13.103 4.97296 15.6147C4.91604 15.7204 5.09909 15.5834 4.98993 15.7879C4.36011 16.9768 3.86115 18.1778 3.31312 19.444C3.2596 19.5699 3.11938 19.4467 3.01502 19.8393C2.99539 19.9081 2.83225 20.4972 2.82512 20.6581C2.82449 20.6801 2.93214 20.5969 2.87911 20.7847C2.56963 21.8799 2.29181 23.0332 2.06636 24.1498C2.02993 24.3304 1.97631 24.1235 1.94977 24.2524C1.76258 25.1637 1.72675 26.1768 1.60688 27.0642C1.52867 27.6553 1.39233 27.4301 1.23824 27.7458C1.21608 27.7905 1.20679 28.165 1.12316 28.184C0.911281 28.2328 0.681791 28.0457 0.455694 28.1191C0.406028 28.1344 0.457185 28.6526 0.34053 28.3455C0.332196 28.324 0.296941 27.9478 0.259735 27.8544C0.233587 27.7893 0.145618 27.9041 0.113295 27.7712C0.0812285 27.6382 0.156677 27.4954 0.123928 27.2759C0.0916878 27.0554 -0.0118886 27.1503 0.00116485 26.7083ZM42.185 52.7072C42.5155 52.6182 42.4113 52.3337 42.1341 52.5687C42.1208 52.5803 42.1681 52.7118 42.185 52.7072ZM6.40677 44.5329C6.55326 44.9638 6.88894 45.0841 6.78832 44.779C6.69013 44.4749 6.36306 44.4024 6.40677 44.5329ZM4.0104 40.7198C4.14561 41.2233 4.55887 41.0989 4.23992 40.6552C4.22166 40.6293 4.00267 40.6905 4.0104 40.7198ZM1.27327 26.2575C1.26865 26.2616 1.24521 26.5299 1.24901 26.5367C1.33347 26.6857 1.37984 26.151 1.27327 26.2575ZM2.26143 36.5895C2.25178 36.7584 2.45656 37.1775 2.46354 36.9664C2.46829 36.7973 2.27212 36.3797 2.26143 36.5895ZM54.1716 40.5C54.1781 40.4972 54.2649 40.3236 54.2403 40.3163C54.1615 40.2939 54.0663 40.5466 54.1716 40.5ZM1.05459 29.0661C1.0693 30.1876 0.77852 30.9108 0.746909 29.6632C0.743768 29.4392 0.881334 30.1405 0.899147 29.8539C0.932099 29.3338 0.703192 28.9909 0.819739 28.4525C0.84003 28.3567 1.05293 29.0033 1.05513 29.0681C1.05495 29.0675 1.05477 29.0668 1.05459 29.0661ZM42.5269 52.9289C42.5348 52.9294 42.7716 52.8004 42.7751 52.7935C42.8549 52.6396 42.3797 52.8986 42.5269 52.9289ZM57.0605 29.5771C57.0712 29.5631 57.0967 28.9353 57.0876 28.9142C56.9414 28.5859 56.8906 29.8479 57.0605 29.5771ZM24.9637 56.3816C24.6588 56.4355 24.3016 56.3898 24.0897 56.2309C24.3787 56.2875 24.6731 56.3347 24.9637 56.3816Z" fill="#6063A6"/>
<path d="M35.6572 15.892C36.101 16.3358 36.1413 17.0302 35.7782 17.5196L35.6572 17.6598L24.875 28.4425L35.6572 39.2253C36.101 39.6691 36.1413 40.3635 35.7782 40.8529L35.6572 40.9931C35.2134 41.4369 34.519 41.4772 34.0296 41.1141L33.8894 40.9931L22.2228 29.3264C21.779 28.8827 21.7386 28.1882 22.1017 27.6989L22.2228 27.5587L33.8894 15.892C34.3776 15.4038 35.169 15.4038 35.6572 15.892Z" fill="#6063A6"/>
</svg>
