<svg width="42" height="42" viewBox="0 0 42 42" fill="none" xmlns="http://www.w3.org/2000/svg">
<path d="M1.63907 21.8188C1.70168 22.4871 1.77576 23.3575 1.85784 24.0238C1.88326 24.232 1.8122 24.1372 1.8285 24.2815C1.86122 24.563 1.94227 24.8183 1.98263 25.0964C1.99595 25.1889 1.88739 25.0955 1.90344 25.1923C1.99314 25.7231 2.15302 26.2079 2.30687 26.7316C3.0675 29.3105 4.40585 31.6796 6.21844 33.7361C6.81321 34.4154 7.56225 35.2339 8.31304 35.7983C8.40037 35.8641 8.39619 35.7658 8.41613 35.7741C8.72735 35.9046 8.55037 35.9533 8.70629 36.1001C9.32602 36.6806 10.1121 37.2149 10.8325 37.5973C11.1397 37.7591 10.9097 37.4602 11.1728 37.7025C11.1914 37.7191 11.0763 37.7447 11.1555 37.7983C11.3353 37.9206 11.7044 38.0983 11.8519 38.1781C12.1357 38.333 12.1843 38.3552 12.4609 38.4843C12.8393 38.6606 13.2827 38.8889 13.7099 39.0302C13.801 39.06 13.7105 38.9407 13.858 38.9809C14.005 39.0219 14.3814 39.1603 14.5051 39.2198C14.6283 39.2801 14.554 39.322 14.5725 39.3432C14.7256 39.5227 15.2232 39.4938 15.2815 39.5047C16.352 39.7309 17.2552 40.0036 18.2778 40.1274C19.0486 40.2197 19.8749 40.2348 20.6157 40.2375C20.6219 40.2376 20.628 40.2376 20.6341 40.2376C21.5214 40.2403 22.2715 40.2347 23.1275 40.1197C23.2174 40.1074 23.1 40.0276 23.2094 40.0122C24.3714 39.8466 25.5096 39.5998 26.6436 39.3001C26.7576 39.2698 26.6387 39.3957 26.7545 39.3699C27.4603 39.2194 28.6007 38.9244 28.8337 38.4107C29.2811 38.2199 29.8119 37.962 30.2283 37.8098C30.4967 37.711 30.3038 37.9262 30.5855 37.7183C30.6488 37.6711 30.5211 37.6547 30.6184 37.5892C31.0278 37.3134 31.4941 37.0422 31.8697 36.7279C31.9458 36.6639 31.8827 36.6217 31.8981 36.5952C32.0294 36.3766 32.4426 36.2801 32.5186 36.2365C33.0917 35.9117 33.4357 35.5733 33.8862 35.1656C33.9905 35.0704 33.8035 35.1134 33.901 35.0194C34.4066 34.5328 34.9167 34.017 35.3997 33.5252C35.5072 33.4158 35.4762 33.5753 35.5308 33.5255C35.7706 33.3032 35.6987 33.1499 35.9184 32.9304C35.9645 32.8837 35.9957 32.9557 36.0091 32.9511C36.2198 32.8789 36.1858 32.6451 36.2116 32.6051C36.5371 32.0926 36.9052 31.8757 37.2065 31.3668C37.2419 31.3059 37.0825 31.3917 37.186 31.2236C37.874 30.1034 38.5187 28.8721 39.046 27.6756C39.1279 27.4892 39.1384 27.6481 39.1505 27.6391C39.3434 27.4864 39.2283 27.3008 39.2442 27.2367C39.3739 26.7304 39.6517 26.3007 39.5504 25.9043C40.0756 24.2084 40.2476 22.4412 40.3142 20.68C40.3306 20.2425 40.3411 19.8131 40.3485 19.374C40.3487 19.3459 40.4357 19.3907 40.4358 19.3344C40.4322 18.6567 40.3101 18.7977 40.1042 18.3745C40.0525 18.2692 40.1985 17.9085 40.2075 17.876C40.2433 17.76 40.3829 17.8551 40.3876 17.8172C40.4206 17.5024 40.0221 17.6122 39.9526 17.2116C39.9511 17.1988 40.0352 17.2385 40.0366 17.2033C40.0412 17.0939 39.9922 16.9954 39.9979 16.888C40.011 16.6435 40.1903 16.5141 39.9946 16.1799C39.9688 16.1383 39.7593 16.2586 39.6834 15.9033C39.6556 15.7614 39.481 15.1405 39.4406 14.9654C39.4026 14.7891 39.5106 14.8849 39.5101 14.8717C39.4589 14.3757 39.553 14.5397 39.6153 14.2583C39.6742 13.9756 39.3648 14.1555 39.2951 14.0746C39.2261 13.9937 39.1788 13.6291 39.1727 13.5361C39.1675 13.4433 39.252 13.529 39.2386 13.4496C39.144 12.9235 38.9924 13.3012 38.8769 13.1639C38.6026 12.8453 38.7128 12.4554 38.5758 12.1086C38.5387 12.0153 38.5208 12.1147 38.477 12.0368C38.3033 11.7293 38.2787 11.5021 38.0217 11.1848C37.9795 11.132 37.6868 10.9273 37.6797 10.6901C37.6789 10.6561 37.7778 10.6961 37.7137 10.5592C37.6189 10.3548 37.4158 10.0014 37.2645 9.81145C37.153 9.67121 37.1766 9.90027 37.0805 9.69559C37.0373 9.60466 37.1923 9.72333 37.1063 9.55508C37.0216 9.3866 36.7429 8.99752 36.6318 8.85359C36.5218 8.7092 36.5162 8.83751 36.5031 8.82894C36.4256 8.77605 36.1837 8.52563 36.1644 8.50208C35.2065 7.30062 34.2922 6.18306 33.0916 5.26467C32.9975 5.19305 33.0052 5.30903 32.9903 5.29878C32.6527 5.07557 33.0436 5.09564 32.8663 4.86022C32.7923 5.0225 32.6803 4.89368 32.4399 4.73848C32.3239 4.66417 32.3442 4.76277 32.3301 4.76081C32.1068 4.72282 32.0687 4.53496 32.0541 4.49157C32.0009 4.33246 31.8129 4.34495 31.7743 4.23873C31.7347 4.13263 31.966 4.17109 31.7363 4.01792C31.6379 4.02682 31.7167 4.27415 31.5297 4.18113C30.8329 3.82179 29.6235 3.0087 29.0503 2.73812C28.4865 2.46121 28.292 2.39705 27.9615 2.23886C27.3588 1.96086 27.5409 2.16116 27.1391 2.07479C26.7348 1.99346 27.0169 1.77841 26.9813 1.69882C26.9457 1.61985 26.8641 1.66179 26.8054 1.60601C26.7466 1.55029 26.9108 1.55777 26.7507 1.49248C26.5895 1.42549 26.1077 1.40141 26.0314 1.45039C25.8703 1.55236 26.0331 1.74817 25.6144 1.58271C25.5901 1.57321 25.691 1.51907 25.5971 1.48653C24.8534 1.23167 24.0477 1.07052 23.2749 0.914669C23.1684 0.893157 23.2758 0.81998 23.2138 0.806543C22.5642 0.671901 22.7791 0.846115 22.4092 0.972531C22.5088 0.766083 22.324 0.611055 21.8189 0.578715C21.5148 0.561015 21.5641 0.658609 21.3674 0.717032C21.3089 0.734581 21.0982 0.663851 21.0585 0.707595C20.9286 0.850694 21.1254 1.01259 20.6157 0.945296C20.6155 0.945269 20.6153 0.945243 20.6151 0.945216C20.6072 0.944135 20.6109 0.933581 20.6157 0.920158C20.622 0.902501 20.6302 0.87988 20.6157 0.867316C20.61 0.862338 20.6007 0.858941 20.5864 0.858079C20.0822 0.83055 20.0269 0.982862 19.4919 1.02802C19.071 1.06314 18.3162 1.04175 17.8359 1.09728C17.8134 0.854534 17.3633 0.977523 17.21 1.17551C16.8997 1.22219 16.5714 1.2972 16.2697 1.34119C16.1661 1.35642 16.2175 1.27288 16.203 1.26836C15.9783 1.19726 15.8826 1.3886 15.819 1.41089C15.1235 1.64884 14.5124 1.70752 13.8932 2.05753C13.8711 2.07028 13.8918 2.24121 13.6742 2.19127C13.6597 2.18776 13.8498 2.03414 13.5389 2.14514C13.2291 2.25513 12.6168 2.4112 12.2344 2.67796C12.1413 2.7418 11.9498 2.98471 11.702 2.9906C11.6687 2.99115 11.6762 2.9332 11.6254 2.92882C11.461 2.91634 11.4719 3.10236 11.2588 3.05163C11.0464 3.00089 10.6839 3.0723 10.3325 3.39794C10.321 3.40821 10.2958 3.58014 10.1703 3.65485C9.96939 3.77368 9.67519 3.92919 9.4735 4.06635C9.37696 4.13198 9.48587 4.15966 9.46994 4.17225C8.85107 4.65178 8.36282 4.92491 7.69806 5.44172C7.57524 5.53667 7.31924 5.91204 7.04091 6.04883C6.73527 6.20206 6.69412 5.66412 6.2143 6.27264C6.02031 6.52279 6.13259 7.15459 5.5704 7.38118C4.91971 8.21997 4.21341 8.92488 3.71569 9.87609C3.69318 9.91891 3.73542 10.1242 3.67518 10.2181C3.58518 10.3576 3.48006 10.4005 3.41539 10.5006C3.14349 10.9194 2.97655 11.3484 2.75398 11.773C2.67005 11.9348 2.63463 11.8465 2.53631 12.0413C2.43905 12.2366 2.46196 12.4062 2.30218 12.6576C2.18169 12.8478 1.91973 12.9802 1.78881 13.251C1.95884 13.3304 1.87818 13.5183 1.8013 13.8748C1.78681 13.9432 1.87319 13.8955 1.86952 13.9289C1.85616 14.065 1.76476 14.1633 1.75879 14.2948C1.75726 14.3267 1.8173 14.3484 1.81956 14.3755C1.84053 14.6059 1.60034 14.8966 1.55948 14.9478C1.40225 15.1424 1.4527 15.2702 1.36971 15.4317C1.2872 15.594 1.31138 15.3241 1.2354 15.5199C1.07809 15.9251 0.963739 16.4731 0.880041 16.9033C0.846877 17.0755 0.952761 16.9735 0.949952 16.9985C0.904877 17.3562 0.760102 17.7076 0.901354 17.9277C0.433789 18.1174 0.9111 18.1479 0.769364 18.6497C0.758358 18.6888 0.54628 18.7213 0.532086 18.5609C0.518117 18.3998 0.610057 18.1696 0.592428 17.947C0.587662 17.8946 0.437992 17.5725 0.433358 17.5291C0.392673 17.1955 0.708179 17.2038 0.727356 17.1904C0.940077 17.0351 0.803149 16.6442 0.809496 16.546C0.83439 16.1013 0.964727 15.7514 1.0146 15.3836C1.04819 15.1437 0.859706 15.0653 0.919012 14.8837C1.12168 14.2801 1.45941 14.1666 1.43267 13.5254C1.42913 13.3878 1.17389 13.4256 1.50528 13.06C1.52618 13.036 1.80113 12.7834 1.78703 12.5633C1.78515 12.5355 1.72545 12.5105 1.73352 12.4783C1.78924 12.2628 1.89636 12.1505 1.97525 11.9241C2.05408 11.6982 2.14893 11.4218 2.29443 11.1895C2.38195 11.0488 2.58793 10.9209 2.65151 10.8666C2.83168 10.7141 2.82828 10.4399 2.98661 10.3736C3.14534 10.3083 3.14515 10.6162 3.38438 10.3451C3.24702 10.2473 3.11499 10.132 2.98161 10.0259C3.40097 9.34511 3.89011 8.7295 4.37336 8.09429C4.43336 8.01543 4.29963 8.0399 4.36254 7.95375C4.62961 7.59071 4.93064 7.33042 5.22073 6.96567C5.44516 6.68327 5.6473 6.3283 5.89848 6.04183C6.19712 6.01238 6.55225 5.57789 6.86883 5.32032C6.97912 5.23001 7.00616 5.27494 7.09302 5.22095C7.42089 5.01848 7.17578 5.00668 7.23801 4.91795C7.51113 4.53966 7.78395 4.81192 8.19088 4.48354C8.21162 4.46624 8.36103 4.09685 8.39262 4.05866C8.58615 3.81403 8.47472 4.08661 8.63539 3.98902C8.92988 3.81236 9.15172 3.71845 9.45416 3.4495C9.54172 3.37107 9.71205 3.1111 9.95896 3.07746C9.99125 3.07303 10.0122 3.13958 10.0348 3.13058C10.4405 2.96492 10.3443 2.7774 10.5278 2.59073C10.7126 2.4037 11.1248 2.35331 11.2135 2.35611C11.4457 2.36026 11.0955 2.46937 11.0909 2.48468C11.0358 2.65848 11.2719 2.50829 11.4674 2.42277C11.5886 2.59502 11.8476 2.45406 11.6699 2.33403C11.6499 2.32105 11.5098 2.41195 11.4674 2.42277C11.5421 2.15576 11.8324 1.9844 12.2418 2.01071C12.4335 2.02444 12.3281 2.18118 12.7834 1.94596C12.9906 1.84127 12.8531 1.74227 13.0301 1.6288C13.4376 1.36877 14.0616 1.28929 14.5198 1.12587C14.6858 1.06651 14.4985 1.04185 14.6116 0.998831C14.9128 0.884954 15.2021 0.865237 15.5075 0.755712C15.5351 0.745749 15.4454 0.683503 15.5426 0.657751C16.2813 0.462856 16.946 0.384867 17.7336 0.274532C18.1133 0.219422 18.7942 0.102506 19.1935 0.0871012C19.6424 0.066062 20.1488 0.10154 20.6157 0.13081C20.8734 0.146741 21.1152 0.160177 21.3243 0.156926C21.7071 0.152825 21.6263 0.0683807 21.7954 0.0207825C22.1242 -0.0720087 22.671 0.173478 22.7411 0.212514C22.7429 0.213155 22.4138 0.201419 22.5845 0.260064C22.6772 0.357501 22.7371 0.21252 22.7411 0.212514C22.7898 0.234553 23.4429 0.331896 23.5735 0.337806C23.645 0.339472 23.617 0.256491 23.6541 0.258898C24.5427 0.319383 25.4225 0.486969 26.2808 0.768629C26.2956 0.774484 26.2488 0.851981 26.2838 0.864682C26.7704 1.04524 27.1193 1.04738 27.547 1.13056C27.9739 1.21473 28.2891 1.36292 28.466 1.59787C28.7726 1.70249 29.1714 1.95307 29.3931 2.10367C29.6151 2.25382 29.7233 2.11911 29.746 2.12625C30.4526 2.35883 30.7833 2.65135 31.4248 3.05903C31.7312 3.25275 32.3433 3.62871 32.672 3.84536C32.9329 4.01473 33.0585 4.15877 33.3003 4.31352C33.333 4.33458 33.3485 4.25079 33.3597 4.25574C33.6683 4.38225 33.432 4.43276 33.4632 4.49937C33.5746 4.74252 33.6469 4.88156 33.9917 5.10192C34.0706 5.15214 34.4528 5.13246 34.5919 5.23805C34.7715 5.37496 34.6445 5.38771 34.8319 5.53086C34.8478 5.54329 34.8853 5.49718 34.9889 5.59924C35.47 6.07268 35.9517 6.62858 36.4107 7.15602C36.4733 7.22837 36.4647 7.07414 36.5564 7.17824C36.9863 7.66691 37.4196 8.23729 37.7447 8.78255C37.8244 8.91697 37.7148 8.87383 37.718 8.91264C37.7387 9.14872 38.0411 9.29741 38.0706 9.33722C38.7685 10.2689 39.0607 11.1229 39.6139 12.1622C39.6447 12.2171 40.012 12.6024 39.9478 12.8674C39.9441 12.8858 39.8758 13.1461 40.0465 13.2866C40.0572 13.2955 40.0863 13.1383 40.1626 13.3641C40.2386 13.5898 40.4188 13.9323 40.4325 14.2723C40.4373 14.3806 40.3578 14.6576 40.5653 14.9159C40.5799 14.9301 40.9871 15.3166 40.8345 15.5326C40.809 15.5677 40.5996 15.59 40.7895 15.9196C40.8258 15.983 40.8429 15.8481 40.9132 16.0218C41.0211 16.2893 41.042 16.6678 41.1952 16.9948C41.2224 17.0512 41.4083 17.2859 41.332 17.5102C41.32 17.5449 41.2413 17.4945 41.2497 17.6038C41.2885 18.1232 41.395 18.664 41.3834 19.1949C41.379 19.3832 41.2593 19.2951 41.2404 19.491C41.2219 19.6879 41.2074 20.0743 41.2624 20.2768C41.3176 20.4794 41.4966 20.2531 41.514 20.5612C41.5161 20.6008 41.5179 20.6404 41.5195 20.68C41.571 21.9795 41.3526 23.2605 41.1012 24.5253C41.062 24.7185 41.1574 24.5703 41.1018 24.856C40.9129 25.9148 40.4155 27.7215 39.9181 28.5272C39.5306 29.1704 39.8132 28.2777 39.5526 28.7806C39.4266 29.0215 39.4953 29.3766 39.4729 29.44C39.2589 30.0557 38.9669 30.4126 38.706 30.9332C38.6516 31.0407 38.7844 30.9805 38.7369 31.0718C38.5749 31.3839 38.3499 31.6793 38.1742 31.9647C38.0953 32.0927 38.1651 32.1052 38.0845 32.2184C37.8918 32.4887 37.7009 32.715 37.4618 32.9394C37.4401 32.9597 37.4907 32.7526 37.3446 32.9474C37.1075 33.2631 36.7605 33.6104 36.5171 33.997C36.4449 34.1116 36.5555 34.214 36.2871 34.3657C36.2303 34.3972 36.1488 34.2212 36.0398 34.5751C36.0234 34.634 35.7883 35.1967 35.4936 35.3012C35.4165 35.3293 35.1811 35.3582 35.0819 35.4871C35.0687 35.505 35.1879 35.5009 35.0971 35.6003C34.7753 35.9492 34.4014 36.2769 34.0451 36.6102C33.9497 36.6994 34.1521 36.6379 34.0075 36.7688C33.61 37.1293 33.0636 37.5205 32.6196 37.7988C32.4558 37.9015 32.526 37.7686 32.5101 37.7706C32.2565 37.7989 32.2388 38.0079 32.1815 38.0578C31.8252 38.3634 31.4812 38.486 31.1224 38.7198C31.0228 38.7841 31.1347 38.8096 31.1178 38.8275C30.9389 39.0092 31.0275 38.7962 30.8852 38.8594C30.4858 39.0355 30.0635 39.264 29.6721 39.4637C29.5288 39.5368 29.7313 39.5405 29.6017 39.605C28.8341 39.9883 27.9957 40.3141 27.187 40.5282C27.0342 40.5683 27.1067 40.4708 27.0706 40.4659C26.8223 40.4301 26.5533 40.6701 26.4833 40.7052C26.1693 40.8652 26.0209 40.8408 25.7281 40.9273C24.2936 41.3596 22.4393 41.5542 21.0316 41.5451C20.8909 41.5454 20.7524 41.544 20.6157 41.5412C18.9736 41.499 17.6472 41.2962 16.0702 40.9687C15.9615 40.9454 16.0505 41.0607 15.9564 41.0415C14.7409 40.7871 13.5858 40.3748 12.4325 39.913C12.3376 39.8746 12.4387 40.014 12.2849 39.9546C11.9689 39.8331 11.5836 39.6489 11.2903 39.471C11.1476 39.3846 11.3806 39.4166 11.2369 39.331C10.9032 39.1312 10.5417 38.929 10.19 38.7418C10.0404 38.662 10.2163 38.8688 10.025 38.7583C8.72334 38.0041 7.51066 37.1248 6.47447 36.0106C6.40344 35.9339 6.46201 35.7388 6.27981 35.6129C6.23267 35.6381 6.19183 35.6819 6.14891 35.716C4.55371 34.2206 3.27912 32.4371 2.25551 30.5084C2.21241 30.4269 2.20186 30.6136 2.11799 30.4554C1.6346 29.5381 1.20189 28.6202 0.94112 27.5885C0.915735 27.4863 1.09326 27.4815 0.971282 27.1989C0.948582 27.1495 0.786679 26.7149 0.718504 26.6105C0.708528 26.5964 0.656118 26.7006 0.611442 26.5575C0.353127 25.7224 0.17031 24.8248 0.0830028 23.9582C0.0691554 23.8181 0.176109 23.9527 0.167162 23.8531C0.103955 23.1534 -0.0359569 22.3963 0.00856391 21.7183C0.0405703 21.2693 0.19503 21.429 0.332302 21.19C0.351377 21.1564 0.350173 20.8824 0.434535 20.8675C0.645518 20.8301 0.878304 20.9576 1.103 20.9018C1.15074 20.8903 1.09773 20.537 1.2154 20.7459C1.22292 20.7607 1.26433 21.0152 1.30583 21.0765C1.33423 21.1192 1.41802 21.0396 1.45514 21.1269C1.49236 21.2137 1.42328 21.3125 1.47034 21.4561C1.51855 21.5997 1.61147 21.5299 1.63907 21.8188ZM30.3736 2.80508C30.5475 2.99421 30.7258 2.75133 30.4579 2.68491C30.4447 2.68203 30.3645 2.79551 30.3736 2.80508ZM4.08297 8.87387C4.37467 8.69329 4.35094 8.40458 4.13429 8.52448C3.91726 8.64693 3.99391 8.93016 4.08297 8.87387ZM2.47444 11.7455C2.73236 11.4619 2.3828 11.2146 2.27862 11.6128C2.27253 11.636 2.45943 11.7623 2.47444 11.7455ZM0.428979 22.2739C0.432456 22.2703 0.422044 22.0742 0.418023 22.0697C0.315669 21.9714 0.336483 22.3655 0.428979 22.2739ZM1.37484 14.8044C1.46215 14.7121 1.50103 14.3758 1.3892 14.4903C1.29814 14.5834 1.26473 14.9209 1.37484 14.8044ZM38.7032 12.0366C38.7009 12.0419 38.7568 12.1692 38.7783 12.156C38.848 12.1129 38.7436 11.9472 38.7032 12.0366ZM0.512824 20.2306C0.551295 19.4156 0.942152 18.9552 0.85286 19.8241C0.838454 19.9817 0.757347 19.4788 0.716108 19.6784C0.641123 20.0458 0.854715 20.2957 0.735928 20.673C0.713432 20.7426 0.508695 20.2779 0.512367 20.2291C0.512519 20.2296 0.512671 20.2301 0.512824 20.2306ZM30.3222 3.18701C30.3246 3.19262 30.4905 3.29028 30.4964 3.28934C30.6346 3.25824 30.2988 3.06031 30.3222 3.18701ZM40.4568 19.8793C40.45 19.89 40.4546 20.3328 40.4614 20.3474C40.6231 20.5777 40.6149 19.6747 40.4568 19.8793ZM17.8275 1.09193C17.6363 1.21512 17.3946 1.26515 17.2109 1.17547C17.4156 1.14646 17.6223 1.11492 17.8275 1.09193Z" fill="white"/>
<path d="M16.5854 28.2103C16.3191 27.9441 16.2949 27.5274 16.5128 27.2338L16.5854 27.1497L23.0547 20.68L16.5854 14.2103C16.3191 13.9441 16.2949 13.5274 16.5128 13.2338L16.5854 13.1497C16.8517 12.8834 17.2683 12.8592 17.5619 13.077L17.6461 13.1497L24.6461 20.1497C24.9123 20.4159 24.9365 20.8326 24.7187 21.1262L24.6461 21.2103L17.6461 28.2103C17.3532 28.5032 16.8783 28.5032 16.5854 28.2103Z" fill="white"/>
</svg>
