<svg width="42" height="41" viewBox="0 0 42 41" fill="none" xmlns="http://www.w3.org/2000/svg">
<path d="M0.000253229 19.1871C0.0145778 18.4462 0.155407 17.4859 0.324737 16.7678C0.377197 16.5432 0.408534 16.6675 0.448092 16.5138C0.526056 16.2152 0.561362 15.9251 0.655413 15.6332C0.686969 15.5366 0.739506 15.6785 0.770777 15.5772C0.942338 15.0234 1.07148 14.4905 1.27244 13.9379C2.26357 11.2246 3.743 8.75307 5.7197 6.62782C6.37046 5.92421 7.26327 5.17946 8.00727 4.53493C8.094 4.45935 7.99444 4.4453 8.00762 4.42678C8.21846 4.13836 8.22199 4.32643 8.41069 4.2042C9.16096 3.72018 9.98196 3.17917 10.7077 2.72779C11.017 2.53641 10.6274 2.58926 10.988 2.48068C11.0129 2.47318 10.9703 2.58639 11.0615 2.54529C11.2679 2.45108 11.6397 2.24041 11.7997 2.16824C12.1074 2.02903 12.1571 2.00461 12.4465 1.87151C12.8437 1.69076 13.3351 1.52669 13.7662 1.34605C13.8584 1.30724 13.706 1.27839 13.8512 1.20987C13.9961 1.14056 14.3974 1.00794 14.5393 0.98234C14.6808 0.955902 14.6425 1.0349 14.6709 1.04082C14.9044 1.09165 15.3186 0.79287 15.3799 0.772521C16.4645 0.394401 17.4566 0.300597 18.5173 0.171969C19.3196 0.0750748 20.1785 -0.00456241 20.9531 0.000180286C20.9595 0.000211241 20.966 0.000247559 20.9724 0.000289257C21.9002 0.00878565 22.675 0.103268 23.5666 0.207668C23.6605 0.219109 23.5626 0.111197 23.6776 0.125262C24.9011 0.276637 26.1028 0.559345 27.2481 0.996838C27.3629 1.04097 27.187 1.07075 27.2997 1.11957C27.9951 1.41044 29.0079 2.00656 29.5604 1.87344C30.0165 2.09925 30.5602 2.39665 30.9195 2.68361C31.1505 2.86873 30.86 2.80567 31.1884 2.95164C31.2623 2.98512 31.2119 2.86365 31.3198 2.91943C31.7751 3.15519 32.2303 3.48021 32.6681 3.73851C32.7573 3.79092 32.7752 3.71703 32.8065 3.72357C33.069 3.78195 33.2967 4.16607 33.3586 4.23018C33.8392 4.71725 34.238 5.00698 34.7031 5.43392C34.8105 5.53349 34.7475 5.34605 34.8533 5.43987C35.401 5.92827 35.9257 6.48295 36.3641 7.05209C36.4613 7.17891 36.3041 7.12109 36.3471 7.1843C36.5357 7.46236 36.7008 7.42192 36.8777 7.69366C36.9149 7.7509 36.8368 7.76431 36.8386 7.77873C36.8651 8.00349 37.1004 8.0318 37.134 8.06953C37.5569 8.54138 37.6439 8.97373 37.9936 9.4655C38.0356 9.52482 38.0208 9.3393 38.1342 9.50957C38.8894 10.6444 39.5201 11.9569 39.9295 13.2396C39.9933 13.4393 39.8789 13.3226 39.8759 13.3378C39.832 13.5822 40.0371 13.6528 40.066 13.7154C40.2888 14.2085 40.2956 14.7277 40.5875 15.0257C41.0199 16.8069 41.3217 18.6204 41.2547 20.4426C41.2381 20.8932 41.1994 21.3335 41.1346 21.7779C41.1306 21.8063 41.0504 21.7497 41.0428 21.8063C40.9447 22.4857 41.0828 22.3607 41.1916 22.8358C41.2186 22.9565 40.9818 23.2785 40.963 23.3059C40.8957 23.4093 40.7888 23.2768 40.7735 23.3124C40.6503 23.6034 41.0669 23.6188 40.9947 24.0366C40.9917 24.0494 40.9267 23.9816 40.9131 24.0151C40.8706 24.119 40.8803 24.2314 40.8342 24.3316C40.7272 24.5604 40.5151 24.6042 40.5462 24.9923C40.5497 25.0416 40.7965 25.0242 40.6958 25.3879C40.658 25.5324 40.485 26.1778 40.4137 26.35C40.3449 26.5232 40.3102 26.379 40.3032 26.3908C40.0588 26.8374 40.0754 26.644 39.8579 26.8323C39.6394 27.0176 39.9923 27.0673 39.9956 27.1765C39.9993 27.2858 39.7951 27.6009 39.7356 27.6734C39.6767 27.7465 39.6722 27.6253 39.6285 27.6934C39.3374 28.1418 39.7048 27.9724 39.691 28.1551C39.6545 28.588 39.284 28.7792 39.101 29.1038C39.051 29.1921 39.1403 29.1431 39.1058 29.2271C38.967 29.5597 38.7976 29.7137 38.6686 30.107C38.648 30.1709 38.6224 30.5383 38.414 30.6654C38.3844 30.683 38.3721 30.5765 38.2821 30.7004C38.148 30.8855 37.9192 31.2265 37.8027 31.4425C37.7167 31.6023 37.9203 31.488 37.7663 31.66C37.6976 31.7359 37.7503 31.5455 37.6255 31.6904C37.5022 31.8353 37.2258 32.2305 37.1172 32.3785C37.0097 32.5268 37.1343 32.4948 37.1299 32.5099C37.1018 32.6011 36.9166 32.9059 36.8966 32.9301C35.9239 34.1812 34.799 35.1224 33.6423 36.1212C33.5509 36.1994 33.6668 36.2156 33.6534 36.2282C33.3524 36.5137 33.4661 36.1341 33.1944 36.2504C33.3332 36.3616 33.1811 36.4421 32.9601 36.6302C32.8535 36.7207 32.9543 36.7295 32.9482 36.7426C32.8408 36.9483 32.6449 36.9254 32.5994 36.9247C32.4305 36.923 32.3745 37.1038 32.2598 37.1017C32.146 37.0993 32.2678 36.8997 32.0402 37.0545C32.01 37.1492 32.2717 37.1695 32.1104 37.3085C31.504 37.8467 30.129 38.4608 29.5404 38.7087C28.9555 38.9663 28.7666 39.0528 28.4137 39.1717C27.7725 39.3777 28.0444 39.4006 27.6683 39.5947C27.2874 39.7844 27.3866 39.4366 27.3093 39.396C27.2337 39.3543 27.1936 39.4365 27.1134 39.4257C27.0336 39.4148 27.1695 39.3256 27.0035 39.3652C26.8379 39.406 26.4258 39.6454 26.3837 39.725C26.2972 39.8948 26.543 39.9829 26.0852 40.0513C26.0589 40.0549 26.1221 39.9581 26.0225 39.9759C25.2367 40.118 24.4208 40.2731 23.6279 40.3248C23.5189 40.3317 23.6042 40.2332 23.5408 40.2361C22.881 40.2604 23.1308 40.3761 22.7846 40.5731C22.8456 40.3498 22.6367 40.2419 22.1402 40.2711C21.8402 40.2869 21.8984 40.3776 21.7065 40.4519C21.6489 40.4744 21.4345 40.4157 21.3969 40.4606C21.2719 40.607 21.478 40.7693 20.9531 40.7079C20.9529 40.7079 20.9527 40.7079 20.9525 40.7079C20.9443 40.7068 20.9482 40.6962 20.9531 40.6828C20.9596 40.6651 20.9678 40.6425 20.9531 40.63C20.9473 40.625 20.9379 40.6216 20.9233 40.6207C20.4119 40.5853 20.3492 40.736 19.7937 40.7266C19.3557 40.7194 18.5956 40.5546 18.111 40.4679C18.1542 40.23 17.6931 40.2178 17.4778 40.3485C17.1637 40.2873 16.8245 40.2294 16.5271 40.139C16.4251 40.1079 16.5088 40.0548 16.4974 40.0444C16.3248 39.8833 16.1541 40.0085 16.0853 39.9981C15.3438 39.8763 14.7997 39.5805 14.0902 39.454C14.0652 39.4495 13.9682 39.5943 13.8312 39.4117C13.8229 39.3994 14.0701 39.4107 13.7582 39.2867C13.4452 39.1627 12.8996 38.8388 12.4473 38.7117C12.3382 38.6819 12.0196 38.6814 11.8627 38.482C11.842 38.4553 11.8935 38.4272 11.8666 38.3834C11.7797 38.243 11.6321 38.3584 11.5528 38.1526C11.4739 37.9466 11.2268 37.6914 10.7795 37.5409C10.7654 37.5359 10.6018 37.5957 10.4775 37.5168C10.2795 37.3914 10.0155 37.1885 9.81312 37.053C9.71608 36.9881 9.73107 37.0993 9.7134 37.0892C9.03466 36.6826 8.62767 36.2834 8.00486 35.717C7.89112 35.6137 7.47966 35.406 7.32188 35.1346C7.1514 34.837 7.67166 34.7728 7.0761 34.3254C6.84094 34.1452 6.19019 34.2261 6.02781 33.6353C5.27697 32.885 4.79792 32.0222 4.1471 31.1863C4.11792 31.1488 3.91373 31.099 3.85591 31.0015C3.77043 30.857 3.78165 30.7433 3.72472 30.6387C3.48834 30.1994 3.21879 29.8256 3.01086 29.3899C2.93244 29.2243 3.02345 29.2506 2.93257 29.0531C2.84296 28.8559 2.69698 28.7629 2.61863 28.4742C2.56003 28.2552 2.64872 27.9786 2.56204 27.6995C2.38455 27.7579 2.31168 27.5689 2.14222 27.2465C2.1097 27.1846 2.07371 27.2766 2.05516 27.2484C1.9782 27.1336 1.98826 26.9987 1.91288 26.8899C1.89464 26.8634 1.83368 26.8823 1.81537 26.8616C1.65624 26.6856 1.68731 26.3 1.69469 26.2356C1.71899 25.9851 1.60995 25.9035 1.59858 25.7204C1.58813 25.5382 1.70254 25.7836 1.67055 25.5768C1.60467 25.15 1.47186 24.6137 1.39451 24.1856C1.36317 24.0147 1.3013 24.1468 1.29486 24.1227C1.20699 23.771 1.24192 23.3957 1.04681 23.2215C1.44917 22.9148 0.972073 23.0121 1.00409 22.4833C1.00715 22.442 1.20833 22.3706 1.25443 22.5216C1.30062 22.6726 1.26325 22.914 1.33926 23.1203C1.35667 23.1701 1.59059 23.4271 1.60874 23.4637C1.74747 23.753 1.45121 23.8477 1.4369 23.8674C1.28725 24.0847 1.5617 24.396 1.59541 24.4835C1.74782 24.8899 1.79078 25.2493 1.92959 25.5833C2.02057 25.801 2.22252 25.7669 2.26699 25.942C2.41888 26.5201 2.22085 26.8189 2.6478 27.2698C2.74055 27.3657 2.90205 27.174 2.89827 27.6413C2.8975 27.6704 2.87164 28.0312 3.03993 28.1642C3.06096 28.1807 3.12004 28.1543 3.13733 28.1805C3.2523 28.356 3.26192 28.5028 3.37992 28.6963C3.49778 28.8892 3.65028 29.1159 3.74894 29.3533C3.80815 29.4964 3.79622 29.7283 3.80661 29.8084C3.83365 30.0353 4.0674 30.1626 4.0445 30.3269C4.02282 30.4937 3.75378 30.3487 3.87606 30.6848C4.02688 30.6094 4.18994 30.5456 4.34513 30.4755C4.72939 31.1213 5.10495 31.7639 5.57493 32.3578C5.63336 32.4311 5.64579 32.3001 5.7102 32.3768C5.98182 32.6992 6.16913 33.0243 6.47996 33.3352C6.72097 33.5754 7.04478 33.7802 7.30999 34.0124C7.32465 34.3019 7.75037 34.623 8.02393 34.8893C8.1198 34.983 8.07916 35.0154 8.13997 35.0912C8.37214 35.3747 8.35539 35.1346 8.44736 35.1783C8.84263 35.3609 8.6255 35.6823 9.03061 35.9852C9.05225 36.0022 9.43494 36.0337 9.4779 36.0486C9.75468 36.1478 9.4732 36.1341 9.60791 36.2503C9.85482 36.461 10.0144 36.6309 10.3658 36.7884C10.469 36.8345 10.7598 36.8681 10.892 37.0634C10.9094 37.0891 10.8609 37.1391 10.8784 37.1543C11.1997 37.4237 11.318 37.2431 11.5564 37.2951C11.7948 37.3468 12.0438 37.6437 12.0914 37.7151C12.2139 37.9011 11.9378 37.6889 11.9239 37.6931C11.7549 37.7487 12.0007 37.8542 12.1787 37.9551C12.1109 38.1554 12.3763 38.2716 12.364 38.0585C12.3623 38.0352 12.211 37.9822 12.1787 37.9551C12.4317 37.8529 12.7166 37.9633 12.9532 38.2794C13.065 38.4266 12.8808 38.4638 13.3526 38.6228C13.5667 38.6929 13.5412 38.527 13.7381 38.5639C14.1869 38.6478 14.6884 38.9684 15.1408 39.086C15.3033 39.1282 15.1705 39.0049 15.2821 39.0308C15.5776 39.0983 15.8202 39.2276 16.1242 39.2743C16.1516 39.2783 16.1069 39.182 16.1985 39.2041C16.8935 39.3684 17.4966 39.5419 18.2389 39.6488C18.597 39.702 19.2454 39.7241 19.618 39.7562C20.0373 39.795 20.5101 39.8649 20.9531 39.8934C21.1973 39.9094 21.4277 39.9133 21.6254 39.8962C21.9873 39.8638 21.9028 39.7834 22.0551 39.7194C22.3468 39.5961 22.8853 39.743 22.9609 39.7642C22.963 39.7655 22.6551 39.8143 22.8245 39.8407C22.9295 39.9193 22.9574 39.7649 22.9609 39.7642C23.0102 39.7812 23.6336 39.7251 23.753 39.6891C23.8182 39.671 23.7697 39.5991 23.8038 39.5911C24.6171 39.4002 25.4184 39.2086 26.2377 39.0141C26.2524 39.0116 26.2547 39.1017 26.2891 39.0946C26.7691 38.9968 27.0371 38.7962 27.3922 38.604C27.7476 38.4106 28.0477 38.3141 28.3247 38.3623C28.5978 38.2306 29.0233 38.1133 29.2677 38.0411C29.5125 37.9692 29.4691 37.7995 29.4873 37.7871C30.0524 37.3846 30.4434 37.281 31.0613 36.9233C31.3558 36.7543 31.9025 36.3624 32.1876 36.1316C32.4134 35.9505 32.5769 35.8778 32.7725 35.6943C32.7989 35.6695 32.7237 35.632 32.7306 35.623C32.9078 35.3692 32.9102 35.602 32.9791 35.5899C33.2281 35.5445 33.3793 35.5062 33.6351 35.2132C33.6949 35.1452 33.7121 34.776 33.8185 34.658C33.9581 34.5039 33.9654 34.6273 34.1087 34.462C34.1209 34.4478 34.078 34.4077 34.1767 34.3175C34.6339 33.8979 35.1272 33.4295 35.5433 32.9341C35.6002 32.8666 35.4559 32.8918 35.5363 32.7935C35.9138 32.3323 36.3133 31.8175 36.6806 31.3649C36.7713 31.2535 36.774 31.3645 36.8077 31.3499C37.0145 31.2581 37.0223 30.9356 37.0433 30.8968C37.5499 29.9594 38.0792 29.3157 38.4637 28.2924C38.4857 28.2359 38.4977 27.7489 38.7172 27.6209C38.7319 27.6126 38.9569 27.4843 38.9177 27.2778C38.9151 27.2651 38.7937 27.3526 38.8786 27.1514C38.9638 26.9492 39.028 26.6032 39.2063 26.3451C39.2626 26.264 39.4851 26.095 39.4414 25.7853C39.4395 25.7636 39.2772 25.2681 39.5069 25.1674C39.5443 25.151 39.7448 25.2286 39.7187 24.872C39.713 24.804 39.6407 24.9078 39.6504 24.7351C39.6647 24.4708 39.7904 24.1429 39.7536 23.8113C39.7473 23.7529 39.6463 23.497 39.7818 23.3259C39.8031 23.2991 39.8644 23.3655 39.887 23.2674C39.9945 22.7998 40.0026 22.2936 40.0851 21.8124C40.1139 21.6409 40.2219 21.7369 40.2632 21.557C40.3048 21.3764 40.3481 21.013 40.299 20.8209C40.2499 20.6299 40.0661 20.8341 40.0542 20.5514C40.0526 20.5152 40.051 20.4789 40.0494 20.4426C39.9976 19.2584 39.9909 18.0783 39.7878 16.9054C39.7562 16.727 39.7214 16.8862 39.6683 16.6258C39.4849 15.6553 38.9263 14.0599 38.7157 13.222C38.5537 12.5455 38.9662 13.3126 38.8024 12.8079C38.721 12.5624 38.4135 12.399 38.3818 12.3473C38.0677 11.8359 37.959 11.4263 37.6688 10.9701C37.6086 10.8766 37.5883 11.0134 37.5379 10.9338C37.3653 10.6628 37.2219 10.3545 37.0493 10.0996C36.9716 9.98563 36.9307 10.0426 36.8654 9.93435C36.7078 9.67606 36.5774 9.44052 36.4525 9.16491C36.4409 9.13964 36.6145 9.2397 36.4837 9.05538C36.2716 8.75803 36.0384 8.3603 35.7192 8.07739C35.624 7.9937 35.5087 8.08664 35.4112 7.81736C35.3903 7.76139 35.5729 7.69516 35.2485 7.56501C35.194 7.54092 34.6886 7.30125 34.6046 7.02679C34.5829 6.95392 34.5642 6.72691 34.4399 6.63793C34.4228 6.62637 34.4251 6.74052 34.3306 6.65948C33.9986 6.37344 33.6648 6.05917 33.3053 5.78886C33.2093 5.71708 33.2923 5.89494 33.151 5.78662C32.7633 5.48917 32.2924 5.10244 31.915 4.80719C31.776 4.69811 31.9152 4.71157 31.909 4.6981C31.8077 4.47931 31.6125 4.54666 31.5507 4.51684C31.1646 4.32908 30.9294 4.09239 30.5795 3.91111C30.483 3.86124 30.5103 3.96764 30.4881 3.96283C30.2609 3.91072 30.4751 3.87153 30.3595 3.78789C30.0348 3.55324 29.6389 3.35277 29.2716 3.18683C29.1369 3.12635 29.247 3.27975 29.127 3.22502C28.4159 2.90344 27.6656 2.59397 26.9575 2.30761C26.8238 2.25354 26.9315 2.21539 26.9079 2.19084C26.7437 2.01914 26.407 2.07697 26.3367 2.07197C26.0142 2.04758 25.9111 1.95614 25.6368 1.89815C24.2999 1.61015 22.63 1.35634 21.335 1.31553C21.2059 1.31052 21.0787 1.30662 20.9531 1.30378C19.446 1.27652 18.203 1.35781 16.7505 1.69089C16.6506 1.71434 16.7718 1.78236 16.6864 1.80381C15.5865 2.07778 14.5086 2.38883 13.4725 2.85897C13.3875 2.89755 13.5455 2.92564 13.411 2.99035C13.1351 3.1238 12.7842 3.28141 12.4943 3.39469C12.3531 3.45005 12.5007 3.29158 12.359 3.34913C12.0288 3.48356 11.6894 3.65954 11.3801 3.85496C11.2489 3.93835 11.4963 3.89859 11.3231 4.00089C10.1455 4.70389 9.07474 5.51514 7.97376 6.37104C7.89859 6.42973 7.71127 6.35301 7.58754 6.5202C7.61167 6.56754 7.65376 6.61007 7.68664 6.65387C6.26578 8.06257 5.00316 9.61913 4.04068 11.3908C4.00043 11.4652 4.15472 11.3822 4.07774 11.5263C3.63345 12.3641 3.28977 13.212 2.87654 14.0952C2.83617 14.1831 2.68974 14.0796 2.6231 14.3597C2.61053 14.4088 2.50156 14.8273 2.50698 14.944C2.50811 14.9599 2.60655 14.908 2.56981 15.0406C2.35496 15.8141 2.15392 16.6256 1.9806 17.4116C1.95255 17.5388 1.89004 17.3888 1.86941 17.4796C1.72395 18.1224 1.71741 18.8405 1.6101 19.467C1.53959 19.8847 1.40023 19.7237 1.24894 19.9469C1.2273 19.9786 1.21975 20.245 1.136 20.2584C0.924275 20.2928 0.694236 20.1581 0.468372 20.21C0.419027 20.2208 0.470494 20.5938 0.353669 20.3727C0.345471 20.3572 0.30919 20.0861 0.271268 20.0185C0.244744 19.9714 0.157472 20.0538 0.124351 19.9576C0.0914254 19.8612 0.165812 19.7587 0.130678 19.5997C0.0957752 19.4399 -0.00602488 19.5073 0.000253229 19.1871ZM30.3644 37.6839C30.6108 37.6413 30.4942 37.3637 30.3079 37.5485C30.299 37.5577 30.3518 37.6862 30.3644 37.6839ZM4.93094 31.8835C5.0044 32.2125 5.28809 32.2646 5.24034 32.0303C5.19469 31.7973 4.90936 31.7841 4.93094 31.8835ZM3.20206 29.1845C3.27174 29.5569 3.67439 29.4119 3.42595 29.1086C3.41176 29.0909 3.19811 29.1629 3.20206 29.1845ZM1.26202 18.8873C1.25759 18.8902 1.23979 19.0811 1.24363 19.086C1.33108 19.1937 1.36625 18.8139 1.26202 18.8873ZM1.92784 26.2524C1.90525 26.3777 2.06942 26.671 2.09388 26.5141C2.11301 26.3887 1.95511 26.097 1.92784 26.2524ZM38.965 29.0499C38.9707 29.0485 39.0337 28.9249 39.0096 28.9167C38.9324 28.8908 38.8705 29.0738 38.965 29.0499ZM1.06582 20.8873C1.07166 21.6861 0.764202 22.212 0.752742 21.3171C0.752525 21.1567 0.880681 21.6573 0.902399 21.4517C0.942356 21.0795 0.716001 20.8355 0.832922 20.4497C0.85358 20.3814 1.06512 20.8428 1.06634 20.8887C1.06617 20.8883 1.06599 20.8878 1.06582 20.8873ZM30.6578 37.9323C30.664 37.9337 30.8337 37.8425 30.8357 37.8366C30.8791 37.7032 30.5391 37.886 30.6578 37.9323ZM41.0801 21.2546C41.0901 21.2447 41.1107 20.7953 41.1019 20.7802C40.9531 20.5449 40.9122 21.4462 41.0801 21.2546ZM18.1043 40.4604C17.8821 40.5259 17.6247 40.4961 17.4787 40.3488C17.6854 40.3911 17.8963 40.4252 18.1043 40.4604Z" fill="white"/>
<path d="M24.9835 12.9123C25.2497 13.1786 25.2739 13.5952 25.0561 13.8888L24.9835 13.973L18.5141 20.4426L24.9835 26.9123C25.2497 27.1786 25.2739 27.5952 25.0561 27.8888L24.9835 27.973C24.7172 28.2392 24.3005 28.2634 24.0069 28.0456L23.9228 27.973L16.9228 20.973C16.6565 20.7067 16.6323 20.29 16.8502 19.9964L16.9228 19.9123L23.9228 12.9123C24.2157 12.6194 24.6906 12.6194 24.9835 12.9123Z" fill="white"/>
</svg>
