<svg preserveAspectRatio="none" width="100%" height="100%" overflow="visible" style="display: block;" viewBox="0 0 208 2" fill="none" xmlns="http://www.w3.org/2000/svg">
<path id="Line 1" d="M1.98121 0.0101698C3.14679 -0.015883 4.67466 0.0119737 5.83583 0.0502087C6.19974 0.0620673 6.01547 0.115075 6.26668 0.125648C6.758 0.146258 7.21573 0.120261 7.70125 0.144813C7.86216 0.153209 7.66187 0.237174 7.83059 0.244056C8.75516 0.281163 9.62983 0.259777 10.5664 0.277625C15.1798 0.365685 19.7147 0.397205 24.3845 0.435461C25.9243 0.448004 27.7961 0.524206 29.3865 0.490881C29.5721 0.486916 29.4615 0.413216 29.4968 0.407141C30.0508 0.31415 29.8666 0.462935 30.2283 0.482702C31.6641 0.560754 33.2606 0.567542 34.6423 0.539099C35.2302 0.526782 34.6408 0.380395 35.2327 0.462561C35.2738 0.468112 35.1246 0.546377 35.2858 0.554724C35.6514 0.573498 36.345 0.559509 36.6284 0.56571C37.1744 0.578057 37.2648 0.577269 37.7813 0.578161C38.4873 0.580061 39.3271 0.618966 40.0847 0.601232C40.2464 0.597215 40.0323 0.516985 40.2902 0.503332C40.5483 0.489702 41.2311 0.496505 41.4613 0.515417C41.6916 0.534339 41.5936 0.597399 41.6343 0.611852C41.9695 0.733849 42.7594 0.564884 42.861 0.560705C44.714 0.489506 46.3029 0.58576 48.0423 0.585485C49.3627 0.585073 50.7746 0.553296 52.031 0.557653C53.5278 0.563155 54.7965 0.606631 56.2506 0.599157C56.4041 0.598461 56.2242 0.504129 56.4117 0.503088C58.4031 0.492111 60.3806 0.502394 62.3634 0.566076C62.5623 0.572546 62.306 0.655368 62.5047 0.666784C63.721 0.734849 65.6456 0.898357 66.368 0.537756C67.1919 0.551837 68.1922 0.566385 68.9293 0.639074C69.4045 0.685858 68.9429 0.776084 69.5268 0.737585C69.6584 0.729007 69.4872 0.649991 69.6847 0.643102C70.516 0.614176 71.4243 0.639861 72.2467 0.599035C72.414 0.590545 72.3683 0.519744 72.4157 0.506994C72.8141 0.403741 73.4772 0.574425 73.6218 0.586828C74.7226 0.679315 75.5265 0.642919 76.552 0.645178C76.79 0.645741 76.5087 0.550639 76.7377 0.547766C77.9254 0.534136 79.1557 0.54231 80.3186 0.584509C80.5773 0.594124 80.3394 0.675134 80.463 0.683874C81.008 0.721424 81.1289 0.568417 81.6516 0.601477C81.7618 0.60825 81.6997 0.6776 81.7198 0.685217C82.0344 0.804778 82.3078 0.635368 82.3887 0.631628C83.4123 0.580523 84.0667 0.757378 85.0555 0.732335C85.1738 0.729161 84.9071 0.641412 85.2396 0.637853C87.4551 0.61363 89.7982 0.637735 91.9912 0.707922C92.3321 0.718716 92.0887 0.784634 92.1102 0.79276C92.4599 0.919728 92.6861 0.749606 92.7973 0.7432C93.6744 0.697082 94.4937 0.839748 95.0896 0.637121C98.8041 0.707439 102.502 0.593653 106.185 0.775182C106.232 0.777285 106.148 0.86107 106.242 0.864903C107.367 0.911948 107.151 0.781731 107.895 0.622473C108.083 0.582482 108.653 0.77476 108.704 0.788854C108.888 0.840791 108.697 0.96544 108.759 0.975499C109.268 1.05448 109.185 0.642259 109.873 0.642126C109.894 0.642813 109.804 0.718688 109.861 0.726232C110.041 0.749917 110.218 0.719767 110.394 0.745885C110.795 0.806321 110.938 1.00663 111.552 0.89005C111.629 0.87492 111.511 0.64109 112.124 0.652136C112.369 0.656738 113.452 0.65273 113.756 0.667883C114.059 0.683018 113.851 0.758369 113.872 0.761632C114.689 0.861272 114.38 0.902568 114.789 1.05008C115.198 1.19704 115.085 0.846531 115.251 0.807409C115.419 0.768397 116.017 0.850607 116.165 0.879186C116.312 0.907777 116.128 0.955658 116.259 0.971837C117.126 1.07755 116.64 0.797855 116.926 0.742223C117.599 0.610497 118.124 0.870438 118.741 0.895909C118.908 0.902788 118.772 0.843585 118.92 0.838048C119.509 0.816904 119.863 0.898013 120.533 0.823644C120.642 0.811525 121.184 0.655241 121.534 0.769933C121.584 0.786471 121.443 0.851248 121.693 0.865758C122.068 0.887534 122.743 0.901692 123.146 0.88004C123.444 0.86402 123.103 0.757283 123.477 0.790441C123.644 0.805246 123.335 0.867688 123.648 0.890294C123.959 0.912893 124.754 0.91015 125.056 0.907994C125.358 0.905791 125.193 0.824826 125.217 0.819371C125.365 0.788126 125.944 0.749085 125.996 0.749181C128.579 0.739297 130.961 0.875772 133.476 0.830602C133.673 0.827174 133.541 0.741795 133.572 0.740392C134.247 0.70462 133.715 0.931622 134.187 1.0076C134.118 0.834345 134.397 0.865716 134.873 0.846715C135.102 0.837418 134.977 0.770331 134.998 0.763463C135.338 0.661566 135.575 0.79318 135.636 0.820104C135.861 0.919144 136.107 0.802121 136.26 0.868321C136.413 0.934027 136.06 1.03143 136.517 1.03019C136.645 0.968165 136.306 0.806089 136.653 0.779821C137.96 0.680461 140.401 0.807627 141.452 0.820836C142.501 0.834035 142.84 0.822592 143.452 0.845006C144.556 0.885533 144.151 0.765283 144.837 0.710241C145.525 0.655205 145.191 0.951079 145.289 1.01468C145.386 1.07826 145.492 1.01281 145.613 1.04776C145.733 1.08271 145.473 1.12595 145.756 1.13907C146.039 1.15218 146.813 1.03907 146.914 0.972569C147.126 0.831672 146.777 0.683794 147.526 0.735753C147.569 0.738837 147.429 0.816636 147.594 0.824498C148.905 0.884391 150.266 0.888103 151.575 0.941075C151.755 0.948481 151.594 1.03503 151.699 1.04032C152.79 1.09568 152.4 0.949745 152.998 0.787633C152.864 1.00337 153.194 1.13536 154.022 1.13663C154.52 1.13747 154.434 1.04325 154.756 0.976842C154.853 0.956823 155.205 1.02152 155.269 0.977208C155.479 0.83236 155.147 0.670211 156.001 0.734777C156.039 0.737845 155.919 0.817133 156.049 0.821935C156.885 0.853365 156.985 0.701856 157.889 0.683508C158.598 0.66911 159.859 0.761499 160.666 0.776525C160.649 1.01907 161.411 0.963534 161.72 0.7963C162.244 0.803147 162.81 0.793693 163.316 0.816808C163.49 0.824689 163.376 0.894913 163.398 0.902501C163.735 1.02153 163.962 0.858831 164.075 0.852452C165.301 0.790448 166.299 0.913761 167.468 0.793248C167.51 0.788908 167.577 0.620426 167.889 0.743444C167.91 0.751924 167.523 0.82858 168.074 0.834508C168.624 0.840449 169.661 0.930768 170.425 0.852696C170.609 0.833901 171.077 0.697128 171.452 0.803991C171.502 0.818502 171.447 0.866823 171.52 0.893712C171.753 0.979391 171.88 0.809097 172.154 0.95377C172.428 1.09844 172.999 1.20678 173.769 1.10697C173.794 1.10407 173.976 0.969092 174.218 0.971226C174.605 0.974749 175.154 1.00287 175.557 1.00199C175.751 1.00152 175.627 0.917706 175.661 0.916173C176.96 0.869207 177.886 0.943926 179.278 0.976353C179.533 0.982464 180.267 0.868173 180.761 0.958531C181.304 1.05745 180.746 1.46891 181.993 1.37088C182.496 1.33167 183.133 0.809653 184.037 1.08011C185.79 1.01309 187.412 1.15151 189.17 1.05582C189.249 1.05158 189.499 0.905889 189.685 0.907872C189.961 0.911098 190.112 0.979192 190.309 0.983677C191.135 1.00419 191.891 0.945929 192.687 0.954991C192.989 0.958284 192.883 1.02869 193.244 1.03263C193.604 1.0365 193.844 0.943782 194.332 0.98856C194.701 1.02269 195.07 1.2122 195.559 1.23429C195.578 1.04736 195.914 1.05121 196.511 1.00187C196.626 0.992292 196.503 0.927231 196.557 0.919347C196.778 0.885814 196.983 0.939735 197.193 0.903233C197.244 0.894467 197.246 0.83063 197.288 0.81986C197.643 0.725848 198.228 0.869442 198.328 0.894444C198.713 0.989396 198.893 0.906369 199.188 0.943761C199.483 0.981147 199.042 1.02788 199.387 1.05057C200.1 1.0975 201.017 1.08719 201.742 1.09012C202.032 1.0909 201.834 1.00569 201.876 1.00382C202.474 0.982207 203.079 1.07285 203.41 0.903111C203.825 1.34199 203.771 0.860543 204.626 0.948399C204.693 0.955505 204.779 1.16305 204.52 1.19352C204.262 1.22396 203.87 1.15908 203.511 1.20658C203.426 1.21772 202.939 1.4122 202.873 1.42398C202.353 1.51605 202.279 1.20591 202.252 1.18888C201.94 1.00505 201.345 1.21456 201.189 1.22904C200.472 1.29537 199.864 1.25176 199.264 1.29911C198.873 1.32971 198.834 1.53286 198.526 1.52664C197.504 1.50609 197.147 1.22269 196.183 1.46842C195.976 1.52083 196.181 1.74287 195.441 1.56827C195.394 1.55726 194.844 1.39754 194.527 1.49857C194.487 1.51131 194.488 1.57602 194.435 1.58145C194.083 1.61662 193.848 1.56506 193.463 1.58975C193.079 1.61445 192.617 1.65125 192.179 1.62931C191.915 1.61618 191.575 1.49562 191.449 1.4661C191.092 1.38107 190.709 1.52048 190.487 1.41751C190.264 1.31403 190.7 1.15687 190.115 1.09C190.093 1.25812 190.044 1.43069 190.009 1.59976C188.726 1.59384 187.464 1.53948 186.177 1.54691C186.018 1.548 186.181 1.63838 186.01 1.64188C185.288 1.65624 184.658 1.59181 183.909 1.61746C183.33 1.63767 182.695 1.73337 182.089 1.75748C181.719 1.5651 180.82 1.63041 180.167 1.61283C179.939 1.60675 179.954 1.55537 179.791 1.53861C179.178 1.47661 179.465 1.64662 179.297 1.67337C178.575 1.78756 178.513 1.40276 177.662 1.41226C177.617 1.41264 177.066 1.61775 176.99 1.63053C176.508 1.71382 176.911 1.55913 176.609 1.54398C176.058 1.51628 175.675 1.4673 175.028 1.52738C174.84 1.54517 174.387 1.67302 174.021 1.57413C173.973 1.56118 174 1.49338 173.961 1.48941C173.259 1.42323 173.241 1.63626 172.84 1.70841C172.439 1.78054 171.819 1.63348 171.693 1.5911C171.363 1.48145 171.946 1.54424 171.964 1.53348C172.174 1.40543 171.722 1.42748 171.377 1.41666C171.327 1.20778 170.844 1.22032 171.019 1.40628C171.039 1.4266 171.307 1.40712 171.377 1.41666C171.074 1.6216 170.543 1.64784 169.957 1.45633C169.683 1.36657 169.942 1.26192 169.109 1.3002C168.731 1.31749 168.877 1.46131 168.543 1.50052C167.781 1.58999 166.79 1.45582 166.004 1.47696C165.719 1.48464 165.997 1.56336 165.802 1.57132C165.285 1.59269 164.828 1.53362 164.309 1.56388C164.261 1.56672 164.377 1.64913 164.215 1.65018C162.99 1.65975 161.923 1.60696 160.644 1.6055C160.026 1.60483 158.922 1.65028 158.281 1.64115C157.172 1.62579 155.807 1.50595 154.859 1.53507C154.241 1.5537 154.377 1.63613 154.112 1.69229C153.601 1.80116 152.696 1.60616 152.574 1.57596C152.57 1.57496 153.102 1.55553 152.818 1.51322C152.653 1.42505 152.58 1.57558 152.574 1.57596C152.494 1.55645 151.431 1.53774 151.22 1.5535C151.106 1.56211 151.17 1.64021 151.11 1.64322C149.689 1.71311 148.266 1.73296 146.825 1.69644C146.799 1.69487 146.838 1.60751 146.778 1.60489C145.944 1.56605 145.409 1.67291 144.721 1.73636C144.033 1.79978 143.488 1.77854 143.08 1.62857C142.561 1.64745 141.816 1.58116 141.388 1.54093C140.959 1.5007 140.9 1.67074 140.862 1.6741C139.686 1.7817 139.006 1.68437 137.786 1.66922C137.206 1.66173 136.055 1.68639 135.427 1.70499C134.93 1.71997 134.631 1.68012 134.174 1.7056C134.112 1.709 134.174 1.78471 134.156 1.78763C133.645 1.87822 133.89 1.69312 133.785 1.66007C133.403 1.53985 133.167 1.47583 132.513 1.53238C132.362 1.54533 131.923 1.81184 131.648 1.82742C131.291 1.8472 131.426 1.75167 131.052 1.77481C131.02 1.77671 131.026 1.83564 130.795 1.83304C129.723 1.82175 128.555 1.78746 127.441 1.79337C127.288 1.79395 127.483 1.88742 127.264 1.8898C126.232 1.90088 125.101 1.89742 124.096 1.85367C123.849 1.84261 124.004 1.77716 123.95 1.75772C123.62 1.64014 123.153 1.81099 123.076 1.81424C121.235 1.89634 119.827 1.74173 117.952 1.81534C117.849 1.81966 117.064 2.00281 116.713 1.84574C116.689 1.83528 116.342 1.67458 116.035 1.78446C116.016 1.79133 116.232 1.87407 115.855 1.86563C115.478 1.85722 114.871 1.91247 114.352 1.82157C114.188 1.79293 113.8 1.63262 113.311 1.76041C113.279 1.76933 112.523 2.05828 112.253 1.85892C112.209 1.8261 112.255 1.61513 111.671 1.7233C111.559 1.74427 111.762 1.79133 111.467 1.82071C111.017 1.866 110.419 1.80949 109.865 1.90347C109.769 1.92011 109.357 2.06331 109.028 1.95462C108.976 1.9376 109.074 1.86717 108.9 1.85929C108.071 1.82148 107.204 1.86859 106.362 1.81986C106.064 1.80273 106.217 1.68887 105.906 1.65836C105.595 1.62786 104.97 1.59851 104.644 1.65055C104.319 1.7026 104.674 1.88407 104.187 1.89859C102.07 1.96166 99.9724 1.8552 97.858 1.83963C97.5444 1.83731 97.8044 1.90224 97.3422 1.90347C95.6384 1.90831 92.6968 1.96919 91.2183 1.83121C90.0337 1.72069 91.5245 1.63656 90.6193 1.59159C90.1825 1.57013 89.7099 1.78111 89.6044 1.78775C88.5743 1.85522 87.8584 1.76176 86.9313 1.79044C86.7398 1.79639 86.9276 1.8819 86.7647 1.88602C86.2081 1.90085 85.6231 1.86268 85.0912 1.86966C84.8526 1.87299 84.8966 1.9383 84.6771 1.93326C84.1517 1.92195 83.6872 1.8945 83.175 1.83328C83.1284 1.82771 83.4431 1.74646 83.0544 1.74344C82.4254 1.73878 81.6446 1.67839 80.9208 1.74076C80.7061 1.75951 80.6977 1.90878 80.2361 1.8057C80.1392 1.78417 80.2628 1.60493 79.7251 1.7598C79.6346 1.78553 78.7314 1.99442 78.2881 1.85977C78.1712 1.82434 77.8727 1.67767 77.6145 1.70072C77.5795 1.70439 77.7197 1.78457 77.5058 1.79239C76.7516 1.81856 75.9613 1.81 75.1865 1.83512C74.9796 1.84198 75.2877 1.92495 74.9794 1.93253C74.1314 1.9535 73.0727 1.93237 72.2436 1.9064C71.9378 1.89667 72.1492 1.82795 72.1269 1.82047C71.7692 1.69882 71.5577 1.86302 71.439 1.87259C70.7006 1.92992 70.1383 1.85279 69.4577 1.8732C69.2699 1.87863 69.4031 1.95692 69.3657 1.9639C68.9779 2.03211 69.2668 1.89151 69.0213 1.87601C68.3337 1.83212 67.5672 1.83842 66.8718 1.84842C66.6164 1.85221 66.9035 1.94299 66.6743 1.94534C65.3176 1.96099 63.9072 1.9523 62.5832 1.90225C62.3339 1.89267 62.4907 1.82276 62.4388 1.80679C62.0807 1.69509 61.5558 1.84746 61.4351 1.86197C60.886 1.92824 60.6727 1.86642 60.1877 1.87796C57.8189 1.93541 54.8939 1.89447 52.6578 1.86917C49.744 1.83662 47.4829 1.77012 44.7042 1.78739C44.5276 1.7884 44.7057 1.88139 44.5534 1.88345C42.5879 1.90587 40.6529 1.86953 38.6834 1.89639C38.5218 1.89843 38.7548 1.98659 38.4954 1.99283C37.9633 2.00624 37.2893 2.00145 36.7514 1.9733C36.489 1.95974 36.8409 1.88409 36.5768 1.87198C35.9618 1.84362 35.3026 1.83734 34.6709 1.85147C34.4021 1.85768 34.8077 1.94784 34.4583 1.94888C32.0781 1.95783 29.7406 1.97336 27.3354 1.8566C27.1705 1.84858 27.0258 1.66533 26.6752 1.70047C26.6488 1.75133 26.6503 1.81115 26.6387 1.86551C23.1739 1.89479 19.7444 1.83127 16.2698 1.82144C16.1233 1.82105 16.3765 1.91815 16.0929 1.91788C14.4513 1.91644 12.8573 1.94334 11.1782 1.84683C11.0116 1.8374 11.0971 1.66658 10.6061 1.69242C10.5195 1.69713 9.78007 1.71991 9.58889 1.75699C9.56293 1.76258 9.69783 1.84231 9.45956 1.84464C8.07488 1.85674 6.62381 1.83854 5.24153 1.78983C5.01844 1.78181 5.25602 1.69691 5.09712 1.69046C3.97 1.64539 2.74402 1.70993 1.667 1.63285C0.946084 1.58094 1.21299 1.43417 0.829903 1.28971C0.775719 1.26932 0.329305 1.26609 0.30622 1.18204C0.246953 0.970681 0.463182 0.739242 0.374457 0.513952C0.355713 0.465427 -0.242151 0.517692 0.111823 0.400427C0.136551 0.392579 0.570005 0.35366 0.676765 0.31388C0.751095 0.286376 0.61715 0.200894 0.768806 0.165687C0.92045 0.130513 1.08709 0.202169 1.33851 0.160804C1.58982 0.118927 1.47932 0.0216813 1.98121 0.0101698ZM139.458 1.36112C139.061 1.27946 139.003 1.57855 139.432 1.50699C139.453 1.50318 139.479 1.36512 139.458 1.36112ZM187.471 1.31388C186.952 1.18195 186.597 1.37593 186.963 1.47782C187.329 1.57959 187.629 1.35387 187.471 1.31388ZM192.851 1.21756C192.245 1.11355 192.149 1.53768 192.798 1.45194C192.836 1.44709 192.886 1.2236 192.851 1.21756ZM2.60646 1.24857C2.60098 1.2446 2.28008 1.24073 2.27241 1.24466C2.10154 1.33965 2.74321 1.34733 2.60646 1.24857ZM198.189 1.11271C198 1.05533 197.455 1.12156 197.69 1.19291C197.88 1.2503 198.425 1.18407 198.189 1.11271ZM118.758 1.0419C118.751 1.03745 118.521 1.03343 118.526 1.05863C118.542 1.13977 118.862 1.11687 118.758 1.0419ZM207.262 1.10782C205.922 1.09186 205.109 0.741508 206.569 0.781041C206.833 0.788194 205.999 0.892765 206.336 0.924351C206.951 0.981896 207.36 0.761919 207.988 0.879796C208.102 0.901371 207.339 1.10951 207.26 1.10831C207.261 1.10815 207.262 1.10799 207.262 1.10782ZM139.23 1.00187C139.222 0.997911 138.903 0.994161 138.896 0.998082C138.723 1.09304 139.365 1.10065 139.23 1.00187ZM105.333 0.856969C105.316 0.848541 104.577 0.840659 104.552 0.848424C104.167 1.0037 105.661 1.0201 105.333 0.856969ZM160.678 0.782995C161.026 0.68747 161.442 0.676223 161.719 0.796178C161.373 0.78981 161.026 0.788872 160.678 0.782995Z" fill="var(--stroke-0, #6063A6)"/>
</svg>
