<svg preserveAspectRatio="none" width="100%" height="100%" overflow="visible" style="display: block;" viewBox="0 0 258 264" fill="none" xmlns="http://www.w3.org/2000/svg">
<g id="Vector">
<path d="M219.478 237.919C218.32 237.924 216.409 248.173 216.409 248.173C216.409 248.173 205.652 250.829 206.022 251.293C206.391 251.758 215.837 252.171 215.837 252.171C215.837 252.171 218.188 263.215 219.967 263.022C221.439 262.861 221.599 251.574 221.599 251.574C221.599 251.574 232.063 251.266 232.866 249.974C233.165 249.492 221.836 247.571 221.836 247.571C221.836 247.571 220.636 237.915 219.478 237.919Z" fill="var(--fill-0, white)"/>
<path d="M234.477 25.9358C233.04 26.2392 236.075 39.4525 236.075 39.4525C236.075 39.4525 224.139 45.5375 224.843 46.0247C225.548 46.5119 237.498 44.5953 237.498 44.5953C237.498 44.5953 246.253 57.6984 248.345 57.0044C250.089 56.4253 244.334 42.3663 244.334 42.3663C244.334 42.3663 257.156 39.3054 257.47 37.4946C257.596 36.8144 242.513 37.3384 242.513 37.3384C242.513 37.3384 235.914 25.6325 234.477 25.9358Z" fill="var(--fill-0, white)"/>
<path d="M15.3093 0.00090478C14.242 -0.104802 10.2517 9.08709 10.2517 9.08709C10.2517 9.08709 -0.226472 10.7003 0.00373859 11.1507C0.233949 11.6011 8.85646 12.6995 8.85646 12.6995C8.85646 12.6995 8.61921 22.9163 10.3004 22.8795C11.6957 22.8427 14.2978 12.5938 14.2978 12.5938C14.2978 12.5938 24.0015 13.1131 25.02 12.0055C25.4037 11.5873 15.3791 8.97219 15.3791 8.97219C15.3791 8.97219 16.3767 0.106611 15.3093 0.00090478Z" fill="var(--fill-0, white)"/>
<path d="M148.35 95.0956C145.72 95.0956 148.901 106.351 148.901 106.351C148.901 106.351 133.777 104.986 133.386 106.25C133.017 107.385 146.788 110.276 146.788 110.276C146.788 110.276 129.033 116.936 130.352 118.641C131.67 120.346 149.885 114.923 149.885 114.923C149.885 114.923 146.857 124.528 148.622 124.528C150.387 124.528 154.901 117.455 154.901 117.455C154.901 117.455 163.195 126.541 164.751 126.077C166.307 125.613 161.64 115.699 161.64 115.699C161.64 115.699 171.406 117.096 171.406 115.699C171.406 114.302 164.598 111.31 164.598 111.31C164.598 111.31 182.952 108.258 182.289 107.799C181.626 107.339 165.191 107.799 165.191 107.799C165.191 107.799 167.416 99.1216 165.191 100.174C162.965 101.227 157.517 105.253 157.517 105.253C157.517 105.253 150.98 95.0956 148.35 95.0956Z" fill="var(--fill-0, white)"/>
</g>
</svg>
