<svg preserveAspectRatio="none" width="100%" height="100%" overflow="visible" style="display: block;" viewBox="0 0 332 165" fill="none" xmlns="http://www.w3.org/2000/svg">
<path id="Vector" d="M255.041 54.5791C255.041 54.5791 253.47 45.9339 254.214 45.736C254.958 45.538 258.373 53.1937 258.373 53.1937C258.373 53.1937 266.181 52.8523 266.119 53.2941C265.953 54.4787 259.317 56.4837 259.317 56.4837C259.317 56.4837 262.298 65.6796 261.384 66.0583C260.299 66.5115 255.768 57.9379 255.768 57.9379C255.768 57.9379 249.566 59.1885 249.221 58.873C248.877 58.5575 255.041 54.5791 255.041 54.5791ZM5.83364 72.9968C5.83364 72.9968 4.24519 64.3602 5.00324 64.1508C5.76129 63.9414 9.16215 71.6085 9.16215 71.6085C9.16215 71.6085 16.97 71.2672 16.908 71.7118C16.7461 72.8935 10.1063 74.8985 10.1063 74.8985C10.1063 74.8985 13.0868 84.0945 12.1737 84.4731C11.0883 84.9292 6.56068 76.3557 6.56068 76.3557C6.56068 76.3557 0.358491 77.6063 0.0139251 77.2879C-0.330641 76.9695 5.83364 72.9968 5.83364 72.9968ZM246.878 156.896C246.878 156.896 245.876 152.399 246.706 152.399C247.536 152.399 249.604 156.457 249.604 156.457C249.604 156.457 251.327 154.848 252.016 154.429C252.705 154.011 252.016 157.473 252.016 157.473C252.016 157.473 257.215 157.289 257.425 157.473C257.636 157.656 251.83 158.878 251.83 158.878C251.83 158.878 253.983 160.074 253.983 160.631C253.983 161.187 250.882 160.631 250.882 160.631C250.882 160.631 252.357 164.592 251.868 164.778C251.378 164.965 248.767 161.336 248.767 161.336C248.767 161.336 247.337 164.162 246.775 164.162C246.213 164.162 247.175 160.324 247.175 160.324C247.175 160.324 241.413 162.49 240.993 161.81C240.573 161.13 246.189 158.468 246.189 158.468C246.189 158.468 241.837 157.321 241.954 156.859C242.092 156.351 246.878 156.896 246.878 156.896ZM321.191 4.49472C321.191 4.49472 320.188 0 321.015 0C321.842 0 323.916 4.05586 323.916 4.05586C323.916 4.05586 325.639 2.44671 326.328 2.02793C327.017 1.60915 326.328 5.07412 326.328 5.07412C326.328 5.07412 331.524 4.88768 331.738 5.07412C331.952 5.26057 326.142 6.47675 326.142 6.47675C326.142 6.47675 328.296 7.67285 328.296 8.22931C328.296 8.78577 325.195 8.22931 325.195 8.22931C325.195 8.22931 326.669 12.1905 326.177 12.377C325.684 12.5634 323.076 8.93493 323.076 8.93493C323.076 8.93493 321.649 11.7603 321.087 11.7603C320.526 11.7603 321.484 7.9224 321.484 7.9224C321.484 7.9224 315.726 10.0909 315.306 9.40821C314.885 8.72555 320.502 6.06657 320.502 6.06657C320.502 6.06657 316.146 4.91923 316.264 4.45743C316.422 3.94973 321.191 4.49472 321.191 4.49472Z" fill="var(--fill-0, white)"/>
</svg>
