<svg width="194" height="2" viewBox="0 0 194 2" fill="none" xmlns="http://www.w3.org/2000/svg">
<path d="M1.84786 0.0101697C2.93498 -0.0158832 4.36002 0.0119734 5.44304 0.0502082C5.78245 0.0620668 5.61058 0.115075 5.84489 0.125647C6.30313 0.146258 6.73005 0.12026 7.1829 0.144812C7.33298 0.153208 7.14617 0.237174 7.30353 0.244055C8.16587 0.281163 8.98167 0.259776 9.85523 0.277624C14.1581 0.365684 18.3877 0.397203 22.7433 0.435459C24.1794 0.448002 25.9252 0.524203 27.4085 0.490879C27.5817 0.486913 27.4785 0.413213 27.5114 0.407139C28.0282 0.314147 27.8563 0.462932 28.1937 0.4827C29.5328 0.560751 31.0219 0.567539 32.3107 0.539096C32.8589 0.526779 32.3092 0.380392 32.8613 0.462558C32.8996 0.46811 32.7605 0.546374 32.9108 0.554721C33.2518 0.573495 33.8987 0.559506 34.163 0.565707C34.6723 0.578054 34.7566 0.577266 35.2383 0.578158C35.8968 0.580058 36.6801 0.618963 37.3867 0.601229C37.5375 0.597211 37.3378 0.516982 37.5783 0.503329C37.8191 0.489698 38.456 0.496501 38.6707 0.515414C38.8854 0.534336 38.794 0.597395 38.832 0.611849C39.1447 0.733846 39.8814 0.56488 39.9761 0.560702C41.7043 0.489503 43.1864 0.585756 44.8087 0.585481C46.0402 0.585069 47.3571 0.553292 48.5289 0.557649C49.925 0.563151 51.1082 0.606626 52.4645 0.599153C52.6077 0.598456 52.4399 0.504125 52.6147 0.503084C54.4721 0.492106 56.3165 0.502389 58.1659 0.566071C58.3513 0.572541 58.1123 0.655363 58.2976 0.666779C59.4321 0.734844 61.2271 0.898352 61.9009 0.537751C62.6694 0.551831 63.6023 0.56638 64.2898 0.639068C64.7331 0.685852 64.3026 0.776079 64.8471 0.737579C64.9699 0.729001 64.8102 0.649985 64.9943 0.643097C65.7698 0.61417 66.6169 0.639855 67.384 0.599029C67.54 0.590539 67.4974 0.519738 67.5416 0.506988C67.9131 0.403735 68.5316 0.574419 68.6665 0.586822C69.6932 0.679309 70.443 0.642913 71.3995 0.645171C71.6215 0.645735 71.3591 0.550633 71.5727 0.547759C72.6804 0.534129 73.8279 0.542303 74.9125 0.584502C75.1538 0.594118 74.9319 0.675127 75.0472 0.683867C75.5556 0.721417 75.6683 0.568411 76.1558 0.60147C76.2586 0.608243 76.2007 0.677593 76.2195 0.68521C76.5129 0.804771 76.7679 0.635361 76.8433 0.631621C77.798 0.580516 78.4083 0.757371 79.3306 0.732329C79.441 0.729154 79.1922 0.641405 79.5023 0.637846C81.5687 0.613622 83.7541 0.637727 85.7994 0.707914C86.1175 0.718708 85.8904 0.784627 85.9105 0.792753C86.2366 0.91972 86.4476 0.749599 86.5513 0.743192C87.3694 0.697074 88.1335 0.839741 88.6894 0.637113C92.1538 0.707431 95.6024 0.593645 99.0383 0.775173C99.082 0.777276 99.0037 0.861061 99.0908 0.864895C100.14 0.911939 99.9387 0.781722 100.633 0.622464C100.808 0.582473 101.34 0.774751 101.387 0.788845C101.559 0.840783 101.381 0.965432 101.438 0.97549C101.914 1.05447 101.836 0.64225 102.477 0.642117C102.497 0.642804 102.413 0.718679 102.467 0.726223C102.634 0.749908 102.8 0.719758 102.963 0.745876C103.338 0.806312 103.471 1.00662 104.043 0.890041C104.116 0.874911 104.005 0.64108 104.578 0.652126C104.806 0.656728 105.816 0.65272 106.099 0.667873C106.382 0.683008 106.188 0.75836 106.208 0.761623C106.97 0.861262 106.681 0.902558 107.063 1.05007C107.444 1.19703 107.338 0.846521 107.494 0.807399C107.65 0.768388 108.209 0.850597 108.346 0.879176C108.483 0.907767 108.312 0.955648 108.434 0.971827C109.243 1.07754 108.789 0.797846 109.056 0.742214C109.684 0.610488 110.174 0.870428 110.749 0.8959C110.905 0.902778 110.778 0.843575 110.916 0.838038C111.465 0.816894 111.795 0.898003 112.42 0.823634C112.522 0.811515 113.027 0.655231 113.354 0.769923C113.4 0.786461 113.269 0.851238 113.503 0.865748C113.852 0.887524 114.482 0.901682 114.858 0.88003C115.135 0.86401 114.817 0.757273 115.166 0.790431C115.321 0.805236 115.034 0.867678 115.325 0.890284C115.615 0.912883 116.357 0.91014 116.639 0.907984C116.921 0.90578 116.766 0.824815 116.789 0.819361C116.927 0.788116 117.467 0.749074 117.515 0.749171C119.924 0.739287 122.146 0.875761 124.492 0.830591C124.676 0.827163 124.553 0.741784 124.581 0.740381C125.211 0.704609 124.715 0.931611 125.155 1.00759C125.091 0.834334 125.351 0.865705 125.795 0.846704C126.009 0.837407 125.892 0.77032 125.912 0.763452C126.229 0.661555 126.45 0.793169 126.507 0.820093C126.717 0.919133 126.946 0.80211 127.088 0.86831C127.231 0.934016 126.903 1.03142 127.328 1.03017C127.448 0.968154 127.132 0.806078 127.455 0.77981C128.674 0.68045 130.951 0.807615 131.931 0.820825C132.91 0.834023 133.226 0.82258 133.796 0.844994C134.826 0.885522 134.449 0.765271 135.088 0.710229C135.73 0.655193 135.418 0.951067 135.51 1.01467C135.601 1.07825 135.7 1.0128 135.812 1.04775C135.924 1.08269 135.681 1.12594 135.945 1.13906C136.21 1.15217 136.932 1.03906 137.025 0.972557C137.223 0.83166 136.898 0.683782 137.596 0.735741C137.637 0.738825 137.506 0.816624 137.66 0.824486C138.882 0.884379 140.152 0.888091 141.373 0.941063C141.541 0.948468 141.391 1.03502 141.488 1.04031C142.506 1.09566 142.142 0.949732 142.7 0.787621C142.575 1.00336 142.883 1.13534 143.655 1.13662C144.12 1.13746 144.04 1.04324 144.34 0.976829C144.43 0.95681 144.758 1.02151 144.818 0.977195C145.014 0.832347 144.705 0.670198 145.501 0.734764C145.536 0.737833 145.425 0.81712 145.545 0.821922C146.326 0.853352 146.419 0.701843 147.262 0.683495C147.923 0.669098 149.099 0.761486 149.852 0.776512C149.836 1.01906 150.547 0.96352 150.835 0.796287C151.324 0.803133 151.851 0.793679 152.324 0.816795C152.486 0.824675 152.379 0.8949 152.4 0.902488C152.714 1.02152 152.926 0.858818 153.032 0.852439C154.175 0.790435 155.106 0.913748 156.196 0.793235C156.235 0.788894 156.298 0.620412 156.589 0.74343C156.608 0.75191 156.248 0.828566 156.761 0.834494C157.274 0.840435 158.241 0.930754 158.954 0.852683C159.126 0.833887 159.562 0.697114 159.912 0.803977C159.959 0.818488 159.908 0.866809 159.975 0.893698C160.193 0.979377 160.311 0.809083 160.567 0.953756C160.823 1.09842 161.355 1.20677 162.073 1.10695C162.096 1.10405 162.266 0.969078 162.492 0.971212C162.853 0.974735 163.365 1.00285 163.741 1.00197C163.921 1.0015 163.806 0.917691 163.837 0.916159C165.05 0.869193 165.912 0.943911 167.211 0.976339C167.449 0.982449 168.133 0.868158 168.594 0.958516C169.1 1.05743 168.58 1.4689 169.744 1.37087C170.213 1.33166 170.807 0.809638 171.65 1.0801C173.285 1.01308 174.798 1.1515 176.437 1.05581C176.511 1.05157 176.744 0.905874 176.918 0.907857C177.175 0.911082 177.316 0.979176 177.5 0.983662C178.27 1.00417 178.975 0.945914 179.717 0.954975C179.999 0.958268 179.901 1.02868 180.237 1.03261C180.573 1.03648 180.797 0.943766 181.252 0.988544C181.596 1.02268 181.94 1.21218 182.396 1.23427C182.414 1.04734 182.727 1.05119 183.284 1.00185C183.391 0.992276 183.277 0.927215 183.327 0.919331C183.534 0.885798 183.724 0.939719 183.92 0.903217C183.968 0.894451 183.97 0.830614 184.009 0.819844C184.34 0.725832 184.885 0.869426 184.979 0.894428C185.338 0.98938 185.506 0.906353 185.781 0.943744C186.056 0.981131 185.645 1.02787 185.966 1.05056C186.632 1.09748 187.487 1.08717 188.164 1.09011C188.433 1.09088 188.249 1.00567 188.288 1.0038C188.846 0.98219 189.41 1.07283 189.719 0.903095C190.106 1.34197 190.056 0.860526 190.853 0.948383C190.916 0.955488 190.996 1.16303 190.754 1.1935C190.513 1.22394 190.148 1.15906 189.813 1.20656C189.734 1.21771 189.28 1.41219 189.218 1.42397C188.733 1.51604 188.664 1.20589 188.639 1.18886C188.348 1.00503 187.793 1.21454 187.647 1.22902C186.979 1.29536 186.411 1.25174 185.852 1.29909C185.487 1.32969 185.451 1.53285 185.164 1.52663C184.21 1.50608 183.877 1.22267 182.978 1.4684C182.785 1.52081 182.977 1.74285 182.286 1.56825C182.243 1.55725 181.73 1.39752 181.434 1.49855C181.396 1.51129 181.397 1.576 181.348 1.58144C181.019 1.6166 180.8 1.56505 180.442 1.58974C180.084 1.61443 179.653 1.65124 179.244 1.62929C178.997 1.61617 178.681 1.4956 178.563 1.46608C178.23 1.38105 177.872 1.52047 177.666 1.4175C177.458 1.31401 177.865 1.15685 177.319 1.08998C177.299 1.25811 177.252 1.43067 177.22 1.59975C176.023 1.59383 174.846 1.53947 173.646 1.54689C173.497 1.54798 173.649 1.63837 173.49 1.64186C172.817 1.65622 172.229 1.59179 171.531 1.61745C170.991 1.63766 170.398 1.73335 169.833 1.75746C169.488 1.56508 168.65 1.63039 168.041 1.61281C167.827 1.60674 167.842 1.55536 167.69 1.53859C167.118 1.4766 167.386 1.6466 167.229 1.67336C166.556 1.78754 166.498 1.40274 165.704 1.41225C165.662 1.41262 165.148 1.61774 165.078 1.63051C164.628 1.7138 165.003 1.55912 164.722 1.54396C164.208 1.51627 163.851 1.46728 163.247 1.52736C163.072 1.54516 162.65 1.673 162.308 1.57412C162.263 1.56117 162.288 1.49337 162.252 1.4894C161.598 1.42322 161.58 1.63624 161.206 1.70839C160.832 1.78052 160.255 1.63347 160.137 1.59108C159.829 1.48144 160.373 1.54423 160.389 1.53347C160.585 1.40542 160.164 1.42747 159.842 1.41665C159.795 1.20777 159.345 1.22031 159.508 1.40627C159.527 1.42658 159.777 1.4071 159.842 1.41665C159.559 1.62158 159.064 1.64783 158.518 1.45632C158.262 1.36656 158.504 1.26191 157.727 1.30019C157.374 1.31747 157.51 1.4613 157.199 1.50051C156.488 1.58997 155.564 1.45581 154.831 1.47695C154.565 1.48462 154.824 1.56335 154.642 1.57131C154.16 1.59267 153.734 1.5336 153.249 1.56386C153.205 1.5667 153.313 1.64912 153.162 1.65017C152.02 1.65974 151.025 1.60695 149.832 1.60549C149.255 1.60482 148.225 1.65027 147.628 1.64113C146.593 1.62578 145.32 1.50594 144.436 1.53505C143.859 1.55369 143.986 1.63612 143.739 1.69228C143.262 1.80115 142.418 1.60614 142.305 1.57595C142.301 1.57495 142.797 1.55552 142.533 1.5132C142.379 1.42504 142.31 1.57557 142.305 1.57595C142.23 1.55644 141.239 1.53773 141.042 1.55349C140.935 1.5621 140.995 1.6402 140.939 1.64321C139.614 1.7131 138.286 1.73295 136.942 1.69643C136.919 1.69485 136.954 1.6075 136.899 1.60488C136.12 1.56604 135.622 1.6729 134.98 1.73635C134.339 1.79977 133.83 1.77853 133.45 1.62856C132.966 1.64744 132.271 1.58114 131.871 1.54092C131.472 1.50069 131.416 1.67073 131.381 1.67409C130.284 1.78169 129.65 1.68436 128.512 1.66921C127.971 1.66172 126.897 1.68638 126.311 1.70498C125.848 1.71996 125.569 1.68011 125.143 1.70559C125.085 1.70899 125.143 1.7847 125.126 1.78762C124.65 1.8782 124.879 1.69311 124.78 1.66006C124.424 1.53984 124.204 1.47582 123.594 1.53237C123.453 1.54532 123.044 1.81183 122.787 1.82741C122.454 1.84719 122.58 1.75166 122.231 1.7748C122.201 1.77669 122.207 1.83563 121.992 1.83303C120.992 1.82174 119.902 1.78745 118.863 1.79336C118.721 1.79394 118.903 1.88741 118.698 1.88979C117.736 1.90087 116.681 1.89741 115.743 1.85366C115.513 1.8426 115.657 1.77715 115.607 1.75771C115.3 1.64013 114.864 1.81098 114.792 1.81423C113.075 1.89633 111.762 1.74172 110.012 1.81533C109.917 1.81965 109.184 2.0028 108.857 1.84573C108.835 1.83528 108.511 1.67457 108.225 1.78445C108.207 1.79132 108.409 1.87406 108.057 1.86562C107.705 1.85721 107.139 1.91246 106.656 1.82156C106.503 1.79292 106.141 1.63261 105.684 1.7604C105.654 1.76932 104.949 2.05827 104.697 1.85891C104.657 1.82609 104.699 1.61512 104.154 1.72329C104.05 1.74426 104.239 1.79132 103.965 1.8207C103.544 1.86599 102.987 1.80948 102.471 1.90347C102.38 1.9201 101.997 2.0633 101.689 1.95461C101.641 1.93759 101.732 1.86716 101.57 1.85928C100.797 1.82147 99.9879 1.86858 99.2033 1.81985C98.9254 1.80272 99.0674 1.68886 98.7778 1.65835C98.488 1.62785 97.9042 1.5985 97.6011 1.65054C97.2978 1.70259 97.6291 1.88406 97.1748 1.89858C95.1999 1.96165 93.2434 1.8552 91.2714 1.83962C90.9789 1.8373 91.2214 1.90223 90.7904 1.90347C89.2012 1.9083 86.4576 1.96918 85.0786 1.8312C83.9738 1.72069 85.3642 1.63655 84.5199 1.59158C84.1125 1.57013 83.6717 1.7811 83.5734 1.78774C82.6126 1.85521 81.9449 1.76176 81.0801 1.79043C80.9016 1.79638 81.0767 1.88189 80.9247 1.88601C80.4056 1.90084 79.86 1.86267 79.3639 1.86965C79.1414 1.87298 79.1824 1.93829 78.9776 1.93325C78.4877 1.92194 78.0544 1.89449 77.5767 1.83328C77.5332 1.8277 77.8267 1.74646 77.4642 1.74343C76.8775 1.73877 76.1493 1.67839 75.4742 1.74075C75.2739 1.75951 75.2661 1.90877 74.8356 1.80569C74.7453 1.78416 74.8605 1.60492 74.359 1.75979C74.2746 1.78553 73.4322 1.99441 73.0187 1.85977C72.9097 1.82433 72.6313 1.67766 72.3904 1.70071C72.3578 1.70439 72.4886 1.78456 72.289 1.79238C71.5857 1.81855 70.8485 1.81 70.1259 1.83511C69.9329 1.84197 70.2203 1.92494 69.9327 1.93252C69.1418 1.95349 68.1544 1.93237 67.381 1.9064C67.0959 1.89667 67.293 1.82794 67.2722 1.82046C66.9386 1.69881 66.7413 1.86301 66.6306 1.87258C65.9419 1.92992 65.4175 1.85278 64.7827 1.8732C64.6075 1.87862 64.7317 1.95691 64.6968 1.96389C64.3352 2.0321 64.6046 1.8915 64.3757 1.876C63.7343 1.83212 63.0194 1.83841 62.3709 1.84842C62.1326 1.85221 62.4004 1.94299 62.1866 1.94534C60.9212 1.96098 59.6058 1.9523 58.3709 1.90225C58.1384 1.89266 58.2846 1.82276 58.2362 1.80679C57.9022 1.69509 57.4127 1.84745 57.3 1.86197C56.7879 1.92824 56.5889 1.86642 56.1367 1.87796C53.9272 1.93541 51.1991 1.89446 49.1135 1.86917C46.3958 1.83661 44.2869 1.77011 41.6953 1.78738C41.5305 1.78839 41.6966 1.88139 41.5546 1.88345C39.7214 1.90587 37.9166 1.86953 36.0797 1.89639C35.929 1.89843 36.1463 1.98659 35.9043 1.99283C35.4081 2.00624 34.7795 2.00144 34.2777 1.9733C34.033 1.95973 34.3612 1.88408 34.1149 1.87198C33.5413 1.84362 32.9265 1.83734 32.3373 1.85147C32.0866 1.85768 32.4649 1.94784 32.139 1.94888C29.919 1.95783 27.7388 1.97336 25.4955 1.8566C25.3417 1.84858 25.2068 1.66533 24.8798 1.70047C24.8552 1.75133 24.8565 1.81115 24.8457 1.86551C21.6141 1.89479 18.4154 1.83126 15.1747 1.82144C15.0381 1.82105 15.2742 1.91814 15.0097 1.91788C13.4787 1.91644 11.9919 1.94334 10.4258 1.84683C10.2704 1.83739 10.3501 1.66658 9.89223 1.69241C9.81147 1.69713 9.1218 1.71991 8.94349 1.75699C8.91927 1.76258 9.0451 1.84231 8.82286 1.84464C7.53137 1.85674 6.17798 1.83854 4.88874 1.78983C4.68066 1.78181 4.90225 1.69691 4.75405 1.69046C3.70279 1.64539 2.55933 1.70993 1.5548 1.63285C0.882406 1.58094 1.13135 1.43417 0.774044 1.28971C0.723507 1.26932 0.307141 1.26609 0.285609 1.18204C0.230331 0.970681 0.432006 0.739242 0.349253 0.513952C0.33177 0.465427 -0.225852 0.517692 0.104296 0.400427C0.12736 0.392579 0.531639 0.35366 0.631214 0.31388C0.70054 0.286376 0.575611 0.200894 0.71706 0.165687C0.858496 0.130513 1.01392 0.202169 1.24842 0.160804C1.48281 0.118927 1.37975 0.0216812 1.84786 0.0101697ZM130.072 1.36111C129.702 1.27944 129.647 1.57854 130.047 1.50698C130.067 1.50317 130.091 1.36511 130.072 1.36111ZM174.853 1.31386C174.369 1.18194 174.038 1.37592 174.379 1.4778C174.721 1.57958 175 1.35385 174.853 1.31386ZM179.871 1.21755C179.305 1.11353 179.216 1.53766 179.822 1.45192C179.857 1.44708 179.904 1.22359 179.871 1.21755ZM2.43102 1.24857C2.42591 1.2446 2.12661 1.24073 2.11946 1.24466C1.96009 1.33965 2.55857 1.34733 2.43102 1.24857ZM184.85 1.11269C184.673 1.05532 184.165 1.12155 184.384 1.19289C184.561 1.25028 185.069 1.18406 184.85 1.11269ZM110.764 1.0419C110.759 1.03744 110.544 1.03342 110.548 1.05862C110.563 1.13976 110.861 1.11686 110.764 1.0419ZM193.312 1.10781C192.062 1.09184 191.304 0.741491 192.665 0.781025C192.912 0.788177 192.134 0.892749 192.448 0.924335C193.022 0.981879 193.403 0.761902 193.989 0.879779C194.095 0.901354 193.383 1.10949 193.31 1.10829C193.311 1.10813 193.311 1.10797 193.312 1.10781ZM129.858 1.00185C129.851 0.9979 129.554 0.994149 129.547 0.99807C129.386 1.09302 129.984 1.10063 129.858 1.00185ZM98.2434 0.85696C98.227 0.848532 97.5377 0.84065 97.5152 0.848415C97.1556 1.00369 98.5493 1.02009 98.2434 0.85696ZM149.864 0.782981C150.188 0.687457 150.575 0.67621 150.834 0.796165C150.512 0.789797 150.187 0.788859 149.864 0.782981Z" fill="#6063A6"/>
</svg>
