<svg width="66" height="59" viewBox="0 0 66 59" fill="none" xmlns="http://www.w3.org/2000/svg">
<path d="M3.14172 58.8119H1.7653V53.6817H0V52.5821H4.90411V53.6817H3.14172V58.8119Z" fill="#384895"/>
<path d="M9.64945 58.8119H5.90619V52.5821H9.64945V53.6643H7.28406V55.0316H9.48486V56.1152H7.28406V57.7152H9.64945V58.8119Z" fill="#384895"/>
<path d="M12.3819 54.9719H12.9237C13.7714 54.9719 14.4264 55.1368 14.8886 55.4665C15.1127 55.6223 15.2937 55.8321 15.4149 56.0765C15.5361 56.3209 15.5936 56.5918 15.5819 56.8643C15.5819 58.1627 14.6871 58.8119 12.8975 58.8119H11.004V52.5821H15.1114V53.673H12.3819V54.9719ZM12.3819 57.7356H12.8436C13.3097 57.7356 13.6496 57.6638 13.8632 57.5203C13.9697 57.4499 14.0557 57.3527 14.1127 57.2386C14.1697 57.1245 14.1957 56.9974 14.188 56.8701C14.1971 56.7463 14.1711 56.6225 14.1128 56.5129C14.0546 56.4033 13.9665 56.3123 13.8588 56.2505C13.6403 56.1239 13.2631 56.0614 12.73 56.0614H12.379L12.3819 57.7356Z" fill="#384895"/>
<path d="M20.5559 58.8119H16.8126V52.5821H20.5559V53.6643H18.1905V55.0316H20.3913V56.1152H18.1905V57.7152H20.5559V58.8119Z" fill="#384895"/>
<path d="M29.4174 58.8119H28.0439V53.6817H25.6523V58.8119H24.2758V52.5821H29.4174V58.8119Z" fill="#384895"/>
<path d="M36.9549 55.689C36.9549 56.7208 36.6883 57.513 36.1552 58.0657C35.6221 58.6185 34.8575 58.8958 33.8612 58.8977C32.8669 58.8977 32.1027 58.6204 31.5686 58.0657C31.0346 57.5111 30.768 56.7159 30.769 55.6803C30.769 54.6437 31.036 53.8514 31.5701 53.3036C32.1042 52.7557 32.8708 52.4827 33.8699 52.4847C34.8691 52.4847 35.6328 52.76 36.1611 53.3108C36.6893 53.8616 36.9539 54.6544 36.9549 55.689ZM32.2124 55.689C32.2124 56.3843 32.3503 56.9084 32.6261 57.2614C32.9018 57.6144 33.3136 57.7904 33.8612 57.7894C34.9604 57.7894 35.51 57.0893 35.51 55.689C35.51 54.2888 34.9633 53.5882 33.8699 53.5872C33.3223 53.5872 32.9091 53.7642 32.6304 54.1181C32.3518 54.472 32.2124 54.9957 32.2124 55.689Z" fill="#384895"/>
<path d="M38.3007 52.5821H40.3238C41.2443 52.5821 41.9133 52.7077 42.3309 52.9588C42.7484 53.21 42.9562 53.61 42.9543 54.1588C42.9683 54.4861 42.8724 54.8086 42.6819 55.0752C42.5953 55.1923 42.4864 55.2911 42.3614 55.366C42.2364 55.4409 42.0978 55.4904 41.9536 55.5116V55.5537C42.301 55.6052 42.6178 55.7809 42.845 56.0483C43.0748 56.4078 43.1647 56.839 43.0979 57.2602C43.0311 57.6815 42.8121 58.0638 42.4824 58.3348C42.0541 58.6529 41.4715 58.8119 40.7345 58.8119H38.3021L38.3007 52.5821ZM39.6786 55.0548H40.4796C40.8525 55.0548 41.1229 54.9996 41.2909 54.889C41.3767 54.8268 41.4449 54.7435 41.4888 54.6471C41.5327 54.5507 41.5508 54.4447 41.5415 54.3392C41.5492 54.2365 41.5275 54.1337 41.479 54.0428C41.4306 53.952 41.3573 53.8767 41.2676 53.8257C40.9967 53.7044 40.7002 53.6509 40.4039 53.6701H39.6756L39.6786 55.0548ZM39.6786 56.1036V57.7268H40.5772C40.9559 57.7268 41.2356 57.6575 41.4162 57.5188C41.5095 57.4417 41.583 57.3433 41.6304 57.2319C41.6778 57.1206 41.6977 56.9995 41.6886 56.8788C41.6886 56.363 41.3031 56.1045 40.5321 56.1036H39.6786Z" fill="#384895"/>
<path d="M48.1628 58.8119H44.4167V52.5821H48.1628V53.6643H45.7945V55.0316H47.9939V56.1152H45.7945V57.7152H48.1628V58.8119Z" fill="#384895"/>
<path d="M54.0034 54.5254C54.0034 55.1964 53.785 55.7089 53.348 56.0628C52.911 56.4168 52.2896 56.5947 51.4837 56.5966H50.8923V58.8119H49.5144V52.5821H51.59C52.3784 52.5821 52.9776 52.7445 53.3873 53.0694C53.7971 53.3942 54.0025 53.8796 54.0034 54.5254ZM50.8923 55.5145H51.3453C51.7691 55.5145 52.0867 55.433 52.2964 55.273C52.402 55.1905 52.486 55.0836 52.5411 54.9614C52.5961 54.8393 52.6206 54.7056 52.6125 54.5719C52.6227 54.4449 52.6043 54.3173 52.5584 54.1984C52.5125 54.0796 52.4404 53.9726 52.3474 53.8854C52.1706 53.739 51.8944 53.6653 51.5186 53.6643H50.8923V55.5145Z" fill="#384895"/>
<path d="M57.4161 56.4221L55.8969 58.8119H54.3676L56.2159 56.0716C55.8716 55.9481 55.576 55.7177 55.3726 55.4141C55.1725 55.1005 55.071 54.7342 55.0813 54.3625C55.0688 54.1075 55.1202 53.8535 55.2308 53.6234C55.3415 53.3933 55.5078 53.1944 55.7149 53.0446C56.1373 52.7363 56.7441 52.5821 57.5355 52.5821H59.6504V58.8119H58.2725V56.4221H57.4161ZM58.2696 53.6585H57.5894C57.3025 53.6423 57.0166 53.7057 56.7636 53.8417C56.6649 53.9081 56.5859 53.9996 56.5346 54.1068C56.4834 54.214 56.4619 54.3329 56.4723 54.4512C56.4672 54.5749 56.4909 54.6981 56.5414 54.8111C56.592 54.9241 56.668 55.024 56.7636 55.1028C56.9529 55.2628 57.2428 55.3414 57.6375 55.3414H58.2813L58.2696 53.6585Z" fill="#384895"/>
<path d="M63.7898 58.8119H62.4119V53.6817H60.6481V52.5821H65.5537V53.6817H63.7898V58.8119Z" fill="#384895"/>
<path d="M33.8452 56.3974C34.7832 56.3974 34.7846 54.9428 33.8452 54.9428C32.9057 54.9428 32.9072 56.3974 33.8452 56.3974Z" fill="#384895"/>
<path d="M47.4214 25.9203H16.0611V45.4825H47.4214V25.9203Z" fill="#263166"/>
<path d="M18.1162 2.28917C18.4339 2.10601 18.4381 1.51932 18.1256 0.978767C17.8131 0.43821 17.3022 0.148479 16.9845 0.331637C16.6669 0.514794 16.6627 1.10148 16.9752 1.64204C17.2877 2.1826 17.7986 2.47233 18.1162 2.28917Z" fill="#E48123"/>
<path d="M17.0537 4.3944C17.4053 4.29005 17.546 3.72043 17.368 3.1221C17.1899 2.52378 16.7606 2.12333 16.4089 2.22768C16.0573 2.33202 15.9166 2.90165 16.0946 3.49997C16.2727 4.09829 16.7021 4.49874 17.0537 4.3944Z" fill="#E48123"/>
<path d="M20.7922 4.27744C21.1178 4.10869 21.1483 3.52278 20.8604 2.96877C20.5724 2.41476 20.0751 2.10245 19.7495 2.2712C19.4239 2.43995 19.3934 3.02586 19.6813 3.57987C19.9693 4.13387 20.4666 4.44619 20.7922 4.27744Z" fill="#E48123"/>
<path d="M28.9659 26.0119C28.9659 26.0119 30.335 24.7654 30.7617 23.3937C31.1885 22.0221 30.3073 21.5756 29.5587 23.241C29.1698 24.1094 28.9659 26.0119 28.9659 26.0119Z" fill="#575E4C"/>
<path d="M28.6454 20.4003C28.6454 20.4003 31.8294 18.7843 30.3932 17.7487C29.3824 17.0185 28.6454 20.4003 28.6454 20.4003Z" fill="#575E4C"/>
<path d="M31.0283 38.7727C31.0166 38.7392 29.8165 35.3559 29.3256 28.6127C29.1261 25.8621 27.7497 21.7021 25.3464 16.5836C23.5243 12.7057 21.7415 9.6192 21.724 9.5872L22.1027 9.36901C22.394 9.87374 29.2703 21.817 29.7626 28.5807C30.2476 35.2599 31.4288 38.5908 31.4405 38.6243L31.0283 38.7727Z" fill="#575E4C"/>
<path d="M30.852 11.6745C30.852 11.6745 33.264 11.8025 32.5707 10.7159C32.2066 10.1428 30.852 11.6745 30.852 11.6745Z" fill="#575E4C"/>
<path d="M33.7913 7.80683C33.7913 7.80683 33.1359 5.44465 34.1045 5.52902C35.0731 5.61338 34.0346 8.05993 34.0346 8.05993L33.7913 7.80683Z" fill="#D26C71"/>
<path d="M34.2079 8.60829C34.2079 8.60829 35.309 7.24538 35.1459 6.53556C34.9828 5.82574 34.4701 5.82138 34.3259 5.99883C34.1817 6.17629 33.8714 8.1472 33.8714 8.1472L34.2079 8.60829Z" fill="#F19192"/>
<path d="M35.5202 8.57192C35.5202 8.57192 36.4888 7.44174 36.0693 6.94574C35.6498 6.44974 34.2545 7.94356 34.0462 8.60829C34.0462 8.60829 34.99 9.27011 35.5202 8.57192Z" fill="#D26C71"/>
<path d="M35.2129 8.98938C35.2129 8.98938 37.4879 8.53556 37.1063 7.79083C36.7247 7.04611 34.0476 8.60829 34.0476 8.60829L35.3585 8.75374L35.2129 8.98938Z" fill="#F19192"/>
<path d="M24.4302 14.7028C24.4302 14.7028 23.4456 8.7392 24.1549 8.37702C24.8643 8.01483 24.4943 10.3523 24.8264 10.2039C25.1585 10.0556 25.058 7.82574 24.972 6.79302C24.8861 5.76029 25.3901 5.13047 25.5838 5.68756C25.7775 6.24465 25.7207 8.11083 25.91 8.0032C26.0994 7.89556 26.2887 4.69556 27.3272 4.39447C28.3657 4.09338 27.0913 6.28538 27.2296 6.45411C27.368 6.62283 28.995 4.46429 29.1231 4.97629C29.2513 5.48829 27.8749 7.09411 27.9419 7.35738C28.0089 7.62065 31.1462 5.08102 31.2438 5.90283C31.3414 6.72465 30.533 6.93702 30.6015 7.27302C30.67 7.60902 31.7449 7.14211 31.5439 7.59011C31.3429 8.03811 28.3002 8.89047 28.1516 9.14211C28.0031 9.39374 29.7713 9.07229 29.4173 9.69193C29.0634 10.3116 26.918 10.5647 26.4373 10.9588C25.9566 11.353 26.9456 11.3341 26.9951 11.9319C27.0447 12.5297 24.8846 15.5959 24.8846 15.5959L24.4302 14.7028Z" fill="#575E4C"/>
<path d="M26.5422 18.8977C26.5422 18.8977 25.2211 16.1603 24.8235 16.2156C24.4259 16.2708 25.2604 17.1261 25.0755 17.161C24.8905 17.1959 24.2919 16.249 24.0297 15.7981C23.7675 15.3472 23.3772 15.2337 23.4587 15.5188C23.5403 15.8039 24.104 16.5559 23.9947 16.5661C23.8855 16.5763 22.8805 15.3152 22.3663 15.4912C21.8522 15.6672 23.0101 16.1996 23.0028 16.3101C22.9956 16.4207 21.7007 16.0017 21.7968 16.249C21.893 16.4963 22.9242 16.7596 22.9723 16.8876C23.0203 17.0156 20.9928 16.8759 21.1924 17.2425C21.3919 17.609 21.7837 17.4621 21.8536 17.6207C21.9236 17.7792 21.3439 17.897 21.5623 18.0236C21.7808 18.1501 23.2738 17.6207 23.4078 17.6817C23.5418 17.7428 22.7203 18.1181 23.0465 18.2737C23.3728 18.4294 24.3254 17.9072 24.64 17.9334C24.9546 17.9596 24.5395 18.2359 24.6909 18.4963C24.8424 18.7567 26.6223 19.3937 26.6223 19.3937L26.5422 18.8977Z" fill="#575E4C"/>
<path d="M22.3147 5.90708C22.6252 5.81666 22.7565 5.33137 22.6081 4.82315C22.4596 4.31494 22.0877 3.97625 21.7772 4.06667C21.4668 4.15709 21.3354 4.64239 21.4839 5.1506C21.6323 5.65881 22.0043 5.9975 22.3147 5.90708Z" fill="#E48123"/>
<path d="M20.5052 10.4451C20.5063 10.1221 20.0775 9.85885 19.5474 9.857C19.0173 9.85515 18.5866 10.1154 18.5855 10.4384C18.5844 10.7613 19.0132 11.0246 19.5433 11.0265C20.0734 11.0283 20.5041 10.768 20.5052 10.4451Z" fill="#E48123"/>
<path d="M22.4886 11.7077C22.4897 11.3847 22.0609 11.1215 21.5308 11.1196C21.0007 11.1178 20.5701 11.3781 20.5689 11.701C20.5678 12.0239 20.9966 12.2872 21.5267 12.2891C22.0568 12.2909 22.4875 12.0306 22.4886 11.7077Z" fill="#E48123"/>
<path d="M22.8923 8.20171C23.2068 8.12654 23.3618 7.64824 23.2384 7.13339C23.115 6.61854 22.76 6.26211 22.4455 6.33728C22.131 6.41244 21.9761 6.89075 22.0995 7.4056C22.2229 7.92045 22.5779 8.27688 22.8923 8.20171Z" fill="#E48123"/>
<path d="M18.0864 6.61581C18.3035 6.37654 18.1612 5.89436 17.7684 5.53882C17.3756 5.18329 16.8812 5.08904 16.664 5.32831C16.4468 5.56758 16.5892 6.04976 16.982 6.4053C17.3747 6.76083 17.8692 6.85508 18.0864 6.61581Z" fill="#E48123"/>
<path d="M19.4592 9.0506C19.6964 8.83119 19.5968 8.33843 19.2366 7.95C18.8764 7.56157 18.3921 7.42456 18.1548 7.64398C17.9176 7.86339 18.0172 8.35615 18.3774 8.74458C18.7376 9.13301 19.2219 9.27002 19.4592 9.0506Z" fill="#E48123"/>
<path d="M22.2773 9.97094C22.5146 9.75153 22.4149 9.25877 22.0548 8.87034C21.6946 8.48191 21.2103 8.3449 20.973 8.56431C20.7357 8.78373 20.8354 9.27649 21.1955 9.66492C21.5557 10.0533 22.04 10.1904 22.2773 9.97094Z" fill="#E48123"/>
<path d="M20.7357 7.55295C21.0379 7.49745 21.2064 7.03679 21.112 6.52403C21.0175 6.01127 20.696 5.64059 20.3938 5.69609C20.0916 5.75159 19.9231 6.21226 20.0175 6.72502C20.1119 7.23778 20.4335 7.60846 20.7357 7.55295Z" fill="#E48123"/>
<path d="M19.0876 5.77574C19.4345 5.65672 19.5511 5.08169 19.348 4.49137C19.1449 3.90105 18.6991 3.51899 18.3522 3.63801C18.0053 3.75702 17.8887 4.33206 18.0917 4.92237C18.2948 5.51269 18.7407 5.89475 19.0876 5.77574Z" fill="#E48123"/>
<path d="M28.3541 24.0497C28.2303 18.3101 29.0824 14.0047 30.8681 11.2497C32.2314 9.15374 33.6355 8.79156 33.701 8.77702L33.803 9.20174L33.752 8.98938L33.8044 9.20174C33.7913 9.20174 32.4732 9.5552 31.2045 11.529C29.0591 14.8745 28.708 20.1748 28.7911 24.0381L28.3541 24.0497Z" fill="#575E4C"/>
<path d="M33.4927 9.06211C33.4927 9.06211 36.0897 10.0803 36.1742 9.27156C36.2586 8.46284 35.8013 8.4672 35.3367 8.41193C34.872 8.35665 33.4927 9.06211 33.4927 9.06211Z" fill="#575E4C"/>
<path d="M34.4992 9.11156C34.4992 9.11156 34.2341 6.43083 32.964 6.45993C32.1629 6.47447 32.1382 7.7952 33.4927 9.06793L34.4992 9.11156Z" fill="#575E4C"/>
<path d="M29.5674 15.1232C29.5674 15.1232 29.0052 14.0294 29.1304 13.9407C29.2557 13.8519 29.8383 13.6497 30.0655 13.7457C30.2927 13.8417 30.2898 14.9763 30.2898 14.9763L29.5674 15.1232Z" fill="#D26C71"/>
<path d="M29.5834 15.5101C29.5834 15.5101 27.8064 15.0519 28.1269 14.3101C28.4473 13.5683 30.2053 15.2236 30.2053 15.2236L29.5834 15.5101Z" fill="#575E4C"/>
<path d="M29.4887 14.0905C29.4887 14.0905 28.5857 13.945 28.7153 13.641C28.8449 13.337 27.7511 13.2047 28.2055 12.761C28.66 12.3174 29.3547 13.0737 29.5164 12.9908C29.6781 12.9079 30.0772 12.041 30.4005 12.4003C30.7238 12.7596 31.0355 13.3472 30.7078 13.3632C30.3801 13.3792 30.9001 13.8505 30.5345 14.0017C30.1689 14.153 29.4887 14.0905 29.4887 14.0905Z" fill="#F19192"/>
<path d="M32.5984 34.8425C32.5984 34.8425 35.861 25.8665 41.0608 24.2607C41.0608 24.2607 39.4863 27.7385 38.8192 28.6737C38.1521 29.609 34.2822 33.4737 34.2822 33.4737L32.5984 34.8425Z" fill="#575E4C"/>
<path d="M31.7463 34.6476L31.3239 34.5326C31.3516 34.4337 34.0491 24.5879 35.5173 20.1006L35.6396 19.7326C35.8086 19.225 35.9542 18.8163 36.0766 18.5152C37.2782 15.449 43.3184 7.5581 43.5747 7.22501L43.9229 7.48974C43.8602 7.5712 37.6598 15.6643 36.4844 18.6737C36.3693 18.9646 36.2251 19.3705 36.0576 19.8708C36.0183 19.9872 35.979 20.1094 35.9367 20.2359C34.4715 24.713 31.7726 34.5486 31.7463 34.6476Z" fill="#575E4C"/>
<path d="M35.8465 19.801C35.8465 19.801 36.2528 17.4825 34.706 16.8396C33.1592 16.1967 32.2008 17.0868 32.2547 17.9756C32.3086 18.8643 32.4761 19.9945 33.9778 20.4614L35.4809 20.9283L35.8465 19.801Z" fill="#575E4C"/>
<path d="M36.7189 18.201C36.7189 18.201 37.9336 19.2948 39.5198 19.4534C41.1059 19.6119 42.277 18.8919 42.2566 17.9799C42.2362 17.0679 41.1191 16.0017 39.7426 16.3203C38.3662 16.6388 36.7524 17.5799 36.7524 17.5799L36.7189 18.201Z" fill="#575E4C"/>
<path d="M37.3845 16.4614C37.3845 16.4614 38.305 15.1523 36.8777 13.6468C35.4503 12.1414 33.7578 13.1857 33.819 14.2025C33.8801 15.2192 34.486 15.8999 35.5566 16.2054C36.6271 16.5108 37.2389 16.7188 37.2389 16.7188L37.3845 16.4614Z" fill="#575E4C"/>
<path d="M38.6619 14.4439C38.6619 14.4439 44.2885 11.129 44.7866 14.5807C45.2847 18.0323 38.3473 14.9239 38.3473 14.9239L38.6619 14.4439Z" fill="#575E4C"/>
<path d="M39.2358 13.5872C39.2358 13.5872 41.6332 8.82211 38.375 9.13338C35.1168 9.44465 36.582 12.153 37.1472 12.8003C37.7123 13.4476 38.9532 14.2796 38.9532 14.2796L39.2358 13.5872Z" fill="#575E4C"/>
<path d="M41.1715 10.8236C41.1715 10.8236 45.4333 13.3225 46.5606 10.2025C47.688 7.08247 41.6652 10.1501 41.6652 10.1501L41.1715 10.8236Z" fill="#575E4C"/>
<path d="M42.0847 9.57702C42.0847 9.57702 44.2083 5.31811 41.0652 5.04902C37.922 4.77993 39.9262 8.50065 40.35 8.98647C40.7739 9.47229 41.8837 9.8592 41.8837 9.8592L42.0847 9.57702Z" fill="#575E4C"/>
<path d="M43.2208 8.04829C43.2208 8.04829 42.6164 4.98211 44.2273 4.01338C45.8382 3.04465 47.688 4.49629 46.9248 5.69774C46.1616 6.8992 43.0912 8.40902 43.0912 8.40902L43.2208 8.04829Z" fill="#575E4C"/>
<path d="M35.261 21.6279C35.261 21.6279 39.9087 24.1894 40.6035 21.9552C41.2982 19.721 38.7304 19.5625 37.4807 19.9872C36.7131 20.2531 36.0047 20.6656 35.395 21.2017L35.261 21.6279Z" fill="#575E4C"/>
<path d="M36.0504 35.8243L35.6892 35.5785C35.9965 35.1305 43.2252 24.5676 45.5833 22.0236L45.9038 22.3145C43.5675 24.8396 36.1261 35.7152 36.0504 35.8243Z" fill="#575E4C"/>
<path d="M47.2889 20.0308L47.5802 14.7683C47.5802 14.7683 51.3905 16.5821 50.1408 19.4228C50.1408 19.4228 54.3647 20.1807 54.3647 23.1537L47.2889 20.0308Z" fill="#D26C71"/>
<path d="M47.3559 18.7217C47.3559 18.7217 49.0615 18.7741 49.7519 19.7923C50.4423 20.8105 50.4481 21.4257 50.4481 21.4257L46.5155 21.6221L47.3559 18.7217Z" fill="white"/>
<path d="M47.5802 14.7683C47.5802 14.7683 48.5998 19.2207 48.0565 20.9196C48.0565 20.9196 52.2804 19.8825 54.3676 23.1523C54.3676 23.1523 51.9876 26.0308 47.9385 25.3632C43.8894 24.6956 43.7146 22.5574 43.4714 21.3981C43.2281 20.2388 44.0059 16.0163 47.5802 14.7683Z" fill="#F19192"/>
<path d="M18.457 21.1348C18.457 21.1348 18.6974 18.9632 18.2138 17.7588C17.7302 16.5545 17.3064 15.4621 17.3064 15.4621L17.889 15.641V14.9501L18.358 15.2847L18.4876 14.6374L18.7789 14.9952L19.0469 14.6374C19.0469 14.6374 19.9922 16.0919 19.8874 17.8185C19.8319 18.83 19.5915 19.8228 19.178 20.7479L18.457 21.1348Z" fill="#D26C71"/>
<path d="M18.1934 21.6148C18.1934 21.6148 17.5744 20.4134 16.6364 18.8963C15.6984 17.3792 15.3634 16.8236 15.3634 16.8236L15.8994 16.9792L15.8543 16.2432L16.4369 16.4221L16.5927 15.8868C16.9499 16.4063 17.2701 16.9502 17.5511 17.5145C17.9764 18.3872 18.6683 20.8367 18.7163 21.1639L18.1934 21.6148Z" fill="#D26C71"/>
<path d="M18.3041 21.449C18.3041 21.449 16.4645 19.3356 15.914 18.7261C15.3634 18.1167 14.5448 17.1261 14.5448 17.1261L14.4705 17.9436L13.8151 17.8243L13.92 18.2854L13.2951 18.2708C13.2951 18.2708 14.1428 19.8607 14.6934 20.1137C15.244 20.3668 17.8045 21.689 17.8045 21.689L18.3041 21.449Z" fill="#D26C71"/>
<path d="M18.1934 21.6148C18.1934 21.6148 15.4974 21.3414 14.4997 20.361C13.5019 19.3807 12.9368 19.0228 12.9368 19.0228L13.0563 19.6774L12.5203 19.6628L12.9223 20.1821L12.0891 20.0483L12.478 20.5545L11.792 20.5385C12.2283 21.1103 12.8487 21.5146 13.5486 21.6832C14.74 21.9814 17.8205 22.025 17.8205 22.025L18.1934 21.6148Z" fill="#D26C71"/>
<path d="M19.4198 21.8621L19.2829 20.521C19.2829 20.521 17.5496 21.7428 17.5511 22.025H19.2042C19.2042 22.025 21.7269 24.969 22.3824 26.4701C23.0378 27.9712 24.4142 31.4272 24.4142 31.4272L24.7711 31.6948C24.7711 31.6948 23.0626 27.0607 22.3372 25.7647C21.4764 24.2432 19.4198 21.8621 19.4198 21.8621Z" fill="#575E4C"/>
<path d="M25.76 24.8236C25.76 24.8236 21.204 22.169 21.8303 21.1508C22.6737 19.7676 24.7696 22.3217 25.76 24.8236Z" fill="#575E4C"/>
<path d="M26.9733 28.2781C26.9733 28.2781 23.6029 23.209 23.1266 25.1043C22.8193 26.2941 26.9733 28.2781 26.9733 28.2781Z" fill="#575E4C"/>
<path d="M26.9733 28.2781C26.9733 28.2781 25.7164 23.4054 26.8087 23.1988C28.9367 22.7887 26.9733 28.2781 26.9733 28.2781Z" fill="#575E4C"/>
<path d="M27.2238 32.8017C27.2238 32.7348 26.7636 26.089 24.8395 24.1428L25.1512 23.8374C27.1903 25.8985 27.6419 32.4934 27.6593 32.7727L27.2238 32.8017Z" fill="#575E4C"/>
<path d="M27.0811 30.137C27.0811 30.137 24.5249 27.4156 24.3793 28.3916C24.2336 29.3676 27.2486 30.9283 27.2486 30.9283L27.0811 30.137Z" fill="#575E4C"/>
<path d="M27.2282 30.1341C27.2282 30.1341 27.8298 26.9545 28.7503 27.7617C29.6708 28.569 27.2676 30.7188 27.2676 30.7188L27.2282 30.1341Z" fill="#575E4C"/>
<path d="M29.2921 15.4068C29.2921 15.4068 30.8622 13.6977 31.2482 14.0977C31.6342 14.4977 30.4267 15.7225 29.2921 15.4068Z" fill="#575E4C"/>
<path d="M30.8521 11.6745C30.8521 11.6745 30.0437 9.79229 30.7617 9.36902C31.4798 8.94574 31.3225 11.0316 31.3225 11.0316L30.8521 11.6745Z" fill="#575E4C"/>
<path d="M16.0611 25.9203V45.4825H47.4214V26.4076L32.4761 34.2461L16.0611 25.9203Z" fill="#384895"/>
<path d="M16.0611 45.4825V45.1814L32.4761 34.2461L47.4214 45.1727V45.4825L32.4717 34.5719L16.0611 45.4825Z" fill="white"/>
</svg>
