<svg width="341" height="313" viewBox="0 0 341 313" fill="none" xmlns="http://www.w3.org/2000/svg">
<path d="M304.653 266.791C304.659 265.383 319.394 263.06 319.394 263.06C319.394 263.06 323.213 249.984 323.88 250.433C324.547 250.883 325.142 262.365 325.142 262.365C325.142 262.365 341.019 265.222 340.742 267.385C340.511 269.174 324.283 269.369 324.283 269.369C324.283 269.369 323.84 282.089 321.984 283.064C321.29 283.429 318.528 269.657 318.528 269.657C318.528 269.657 304.646 268.199 304.653 266.791Z" fill="white"/>
<path d="M-0.104796 285.023C0.331288 283.276 19.3274 286.965 19.3274 286.965C19.3274 286.965 28.0755 272.456 28.7759 273.312C29.4763 274.169 26.721 288.695 26.721 288.695C26.721 288.695 45.5586 299.337 44.5609 301.881C43.7284 304.001 23.5165 297.005 23.5165 297.005C23.5165 297.005 19.116 312.591 16.5127 312.973C15.5348 313.125 16.288 294.792 16.288 294.792C16.288 294.792 -0.540881 286.77 -0.104796 285.023Z" fill="white"/>
<path d="M-37.3901 18.6095C-37.5421 17.3121 -24.3274 12.4616 -24.3274 12.4616C-24.3274 12.4616 -22.0082 -0.275294 -21.3607 0.00454347C-20.7131 0.284381 -19.134 10.7656 -19.134 10.7656C-19.134 10.7656 -4.44584 10.4772 -4.4987 12.5209C-4.55156 14.2169 -19.2859 17.3799 -19.2859 17.3799C-19.2859 17.3799 -18.5393 29.1755 -20.1317 30.4136C-20.733 30.88 -24.4925 18.6943 -24.4925 18.6943C-24.4925 18.6943 -37.2381 19.907 -37.3901 18.6095Z" fill="white"/>
<path d="M99.3226 180.33C99.3226 177.133 115.504 181 115.504 181C115.504 181 113.542 162.615 115.359 162.14C116.991 161.691 121.147 178.43 121.147 178.43C121.147 178.43 130.721 156.849 133.172 158.452C135.623 160.054 127.827 182.195 127.827 182.195C127.827 182.195 141.636 178.515 141.636 180.661C141.636 182.806 131.467 188.293 131.467 188.293C131.467 188.293 144.53 198.375 143.863 200.266C143.195 202.157 128.943 196.484 128.943 196.484C128.943 196.484 130.952 208.356 128.943 208.356C126.935 208.356 122.633 200.08 122.633 200.08C122.633 200.08 118.246 222.39 117.585 221.585C116.925 220.779 117.585 200.8 117.585 200.8C117.585 200.8 105.111 203.506 106.624 200.8C108.137 198.095 113.925 191.473 113.925 191.473C113.925 191.473 99.3226 183.527 99.3226 180.33Z" fill="white"/>
</svg>
