<svg width="1408" height="742" viewBox="0 0 1408 742" fill="none" xmlns="http://www.w3.org/2000/svg">
<g opacity="0.45">
<path d="M297.718 272.367C297.718 272.367 287.339 286.814 285.857 285.867C284.376 284.92 290.342 268.812 290.342 268.812C290.342 268.812 277.386 256.494 278.143 255.988C280.173 254.632 293.74 262.748 293.74 262.748C293.74 262.748 302.693 245.236 304.713 246.211C307.119 247.367 301.565 266.563 301.565 266.563C301.565 266.563 313.316 275.003 313.395 276.001C313.474 276.999 297.718 272.367 297.718 272.367ZM722.44 655.223C722.44 655.223 712.101 669.687 710.581 668.733C709.06 667.779 715.065 651.678 715.065 651.678C715.065 651.678 702.11 639.36 702.871 638.85C704.89 637.493 718.463 645.614 718.463 645.614C718.463 645.614 727.417 628.102 729.437 629.077C731.847 630.229 726.287 649.419 726.287 649.419C726.287 649.419 738.038 657.86 738.113 658.861C738.188 659.863 722.44 655.223 722.44 655.223ZM463.215 145.209C463.215 145.209 458.11 153.028 456.787 151.668C455.463 150.308 458.216 141.348 458.216 141.348C458.216 141.348 453.071 140.736 451.349 140.183C449.626 139.629 455.884 136.003 455.884 136.003C455.884 136.003 447.322 127.739 447.26 127.143C447.199 126.547 458.275 134.377 458.275 134.377C458.275 134.377 456.625 129.208 457.454 128.443C458.284 127.679 462.398 133.522 462.398 133.522C462.398 133.522 465.95 125.666 467.008 126.212C468.066 126.757 466.822 136.018 466.822 136.018C466.822 136.018 473.312 134.48 474.208 135.399C475.103 136.319 467.851 140.016 467.851 140.016C467.851 140.016 480.262 146.477 479.919 148.099C479.576 149.722 466.656 144.179 466.656 144.179C466.656 144.179 471.884 152.882 471.009 153.325C470.032 153.796 463.215 145.209 463.215 145.209ZM117.624 232.815C117.624 232.815 112.524 240.63 111.206 239.276C109.888 237.921 112.625 228.954 112.625 228.954C112.625 228.954 107.481 228.342 105.758 227.788C104.035 227.235 110.298 223.605 110.298 223.605C110.298 223.605 101.737 215.351 101.674 214.745C101.611 214.139 112.685 221.983 112.685 221.983C112.685 221.983 111.034 216.813 111.864 216.049C112.693 215.285 116.807 221.128 116.807 221.128C116.807 221.128 120.36 213.272 121.423 213.823C122.486 214.374 121.237 223.629 121.237 223.629C121.237 223.629 127.722 222.085 128.617 223.005C129.512 223.925 122.266 227.627 122.266 227.627C122.266 227.627 134.676 234.079 134.329 235.705C133.982 237.331 121.066 231.784 121.066 231.784C121.066 231.784 126.299 240.493 125.424 240.936C124.414 241.373 117.624 232.815 117.624 232.815Z" fill="white"/>
<path d="M1270.96 80.0985C1270.96 80.0985 1264.07 74.2346 1264.59 73.7123C1265.11 73.1901 1272.97 77.3766 1272.97 77.3766C1272.97 77.3766 1279.52 73.2312 1279.75 73.6016C1280.36 74.5945 1275.89 79.436 1275.89 79.436C1275.89 79.436 1284.36 85.0223 1283.81 85.7675C1283.16 86.6556 1273.74 82.3188 1273.74 82.3188C1273.74 82.3188 1269.16 86.3645 1268.66 86.2934C1268.16 86.2222 1270.96 80.0985 1270.96 80.0985ZM1066.54 218.19C1066.54 218.19 1059.63 212.341 1060.16 211.803C1060.68 211.265 1068.54 215.468 1068.54 215.468C1068.54 215.468 1075.09 211.322 1075.32 211.695C1075.94 212.684 1071.46 217.527 1071.46 217.527C1071.46 217.527 1079.93 223.113 1079.38 223.858C1078.73 224.749 1069.32 220.41 1069.32 220.41C1069.32 220.41 1064.74 224.456 1064.23 224.383C1063.73 224.309 1066.54 218.19 1066.54 218.19ZM1329.33 162.806C1329.33 162.806 1325.58 159.847 1326.3 159.434C1327.02 159.021 1331.41 161.113 1331.41 161.113C1331.41 161.113 1331.88 159.019 1332.21 158.355C1332.54 157.69 1334.15 160.694 1334.15 160.694C1334.15 160.694 1338.55 157.967 1338.85 158.004C1339.15 158.04 1334.89 161.867 1334.89 161.867C1334.89 161.867 1337.52 161.715 1337.88 162.143C1338.24 162.571 1335.19 163.685 1335.19 163.685C1335.19 163.685 1339 165.997 1338.7 166.383C1338.39 166.77 1333.81 165.28 1333.81 165.28C1333.81 165.28 1334.37 168.163 1333.88 168.442C1333.4 168.721 1331.78 165.293 1331.78 165.293C1331.78 165.293 1328.16 169.823 1327.36 169.509C1326.56 169.196 1329.73 164.357 1329.73 164.357C1329.73 164.357 1325.23 165.639 1325.03 165.226C1324.83 164.767 1329.33 162.806 1329.33 162.806ZM1296.31 8.70313C1296.31 8.70313 1292.57 5.74685 1293.29 5.33559C1294 4.92433 1298.4 7.01035 1298.4 7.01035C1298.4 7.01035 1298.86 4.91667 1299.19 4.25205C1299.52 3.58743 1301.14 6.59355 1301.14 6.59355C1301.14 6.59355 1305.53 3.86618 1305.84 3.90325C1306.14 3.94032 1301.88 7.76425 1301.88 7.76425C1301.88 7.76425 1304.51 7.61266 1304.87 8.04039C1305.22 8.46812 1302.18 9.58261 1302.18 9.58261C1302.18 9.58261 1305.99 11.894 1305.68 12.2824C1305.37 12.6707 1300.79 11.1788 1300.79 11.1788C1300.79 11.1788 1301.36 14.06 1300.87 14.3393C1300.39 14.6186 1298.76 11.1922 1298.76 11.1922C1298.76 11.1922 1295.15 15.7224 1294.35 15.4068C1293.55 15.0911 1296.72 10.2541 1296.72 10.2541C1296.72 10.2541 1292.21 11.5381 1292.02 11.1249C1291.83 10.6558 1296.31 8.70313 1296.31 8.70313Z" fill="white"/>
<path d="M440.782 617.26C440.791 615.443 459.779 612.444 459.779 612.444C459.779 612.444 464.7 595.568 465.56 596.148C466.42 596.728 467.186 611.547 467.186 611.547C467.186 611.547 487.647 615.235 487.29 618.026C486.992 620.335 466.079 620.587 466.079 620.587C466.079 620.587 465.509 637.004 463.116 638.262C462.222 638.733 458.663 620.959 458.663 620.959C458.663 620.959 440.774 619.077 440.782 617.26Z" fill="white"/>
<path d="M48.0502 640.791C48.6121 638.536 73.0919 643.297 73.0919 643.297C73.0919 643.297 84.3654 624.571 85.2679 625.676C86.1705 626.782 82.6198 645.53 82.6198 645.53C82.6198 645.53 106.895 659.265 105.61 662.548C104.537 665.285 78.4902 656.255 78.4902 656.255C78.4902 656.255 72.8194 676.371 69.4646 676.864C68.2045 677.061 69.1751 653.399 69.1751 653.399C69.1751 653.399 47.4882 643.045 48.0502 640.791Z" fill="white"/>
<path d="M0.00170892 296.947C-0.194129 295.272 16.8353 289.012 16.8353 289.012C16.8353 289.012 19.8239 272.573 20.6584 272.934C21.4928 273.296 23.5278 286.823 23.5278 286.823C23.5278 286.823 42.456 286.451 42.3879 289.088C42.3198 291.277 23.332 295.36 23.332 295.36C23.332 295.36 24.2942 310.584 22.2421 312.181C21.4673 312.783 16.6224 297.056 16.6224 297.056C16.6224 297.056 0.197547 298.621 0.00170892 296.947Z" fill="white"/>
<path d="M176.179 505.67C176.179 501.544 197.032 506.534 197.032 506.534C197.032 506.534 194.503 482.806 196.845 482.194C198.948 481.613 204.303 503.218 204.303 503.218C204.303 503.218 216.641 475.364 219.8 477.433C222.959 479.501 212.912 508.077 212.912 508.077C212.912 508.077 230.708 503.327 230.708 506.096C230.708 508.865 217.603 515.947 217.603 515.947C217.603 515.947 234.437 528.96 233.577 531.4C232.717 533.841 214.351 526.519 214.351 526.519C214.351 526.519 216.939 541.841 214.351 541.841C211.762 541.841 206.219 531.159 206.219 531.159C206.219 531.159 200.565 559.954 199.714 558.915C198.863 557.875 199.714 532.09 199.714 532.09C199.714 532.09 183.638 535.581 185.588 532.09C187.538 528.598 194.997 520.051 194.997 520.051C194.997 520.051 176.179 509.796 176.179 505.67Z" fill="white"/>
<path d="M1057.23 639.215C1058.35 639.603 1056.19 651.717 1056.19 651.717C1056.19 651.717 1065.5 658.247 1064.97 658.645C1064.43 659.043 1055.18 656.385 1055.18 656.385C1055.18 656.385 1048.61 667.982 1046.97 667.178C1045.62 666.511 1049.87 653.812 1049.87 653.812C1049.87 653.812 1039.92 650.01 1039.65 648.298C1039.55 647.658 1051.2 649.249 1051.2 649.249C1051.2 649.249 1056.12 638.827 1057.23 639.215Z" fill="white"/>
<path d="M1125.51 396.765C1126.77 397.58 1118.7 411.381 1118.7 411.381C1118.7 411.381 1127.81 422.142 1126.94 422.455C1126.08 422.768 1115.32 416.672 1115.32 416.672C1115.32 416.672 1101.78 428.46 1100.04 426.991C1098.59 425.766 1109.61 411.916 1109.61 411.916C1109.61 411.916 1098.47 404.251 1098.87 402.118C1099.02 401.315 1113.33 406.885 1113.33 406.885C1113.33 406.885 1124.25 395.951 1125.51 396.765Z" fill="white"/>
<path d="M1346.56 440.124C1347.63 440.358 1347.88 451.974 1347.88 451.974C1347.88 451.974 1357.34 457.244 1356.94 457.672C1356.54 458.101 1347.82 456.482 1347.82 456.482C1347.82 456.482 1344.06 468.007 1342.46 467.41C1341.13 466.908 1342.62 454.566 1342.62 454.566C1342.62 454.566 1333.08 451.942 1332.53 450.364C1332.33 449.769 1342.99 450.152 1342.99 450.152C1342.99 450.152 1345.49 439.889 1346.56 440.124Z" fill="white"/>
<path d="M1181.42 502.705C1183.95 503.574 1176.49 515.133 1176.49 515.133C1176.49 515.133 1191.58 518.601 1191.47 520.146C1191.38 521.54 1177 520.228 1177 520.228C1177 520.228 1191.49 533.555 1189.55 535.03C1187.62 536.505 1172.2 524.411 1172.2 524.411C1172.2 524.411 1171.37 536.173 1169.67 535.589C1167.97 535.006 1166.39 525.591 1166.39 525.591C1166.39 525.591 1154.86 533.03 1153.54 531.996C1152.23 530.962 1160.59 521.397 1160.59 521.397C1160.59 521.397 1150.64 519.735 1151.19 518.17C1151.73 516.605 1159.45 515.502 1159.45 515.502C1159.45 515.502 1142.98 506.019 1143.8 505.723C1144.61 505.427 1160.25 511.373 1160.25 511.373C1160.25 511.373 1161.5 500.916 1163.23 502.83C1164.96 504.745 1168.63 511.056 1168.63 511.056C1168.63 511.056 1178.89 501.836 1181.42 502.705Z" fill="white"/>
<path d="M782.442 604.312L853.878 587.694L853.088 584.898L781.652 601.517L782.442 604.312ZM734.999 490.02L807.217 430.03L805.358 427.755L733.148 487.752L734.999 490.02ZM380.399 378.426L382.017 376.199L344.792 346.714L343.173 348.934L380.399 378.426ZM809.589 262.559C809.589 262.559 811.414 242.611 809.916 242.153C808.417 241.696 802.771 259.389 802.771 259.389C802.771 259.389 787.232 258.599 787.42 259.625C787.926 262.351 801.393 266.977 801.393 266.977C801.393 266.977 796.849 288.195 798.703 289.069C800.92 290.116 808.631 270.341 808.631 270.341C808.631 270.341 821.089 273.227 821.759 272.499C822.428 271.77 809.589 262.559 809.589 262.559ZM905.65 363.541C905.65 363.541 907.81 346.555 905.116 346.555C902.423 346.555 896.688 361.883 896.688 361.883C896.688 361.883 890.7 355.801 888.314 354.254C885.929 352.707 889.058 365.754 889.058 365.754C889.058 365.754 872.136 365.06 871.493 365.754C870.85 366.447 890.01 371.053 890.01 371.053C890.01 371.053 883.304 375.575 883.44 377.677C883.576 379.779 893.469 377.677 893.469 377.677C893.469 377.677 889.645 392.645 891.288 393.345C892.931 394.046 900.561 380.326 900.561 380.326C900.561 380.326 905.894 391.008 907.7 391.008C909.505 391.008 905.472 376.512 905.472 376.512C905.472 376.512 924.706 384.696 925.894 382.123C927.081 379.55 908.199 369.499 908.199 369.499C908.199 369.499 922.058 365.136 921.567 363.416C921.062 361.481 905.65 363.541 905.65 363.541ZM985.562 332.891L987.188 330.664L949.962 301.179L948.336 303.399L985.562 332.891ZM1275.1 218.765C1275.1 218.765 1276.92 198.817 1275.42 198.359C1273.91 197.901 1268.29 215.574 1268.29 215.574C1268.29 215.574 1252.75 214.784 1252.94 215.803C1253.44 218.536 1266.91 223.162 1266.91 223.162C1266.91 223.162 1262.36 244.373 1264.22 245.247C1266.44 246.301 1274.15 226.519 1274.15 226.519C1274.15 226.519 1286.61 229.405 1287.27 228.67C1287.94 227.934 1275.1 218.765 1275.1 218.765ZM1305.61 662.603C1305.61 662.603 1307.77 645.617 1305.08 645.617C1302.38 645.617 1296.65 660.945 1296.65 660.945C1296.65 660.945 1290.66 654.869 1288.27 653.316C1285.89 651.762 1289.02 664.823 1289.02 664.823C1289.02 664.823 1272.09 664.129 1271.45 664.823C1270.81 665.516 1289.98 670.087 1289.98 670.087C1289.98 670.087 1283.27 674.602 1283.41 676.711C1283.55 678.82 1293.44 676.711 1293.44 676.711C1293.44 676.711 1289.62 691.672 1291.26 692.373C1292.9 693.073 1300.53 679.361 1300.53 679.361C1300.53 679.361 1305.86 690.035 1307.67 690.035C1309.48 690.035 1305.44 675.539 1305.44 675.539C1305.44 675.539 1324.68 683.723 1325.86 681.15C1327.05 678.577 1308.17 668.527 1308.17 668.527C1308.17 668.527 1322.03 664.164 1321.54 662.451C1321.02 660.543 1305.61 662.603 1305.61 662.603ZM1374.88 362.411L1376.51 360.184L1339.28 330.699L1337.66 332.919L1374.88 362.411ZM295.095 575.812L297.447 574.411L275.794 538.933L273.449 540.334L295.095 575.812ZM242.874 742L323.545 733.705L323.082 730.854L242.409 739.142L242.874 742Z" fill="white"/>
</g>
</svg>
