<svg preserveAspectRatio="none" width="100%" height="100%" overflow="visible" style="display: block;" viewBox="0 0 194 2" fill="none" xmlns="http://www.w3.org/2000/svg">
<path id="Line 1" d="M1.84786 0.0101698C2.93498 -0.015883 4.36002 0.0119737 5.44304 0.0502087C5.78245 0.0620673 5.61058 0.115075 5.84489 0.125648C6.30313 0.146258 6.73005 0.120261 7.1829 0.144813C7.33298 0.153209 7.14617 0.237174 7.30353 0.244056C8.16587 0.281163 8.98167 0.259777 9.85523 0.277625C14.1581 0.365685 18.3877 0.397205 22.7433 0.435461C24.1794 0.448004 25.9252 0.524206 27.4085 0.490881C27.5817 0.486916 27.4785 0.413216 27.5114 0.407141C28.0282 0.31415 27.8563 0.462935 28.1937 0.482702C29.5328 0.560754 31.0219 0.567542 32.3107 0.539099C32.8589 0.526782 32.3092 0.380395 32.8613 0.462561C32.8996 0.468112 32.7605 0.546377 32.9108 0.554724C33.2518 0.573498 33.8987 0.559509 34.163 0.56571C34.6723 0.578057 34.7566 0.577269 35.2383 0.578161C35.8968 0.580061 36.6801 0.618966 37.3867 0.601232C37.5375 0.597215 37.3378 0.516985 37.5783 0.503332C37.8191 0.489702 38.456 0.496505 38.6707 0.515417C38.8854 0.534339 38.794 0.597399 38.832 0.611852C39.1447 0.733849 39.8814 0.564884 39.9761 0.560705C41.7044 0.489506 43.1864 0.58576 44.8087 0.585485C46.0402 0.585073 47.3571 0.553296 48.5289 0.557653C49.925 0.563155 51.1082 0.606631 52.4645 0.599157C52.6077 0.598461 52.4399 0.504129 52.6147 0.503088C54.4721 0.492111 56.3165 0.502394 58.1659 0.566076C58.3513 0.572546 58.1123 0.655368 58.2976 0.666784C59.4321 0.734849 61.2271 0.898357 61.9009 0.537756C62.6694 0.551837 63.6023 0.566385 64.2898 0.639074C64.7331 0.685858 64.3025 0.776084 64.8471 0.737585C64.9699 0.729007 64.8102 0.649991 64.9943 0.643102C65.7698 0.614176 66.6169 0.639861 67.384 0.599035C67.54 0.590545 67.4974 0.519744 67.5416 0.506994C67.9131 0.403741 68.5316 0.574425 68.6665 0.586828C69.6932 0.679315 70.443 0.642919 71.3995 0.645178C71.6215 0.645741 71.3591 0.550639 71.5727 0.547766C72.6804 0.534136 73.8279 0.54231 74.9125 0.584509C75.1538 0.594124 74.9319 0.675134 75.0472 0.683874C75.5556 0.721424 75.6683 0.568417 76.1558 0.601477C76.2586 0.60825 76.2007 0.6776 76.2195 0.685217C76.5129 0.804778 76.7679 0.635368 76.8433 0.631628C77.7981 0.580523 78.4083 0.757378 79.3306 0.732335C79.441 0.729161 79.1922 0.641412 79.5023 0.637853C81.5687 0.61363 83.7541 0.637735 85.7994 0.707922C86.1175 0.718716 85.8904 0.784634 85.9105 0.79276C86.2366 0.919728 86.4476 0.749606 86.5513 0.7432C87.3694 0.697082 88.1335 0.839748 88.6894 0.637121C92.1538 0.707439 95.6024 0.593653 99.0383 0.775182C99.082 0.777285 99.0037 0.86107 99.0908 0.864903C100.14 0.911948 99.9387 0.781731 100.633 0.622473C100.808 0.582482 101.34 0.77476 101.387 0.788854C101.559 0.840791 101.381 0.96544 101.438 0.975499C101.914 1.05448 101.836 0.642259 102.477 0.642126C102.497 0.642813 102.413 0.718688 102.467 0.726232C102.634 0.749917 102.8 0.719767 102.963 0.745885C103.338 0.806321 103.471 1.00663 104.043 0.89005C104.116 0.87492 104.005 0.64109 104.578 0.652136C104.806 0.656738 105.816 0.65273 106.099 0.667883C106.382 0.683018 106.188 0.758369 106.208 0.761632C106.97 0.861272 106.681 0.902568 107.063 1.05008C107.444 1.19704 107.338 0.846531 107.494 0.807409C107.65 0.768397 108.209 0.850607 108.346 0.879186C108.483 0.907777 108.312 0.955658 108.434 0.971837C109.243 1.07755 108.789 0.797855 109.056 0.742223C109.684 0.610497 110.174 0.870438 110.749 0.895909C110.905 0.902788 110.778 0.843585 110.916 0.838048C111.465 0.816904 111.795 0.898013 112.42 0.823644C112.522 0.811525 113.027 0.655241 113.354 0.769933C113.4 0.786471 113.269 0.851248 113.503 0.865758C113.852 0.887534 114.482 0.901692 114.858 0.88004C115.135 0.86402 114.817 0.757283 115.166 0.790441C115.321 0.805246 115.034 0.867688 115.325 0.890294C115.615 0.912893 116.357 0.91015 116.639 0.907994C116.921 0.905791 116.766 0.824826 116.789 0.819371C116.927 0.788126 117.467 0.749085 117.515 0.749181C119.924 0.739297 122.146 0.875772 124.492 0.830602C124.676 0.827174 124.553 0.741795 124.581 0.740392C125.211 0.70462 124.715 0.931622 125.155 1.0076C125.091 0.834345 125.351 0.865716 125.795 0.846715C126.009 0.837418 125.892 0.770331 125.912 0.763463C126.229 0.661566 126.45 0.79318 126.507 0.820104C126.717 0.919144 126.946 0.802121 127.088 0.868321C127.231 0.934027 126.903 1.03143 127.328 1.03019C127.448 0.968165 127.132 0.806089 127.455 0.779821C128.674 0.680461 130.951 0.807627 131.931 0.820836C132.91 0.834035 133.226 0.822592 133.796 0.845006C134.826 0.885533 134.449 0.765283 135.088 0.710241C135.73 0.655205 135.418 0.951079 135.51 1.01468C135.601 1.07826 135.7 1.01281 135.812 1.04776C135.924 1.08271 135.681 1.12595 135.945 1.13907C136.21 1.15218 136.932 1.03907 137.025 0.972569C137.223 0.831672 136.898 0.683794 137.596 0.735753C137.637 0.738837 137.506 0.816636 137.66 0.824498C138.882 0.884391 140.152 0.888103 141.373 0.941075C141.541 0.948481 141.391 1.03503 141.488 1.04032C142.506 1.09568 142.142 0.949745 142.7 0.787633C142.575 1.00337 142.883 1.13536 143.655 1.13663C144.119 1.13747 144.04 1.04325 144.34 0.976842C144.43 0.956823 144.758 1.02152 144.818 0.977208C145.014 0.83236 144.705 0.670211 145.501 0.734777C145.536 0.737845 145.425 0.817133 145.545 0.821935C146.326 0.853365 146.419 0.701856 147.262 0.683508C147.923 0.66911 149.099 0.761499 149.852 0.776525C149.836 1.01907 150.547 0.963534 150.835 0.7963C151.324 0.803147 151.851 0.793693 152.324 0.816808C152.486 0.824689 152.379 0.894913 152.4 0.902501C152.714 1.02153 152.926 0.858831 153.032 0.852452C154.175 0.790448 155.106 0.913761 156.196 0.793248C156.235 0.788908 156.298 0.620426 156.589 0.743444C156.608 0.751924 156.248 0.82858 156.761 0.834508C157.274 0.840449 158.241 0.930768 158.954 0.852696C159.126 0.833901 159.562 0.697128 159.912 0.803991C159.959 0.818502 159.908 0.866823 159.975 0.893712C160.193 0.979391 160.311 0.809097 160.567 0.95377C160.823 1.09844 161.355 1.20678 162.073 1.10697C162.096 1.10407 162.266 0.969092 162.492 0.971226C162.853 0.974749 163.364 1.00287 163.741 1.00199C163.921 1.00152 163.806 0.917706 163.837 0.916173C165.05 0.869207 165.912 0.943926 167.211 0.976353C167.449 0.982464 168.133 0.868173 168.594 0.958531C169.1 1.05745 168.58 1.46891 169.744 1.37088C170.213 1.33167 170.807 0.809653 171.65 1.08011C173.285 1.01309 174.798 1.15151 176.437 1.05582C176.511 1.05158 176.744 0.905889 176.918 0.907872C177.175 0.911098 177.316 0.979192 177.5 0.983677C178.27 1.00419 178.975 0.945929 179.717 0.954991C179.999 0.958284 179.901 1.02869 180.237 1.03263C180.573 1.0365 180.797 0.943782 181.252 0.98856C181.596 1.02269 181.94 1.2122 182.396 1.23429C182.414 1.04736 182.727 1.05121 183.284 1.00187C183.391 0.992292 183.277 0.927231 183.327 0.919347C183.534 0.885814 183.724 0.939735 183.92 0.903233C183.968 0.894467 183.97 0.83063 184.009 0.81986C184.34 0.725848 184.885 0.869442 184.979 0.894444C185.338 0.989396 185.506 0.906369 185.781 0.943761C186.056 0.981147 185.645 1.02788 185.966 1.05057C186.632 1.0975 187.487 1.08719 188.164 1.09012C188.433 1.0909 188.249 1.00569 188.288 1.00382C188.846 0.982207 189.41 1.07285 189.719 0.903111C190.106 1.34199 190.056 0.860543 190.853 0.948399C190.916 0.955505 190.996 1.16305 190.754 1.19352C190.513 1.22396 190.148 1.15908 189.813 1.20658C189.734 1.21772 189.28 1.4122 189.218 1.42398C188.733 1.51605 188.664 1.20591 188.639 1.18888C188.348 1.00505 187.793 1.21456 187.647 1.22904C186.979 1.29537 186.411 1.25176 185.852 1.29911C185.487 1.32971 185.451 1.53286 185.164 1.52664C184.21 1.50609 183.877 1.22269 182.978 1.46842C182.785 1.52083 182.977 1.74287 182.286 1.56827C182.243 1.55726 181.73 1.39754 181.434 1.49857C181.396 1.51131 181.397 1.57602 181.348 1.58145C181.019 1.61662 180.8 1.56506 180.442 1.58975C180.084 1.61445 179.653 1.65125 179.244 1.62931C178.997 1.61618 178.681 1.49562 178.563 1.4661C178.23 1.38107 177.872 1.52048 177.666 1.41751C177.458 1.31403 177.865 1.15687 177.319 1.09C177.299 1.25812 177.252 1.43069 177.22 1.59976C176.023 1.59384 174.846 1.53948 173.646 1.54691C173.497 1.548 173.649 1.63838 173.49 1.64188C172.817 1.65624 172.229 1.59181 171.531 1.61746C170.991 1.63767 170.398 1.73337 169.833 1.75748C169.488 1.5651 168.65 1.63041 168.041 1.61283C167.827 1.60675 167.842 1.55537 167.69 1.53861C167.118 1.47661 167.386 1.64662 167.229 1.67337C166.556 1.78756 166.498 1.40276 165.704 1.41226C165.662 1.41264 165.148 1.61775 165.078 1.63053C164.628 1.71382 165.003 1.55913 164.722 1.54398C164.208 1.51628 163.851 1.4673 163.247 1.52738C163.072 1.54517 162.65 1.67302 162.308 1.57413C162.263 1.56118 162.288 1.49338 162.252 1.48941C161.598 1.42323 161.58 1.63626 161.206 1.70841C160.832 1.78054 160.255 1.63348 160.137 1.5911C159.829 1.48145 160.373 1.54424 160.389 1.53348C160.585 1.40543 160.164 1.42748 159.842 1.41666C159.795 1.20778 159.345 1.22032 159.508 1.40628C159.527 1.4266 159.777 1.40712 159.842 1.41666C159.559 1.6216 159.064 1.64784 158.518 1.45633C158.262 1.36657 158.504 1.26192 157.727 1.3002C157.374 1.31749 157.51 1.46131 157.199 1.50052C156.488 1.58999 155.564 1.45582 154.831 1.47696C154.565 1.48464 154.824 1.56336 154.642 1.57132C154.16 1.59269 153.734 1.53362 153.249 1.56388C153.205 1.56672 153.313 1.64913 153.162 1.65018C152.02 1.65975 151.025 1.60696 149.832 1.6055C149.255 1.60483 148.225 1.65028 147.628 1.64115C146.593 1.62579 145.32 1.50595 144.436 1.53507C143.859 1.5537 143.986 1.63613 143.739 1.69229C143.262 1.80116 142.418 1.60616 142.305 1.57596C142.301 1.57496 142.797 1.55553 142.533 1.51322C142.379 1.42505 142.31 1.57558 142.305 1.57596C142.23 1.55645 141.239 1.53774 141.042 1.5535C140.935 1.56211 140.995 1.64021 140.939 1.64322C139.614 1.71311 138.286 1.73296 136.942 1.69644C136.919 1.69487 136.954 1.60751 136.899 1.60489C136.12 1.56605 135.622 1.67291 134.98 1.73636C134.339 1.79978 133.83 1.77854 133.45 1.62857C132.966 1.64745 132.271 1.58116 131.871 1.54093C131.472 1.5007 131.416 1.67074 131.381 1.6741C130.284 1.7817 129.65 1.68437 128.512 1.66922C127.971 1.66173 126.897 1.68639 126.311 1.70499C125.848 1.71997 125.569 1.68012 125.143 1.7056C125.085 1.709 125.143 1.78471 125.126 1.78763C124.65 1.87822 124.879 1.69312 124.78 1.66007C124.424 1.53985 124.204 1.47583 123.594 1.53238C123.453 1.54533 123.044 1.81184 122.787 1.82742C122.454 1.8472 122.58 1.75167 122.231 1.77481C122.201 1.77671 122.207 1.83564 121.992 1.83304C120.992 1.82175 119.902 1.78746 118.863 1.79337C118.721 1.79395 118.903 1.88742 118.698 1.8898C117.736 1.90088 116.681 1.89742 115.743 1.85367C115.513 1.84261 115.657 1.77716 115.607 1.75772C115.3 1.64014 114.864 1.81099 114.792 1.81424C113.075 1.89634 111.762 1.74173 110.012 1.81534C109.917 1.81966 109.184 2.00281 108.857 1.84574C108.835 1.83528 108.511 1.67458 108.225 1.78446C108.207 1.79133 108.409 1.87407 108.057 1.86563C107.705 1.85722 107.139 1.91247 106.656 1.82157C106.503 1.79293 106.141 1.63262 105.684 1.76041C105.654 1.76933 104.949 2.05828 104.697 1.85892C104.657 1.8261 104.699 1.61513 104.154 1.7233C104.05 1.74427 104.239 1.79133 103.965 1.82071C103.544 1.866 102.987 1.80949 102.471 1.90347C102.38 1.92011 101.997 2.06331 101.689 1.95462C101.641 1.9376 101.732 1.86717 101.57 1.85929C100.797 1.82148 99.9879 1.86859 99.2033 1.81986C98.9254 1.80273 99.0674 1.68887 98.7778 1.65836C98.488 1.62786 97.9042 1.59851 97.6011 1.65055C97.2978 1.7026 97.6291 1.88407 97.1748 1.89859C95.1999 1.96166 93.2434 1.8552 91.2714 1.83963C90.9789 1.83731 91.2214 1.90224 90.7904 1.90347C89.2012 1.90831 86.4576 1.96919 85.0786 1.83121C83.9738 1.72069 85.3642 1.63656 84.5199 1.59159C84.1125 1.57013 83.6717 1.78111 83.5734 1.78775C82.6126 1.85522 81.9449 1.76176 81.0801 1.79044C80.9016 1.79639 81.0767 1.8819 80.9247 1.88602C80.4056 1.90085 79.86 1.86268 79.3639 1.86966C79.1414 1.87299 79.1824 1.9383 78.9776 1.93326C78.4877 1.92195 78.0544 1.8945 77.5767 1.83328C77.5332 1.82771 77.8267 1.74646 77.4642 1.74344C76.8775 1.73878 76.1493 1.67839 75.4742 1.74076C75.274 1.75951 75.2661 1.90878 74.8356 1.8057C74.7453 1.78417 74.8605 1.60493 74.359 1.7598C74.2746 1.78553 73.4322 1.99442 73.0187 1.85977C72.9097 1.82434 72.6313 1.67767 72.3904 1.70072C72.3578 1.70439 72.4886 1.78457 72.289 1.79239C71.5857 1.81856 70.8485 1.81 70.1259 1.83512C69.9329 1.84198 70.2203 1.92495 69.9327 1.93253C69.1418 1.9535 68.1544 1.93237 67.381 1.9064C67.0959 1.89667 67.293 1.82795 67.2722 1.82047C66.9386 1.69882 66.7413 1.86302 66.6306 1.87259C65.9419 1.92992 65.4175 1.85279 64.7827 1.8732C64.6075 1.87863 64.7317 1.95692 64.6968 1.9639C64.3352 2.03211 64.6046 1.89151 64.3757 1.87601C63.7343 1.83212 63.0194 1.83842 62.3709 1.84842C62.1326 1.85221 62.4004 1.94299 62.1866 1.94534C60.9212 1.96099 59.6058 1.9523 58.3709 1.90225C58.1384 1.89267 58.2846 1.82276 58.2362 1.80679C57.9022 1.69509 57.4127 1.84746 57.3 1.86197C56.7879 1.92824 56.5889 1.86642 56.1367 1.87796C53.9272 1.93541 51.1991 1.89447 49.1135 1.86917C46.3958 1.83662 44.2869 1.77012 41.6953 1.78739C41.5305 1.7884 41.6966 1.88139 41.5547 1.88345C39.7214 1.90587 37.9166 1.86953 36.0797 1.89639C35.929 1.89843 36.1463 1.98659 35.9043 1.99283C35.4081 2.00624 34.7795 2.00145 34.2777 1.9733C34.033 1.95974 34.3612 1.88409 34.1149 1.87198C33.5413 1.84362 32.9265 1.83734 32.3373 1.85147C32.0866 1.85768 32.4649 1.94784 32.139 1.94888C29.919 1.95783 27.7388 1.97336 25.4955 1.8566C25.3417 1.84858 25.2068 1.66533 24.8798 1.70047C24.8552 1.75133 24.8565 1.81115 24.8457 1.86551C21.6141 1.89479 18.4154 1.83127 15.1747 1.82144C15.0381 1.82105 15.2742 1.91815 15.0097 1.91788C13.4787 1.91644 11.9919 1.94334 10.4258 1.84683C10.2704 1.8374 10.3501 1.66658 9.89223 1.69242C9.81147 1.69713 9.1218 1.71991 8.94349 1.75699C8.91927 1.76258 9.0451 1.84231 8.82286 1.84464C7.53137 1.85674 6.17798 1.83854 4.88874 1.78983C4.68066 1.78181 4.90225 1.69691 4.75405 1.69046C3.70279 1.64539 2.55933 1.70993 1.5548 1.63285C0.882406 1.58094 1.13135 1.43417 0.774044 1.28971C0.723507 1.26932 0.307141 1.26609 0.285609 1.18204C0.230331 0.970681 0.432006 0.739242 0.349254 0.513952C0.33177 0.465427 -0.225852 0.517692 0.104296 0.400427C0.127361 0.392579 0.531639 0.35366 0.631214 0.31388C0.70054 0.286376 0.575611 0.200894 0.71706 0.165687C0.858497 0.130513 1.01392 0.202169 1.24842 0.160804C1.48281 0.118927 1.37975 0.0216813 1.84786 0.0101698ZM130.072 1.36112C129.702 1.27946 129.647 1.57855 130.047 1.50699C130.067 1.50318 130.091 1.36512 130.072 1.36112ZM174.853 1.31388C174.369 1.18195 174.038 1.37593 174.379 1.47782C174.721 1.57959 175 1.35387 174.853 1.31388ZM179.871 1.21756C179.305 1.11355 179.216 1.53768 179.822 1.45194C179.857 1.44709 179.904 1.2236 179.871 1.21756ZM2.43102 1.24857C2.42591 1.2446 2.12661 1.24073 2.11946 1.24466C1.96009 1.33965 2.55857 1.34733 2.43102 1.24857ZM184.85 1.11271C184.673 1.05533 184.165 1.12156 184.384 1.19291C184.561 1.2503 185.069 1.18407 184.85 1.11271ZM110.764 1.0419C110.759 1.03745 110.544 1.03343 110.548 1.05863C110.563 1.13977 110.861 1.11687 110.764 1.0419ZM193.312 1.10782C192.062 1.09186 191.304 0.741508 192.665 0.781041C192.912 0.788194 192.134 0.892765 192.448 0.924351C193.022 0.981896 193.403 0.761919 193.989 0.879796C194.095 0.901371 193.383 1.10951 193.31 1.10831C193.311 1.10815 193.311 1.10799 193.312 1.10782ZM129.858 1.00187C129.851 0.997911 129.554 0.994161 129.547 0.998082C129.386 1.09304 129.984 1.10065 129.858 1.00187ZM98.2434 0.856969C98.227 0.848541 97.5377 0.840659 97.5152 0.848424C97.1556 1.0037 98.5493 1.0201 98.2434 0.856969ZM149.864 0.782995C150.188 0.68747 150.575 0.676223 150.834 0.796178C150.512 0.78981 150.187 0.788872 149.864 0.782995Z" fill="var(--stroke-0, #6063A6)"/>
</svg>
