<svg preserveAspectRatio="none" width="100%" height="100%" overflow="visible" style="display: block;" viewBox="0 0 90 2" fill="none" xmlns="http://www.w3.org/2000/svg">
<path id="Line 1" d="M0.857255 0.0101698C1.36159 -0.015883 2.02269 0.0119737 2.52512 0.0502087C2.68258 0.0620673 2.60285 0.115075 2.71154 0.125648C2.92413 0.146258 3.12219 0.120261 3.33227 0.144813C3.4019 0.153209 3.31523 0.237174 3.38824 0.244056C3.78829 0.281163 4.16676 0.259777 4.57201 0.277625C6.56819 0.365685 8.53039 0.397205 10.551 0.435461C11.2172 0.448004 12.0271 0.524206 12.7153 0.490881C12.7956 0.486916 12.7477 0.413216 12.763 0.407141C13.0028 0.31415 12.923 0.462935 13.0796 0.482702C13.7008 0.560754 14.3916 0.567542 14.9895 0.539099C15.2438 0.526782 14.9888 0.380395 15.2449 0.462561C15.2627 0.468112 15.1982 0.546377 15.2679 0.554724C15.4261 0.573498 15.7262 0.559509 15.8488 0.56571C16.0851 0.578057 16.1242 0.577269 16.3477 0.578161C16.6532 0.580061 17.0165 0.618966 17.3443 0.601232C17.4143 0.597215 17.3217 0.516985 17.4333 0.503332C17.5449 0.489702 17.8404 0.496505 17.94 0.515417C18.0396 0.534339 17.9972 0.597399 18.0148 0.611852C18.1599 0.733849 18.5017 0.564884 18.5456 0.560705C19.3474 0.489506 20.0349 0.58576 20.7875 0.585485C21.3589 0.585073 21.9698 0.553296 22.5134 0.557653C23.1611 0.563155 23.71 0.606631 24.3392 0.599157C24.4056 0.598461 24.3278 0.504129 24.4089 0.503088C25.2706 0.492111 26.1262 0.502394 26.9842 0.566076C27.0702 0.572546 26.9593 0.655368 27.0453 0.666784C27.5716 0.734849 28.4043 0.898357 28.7169 0.537756C29.0734 0.551837 29.5062 0.566385 29.8252 0.639074C30.0308 0.685858 29.8311 0.776084 30.0837 0.737585C30.1407 0.729007 30.0666 0.649991 30.152 0.643102C30.5117 0.614176 30.9047 0.639861 31.2606 0.599035C31.333 0.590545 31.3132 0.519744 31.3337 0.506994C31.5061 0.403741 31.793 0.574425 31.8556 0.586828C32.3319 0.679315 32.6798 0.642919 33.1235 0.645178C33.2264 0.645741 33.1047 0.550639 33.2038 0.547766C33.7177 0.534136 34.2501 0.54231 34.7532 0.584509C34.8652 0.594124 34.7622 0.675134 34.8157 0.683874C35.0516 0.721424 35.1038 0.568417 35.33 0.601477C35.3777 0.60825 35.3508 0.6776 35.3595 0.685217C35.4957 0.804778 35.614 0.635368 35.649 0.631628C36.0919 0.580523 36.375 0.757378 36.8029 0.732335C36.8541 0.729161 36.7386 0.641412 36.8825 0.637853C37.8411 0.61363 38.855 0.637735 39.8039 0.707922C39.9514 0.718716 39.8461 0.784634 39.8554 0.79276C40.0067 0.919728 40.1046 0.749606 40.1527 0.7432C40.5322 0.697082 40.8867 0.839748 41.1445 0.637121C42.7518 0.707439 44.3516 0.593653 45.9456 0.775182C45.9658 0.777285 45.9295 0.86107 45.97 0.864903C46.4568 0.911948 46.3633 0.781731 46.6854 0.622473C46.7666 0.582482 47.0134 0.77476 47.0353 0.788854C47.1149 0.840791 47.0323 0.96544 47.059 0.975499C47.2795 1.05448 47.2435 0.642259 47.541 0.642126C47.5503 0.642813 47.5112 0.718688 47.5362 0.726232C47.6138 0.749917 47.6907 0.719767 47.7666 0.745885C47.9403 0.806321 48.0022 1.00663 48.2675 0.89005C48.3011 0.87492 48.2498 0.64109 48.5154 0.652136C48.6212 0.656738 49.0899 0.65273 49.2212 0.667883C49.3524 0.683018 49.2623 0.758369 49.2717 0.761632C49.6252 0.861272 49.4911 0.902568 49.6682 1.05008C49.8453 1.19704 49.7962 0.846531 49.8684 0.807409C49.9407 0.768397 50.1999 0.850607 50.2636 0.879186C50.3272 0.907777 50.2478 0.955658 50.3044 0.971837C50.6797 1.07755 50.4691 0.797855 50.5928 0.742223C50.8844 0.610497 51.1114 0.870438 51.3783 0.895909C51.4505 0.902788 51.3916 0.843585 51.4559 0.838048C51.7106 0.816904 51.8638 0.898013 52.1536 0.823644C52.201 0.811525 52.4352 0.655241 52.5868 0.769933C52.6083 0.786471 52.5473 0.851248 52.6558 0.865758C52.818 0.887534 53.1102 0.901692 53.2845 0.88004C53.4132 0.86402 53.2656 0.757283 53.4276 0.790441C53.4996 0.805246 53.3662 0.867688 53.5014 0.890294C53.636 0.912893 53.98 0.91015 54.1108 0.907994C54.2415 0.905791 54.17 0.824826 54.1805 0.819371C54.2444 0.788126 54.4952 0.749085 54.5173 0.749181C55.635 0.739297 56.6657 0.875772 57.7539 0.830602C57.8392 0.827174 57.7824 0.741795 57.7954 0.740392C58.0877 0.70462 57.8572 0.931622 58.0615 1.0076C58.032 0.834345 58.1525 0.865716 58.3584 0.846715C58.4577 0.837418 58.4036 0.770331 58.4127 0.763463C58.5599 0.661566 58.6623 0.79318 58.6887 0.820104C58.7862 0.919144 58.8922 0.802121 58.9586 0.868321C59.0249 0.934027 58.8723 1.03143 59.0698 1.03019C59.1252 0.968165 58.9786 0.806089 59.1285 0.779821C59.6943 0.680461 60.7504 0.807627 61.2053 0.820836C61.6593 0.834035 61.8059 0.822592 62.0705 0.845006C62.5483 0.885533 62.3732 0.765283 62.6699 0.710241C62.9675 0.655205 62.8228 0.951079 62.8656 1.01468C62.9076 1.07826 62.9534 1.01281 63.0057 1.04776C63.0577 1.08271 62.945 1.12595 63.0675 1.13907C63.19 1.15218 63.525 1.03907 63.5684 0.972569C63.6602 0.831672 63.5092 0.683794 63.8334 0.735753C63.8521 0.738837 63.7915 0.816636 63.8629 0.824498C64.43 0.884391 65.0191 0.888103 65.5854 0.941075C65.6633 0.948481 65.5936 1.03503 65.639 1.04032C66.111 1.09568 65.9423 0.949745 66.201 0.787633C66.1429 1.00337 66.286 1.13536 66.6442 1.13663C66.8596 1.13747 66.8225 1.04325 66.9618 0.976842C67.0036 0.956823 67.156 1.02152 67.1836 0.977208C67.2746 0.83236 67.1311 0.670211 67.5005 0.734777C67.5167 0.737845 67.4651 0.817133 67.5211 0.821935C67.883 0.853365 67.9263 0.701856 68.3176 0.683508C68.6242 0.66911 69.1697 0.761499 69.5189 0.776525C69.5115 1.01907 69.8413 0.963534 69.9751 0.7963C70.2018 0.803147 70.4465 0.793693 70.6656 0.816808C70.7409 0.824689 70.6914 0.894913 70.7009 0.902501C70.8467 1.02153 70.9452 0.858831 70.9941 0.852452C71.5243 0.790448 71.9562 0.913761 72.4622 0.793248C72.4801 0.788908 72.5092 0.620426 72.6445 0.743444C72.6532 0.751924 72.4861 0.82858 72.7241 0.834508C72.9622 0.840449 73.4109 0.930768 73.7414 0.852696C73.8214 0.833901 74.0236 0.697128 74.186 0.803991C74.2076 0.818502 74.184 0.866823 74.2152 0.893712C74.3161 0.979391 74.3712 0.809097 74.4898 0.95377C74.6085 1.09844 74.8552 1.20678 75.1885 1.10697C75.1991 1.10407 75.278 0.969092 75.3828 0.971226C75.5501 0.974749 75.7876 1.00287 75.9623 1.00199C76.046 1.00152 75.9925 0.917706 76.007 0.916173C76.5694 0.869207 76.9697 0.943926 77.5722 0.976353C77.6826 0.982464 78 0.868173 78.2139 0.958531C78.4486 1.05745 78.2074 1.46891 78.747 1.37088C78.9647 1.33167 79.2403 0.809653 79.6314 1.08011C80.3901 1.01309 81.0917 1.15151 81.8524 1.05582C81.8866 1.05158 81.9948 0.905889 82.0752 0.907872C82.1946 0.911098 82.2602 0.979192 82.3454 0.983677C82.7027 1.00419 83.0296 0.945929 83.374 0.954991C83.5048 0.958284 83.4591 1.02869 83.615 1.03263C83.7709 1.0365 83.8749 0.943782 84.0861 0.98856C84.2456 1.02269 84.4051 1.2122 84.6168 1.23429C84.6249 1.04736 84.7704 1.05121 85.0288 1.00187C85.0785 0.992292 85.0252 0.927231 85.0487 0.919347C85.1444 0.885814 85.2329 0.939735 85.3238 0.903233C85.3458 0.894467 85.3469 0.83063 85.3649 0.81986C85.5185 0.725848 85.7716 0.869442 85.815 0.894444C85.9816 0.989396 86.0595 0.906369 86.1872 0.943761C86.3148 0.981147 86.124 1.02788 86.273 1.05057C86.5819 1.0975 86.9787 1.08719 87.2924 1.09012C87.4175 1.0909 87.3321 1.00569 87.35 1.00382C87.6088 0.982207 87.8705 1.07285 88.014 0.903111C88.1935 1.34199 88.1701 0.860543 88.54 0.948399C88.5691 0.955505 88.6062 1.16305 88.4943 1.19352C88.3825 1.22396 88.2128 1.15908 88.0576 1.20658C88.0209 1.21772 87.8103 1.4122 87.7816 1.42398C87.5566 1.51605 87.5247 1.20591 87.5128 1.18888C87.3778 1.00505 87.1205 1.21456 87.0527 1.22904C86.7428 1.29537 86.4794 1.25176 86.2202 1.29911C86.0506 1.32971 86.034 1.53286 85.9009 1.52664C85.4583 1.50609 85.3038 1.22269 84.8867 1.46842C84.7973 1.52083 84.8861 1.74287 84.5657 1.56827C84.5456 1.55726 84.3076 1.39754 84.1702 1.49857C84.1529 1.51131 84.1535 1.57602 84.1307 1.58145C83.9781 1.61662 83.8764 1.56506 83.7101 1.58975C83.5439 1.61445 83.3441 1.65125 83.1543 1.62931C83.0399 1.61618 82.8932 1.49562 82.8384 1.4661C82.6839 1.38107 82.5181 1.52048 82.4223 1.41751C82.3258 1.31403 82.5145 1.15687 82.2613 1.09C82.2519 1.25812 82.2304 1.43069 82.2153 1.59976C81.6603 1.59384 81.1142 1.53948 80.5574 1.54691C80.4884 1.548 80.559 1.63838 80.485 1.64188C80.1727 1.65624 79.9 1.59181 79.5762 1.61746C79.3255 1.63767 79.0507 1.73337 78.7886 1.75748C78.6285 1.5651 78.2396 1.63041 77.9571 1.61283C77.8581 1.60675 77.8647 1.55537 77.7943 1.53861C77.5288 1.47661 77.6532 1.64662 77.5804 1.67337C77.2681 1.78756 77.2414 1.40276 76.8732 1.41226C76.8537 1.41264 76.6152 1.61775 76.5824 1.63053C76.3737 1.71382 76.5479 1.55913 76.4173 1.54398C76.1788 1.51628 76.0131 1.4673 75.7334 1.52738C75.6518 1.54517 75.4561 1.67302 75.2977 1.57413C75.2768 1.56118 75.2884 1.49338 75.2716 1.48941C74.968 1.42323 74.96 1.63626 74.7865 1.70841C74.6129 1.78054 74.3449 1.63348 74.2904 1.5911C74.1477 1.48145 74.3997 1.54424 74.4074 1.53348C74.4982 1.40543 74.3027 1.42748 74.1534 1.41666C74.1317 1.20778 73.9229 1.22032 73.9985 1.40628C74.0072 1.4266 74.1234 1.40712 74.1534 1.41666C74.0223 1.6216 73.7927 1.64784 73.5392 1.45633C73.4205 1.36657 73.5327 1.26192 73.1722 1.3002C73.0085 1.31749 73.0718 1.46131 72.9274 1.50052C72.5975 1.58999 72.1688 1.45582 71.8287 1.47696C71.7053 1.48464 71.8256 1.56336 71.7412 1.57132C71.5173 1.59269 71.3199 1.53362 71.0951 1.56388C71.0747 1.56672 71.1245 1.64913 71.0545 1.65018C70.5245 1.65975 70.063 1.60696 69.5096 1.6055C69.2422 1.60483 68.7642 1.65028 68.4872 1.64115C68.0071 1.62579 67.4165 1.50595 67.0064 1.53507C66.7389 1.5537 66.7976 1.63613 66.683 1.69229C66.4618 1.80116 66.0704 1.60616 66.0176 1.57596C66.016 1.57496 66.2462 1.55553 66.1234 1.51322C66.052 1.42505 66.0202 1.57558 66.0176 1.57596C65.983 1.55645 65.5232 1.53774 65.4319 1.5535C65.3823 1.56211 65.4101 1.64021 65.3842 1.64322C64.7694 1.71311 64.1535 1.73296 63.5299 1.69644C63.5189 1.69487 63.5355 1.60751 63.5097 1.60489C63.1487 1.56605 62.9175 1.67291 62.6198 1.73636C62.3221 1.79978 62.086 1.77854 61.9098 1.62857C61.6852 1.64745 61.3629 1.58116 61.1775 1.54093C60.992 1.5007 60.9662 1.67074 60.9498 1.6741C60.4409 1.7817 60.1468 1.68437 59.6188 1.66922C59.3678 1.66173 58.8699 1.68639 58.5981 1.70499C58.3833 1.71997 58.2539 1.68012 58.056 1.7056C58.0292 1.709 58.0562 1.78471 58.0481 1.78763C57.8272 1.87822 57.9333 1.69312 57.8877 1.66007C57.7224 1.53985 57.6202 1.47583 57.3374 1.53238C57.2722 1.54533 57.0821 1.81184 56.9632 1.82742C56.8085 1.8472 56.8669 1.75167 56.705 1.77481C56.6912 1.77671 56.694 1.83564 56.5941 1.83304C56.1303 1.82175 55.6245 1.78746 55.1425 1.79337C55.0767 1.79395 55.1611 1.88742 55.066 1.8898C54.6196 1.90088 54.1303 1.89742 53.6954 1.85367C53.5884 1.84261 53.6555 1.77716 53.6322 1.75772C53.4896 1.64014 53.2873 1.81099 53.2539 1.81424C52.4577 1.89634 51.8483 1.74173 51.0367 1.81534C50.9926 1.81966 50.6525 2.00281 50.5008 1.84574C50.4904 1.83528 50.3403 1.67458 50.2076 1.78446C50.1994 1.79133 50.2929 1.87407 50.1297 1.86563C49.9665 1.85722 49.7038 1.91247 49.4794 1.82157C49.4084 1.79293 49.2405 1.63262 49.0286 1.76041C49.0148 1.76933 48.6877 2.05828 48.571 1.85892C48.552 1.8261 48.5719 1.61513 48.319 1.7233C48.2707 1.74427 48.3584 1.79133 48.2311 1.82071C48.0361 1.866 47.7777 1.80949 47.5379 1.90347C47.4961 1.92011 47.3181 2.06331 47.1754 1.95462C47.153 1.9376 47.1955 1.86717 47.1201 1.85929C46.7616 1.82148 46.3862 1.86859 46.0221 1.81986C45.8932 1.80273 45.9591 1.68887 45.8247 1.65836C45.6903 1.62786 45.4195 1.59851 45.2788 1.65055C45.1382 1.7026 45.2919 1.88407 45.0811 1.89859C44.1649 1.96166 43.2573 1.8552 42.3424 1.83963C42.2067 1.83731 42.3192 1.90224 42.1192 1.90347C41.382 1.90831 40.1092 1.96919 39.4695 1.83121C38.9569 1.72069 39.6019 1.63656 39.2103 1.59159C39.0213 1.57013 38.8168 1.78111 38.7711 1.78775C38.3254 1.85522 38.0157 1.76176 37.6145 1.79044C37.5317 1.79639 37.6129 1.8819 37.5424 1.88602C37.3016 1.90085 37.0485 1.86268 36.8183 1.86966C36.7151 1.87299 36.7341 1.9383 36.6391 1.93326C36.4118 1.92195 36.2108 1.8945 35.9892 1.83328C35.969 1.82771 36.1052 1.74646 35.937 1.74344C35.6648 1.73878 35.327 1.67839 35.0138 1.74076C34.9209 1.75951 34.9173 1.90878 34.7175 1.8057C34.6756 1.78417 34.7291 1.60493 34.4964 1.7598C34.4573 1.78553 34.0665 1.99442 33.8747 1.85977C33.8241 1.82434 33.6949 1.67767 33.5832 1.70072C33.568 1.70439 33.6287 1.78457 33.5362 1.79239C33.2098 1.81856 32.8679 1.81 32.5326 1.83512C32.4431 1.84198 32.5764 1.92495 32.443 1.93253C32.0761 1.9535 31.618 1.93237 31.2592 1.9064C31.127 1.89667 31.2184 1.82795 31.2088 1.82047C31.054 1.69882 30.9625 1.86302 30.9111 1.87259C30.5916 1.92992 30.3483 1.85279 30.0538 1.8732C29.9726 1.87863 30.0302 1.95692 30.014 1.9639C29.8462 2.03211 29.9712 1.89151 29.865 1.87601C29.5675 1.83212 29.2358 1.83842 28.9349 1.84842C28.8244 1.85221 28.9486 1.94299 28.8494 1.94534C28.2624 1.96099 27.6522 1.9523 27.0793 1.90225C26.9714 1.89267 27.0393 1.82276 27.0168 1.80679C26.8618 1.69509 26.6347 1.84746 26.5825 1.86197C26.3449 1.92824 26.2526 1.86642 26.0428 1.87796C25.0178 1.93541 23.7522 1.89447 22.7846 1.86917C21.5238 1.83662 20.5455 1.77012 19.3432 1.78739C19.2667 1.7884 19.3438 1.88139 19.2779 1.88345C18.4275 1.90587 17.5902 1.86953 16.738 1.89639C16.6681 1.89843 16.7689 1.98659 16.6567 1.99283C16.4264 2.00624 16.1348 2.00145 15.902 1.9733C15.7885 1.95974 15.9408 1.88409 15.8265 1.87198C15.5604 1.84362 15.2752 1.83734 15.0018 1.85147C14.8855 1.85768 15.061 1.94784 14.9098 1.94888C13.88 1.95783 12.8685 1.97336 11.8278 1.8566C11.7565 1.84858 11.6939 1.66533 11.5422 1.70047C11.5307 1.75133 11.5314 1.81115 11.5264 1.86551C10.0272 1.89479 8.54325 1.83127 7.03982 1.82144C6.97644 1.82105 7.08598 1.91815 6.96326 1.91788C6.25298 1.91644 5.56325 1.94334 4.83672 1.84683C4.76463 1.8374 4.80161 1.66658 4.58918 1.69242C4.55171 1.69713 4.23176 1.71991 4.14904 1.75699C4.13781 1.76258 4.19618 1.84231 4.09308 1.84464C3.49394 1.85674 2.86607 1.83854 2.26797 1.78983C2.17144 1.78181 2.27424 1.69691 2.20549 1.69046C1.71779 1.64539 1.18732 1.70993 0.721299 1.63285C0.409363 1.58094 0.524851 1.43417 0.359093 1.28971C0.335648 1.26932 0.142488 1.26609 0.132499 1.18204C0.106855 0.970681 0.200415 0.739242 0.162025 0.513952C0.153914 0.465427 -0.104777 0.517692 0.0483848 0.400427C0.0590848 0.392579 0.246637 0.35366 0.292831 0.31388C0.324993 0.286376 0.267036 0.200894 0.332657 0.165687C0.398272 0.130513 0.470374 0.202169 0.579163 0.160804C0.687903 0.118927 0.640089 0.0216813 0.857255 0.0101698ZM60.3425 1.36112C60.1708 1.27946 60.1455 1.57855 60.3312 1.50699C60.3402 1.50318 60.3514 1.36512 60.3425 1.36112ZM81.1174 1.31388C80.8929 1.18195 80.7393 1.37593 80.8976 1.47782C81.056 1.57959 81.1857 1.35387 81.1174 1.31388ZM83.4451 1.21756C83.1827 1.11355 83.1414 1.53768 83.4224 1.45194C83.4388 1.44709 83.4604 1.2236 83.4451 1.21756ZM1.12779 1.24857C1.12542 1.2446 0.986573 1.24073 0.983255 1.24466C0.909319 1.33965 1.18696 1.34733 1.12779 1.24857ZM85.755 1.11271C85.6731 1.05533 85.4373 1.12156 85.539 1.19291C85.6209 1.2503 85.857 1.18407 85.755 1.11271ZM51.3855 1.0419C51.3828 1.03745 51.2833 1.03343 51.2853 1.05863C51.2921 1.13977 51.4306 1.11687 51.3855 1.0419ZM89.6809 1.10782C89.1008 1.09186 88.7491 0.741508 89.3808 0.781041C89.4952 0.788194 89.1343 0.892765 89.2799 0.924351C89.5463 0.981896 89.7232 0.761919 89.995 0.879796C90.0442 0.901371 89.714 1.10951 89.6798 1.10831C89.6802 1.10815 89.6805 1.10799 89.6809 1.10782ZM60.2436 1.00187C60.2402 0.997911 60.1024 0.994161 60.0991 0.998082C60.0245 1.09304 60.3021 1.10065 60.2436 1.00187ZM45.5769 0.856969C45.5692 0.848541 45.2495 0.840659 45.239 0.848424C45.0722 1.0037 45.7187 1.0201 45.5769 0.856969ZM69.5244 0.782995C69.6747 0.68747 69.8546 0.676223 69.9745 0.796178C69.825 0.78981 69.6746 0.788872 69.5244 0.782995Z" fill="var(--stroke-0, #6063A6)"/>
</svg>
