<svg width="58" height="58" viewBox="0 0 58 58" fill="none" xmlns="http://www.w3.org/2000/svg">
<path d="M1.63858 30.2815C1.71657 31.2316 1.83364 32.4682 1.966 33.4114C2.00699 33.7061 1.92798 33.5675 1.95546 33.7714C2.01032 34.1689 2.11464 34.5333 2.18188 34.9254C2.20417 35.0557 2.08441 34.9152 2.10992 35.0517C2.25188 35.7994 2.46956 36.4878 2.69437 37.2267C3.80536 40.8641 5.70726 44.2013 8.27772 47.0941C9.12159 48.0499 10.199 49.1812 11.2488 49.9873C11.3709 50.0815 11.346 49.9662 11.3725 49.98C11.7882 50.1943 11.5765 50.215 11.8013 50.4156C12.6951 51.209 13.8025 51.9584 14.8122 52.5075C15.2427 52.7399 14.8888 52.3707 15.2766 52.6832C15.3039 52.7047 15.1573 52.7128 15.2706 52.7852C15.5276 52.9509 16.0448 53.2062 16.2538 53.3164C16.656 53.5302 16.7242 53.5616 17.114 53.7432C17.6475 53.9909 18.2779 54.2977 18.8767 54.5034C19.0045 54.5469 18.8655 54.4095 19.0715 54.4715C19.2768 54.5346 19.8088 54.7271 19.9856 54.8036C20.1618 54.8812 20.0649 54.9157 20.0928 54.94C20.3232 55.1453 21.0032 55.1703 21.0855 55.1874C22.587 55.5346 23.8692 55.8806 25.3085 56.0549C26.3939 56.1849 27.5572 56.219 28.6011 56.2214C28.6098 56.2214 28.6185 56.2214 28.6271 56.2215C29.8773 56.223 30.9324 56.1974 32.138 56.0385C32.2647 56.0214 32.1042 55.9472 32.2584 55.9259C33.8975 55.6969 35.5037 55.3443 37.0936 54.8971C37.2534 54.8519 37.0755 54.997 37.237 54.9563C38.223 54.7176 39.7941 54.2444 40.1841 53.6545C40.8122 53.3803 41.558 53.0114 42.1295 52.7714C42.4978 52.6159 42.2082 52.8866 42.612 52.6079C42.7026 52.5447 42.5393 52.5493 42.6777 52.4595C43.26 52.0814 43.9107 51.691 44.4489 51.2622C44.5581 51.1749 44.4859 51.139 44.5107 51.1058C44.7208 50.8319 45.2621 50.6393 45.3657 50.5742C46.1496 50.0869 46.6421 49.6229 47.2757 49.0483C47.4223 48.9141 47.1854 49.0032 47.3235 48.8717C48.0397 48.1901 48.7568 47.4601 49.424 46.7562C49.5725 46.5995 49.504 46.8025 49.5781 46.7301C49.9035 46.4077 49.8502 46.2319 50.1493 45.9142C50.212 45.8466 50.2339 45.9303 50.2503 45.922C50.5085 45.7903 50.5146 45.5041 50.5524 45.4486C51.0276 44.7392 51.4867 44.3925 51.9181 43.6834C51.969 43.5985 51.7749 43.7385 51.9217 43.5028C52.8984 41.9315 53.7981 40.1914 54.5128 38.4991C54.6237 38.2355 54.6135 38.4495 54.6275 38.4357C54.8501 38.2036 54.753 37.9668 54.7779 37.8773C54.9781 37.1711 55.3128 36.5517 55.2496 36.0163C55.9664 33.6251 56.2331 31.1417 56.2996 28.6638C56.316 28.0487 56.3208 27.4454 56.3167 26.8296C56.3162 26.7901 56.4045 26.8552 56.4031 26.7763C56.3792 25.8272 56.2604 26.0215 56.035 25.4186C55.9784 25.2681 56.1062 24.7708 56.1132 24.7264C56.1428 24.5665 56.2889 24.7071 56.2915 24.6545C56.3064 24.2186 55.9116 24.3472 55.8138 23.7829C55.8113 23.7651 55.8992 23.8262 55.8982 23.7773C55.8952 23.6252 55.8383 23.4845 55.836 23.3357C55.8303 22.9965 56.0031 22.8324 55.7744 22.3538C55.7442 22.294 55.542 22.4418 55.4309 21.9427C55.39 21.7436 55.1458 20.8694 55.0831 20.6248C55.0237 20.3786 55.1465 20.5224 55.1444 20.5043C55.0341 19.8197 55.1503 20.0552 55.1816 19.6799C55.2086 19.3036 54.9079 19.5095 54.8248 19.3905C54.7428 19.2717 54.6452 18.7711 54.626 18.645C54.6079 18.519 54.7085 18.6461 54.6836 18.5372C54.512 17.8162 54.4035 18.3033 54.2621 18.102C53.9257 17.6331 53.9838 17.1271 53.7828 16.646C53.7282 16.5163 53.7246 16.6454 53.6652 16.5351C53.429 16.0995 53.3656 15.7962 53.0314 15.3368C52.9767 15.2605 52.6202 14.9415 52.5701 14.6314C52.5631 14.5871 52.6794 14.6564 52.5845 14.4673C52.4439 14.185 52.1544 13.6927 51.9496 13.4216C51.7986 13.2213 51.8676 13.5191 51.7215 13.2391C51.6559 13.1148 51.8524 13.2953 51.7244 13.0644C51.598 12.8332 51.2082 12.2873 51.0533 12.085C50.8998 11.882 50.9179 12.0424 50.9013 12.0291C50.8028 11.9474 50.4754 11.5859 50.4483 11.5528C49.1043 9.86086 47.782 8.33154 46.11 7.02973C45.9788 6.92813 46.0112 7.06408 45.9906 7.04926C45.5254 6.72429 46.0172 6.8243 45.7501 6.51854C45.689 6.69103 45.5242 6.52035 45.1915 6.29649C45.031 6.18921 45.0756 6.30577 45.0574 6.3008C44.7679 6.21407 44.683 5.99323 44.6564 5.9413C44.5588 5.7507 44.322 5.72955 44.2527 5.6025C44.1825 5.47565 44.4844 5.56173 44.1633 5.34696C44.0392 5.33869 44.186 5.63143 43.9294 5.49201C42.9719 4.95316 41.2456 3.85462 40.4401 3.48037C39.6466 3.09655 39.3754 3.00226 38.9082 2.78864C38.0567 2.41384 38.3296 2.64963 37.7722 2.50715C37.2109 2.37163 37.5692 2.18313 37.511 2.09575C37.4532 2.00932 37.3473 2.04321 37.2608 1.97841C37.1743 1.91374 37.3985 1.94056 37.1732 1.85429C36.9466 1.76574 36.286 1.68896 36.1861 1.73181C35.9755 1.82023 36.22 2.03757 35.6259 1.82534C35.5916 1.81322 35.7253 1.76761 35.5927 1.72501C34.5431 1.39077 33.4131 1.16636 32.3271 0.969002C32.1776 0.941808 32.3235 0.873694 32.2363 0.856983C31.3248 0.690545 31.6327 0.876468 31.1197 0.988766C31.2513 0.785683 30.9878 0.621237 30.2823 0.576588C29.8574 0.55219 29.9283 0.651169 29.6539 0.706417C29.5721 0.72298 29.2764 0.649824 29.2212 0.693346C29.0404 0.835783 29.3177 0.99761 28.6011 0.929122C28.6008 0.929095 28.6005 0.929068 28.6002 0.929041C28.5891 0.927961 28.5944 0.917407 28.6011 0.903983C28.61 0.886327 28.6214 0.863707 28.6011 0.851142C28.5931 0.846164 28.5801 0.842767 28.56 0.841913C27.8527 0.815959 27.7738 0.968585 27.0207 1.02466C26.428 1.06824 25.3701 1.07554 24.6969 1.1595C24.6786 0.91579 24.0462 1.06583 23.8192 1.27727C23.384 1.34553 22.9223 1.44711 22.5007 1.51799C22.356 1.54247 22.4344 1.45285 22.4147 1.4495C22.1106 1.3964 21.9616 1.60096 21.8715 1.6298C20.8886 1.9397 20.0464 2.06928 19.1615 2.51459C19.13 2.5308 19.1355 2.70694 18.8469 2.68353C18.8279 2.68178 19.1054 2.49518 18.67 2.65319C18.2357 2.80998 17.3917 3.06203 16.8424 3.40758C16.7088 3.49013 16.4153 3.78172 16.0866 3.82867C16.0425 3.83468 16.0618 3.77076 15.9954 3.77426C15.7808 3.78736 15.7643 3.9875 15.4927 3.96778C15.2221 3.9481 14.7376 4.08483 14.2265 4.5057C14.2099 4.51903 14.147 4.71338 13.9715 4.81881C13.6908 4.98649 13.285 5.21369 13.0025 5.40538C12.8672 5.49711 13.0009 5.50809 12.9782 5.52521C12.0999 6.18196 11.4326 6.58956 10.5103 7.32302C10.3402 7.45761 9.95066 7.94959 9.58511 8.16804C9.18425 8.41143 9.23892 7.77874 8.54403 8.59844C8.26421 8.93465 8.26879 9.67664 7.56168 10.0667C6.63069 11.2233 5.68732 12.2418 4.9599 13.5504C4.92705 13.6093 4.9369 13.8656 4.85305 13.9977C4.72794 14.1941 4.60405 14.2683 4.51506 14.4093C4.1415 14.9998 3.88727 15.5893 3.57859 16.1859C3.4622 16.4132 3.43789 16.302 3.30173 16.5753C3.1671 16.849 3.16539 17.0712 2.95798 17.4307C2.80168 17.7026 2.50506 17.9169 2.33063 18.2976C2.49916 18.3813 2.3878 18.6445 2.26165 19.1368C2.23776 19.2312 2.33421 19.1556 2.3261 19.2014C2.29468 19.3876 2.18701 19.5326 2.16477 19.7121C2.15928 19.7557 2.21914 19.778 2.21819 19.8147C2.21152 20.1263 1.92952 20.5523 1.88195 20.6266C1.69814 20.9102 1.73688 21.0799 1.63501 21.3103C1.53391 21.5415 1.58581 21.1686 1.48823 21.4449C1.28629 22.0165 1.1225 22.7813 1.00659 23.3832C0.960529 23.624 1.07521 23.4752 1.07056 23.51C0.998892 24.0097 0.83215 24.5063 0.962629 24.8053C0.482023 25.0943 0.959378 25.1114 0.795697 25.8194C0.7831 25.8745 0.568846 25.9277 0.561032 25.7051C0.553507 25.4815 0.656363 25.157 0.650408 24.8487C0.648172 24.7759 0.51535 24.3379 0.513419 24.2786C0.492344 23.8204 0.8117 23.8114 0.831852 23.7913C1.05719 23.5616 0.947762 23.0302 0.96212 22.8948C1.02247 22.2799 1.18747 21.7882 1.27508 21.28C1.33359 20.9486 1.14779 20.8614 1.22786 20.6084C1.50144 19.7684 1.86711 19.5724 1.92041 18.7128C1.93471 18.5285 1.66071 18.6122 2.05764 18.0801C2.08256 18.0455 2.40733 17.6702 2.42407 17.3794C2.42602 17.3428 2.36619 17.3181 2.37934 17.2742C2.46919 16.9805 2.59966 16.8164 2.71792 16.506C2.8361 16.1964 2.98042 15.8194 3.17475 15.4931C3.29161 15.2957 3.5364 15.0958 3.61478 15.0146C3.83639 14.7863 3.87907 14.4317 4.06447 14.3193C4.25061 14.2076 4.19658 14.6061 4.50811 14.2135C4.37345 14.1112 4.24763 13.9856 4.1186 13.8723C4.69869 12.9262 5.36076 12.059 6.03467 11.1779C6.11834 11.0687 5.96037 11.1242 6.04873 11.0055C6.42353 10.5054 6.82224 10.128 7.23251 9.62812C7.55003 9.24119 7.85736 8.77426 8.21182 8.38406C8.57312 8.29084 9.08441 7.70521 9.51903 7.34288C9.67054 7.21576 9.69487 7.26319 9.81126 7.18326C10.2511 6.88357 9.95366 6.91747 10.0467 6.80223C10.4535 6.31176 10.7375 6.57419 11.3068 6.11955C11.336 6.0954 11.5919 5.64583 11.6384 5.59702C11.926 5.28363 11.7359 5.61347 11.9557 5.47312C12.3585 5.21898 12.6566 5.07231 13.0898 4.71808C13.2155 4.61475 13.4781 4.29606 13.8008 4.21661C13.843 4.20616 13.8585 4.27604 13.8891 4.26219C14.4402 4.00953 14.3484 3.8206 14.6163 3.58621C14.8857 3.35144 15.4301 3.23159 15.5461 3.22065C15.8493 3.18844 15.3738 3.36182 15.3655 3.37935C15.2656 3.57679 15.5981 3.37546 15.8683 3.25265C16.0001 3.41929 16.364 3.22691 16.1484 3.1255C16.124 3.11457 15.9256 3.23424 15.8683 3.25265C16.0085 2.95268 16.4139 2.72496 16.9525 2.69333C17.2049 2.68037 17.0415 2.86101 17.6822 2.54695C17.9738 2.40729 17.8036 2.32168 18.0553 2.17813C18.6341 1.84933 19.4833 1.68981 20.1235 1.4702C20.3553 1.39053 20.1039 1.3856 20.262 1.3288C20.6826 1.17864 21.0782 1.12912 21.5055 0.988349C21.5441 0.975587 21.4275 0.920163 21.5624 0.884831C22.5879 0.618109 23.5061 0.489819 24.5998 0.336035C25.127 0.25925 26.0737 0.114533 26.6275 0.0896363C27.2499 0.056625 27.9523 0.0852123 28.6011 0.114636C28.9592 0.130554 29.2954 0.145908 29.5859 0.14543C30.1177 0.146987 30.0037 0.0617213 30.2371 0.0174045C30.69 -0.0692808 31.4538 0.195934 31.5531 0.238529C31.5557 0.239036 31.0992 0.2152 31.3379 0.280279C31.4701 0.3815 31.5476 0.238394 31.5531 0.238529C31.6215 0.26158 32.5299 0.389607 32.7104 0.403892C32.8092 0.409522 32.766 0.324323 32.8174 0.328819C34.0463 0.439572 35.2623 0.678999 36.4561 1.05589C36.4768 1.06342 36.4212 1.13839 36.47 1.15504C37.1499 1.39127 37.6222 1.43397 38.2065 1.57223C38.7898 1.7119 39.2281 1.90904 39.4958 2.18133C39.9183 2.33323 40.482 2.65738 40.7969 2.85253C41.1123 3.0471 41.2334 2.91939 41.2643 2.93043C42.2252 3.29003 42.7003 3.66177 43.5936 4.22253C44.0202 4.48878 44.8641 5.01831 45.3156 5.32447C45.6738 5.56392 45.8573 5.75132 46.1865 5.97372C46.231 6.00396 46.2346 5.9109 46.2494 5.91865C46.6551 6.12121 46.3721 6.13526 46.4233 6.21762C46.6067 6.51847 46.7237 6.69297 47.1887 7.01602C47.2953 7.08989 47.7574 7.14011 47.9457 7.29042C48.189 7.48551 48.0381 7.47615 48.2916 7.681C48.3131 7.69875 48.3496 7.65142 48.4936 7.79194C49.1624 8.44399 49.8391 9.20475 50.4731 9.93676C50.5596 10.0371 50.5204 9.84695 50.6465 9.99153C51.238 10.6702 51.8378 11.4576 52.3014 12.2024C52.4151 12.386 52.2842 12.3121 52.2948 12.3615C52.3609 12.6632 52.7255 12.9061 52.765 12.9616C53.7038 14.2671 54.1604 15.4207 54.9011 16.8726C54.9425 16.9497 55.3856 17.5095 55.3524 17.8531C55.3509 17.8769 55.3139 18.2148 55.511 18.4247C55.5232 18.438 55.5339 18.2317 55.6424 18.543C55.7507 18.8542 55.9797 19.3345 56.0319 19.7941C56.049 19.9403 55.9981 20.3065 56.2382 20.6783C56.2554 20.6998 56.7116 21.2627 56.5744 21.542C56.5513 21.5874 56.3401 21.5986 56.5628 22.0655C56.6052 22.1551 56.6113 21.9725 56.6975 22.2155C56.8299 22.5893 56.8801 23.1091 57.0567 23.5679C57.088 23.6472 57.2909 23.9801 57.2264 24.2834C57.2163 24.3305 57.1341 24.2566 57.1486 24.4075C57.2167 25.1243 57.3462 25.8744 57.3487 26.6077C57.3492 26.8681 57.2272 26.7431 57.2128 27.0142C57.1989 27.2865 57.1901 27.8229 57.2463 28.1043C57.3028 28.3857 57.4808 28.0733 57.4993 28.4995C57.5014 28.5542 57.5033 28.609 57.5049 28.6638C57.5564 30.46 57.293 32.2333 56.9506 33.9856C56.8973 34.2532 57.0048 34.0435 56.9275 34.4383C56.6641 35.9031 55.9555 38.3902 55.3165 39.5246C54.8191 40.4317 55.2407 39.2071 54.8953 39.9114C54.7278 40.2496 54.7487 40.7084 54.7154 40.7949C54.3958 41.636 54.0237 42.1462 53.6526 42.8622C53.5752 43.0099 53.7306 42.9103 53.6636 43.0357C53.4345 43.4644 53.1359 43.8806 52.8905 44.274C52.7804 44.4505 52.8559 44.4541 52.7462 44.6115C52.4834 44.9876 52.2282 45.3063 51.9163 45.6306C51.888 45.66 51.9833 45.3915 51.7819 45.6622C51.455 46.1005 50.992 46.5968 50.6361 47.1173C50.5303 47.2716 50.64 47.3758 50.2984 47.6117C50.2261 47.6607 50.1648 47.4627 49.9692 47.9134C49.9386 47.989 49.5554 48.7122 49.1849 48.8924C49.088 48.9407 48.8018 49.0208 48.6579 49.1932C48.6387 49.2171 48.7821 49.1893 48.6543 49.3248C48.2018 49.8007 47.6863 50.2568 47.1868 50.7109C47.0531 50.8322 47.3126 50.7229 47.1109 50.9016C46.5563 51.3937 45.8065 51.9404 45.1982 52.3335C44.9738 52.4785 45.0858 52.3164 45.0656 52.3214C44.741 52.3992 44.6807 52.6365 44.5996 52.7023C44.0948 53.1066 43.635 53.3011 43.1345 53.6179C42.9956 53.705 43.1353 53.7143 43.1106 53.7367C42.8505 53.9653 42.9996 53.7175 42.8058 53.8101C42.2615 54.0683 41.6756 54.3826 41.1325 54.6555C40.9336 54.7553 41.1986 54.729 41.019 54.8174C39.9557 55.3416 38.7996 55.7945 37.6875 56.1086C37.4775 56.1676 37.586 56.0583 37.538 56.0573C37.2071 56.0487 36.817 56.3251 36.7189 56.3683C36.2776 56.565 36.0789 56.554 35.6727 56.6694C33.6839 57.2458 31.1248 57.5302 29.1765 57.5274C28.9819 57.5287 28.7903 57.5278 28.6011 57.525C26.3292 57.4799 24.4888 57.2202 22.3059 56.7606C22.1556 56.7279 22.2866 56.8528 22.1566 56.8254C20.4781 56.4653 18.8764 55.9083 17.2851 55.2602C17.1543 55.2064 17.3072 55.368 17.0957 55.2838C16.6613 55.1113 16.1288 54.8587 15.7189 54.6226C15.5194 54.5078 15.8285 54.5779 15.6277 54.4637C15.1612 54.1971 14.6595 53.9193 14.1757 53.6555C13.9699 53.543 14.2305 53.7992 13.9663 53.6462C12.1687 52.6004 10.4994 51.3831 9.03576 49.8748C8.9355 49.7711 8.96831 49.5523 8.72492 49.3678C8.67317 49.3886 8.63259 49.4326 8.58766 49.4648C6.38925 47.3885 4.60721 44.9371 3.18639 42.2683C3.12662 42.1556 3.14482 42.3962 3.02877 42.1776C2.35985 40.9093 1.77187 39.6382 1.3763 38.2235C1.33776 38.0832 1.5215 38.0983 1.3618 37.7031C1.33205 37.634 1.11597 37.0287 1.03524 36.8802C1.0235 36.8601 0.980295 36.9955 0.919335 36.7972C0.566388 35.6404 0.306799 34.4011 0.167366 33.2039C0.145139 33.0103 0.260982 33.2019 0.24612 33.0642C0.141179 32.0959 -0.0280235 31.0438 0.00394047 30.1049C0.028246 29.4826 0.185726 29.7064 0.320194 29.375C0.338756 29.3283 0.335801 28.9462 0.420286 28.9257C0.631119 28.8739 0.864455 29.0538 1.08892 28.9766C1.13634 28.9606 1.08301 28.462 1.20086 28.7569C1.20825 28.7777 1.25068 29.1373 1.29289 29.2244C1.32167 29.2852 1.40477 29.1732 1.44268 29.2971C1.48076 29.4206 1.41274 29.5596 1.46219 29.7638C1.51306 29.968 1.6042 29.8707 1.63858 30.2815ZM42.1928 3.76567C42.4509 4.00114 42.6415 3.76521 42.2827 3.64854C42.2651 3.64325 42.1793 3.75373 42.1928 3.76567ZM5.5574 12.2083C5.92213 11.9258 5.95039 11.5689 5.68086 11.7597C5.41129 11.9532 5.44621 12.2957 5.5574 12.2083ZM3.28139 16.1941C3.60482 15.7793 3.26588 15.5115 3.09117 16.05C3.08103 16.0814 3.26258 16.2186 3.28139 16.1941ZM0.438822 30.8876C0.442109 30.8827 0.426054 30.6092 0.421996 30.6028C0.316661 30.4633 0.348672 31.0122 0.438822 30.8876ZM1.70701 20.4512C1.80727 20.3153 1.88677 19.8531 1.75746 20.0219C1.65202 20.1587 1.58034 20.6221 1.70701 20.4512ZM53.9084 16.5703C53.9068 16.5769 53.9866 16.7544 54.0076 16.7402C54.0757 16.6936 53.938 16.4582 53.9084 16.5703ZM0.500195 28.0356C0.54753 26.8979 0.955066 26.2402 0.845624 27.4619C0.828293 27.683 0.756596 26.9795 0.711453 27.2601C0.629462 27.7754 0.840502 28.1241 0.721341 28.654C0.698478 28.7512 0.495101 28.1012 0.499751 28.0336C0.499899 28.0342 0.500047 28.0349 0.500195 28.0356ZM42.1899 4.1743C42.194 4.18076 42.427 4.31619 42.4344 4.31624C42.609 4.30561 42.138 4.03153 42.1899 4.1743ZM56.4359 27.5406C56.4297 27.5554 56.4393 28.1767 56.4457 28.1972C56.6099 28.5206 56.592 27.2568 56.4359 27.5406ZM24.6855 1.15457C24.4116 1.28932 24.0701 1.35531 23.8205 1.27716C24.1074 1.23388 24.3977 1.18922 24.6855 1.15457Z" fill="#6063A6"/>
<path d="M21.8839 41.2144C21.4402 40.7707 21.3998 40.0762 21.7629 39.5869L21.8839 39.4467L32.6662 28.6639L21.8839 17.8811C21.4402 17.4373 21.3998 16.7429 21.7629 16.2535L21.8839 16.1133C22.3277 15.6696 23.0222 15.6292 23.5115 15.9923L23.6517 16.1133L35.3184 27.78C35.7622 28.2238 35.8025 28.9182 35.4394 29.4076L35.3184 29.5478L23.6517 41.2144C23.1636 41.7026 22.3721 41.7026 21.8839 41.2144Z" fill="#6063A6"/>
</svg>
