<svg preserveAspectRatio="none" width="100%" height="100%" overflow="visible" style="display: block;" viewBox="0 0 186 20" fill="none" xmlns="http://www.w3.org/2000/svg">
<g id="author.svg">
<path id="Vector" d="M4.64673 14.7748L6.23965 5.07761H7.18873L5.59581 14.7748H4.64673ZM0.228516 12.0852L0.380177 11.1386H7.62559L7.47393 12.0852H0.228516ZM1.23387 14.7748L2.82679 5.07761H3.77492L2.18199 14.7748H1.23387ZM0.796054 8.71476L0.948669 7.76714H8.19313L8.04052 8.71476H0.797008H0.796054ZM9.7603 5.07761H11.1634L14.4637 13.1271H14.5782L17.8785 5.07761H19.2825V14.7748H18.1818V7.40714H18.0874L15.0522 14.7748H13.9906L10.9555 7.40714H10.8601V14.7748H9.7603V5.07761ZM23.7656 14.9452C23.304 14.9452 22.8852 14.8586 22.5094 14.6852C22.1455 14.5193 21.8351 14.2554 21.6128 13.9233C21.3915 13.5881 21.2809 13.1843 21.2809 12.7109C21.2809 12.2938 21.3629 11.9557 21.5279 11.6976C21.692 11.4357 21.9113 11.2309 22.1861 11.0814C22.4617 10.9338 22.765 10.8233 23.097 10.75C23.4318 10.6738 23.7685 10.6148 24.1081 10.57C24.5497 10.5129 24.9093 10.4709 25.184 10.4424C25.4616 10.4109 25.6638 10.3586 25.7906 10.2862C25.9204 10.2138 25.9852 10.0871 25.9852 9.90714V9.86904C25.9852 9.40238 25.8574 9.03952 25.6008 8.78047C25.3481 8.52142 24.9637 8.3919 24.4486 8.3919C23.9144 8.3919 23.4947 8.50904 23.1914 8.74238C22.8881 8.97666 22.6754 9.22523 22.5523 9.49095L21.4897 9.1119C21.6796 8.66999 21.9323 8.32619 22.2481 8.07952C22.5561 7.83569 22.9114 7.65831 23.2916 7.55857C23.6712 7.45761 24.0441 7.40714 24.4104 7.40714C24.6441 7.40714 24.9131 7.43571 25.2164 7.49285C25.5236 7.54618 25.8193 7.65857 26.1035 7.82904C26.3916 7.99952 26.63 8.25666 26.8189 8.60047C27.0097 8.94428 27.105 9.40523 27.105 9.98333V14.7748H25.9852V13.79H25.928C25.8517 13.9481 25.7258 14.1167 25.5484 14.2967C25.3719 14.4767 25.1363 14.63 24.8425 14.7557C24.5478 14.8824 24.1891 14.9462 23.7656 14.9462V14.9452ZM23.9373 13.9414C24.3789 13.9414 24.7519 13.8548 25.0552 13.6814C25.3335 13.5309 25.5665 13.3089 25.73 13.0383C25.8935 12.7677 25.9816 12.4584 25.9852 12.1424V11.1195C25.9375 11.1767 25.8326 11.2281 25.6724 11.2757C25.4911 11.3248 25.3074 11.3643 25.122 11.3938C24.7657 11.4492 24.4082 11.4969 24.0499 11.5367C23.7599 11.5748 23.4871 11.6357 23.2343 11.7205C23.0033 11.7911 22.7944 11.92 22.6277 12.0948C22.4751 12.2595 22.3997 12.4833 22.3997 12.7671C22.3997 13.1557 22.5437 13.449 22.8318 13.6481C23.1227 13.8433 23.49 13.9414 23.9364 13.9414H23.9373ZM32.0307 14.9262C31.4241 14.9262 30.888 14.7738 30.4235 14.4671C29.9589 14.1576 29.5946 13.7224 29.3323 13.1605C29.07 12.5957 28.9393 11.9281 28.9393 11.1576C28.9393 10.3938 29.07 9.73095 29.3323 9.16904C29.5946 8.60714 29.9599 8.17285 30.4282 7.86714C30.8956 7.56047 31.4365 7.40714 32.0498 7.40714C32.5238 7.40714 32.8987 7.48619 33.1734 7.64428C33.4519 7.79857 33.6637 7.97571 33.8087 8.17476C33.9575 8.36999 34.0729 8.53095 34.1549 8.65761H34.2503V5.07761H35.3692V14.7748H34.2885V13.6576H34.1549C34.0454 13.8298 33.9286 13.9972 33.8049 14.1595C33.6522 14.3586 33.4357 14.5367 33.1543 14.6948C32.8729 14.849 32.499 14.9262 32.0307 14.9262ZM32.1833 13.9224C32.6316 13.9224 33.0113 13.8062 33.3203 13.5719C33.6303 13.3357 33.8659 13.009 34.0271 12.5919C34.1893 12.1729 34.2694 11.6871 34.2694 11.1386C34.2694 10.5957 34.1902 10.1205 34.0319 9.7138C33.8735 9.30333 33.6408 8.98428 33.3298 8.75666C33.0198 8.52618 32.6383 8.41095 32.1824 8.41095C31.7083 8.41095 31.3134 8.53285 30.9967 8.77571C30.6737 9.02986 30.429 9.36987 30.2909 9.75666C30.1303 10.1995 30.0514 10.6677 30.0581 11.1386C30.0581 11.6557 30.1373 12.1262 30.2947 12.55C30.4569 12.969 30.6934 13.3043 31.0063 13.5529C31.3229 13.7995 31.7159 13.9224 32.1833 13.9224ZM40.7622 14.9262C40.0602 14.9262 39.4554 14.7719 38.9461 14.4624C38.438 14.148 38.0311 13.6944 37.7738 13.1557C37.5029 12.5938 37.3665 11.9405 37.3665 11.1957C37.3665 10.45 37.5029 9.7938 37.7748 9.22523C38.0495 8.6538 38.432 8.20904 38.9222 7.88999C39.4154 7.56809 39.9905 7.40714 40.6487 7.40714C41.0274 7.40714 41.4022 7.47095 41.7723 7.59761C42.1415 7.72333 42.4782 7.92809 42.7825 8.21285C43.0858 8.4938 43.3271 8.86618 43.5074 9.32999C43.6886 9.7938 43.7783 10.3652 43.7783 11.0443V11.5176H38.163V10.5519H42.6394C42.6394 10.1414 42.5573 9.77476 42.3933 9.45285C42.239 9.13878 41.9989 8.87465 41.7008 8.69095C41.4032 8.50428 41.0522 8.41095 40.6477 8.41095C40.2023 8.41095 39.8169 8.52142 39.4907 8.74238C39.172 8.95626 38.9154 9.25027 38.7467 9.59476C38.5726 9.9451 38.4831 10.3313 38.4854 10.7224V11.3662C38.4854 11.9148 38.5808 12.3805 38.7706 12.7624C38.9633 13.1414 39.2303 13.43 39.5718 13.629C39.9133 13.8252 40.3101 13.9224 40.7622 13.9224C41.056 13.9224 41.3212 13.8814 41.5587 13.7995C41.799 13.7138 42.006 13.5881 42.1796 13.4205C42.3532 13.25 42.4877 13.0395 42.5831 12.7862L43.6638 13.089C43.5493 13.4557 43.3586 13.7776 43.0905 14.0548C42.8216 14.33 42.4896 14.5443 42.0947 14.6995C41.6989 14.8509 41.2553 14.9262 40.7622 14.9262ZM47.2636 14.7748L45.045 7.50238H46.2211L47.7949 13.07H47.8712L49.426 7.50238H50.6212L52.1578 13.0509H52.2341L53.808 7.50238H54.9841L52.7645 14.7748H51.6647L50.0717 9.18809H49.9573L48.3644 14.7748H47.2636ZM56.597 14.7748V7.50238H57.7168V14.7748H56.597ZM57.1665 6.28999C56.9561 6.29307 56.7531 6.21296 56.6018 6.06714C56.5277 5.99933 56.4688 5.9167 56.4289 5.82465C56.3889 5.73259 56.3689 5.63317 56.37 5.53285C56.3687 5.43238 56.3887 5.33277 56.4287 5.24054C56.4686 5.14831 56.5276 5.06553 56.6018 4.99761C56.7531 4.85179 56.9561 4.77168 57.1665 4.77476C57.3849 4.77476 57.5709 4.84904 57.7264 4.99761C57.8017 5.06487 57.8617 5.14741 57.9025 5.23972C57.9433 5.33202 57.9639 5.43196 57.9629 5.53285C57.9638 5.63358 57.9431 5.73334 57.9023 5.82547C57.8616 5.9176 57.8016 5.99999 57.7264 6.06714C57.6525 6.13954 57.565 6.19654 57.4689 6.2348C57.3727 6.27307 57.2699 6.29183 57.1665 6.28999ZM63.0679 7.50238V8.44904H59.2926V7.50238H63.0679ZM60.3933 5.75952H61.5122V12.6919C61.5122 13.0071 61.558 13.2443 61.6495 13.4014C61.7449 13.5567 61.8651 13.6605 62.0101 13.7148C62.1589 13.7652 62.3153 13.7909 62.4794 13.7909C62.6034 13.7909 62.7045 13.7833 62.7827 13.7719L62.9735 13.7338L63.2005 14.7367C63.1242 14.7652 63.0193 14.7938 62.8829 14.8224C62.7465 14.8538 62.5748 14.87 62.3659 14.87C62.0492 14.87 61.7401 14.8014 61.4359 14.6662C61.1352 14.5298 60.8766 14.3154 60.6871 14.0452C60.4906 13.7681 60.3933 13.4176 60.3933 12.9948V5.75952ZM66.1603 10.3995V14.7748H65.0414V5.07761H66.1603V8.63857H66.2557C66.4254 8.26333 66.682 7.96428 67.0235 7.74333C67.3678 7.51952 67.8266 7.40714 68.3989 7.40714C68.8949 7.40714 69.3299 7.50714 69.7029 7.70618C70.0749 7.90142 70.3648 8.20333 70.5709 8.61095C70.7788 9.0138 70.8837 9.52904 70.8837 10.1538V14.7748H69.7639V10.229C69.7639 9.6519 69.6141 9.20523 69.3137 8.88904C69.0161 8.57095 68.604 8.41095 68.0756 8.41095C67.7093 8.41095 67.3802 8.48904 67.0893 8.64333C66.8022 8.79761 66.5742 9.02428 66.4064 9.31952C66.2423 9.61666 66.1603 9.97666 66.1603 10.3995ZM74.0791 7.26142C74.0791 11.1214 77.2745 13.1776 79.6133 15.0186C80.4384 15.6681 81.233 16.2795 82.0275 16.2795C82.823 16.2795 83.6176 15.6681 84.4426 15.0186C86.7815 13.1776 89.9769 11.1214 89.9769 7.26142C89.9769 3.40238 85.6044 0.665232 82.0275 4.37571C78.4506 0.665232 74.0791 3.40238 74.0791 7.26142ZM92.7449 14.7748V5.07761H93.8638V8.65761H93.9592C94.0412 8.53095 94.1547 8.36999 94.3006 8.17476C94.4485 7.97571 94.6602 7.79857 94.9359 7.64428C95.2135 7.48619 95.5902 7.40714 96.0643 7.40714C96.6776 7.40714 97.2185 7.56047 97.6858 7.86714C98.1542 8.17285 98.5195 8.60714 98.7818 9.16904C99.0441 9.73095 99.1748 10.3938 99.1748 11.1576C99.1748 11.9281 99.0441 12.5957 98.7818 13.1605C98.5195 13.7224 98.1561 14.1576 97.6906 14.4671C97.2261 14.7729 96.69 14.9262 96.0834 14.9262C95.615 14.9262 95.2411 14.849 94.9597 14.6948C94.709 14.5624 94.4879 14.3802 94.3102 14.1595C94.1861 13.9973 94.069 13.8298 93.9592 13.6576H93.8256V14.7748H92.7449ZM93.8447 11.1386C93.8447 11.6881 93.9258 12.1719 94.087 12.5919C94.2482 13.009 94.4838 13.3348 94.7928 13.5729C95.1038 13.8062 95.4825 13.9224 95.9317 13.9224C96.3991 13.9224 96.7902 13.7995 97.103 13.5538C97.4188 13.3043 97.6563 12.969 97.8146 12.55C97.9758 12.1262 98.0559 11.6557 98.0559 11.1386C98.0559 10.6271 97.9768 10.1671 97.8194 9.75571C97.6827 9.36817 97.4374 9.028 97.1126 8.77571C96.7997 8.53285 96.4058 8.41095 95.9317 8.41095C95.4767 8.41095 95.0933 8.52618 94.7842 8.75666C94.4742 8.98428 94.2406 9.30333 94.0822 9.7138C93.9239 10.1205 93.8447 10.5957 93.8447 11.1386ZM101.48 17.5024C101.31 17.5041 101.14 17.4881 100.973 17.4548C100.867 17.4384 100.764 17.4097 100.665 17.369L100.95 16.3843C101.222 16.4538 101.462 16.4795 101.67 16.4605C101.883 16.4395 102.081 16.34 102.225 16.1814C102.389 16.0167 102.54 15.75 102.675 15.3814L102.884 14.8129L100.191 7.50238H101.405L103.416 13.2976H103.491L105.502 7.50238H106.716L103.624 15.8357C103.485 16.2109 103.313 16.5214 103.108 16.769C102.916 17.0069 102.67 17.1961 102.391 17.3214C102.122 17.4424 101.819 17.5024 101.48 17.5024ZM108.479 14.7748V5.07761H114.34V6.11952H109.655V9.39571H114.037V10.4376H109.655V13.7329H114.415V14.7748H108.479ZM118.585 14.9462C118.152 14.9521 117.723 14.863 117.328 14.6852C116.964 14.5193 116.654 14.2555 116.432 13.9233C116.21 13.5881 116.1 13.1843 116.1 12.7109C116.1 12.2938 116.182 11.9557 116.346 11.6976C116.511 11.4357 116.73 11.2309 117.006 11.0814C117.281 10.9338 117.584 10.8233 117.916 10.75C118.251 10.6738 118.587 10.6148 118.926 10.57C119.369 10.5129 119.727 10.4709 120.003 10.4424C120.281 10.4109 120.483 10.3586 120.61 10.2862C120.739 10.2138 120.804 10.0871 120.804 9.90714V9.86904C120.804 9.40238 120.676 9.03952 120.42 8.78047C120.167 8.52142 119.783 8.3919 119.268 8.3919C118.733 8.3919 118.315 8.50904 118.01 8.74238C117.707 8.97666 117.494 9.22523 117.37 9.49095L116.309 9.1119C116.499 8.66999 116.751 8.32619 117.067 8.07952C117.375 7.83569 117.73 7.65831 118.111 7.55857C118.49 7.45761 118.863 7.40714 119.229 7.40714C119.463 7.40714 119.732 7.43571 120.035 7.49285C120.349 7.54909 120.65 7.66309 120.922 7.82904C121.211 7.99952 121.449 8.25666 121.639 8.60047C121.829 8.94428 121.923 9.40523 121.923 9.98333V14.7748H120.804V13.79H120.747C120.649 13.9784 120.521 14.1496 120.367 14.2967C120.191 14.4767 119.955 14.63 119.662 14.7557C119.367 14.8824 119.008 14.9462 118.585 14.9462ZM118.755 13.9414C119.198 13.9414 119.571 13.8548 119.874 13.6814C120.181 13.5071 120.412 13.2833 120.567 13.009C120.725 12.7338 120.804 12.4452 120.804 12.1424V11.1195C120.757 11.1767 120.653 11.2281 120.491 11.2757C120.31 11.3248 120.126 11.3642 119.941 11.3938C119.585 11.449 119.227 11.4967 118.869 11.5367C118.578 11.5748 118.306 11.6357 118.053 11.7205C117.822 11.7909 117.613 11.9199 117.447 12.0948C117.295 12.2595 117.219 12.4833 117.219 12.7671C117.219 13.1557 117.363 13.449 117.651 13.6481C117.942 13.8433 118.31 13.9414 118.755 13.9414ZM129.259 9.13095L128.254 9.41476C128.185 9.23901 128.091 9.07461 127.973 8.92714C127.843 8.75774 127.674 8.62165 127.48 8.52999C127.272 8.42523 127.004 8.3738 126.679 8.3738C126.234 8.3738 125.862 8.47571 125.565 8.68142C125.271 8.88333 125.123 9.14047 125.123 9.45285C125.123 9.73095 125.224 9.94999 125.427 10.1109C125.63 10.2729 125.945 10.4062 126.376 10.5138L127.456 10.7786C128.108 10.9367 128.593 11.1786 128.913 11.5024C129.231 11.8252 129.392 12.2405 129.392 12.7481C129.392 13.1652 129.271 13.5376 129.031 13.8662C128.794 14.1938 128.462 14.4529 128.035 14.6424C127.609 14.8319 127.112 14.9262 126.546 14.9262C125.803 14.9262 125.188 14.7652 124.702 14.4433C124.215 14.1214 123.906 13.6509 123.776 13.0329L124.839 12.7671C124.94 13.1586 125.132 13.4529 125.413 13.6481C125.697 13.8433 126.068 13.9414 126.527 13.9414C127.049 13.9414 127.463 13.8309 127.77 13.61C128.079 13.3862 128.235 13.1176 128.235 12.8052C128.237 12.6868 128.215 12.5691 128.169 12.4598C128.123 12.3506 128.055 12.2521 127.969 12.1709C127.792 11.9976 127.52 11.8681 127.153 11.7824L125.94 11.4986C125.272 11.3405 124.782 11.0957 124.469 10.7652C124.16 10.43 124.004 10.0119 124.004 9.50999C124.004 9.09952 124.12 8.73666 124.351 8.42047C124.584 8.10523 124.902 7.85761 125.303 7.67761C125.738 7.49161 126.206 7.39943 126.679 7.40714C127.4 7.40714 127.966 7.56523 128.377 7.88142C128.791 8.19666 129.085 8.61285 129.259 9.13095ZM131.931 17.5024C131.741 17.5024 131.572 17.4862 131.423 17.4548C131.318 17.4387 131.214 17.4099 131.115 17.369L131.4 16.3843C131.671 16.4538 131.912 16.4795 132.121 16.4605C132.334 16.4393 132.531 16.3398 132.675 16.1814C132.84 16.0167 132.99 15.75 133.126 15.3814L133.334 14.8129L130.64 7.50238H131.855L133.865 13.2976H133.942L135.952 7.50238H137.166L134.074 15.8357C133.935 16.2109 133.762 16.5214 133.557 16.769C133.365 17.0071 133.12 17.1964 132.841 17.3214C132.573 17.4424 132.268 17.5024 131.931 17.5024ZM138.414 14.7748H137.181L140.747 5.07761H141.961L145.527 14.7748H144.294L141.392 6.61285H141.316L138.414 14.7748ZM138.869 10.9871H143.839V12.029H138.869V10.9871ZM149.961 17.6538C149.421 17.6538 148.956 17.5843 148.568 17.4452C148.212 17.3282 147.882 17.145 147.595 16.9052C147.355 16.7026 147.148 16.4631 146.983 16.1957L147.875 15.57C147.976 15.7033 148.104 15.8548 148.259 16.0252C148.414 16.1986 148.626 16.349 148.895 16.4748C149.167 16.6043 149.523 16.669 149.961 16.669C150.55 16.669 151.035 16.5262 151.418 16.2424C151.8 15.9586 151.991 15.5138 151.991 14.9071V13.4309H151.897C151.815 13.5624 151.697 13.7262 151.546 13.9224C151.369 14.1376 151.15 14.3134 150.901 14.4386C150.622 14.5871 150.247 14.6614 149.772 14.6614C149.184 14.6614 148.656 14.5224 148.188 14.2443C147.724 13.9671 147.355 13.5624 147.084 13.0329C146.815 12.5024 146.68 11.8586 146.68 11.1005C146.68 10.3557 146.811 9.70714 147.074 9.15476C147.336 8.59952 147.701 8.16999 148.169 7.86714C148.637 7.56047 149.177 7.40714 149.791 7.40714C150.265 7.40714 150.641 7.48619 150.92 7.64428C151.201 7.79857 151.416 7.97571 151.565 8.17476C151.716 8.36999 151.833 8.53095 151.916 8.65761H152.029V7.50238H153.11V14.9833C153.11 15.6081 152.968 16.1167 152.684 16.5071C152.4 16.9034 152.003 17.2054 151.546 17.3738C151.04 17.5659 150.502 17.6609 149.961 17.6538ZM149.924 13.6576C150.372 13.6576 150.752 13.5548 151.062 13.35C151.372 13.1443 151.607 12.849 151.768 12.4643C151.929 12.0795 152.01 11.6186 152.01 11.0814C152.01 10.5576 151.931 10.0957 151.773 9.69476C151.635 9.31979 151.391 8.99247 151.072 8.7519C150.762 8.52523 150.379 8.41095 149.924 8.41095C149.449 8.41095 149.054 8.53095 148.739 8.77095C148.425 9.01095 148.19 9.33285 148.032 9.73666C147.872 10.1668 147.793 10.6227 147.799 11.0814C147.799 11.5862 147.878 12.0338 148.037 12.4214C148.198 12.8071 148.434 13.11 148.748 13.3309C149.064 13.549 149.456 13.6576 149.924 13.6576ZM158.347 14.9262C157.645 14.9262 157.039 14.7719 156.531 14.4624C156.023 14.1481 155.616 13.6945 155.359 13.1557C155.087 12.5938 154.951 11.9405 154.951 11.1957C154.951 10.45 155.087 9.7938 155.359 9.22523C155.634 8.6538 156.016 8.20904 156.507 7.88999C157 7.56809 157.575 7.40714 158.233 7.40714C158.612 7.40714 158.987 7.47095 159.357 7.59761C159.727 7.72333 160.064 7.92809 160.367 8.21285C160.67 8.4938 160.912 8.86618 161.092 9.32999C161.272 9.7938 161.363 10.3652 161.363 11.0443V11.5176H155.747V10.5519H160.225C160.225 10.1414 160.142 9.77476 159.978 9.45285C159.823 9.13875 159.583 8.87461 159.285 8.69095C158.989 8.50428 158.638 8.41095 158.233 8.41095C157.787 8.41095 157.401 8.52142 157.075 8.74238C156.756 8.95612 156.5 9.25017 156.331 9.59476C156.157 9.94515 156.068 10.3313 156.07 10.7224V11.3662C156.07 11.9148 156.165 12.3805 156.355 12.7624C156.548 13.1414 156.815 13.43 157.156 13.629C157.498 13.8252 157.895 13.9224 158.347 13.9224C158.64 13.9224 158.907 13.8814 159.143 13.7995C159.383 13.7138 159.59 13.5881 159.764 13.4205C159.939 13.25 160.073 13.0395 160.168 12.7862L161.248 13.089C161.137 13.4519 160.94 13.7829 160.675 14.0548C160.406 14.33 160.074 14.5443 159.679 14.6995C159.253 14.8563 158.801 14.9332 158.347 14.9262ZM164.318 10.3995V14.7748H163.199V7.50238H164.28V8.63761H164.375C164.546 8.26809 164.804 7.97095 165.152 7.74714C165.5 7.52047 165.949 7.40618 166.499 7.40618C166.992 7.40618 167.423 7.50714 167.794 7.70999C168.164 7.90809 168.451 8.2119 168.657 8.61857C168.862 9.02238 168.965 9.5338 168.965 10.1519V14.7738H167.846V10.2281C167.846 9.65666 167.697 9.2119 167.4 8.89285C167.103 8.57095 166.695 8.40999 166.177 8.40999C165.819 8.40999 165.5 8.48809 165.218 8.64238C164.941 8.79666 164.72 9.02333 164.559 9.31857C164.398 9.61571 164.318 9.97571 164.318 10.3986V10.3995ZM174.102 14.9262C173.419 14.9262 172.832 14.7652 172.339 14.4433C171.841 14.1163 171.446 13.6549 171.201 13.1129C170.935 12.5481 170.802 11.9033 170.802 11.1767C170.802 10.4376 170.938 9.78618 171.21 9.22047C171.462 8.67922 171.859 8.21852 172.358 7.88999C172.851 7.56809 173.426 7.40714 174.083 7.40714C174.595 7.40714 175.057 7.50238 175.468 7.6919C175.879 7.88142 176.216 8.14618 176.478 8.48714C176.741 8.82809 176.904 9.22523 176.967 9.68047H175.848C175.762 9.34904 175.573 9.05476 175.278 8.79952C174.987 8.54047 174.595 8.41095 174.102 8.41095C173.666 8.41095 173.284 8.52523 172.955 8.7519C172.63 8.97666 172.375 9.2938 172.192 9.70428C172.011 10.1109 171.921 10.59 171.921 11.1386C171.921 11.7005 172.01 12.19 172.187 12.6062C172.367 13.0233 172.62 13.3462 172.945 13.5776C173.274 13.8071 173.66 13.9224 174.102 13.9224C174.393 13.9224 174.657 13.8719 174.895 13.7709C175.131 13.67 175.333 13.5252 175.497 13.3357C175.661 13.1452 175.778 12.9186 175.848 12.6538H176.967C176.907 13.077 176.744 13.479 176.49 13.8235C176.237 14.1681 175.902 14.4445 175.516 14.6281C175.111 14.8271 174.64 14.9262 174.102 14.9262ZM179.457 17.5024C179.267 17.5024 179.099 17.4862 178.95 17.4548C178.844 17.4386 178.741 17.4098 178.642 17.369L178.926 16.3843C179.198 16.4538 179.438 16.4795 179.647 16.4605C179.86 16.4395 180.058 16.34 180.202 16.1814C180.366 16.0167 180.516 15.75 180.652 15.3814L180.861 14.8129L178.168 7.50238H179.381L181.392 13.2976H181.468L183.479 7.50238H184.693L181.6 15.8357C181.483 16.174 181.308 16.4896 181.083 16.769C180.892 17.0071 180.647 17.1964 180.368 17.3214C180.099 17.4424 179.796 17.5024 179.457 17.5024Z" fill="var(--fill-0, white)"/>
</g>
</svg>
