<svg width="117" height="118" viewBox="0 0 117 118" fill="none" xmlns="http://www.w3.org/2000/svg">
<path d="M22.2772 0.0312172C24.4703 0.338549 27.3127 0.924607 29.4641 1.42042C30.1383 1.57544 29.7662 1.67129 30.2304 1.78535C31.1384 2.00824 32.0078 2.08235 32.9029 2.31497C33.1994 2.39283 32.7811 2.57486 33.093 2.65082C34.8025 3.06529 36.4492 3.29049 38.1912 3.65203C46.7719 5.43328 55.2351 7.0216 63.9472 8.67432C66.8198 9.21905 70.2802 10.0613 73.2714 10.4872C73.6206 10.5367 73.4521 10.2825 73.5213 10.2762C74.6057 10.1841 74.1837 10.563 74.8498 10.7407C77.4939 11.4446 80.4757 11.9911 83.0741 12.3626C84.1797 12.52 83.1539 11.8932 84.2179 12.3311C84.2918 12.3611 83.9722 12.5431 84.2693 12.621C84.9431 12.797 86.2473 12.9843 86.7739 13.0961C87.7885 13.3126 87.9579 13.34 88.9232 13.513C90.2425 13.7514 91.7925 14.1432 93.2183 14.3406C93.5227 14.382 93.1643 14.0744 93.6536 14.1191C94.1433 14.1639 95.4166 14.4092 95.8372 14.5409C96.2579 14.6728 96.0417 14.8267 96.1104 14.8829C96.6737 15.3538 98.2387 15.1151 98.4308 15.1362C101.933 15.5368 104.854 16.3451 108.106 16.9178C110.555 17.3483 113.189 17.7174 115.521 18.1401L116.812 18.3475L116.598 19.6778C116.594 19.6971 116.591 19.7164 116.587 19.7357C116.078 22.5318 115.531 24.8813 115.074 27.6043C115.025 27.8916 115.363 27.6045 115.304 27.9555C114.68 31.6849 113.998 35.3773 113.156 39.0517C113.071 39.4202 112.911 38.8978 112.812 39.2634C112.21 41.5023 111.092 45.0159 111.919 46.5546C111.606 48.0879 111.233 49.9507 110.775 51.2911C110.48 52.1554 110.366 51.2453 110.287 52.357C110.269 52.6077 110.559 52.3286 110.514 52.7015C110.326 54.2711 109.95 55.9561 109.8 57.5152C109.77 57.8324 109.994 57.7839 110.016 57.8792C110.19 58.6778 109.467 59.8289 109.383 60.0928C108.746 62.103 108.589 63.6252 108.244 65.5416C108.164 65.9863 108.538 65.5098 108.471 65.9395C108.119 68.1674 107.689 70.4636 107.181 72.6162C107.068 73.0949 106.907 72.6079 106.84 72.8344C106.55 73.8341 106.962 74.1397 106.692 75.0999C106.635 75.3025 106.451 75.1502 106.422 75.1839C105.965 75.7099 106.375 76.3093 106.36 76.4625C106.173 78.4032 105.435 79.5346 105.183 81.3967C105.153 81.6196 105.5 81.1665 105.401 81.7901C104.742 85.9454 103.899 90.3142 102.968 94.3782C102.824 95.0102 102.709 94.5207 102.678 94.5566C102.188 95.1443 102.616 95.656 102.598 95.8672C102.445 97.5313 101.754 98.989 102.156 100.209C101.006 105.753 100.211 111.338 99.0367 116.838L98.8954 117.718L97.9888 117.572C96.6342 117.283 95.2848 116.971 93.9424 116.625C93.8559 116.603 94.0565 116.383 93.8838 116.341C91.8044 115.831 92.1406 116.287 90.6655 116.512C90.294 116.569 89.3274 115.812 89.2403 115.754C88.9235 115.54 89.3451 115.235 89.2352 115.185C88.3234 114.783 88.264 116.029 86.9784 115.802C86.9386 115.793 87.147 115.599 87.043 115.557C86.7202 115.428 86.3721 115.459 86.0577 115.324C85.3385 115.013 85.1755 114.374 83.9681 114.516C83.8151 114.535 83.9149 115.265 82.773 115.03C82.3179 114.936 80.2905 114.591 79.7308 114.446C79.1717 114.301 79.6002 114.147 79.5615 114.13C78.0859 113.567 78.6866 113.547 77.9981 112.976C77.3094 112.407 77.3391 113.48 77.0067 113.54C76.6739 113.601 75.5968 113.16 75.3364 113.027C75.0762 112.894 75.4443 112.813 75.2081 112.722C73.6413 112.124 74.4056 113.111 73.8422 113.181C72.5137 113.348 71.6678 112.407 70.5276 112.128C70.2191 112.053 70.4429 112.273 70.1622 112.24C69.0505 112.109 68.4308 111.752 67.1398 111.751C66.9287 111.751 65.835 112.034 65.2395 111.58C65.1553 111.515 65.4527 111.37 64.9912 111.244C64.3018 111.056 63.0466 110.792 62.282 110.723C61.7175 110.672 62.2994 111.1 61.6166 110.878C61.3133 110.78 61.9224 110.697 61.3497 110.527C60.7801 110.358 59.2921 110.104 58.7254 110.011C58.1596 109.918 58.4265 110.211 58.378 110.219C58.0856 110.263 56.9817 110.187 56.886 110.17C52.0508 109.348 47.6679 108.159 42.9418 107.463C42.571 107.408 42.7723 107.704 42.7153 107.698C41.4332 107.581 42.5476 107.086 41.7046 106.706C41.7419 107.24 41.2373 107.056 40.3374 106.955C39.9037 106.907 40.1024 107.146 40.0596 107.16C39.3706 107.348 38.9963 106.882 38.8963 106.782C38.5267 106.415 38.0074 106.68 37.7552 106.434C37.503 106.189 38.213 106.018 37.3588 105.871C37.0872 106.012 37.6364 106.602 36.9747 106.566C34.478 106.428 29.9803 105.248 28.0213 104.862C26.0663 104.477 25.4266 104.399 24.2951 104.131C22.2511 103.648 22.9453 104.136 21.6344 104.073C20.3197 104.009 21.099 103.245 20.9473 103.024C20.7989 102.804 20.5667 102.963 20.3591 102.82C20.1524 102.677 20.662 102.635 20.1397 102.503C19.617 102.371 18.1105 102.45 17.8882 102.613C17.4181 102.959 17.9934 103.511 16.6195 103.111C16.5405 103.088 16.8425 102.904 16.5381 102.826C14.1189 102.217 11.5751 101.757 9.15525 101.169C8.82259 101.088 9.16859 100.885 8.9755 100.835C6.9644 100.312 7.61757 100.872 6.41509 101.153C6.77851 100.56 6.22901 100.061 4.68148 99.7847C3.75123 99.6181 3.86237 99.9247 3.22583 100.015C3.03481 100.042 2.40997 99.7348 2.26757 99.8447C1.7988 100.203 2.33399 100.791 0.773786 100.32L-1.31705e-05 100.196L0.128176 99.398C0.128371 99.3974 0.128567 99.3967 0.128762 99.3961C0.13631 99.372 0.165421 99.3892 0.202445 99.4111L0.0864018 100.133L0.786881 100.246C0.815728 100.197 0.852695 100.135 0.814409 100.09L0.26805 100.002L0.358561 99.4386C0.376402 99.4235 0.391513 99.3965 0.40196 99.3525C0.770626 97.8046 0.356004 97.5386 0.599927 95.8382C0.791076 94.5054 1.47964 92.1965 1.79012 90.6953C2.50112 90.8534 2.58835 89.3991 2.19623 88.7338C2.38914 87.758 2.54772 86.6953 2.78292 85.7608C2.86364 85.4392 3.03337 85.6898 3.06303 85.6526C3.52577 85.0847 3.12016 84.5742 3.13859 84.3595C3.35938 82.0361 4.05283 80.2338 4.08232 77.9845C4.08318 77.9046 3.60759 77.6911 4.0741 77.1707C4.10582 77.1373 4.20496 77.8994 4.40383 76.8739C4.60278 75.8483 5.21156 73.9561 5.23272 72.4873C5.23813 72.1319 4.98819 71.1865 5.42761 70.5405C5.48697 70.4546 5.61169 70.5821 5.71493 70.4612C6.04497 70.0696 5.58384 69.7428 6.10165 69.3055C6.61945 68.8682 7.12758 67.8583 7.08664 66.3661C7.08616 66.3187 6.74751 65.9074 6.83368 65.4556C6.97158 64.7344 7.23564 63.7226 7.36616 62.9672C7.42851 62.6054 7.1401 62.7931 7.14664 62.7296C7.43644 60.2746 7.96221 58.5837 8.51712 55.9969C8.61934 55.5227 8.52353 54.0916 8.95342 53.2146C9.42456 52.2515 10.4564 53.5085 10.578 51.1253C10.628 50.1642 9.2957 48.7014 10.3928 47.1518C10.7729 43.8385 11.7164 40.8787 12.0134 37.5413C12.027 37.3913 11.679 36.8478 11.7461 36.5013C11.8466 35.987 12.0977 35.7393 12.1759 35.3732C12.5088 33.84 12.5858 32.3969 12.875 30.9131C12.9844 30.3497 13.1575 30.584 13.288 29.912C13.4182 29.2404 13.2235 28.743 13.5167 27.8535C13.7391 27.1819 14.4206 26.5913 14.6472 25.6877C14.1011 25.5555 14.2233 24.929 14.2744 23.7862C14.284 23.5665 14.0512 23.7629 14.0458 23.6572C14.0196 23.2264 14.2464 22.8719 14.2078 22.4604C14.1987 22.3603 14.0109 22.3226 13.9928 22.2389C13.8321 21.5262 14.4492 20.5075 14.5562 20.3327C14.9636 19.6623 14.7776 19.2827 14.9855 18.7501C15.1931 18.2183 15.1859 19.0669 15.3664 18.4348C15.7404 17.1246 16.0123 15.4043 16.26 14.0504C16.3577 13.5099 16.0408 13.8345 16.049 13.7561C16.1823 12.6265 16.6495 11.5428 16.2574 10.8343C17.6907 10.2875 16.2505 10.1377 16.792 8.58486C16.8352 8.46264 17.4766 8.41056 17.4814 8.90988C17.4861 9.40916 17.1651 10.1084 17.1872 10.8039C17.1921 10.9686 17.6062 11.9798 17.6192 12.11C17.7197 13.1305 16.7791 13.1067 16.7197 13.1493C16.0737 13.6369 16.4967 14.858 16.4878 15.1583C16.4476 16.5324 16.1181 17.6477 16.0604 18.7927C16.0216 19.5414 16.6092 19.7189 16.4894 20.2911C16.0914 22.1931 15.1364 22.7131 15.5445 24.6435C15.6312 25.0573 16.3549 24.7889 15.5949 26.0828C15.5471 26.164 14.8939 27.109 15.0876 27.7557C15.1121 27.8369 15.3037 27.8683 15.3024 27.9695C15.29 28.6472 15.0602 29.0601 15.0065 29.7913C14.9528 30.5224 14.9092 31.4053 14.6998 32.214C14.5738 32.7013 14.1058 33.2727 13.9769 33.4939C13.6079 34.1177 13.8935 34.9066 13.5163 35.2668C13.137 35.6302 12.8165 34.7325 12.426 35.7921C12.9155 35.9202 13.4089 36.1032 13.897 36.2564C13.4566 38.6517 12.8799 40.9833 12.4775 43.3935C12.4281 43.6924 12.7489 43.4344 12.7029 43.7561C12.5074 45.1129 12.1092 46.2579 11.9383 47.6706C11.807 48.7643 11.8803 50.0019 11.7518 51.1471C11.0614 51.7387 10.958 53.4535 10.6908 54.6652C10.5974 55.0898 10.4507 55.0344 10.3475 55.3298C9.96203 56.445 10.5591 55.9959 10.5827 56.3244C10.6821 57.7335 9.52483 57.6486 9.27235 59.2447C9.25859 59.3292 9.68289 60.4665 9.6956 60.6151C9.78266 61.5603 9.45836 60.7272 9.31407 61.2836C9.05055 62.2997 8.77957 62.9902 8.74389 64.2305C8.7343 64.5923 8.9629 65.5045 8.55003 66.1376C8.49589 66.2209 8.30437 66.1358 8.27986 66.2062C7.85296 67.4839 8.47625 67.6294 8.5572 68.4168C8.63807 69.2043 7.99937 70.2859 7.83259 70.4995C7.39992 71.0591 7.77747 70.0026 7.75158 69.9636C7.44244 69.5046 7.35862 70.3608 7.21284 71.0007C6.57925 70.9853 6.45713 71.8945 7.0642 71.6644C7.13077 71.6378 7.1618 71.1253 7.21284 71.0007C7.71841 71.674 7.62104 72.6797 6.86203 73.6756C6.50641 74.1418 6.28271 73.6024 6.1211 75.1803C6.04748 75.8964 6.52057 75.6981 6.52639 76.3425C6.53934 77.8147 5.81633 79.5973 5.61963 81.078C5.54825 81.6154 5.87247 81.1368 5.8317 81.5055C5.72423 82.4841 5.39927 83.3065 5.31735 84.2939C5.31022 84.3834 5.59162 84.2113 5.54145 84.514C5.16585 86.8095 4.65822 88.7765 4.2322 91.1672C4.02648 92.3224 3.7965 94.4119 3.55843 95.6042C3.29367 96.9349 2.86599 98.4411 2.53451 99.8223L1.19809 97.9137C1.96182 98.097 2.6873 98.2509 3.32376 98.3315C4.48938 98.4803 4.27873 98.192 4.80329 98.1134C5.81575 97.9603 7.40597 98.8348 7.61804 98.9641C7.62448 98.9683 6.61969 98.8503 7.12839 99.0689C7.39103 99.3838 7.60663 98.9633 7.61804 98.9641C7.75748 99.0481 9.73475 99.4538 10.1375 99.4768C10.3564 99.4892 10.2771 99.2373 10.3905 99.2481C13.0838 99.5101 15.7558 99.9208 18.4315 100.504C18.4781 100.517 18.3612 100.762 18.4714 100.79C20.0112 101.18 21.0658 101.04 22.3855 101.079C23.705 101.119 24.7142 101.362 25.3976 101.939C26.3781 102.054 27.7362 102.496 28.5166 102.756C29.297 103.016 29.4974 102.533 29.5697 102.536C31.825 102.606 33.0456 103.117 35.3193 103.565C36.4002 103.778 38.5648 104.084 39.7489 104.237C40.685 104.356 41.2234 104.572 42.092 104.648C42.2094 104.658 42.132 104.414 42.1688 104.412C43.1706 104.312 42.6154 104.778 42.7953 104.911C43.4471 105.392 43.8552 105.659 45.1071 105.707C45.3957 105.719 46.3559 105.076 46.878 105.121C47.5565 105.18 47.2545 105.418 47.9663 105.473C48.0271 105.478 48.0454 105.302 48.4758 105.385C50.4745 105.772 52.642 106.259 54.7282 106.609C55.013 106.657 54.6969 106.317 55.1092 106.382C57.0441 106.689 59.1567 107.073 61.0133 107.533C61.4701 107.647 61.146 107.79 61.2363 107.865C61.7915 108.321 62.7548 107.97 62.9007 107.986C66.3844 108.35 68.9374 109.271 72.4829 109.672C72.676 109.693 74.2409 109.411 74.8147 109.991C74.8541 110.03 75.4191 110.619 76.0498 110.395C76.0891 110.381 75.728 110.066 76.4289 110.215C77.1299 110.364 78.2938 110.401 79.216 110.841C79.5081 110.979 80.1501 111.581 81.1322 111.365C81.1966 111.349 82.7606 110.745 83.1613 111.422C83.226 111.534 83.0305 112.142 84.1797 112.015C84.3994 111.99 84.0449 111.784 84.6102 111.794C85.4766 111.809 86.5639 112.173 87.6489 112.078C87.8382 112.061 88.682 111.773 89.2423 112.203C89.33 112.271 89.1098 112.446 89.4315 112.527C90.9611 112.912 92.608 113.059 94.1557 113.48C94.704 113.629 94.3598 113.915 94.9247 114.108C95.4898 114.3 96.6448 114.593 97.2797 114.547C97.9148 114.5 97.3452 113.847 98.2635 113.965C98.3813 113.98 98.499 113.995 98.6166 114.011L95.4758 116.21C96.0002 112.343 96.9691 108.588 97.6903 104.759C97.8006 104.174 97.523 104.626 97.6717 103.761C98.2192 100.573 99.0092 95.0406 99.9044 92.3479C100.621 90.1905 100.378 93.0218 100.81 91.3526C101.017 90.547 100.55 89.5534 100.565 89.3528C100.705 87.3915 101.217 86.1015 101.438 84.3529C101.484 83.9918 101.169 84.2984 101.211 83.9915C101.351 82.9431 101.656 81.8691 101.811 80.871C101.88 80.4231 101.672 80.4713 101.76 80.0634C101.966 79.0869 102.2 78.2326 102.55 77.3069C102.582 77.2225 102.718 77.8533 102.855 77.1281C103.077 75.9543 103.512 74.5257 103.567 73.1399C103.582 72.7286 103.144 72.6351 103.601 71.8257C103.696 71.6559 104.185 71.9802 103.905 70.8941C103.859 70.7116 103.539 68.9138 104.083 68.1551C104.226 67.9549 104.758 67.4732 104.775 66.9783C104.776 66.9109 104.493 67.1315 104.54 66.7273C104.712 65.3035 104.997 63.8301 105.179 62.3683C105.227 61.9778 104.88 62.5108 104.959 61.9303C105.177 60.3338 105.588 58.3652 105.938 56.8282C106.068 56.2616 106.201 56.6926 106.231 56.6549C106.708 56.0494 106.293 55.5683 106.304 55.3414C106.378 53.9308 106.791 52.9196 106.955 51.6363C107.001 51.2823 106.726 51.4905 106.717 51.417C106.644 50.6564 106.964 51.2697 107.091 50.8188C107.447 49.556 107.681 48.1194 107.881 46.8139C107.954 46.3344 107.591 46.8238 107.66 46.394C108.061 43.849 108.551 41.2163 109.136 38.7666C109.246 38.3055 109.401 38.6352 109.465 38.5463C109.913 37.9349 109.636 36.8741 109.633 36.6407C109.619 35.5795 109.872 35.2128 109.997 34.3001C110.609 29.8406 111.694 24.3926 112.506 20.2246C112.587 19.809 112.667 19.4008 112.747 18.9987L114.842 21.9915C109.989 21.0315 106.045 20.167 101.238 19.3681C100.908 19.3128 101.192 19.6463 100.906 19.6022C97.2194 19.0204 93.62 18.275 89.9234 17.705C89.6202 17.6578 90.0098 17.995 89.5216 17.9279C88.5197 17.7921 87.2619 17.5558 86.2706 17.2952C85.787 17.1686 86.4845 17.0612 85.997 16.9383C84.8618 16.6518 83.6324 16.4159 82.4439 16.2493C81.938 16.1791 82.6494 16.5792 81.9955 16.467C77.5403 15.7087 73.1613 14.9839 68.7246 13.8459C68.4205 13.7678 68.2454 13.1787 67.5716 13.167C67.4957 13.3085 67.4672 13.4857 67.4173 13.6425C60.9232 12.5866 54.5436 11.2682 48.0516 10.0936C47.7779 10.0441 48.2008 10.4145 47.6706 10.3202C44.6018 9.77469 41.6071 9.32858 38.5177 8.48984C38.2111 8.40703 38.4599 7.93055 37.5284 7.845C37.364 7.83038 35.9695 7.65388 35.5927 7.7004C35.5412 7.70836 35.7519 7.9884 35.3052 7.9167C32.7097 7.49593 30.0059 6.96372 27.4465 6.36404C27.0336 6.26681 27.522 6.09429 27.2283 6.02286C25.1442 5.51808 22.8181 5.30455 20.8444 4.72169C19.5234 4.33064 20.0989 3.98504 19.4578 3.43191C19.3671 3.35383 18.5341 3.1971 18.5347 2.94116C18.534 2.29717 19.0589 1.6847 19.0103 0.98984C19.0006 0.840295 17.8554 0.797586 18.5784 0.567846C18.6287 0.552813 19.4595 0.580743 19.6798 0.498415C19.8332 0.441666 19.6272 0.144951 19.9292 0.0909378C20.231 0.0370172 20.5053 0.303662 20.997 0.264349C21.4887 0.223487 21.3327 -0.100253 22.2772 0.0312172ZM32.0313 103.923C32.7307 104.295 32.996 103.431 32.1562 103.501C32.1154 103.505 31.9951 103.905 32.0313 103.923ZM12.2157 40.8523C11.6549 41.7536 12.111 42.5185 12.5326 41.8872C12.954 41.256 12.386 40.5776 12.2157 40.8523ZM13.7049 30.7428C13.1977 31.8224 14.4193 32.2218 14.3801 30.9628C14.3782 30.8897 13.7344 30.6797 13.7049 30.7428ZM22.8012 3.89612C22.793 3.88258 22.195 3.76534 22.1786 3.77444C21.8096 3.99875 23.0055 4.23299 22.8012 3.89612ZM15.1552 20.706C14.9233 21.0301 14.9393 22.0836 15.2276 21.681C15.4596 21.3569 15.4438 20.3024 15.1552 20.706ZM70.5725 111.692C70.5819 111.707 71.01 111.795 71.0145 111.719C71.0275 111.474 70.4169 111.436 70.5725 111.692ZM18.1323 3.73766C17.6432 6.23598 16.3401 7.57324 16.9382 4.86416C17.0465 4.37355 17.0805 5.98773 17.2847 5.37502C17.6577 4.25374 17.1426 3.37471 17.698 2.26131C17.7993 2.05987 18.1625 3.59556 18.133 3.74236C18.1328 3.74079 18.1325 3.73923 18.1323 3.73766ZM32.2714 105.06C32.2842 105.074 32.8777 105.19 32.8941 105.181C33.266 104.958 32.0703 104.724 32.2714 105.06ZM95.5785 116.664C95.6069 116.695 96.9848 116.962 97.0339 116.947C97.8358 116.615 95.0503 116.074 95.5785 116.664ZM1.81342 90.6749C1.64578 89.9754 1.74961 89.1922 2.19534 88.7367C2.06267 89.3791 1.94527 90.0287 1.81342 90.6749Z" fill="#D98B99"/>
</svg>
