<svg preserveAspectRatio="none" width="100%" height="100%" overflow="visible" style="display: block;" viewBox="0 0 332 488" fill="none" xmlns="http://www.w3.org/2000/svg">
<g id="Vector">
<path d="M282.985 440.782C281.492 440.791 279.027 459.779 279.027 459.779C279.027 459.779 265.158 464.7 265.634 465.56C266.111 466.42 278.29 467.186 278.29 467.186C278.29 467.186 281.321 487.647 283.615 487.289C285.513 486.991 285.719 466.079 285.719 466.079C285.719 466.079 299.211 465.509 300.246 463.116C300.633 462.222 286.025 458.663 286.025 458.663C286.025 458.663 284.478 440.774 282.985 440.782Z" fill="var(--fill-0, white)"/>
<path d="M302.323 48.0501C300.471 48.6121 304.383 73.0919 304.383 73.0919C304.383 73.0919 288.994 84.3653 289.902 85.2679C290.81 86.1704 306.218 82.6198 306.218 82.6198C306.218 82.6198 317.506 106.895 320.205 105.61C322.453 104.537 315.033 78.4902 315.033 78.4902C315.033 78.4902 331.565 72.8194 331.97 69.4646C332.132 68.2044 312.685 69.1751 312.685 69.1751C312.685 69.1751 304.176 47.4882 302.323 48.0501Z" fill="var(--fill-0, white)"/>
<path d="M19.7391 0.00167625C18.3629 -0.194162 13.218 16.8352 13.218 16.8352C13.218 16.8352 -0.292003 19.8239 0.00482035 20.6583C0.301643 21.4928 11.4191 23.5278 11.4191 23.5278C11.4191 23.5278 11.1132 42.456 13.2809 42.3879C15.0798 42.3197 18.4349 23.332 18.4349 23.332C18.4349 23.332 30.9464 24.2941 32.2596 22.2421C32.7543 21.4672 19.829 16.6224 19.829 16.6224C19.829 16.6224 21.1153 0.197514 19.7391 0.00167625Z" fill="var(--fill-0, white)"/>
<path d="M191.276 176.179C187.885 176.179 191.986 197.032 191.986 197.032C191.986 197.032 172.486 194.503 171.982 196.845C171.505 198.948 189.261 204.303 189.261 204.303C189.261 204.303 166.37 216.641 168.07 219.8C169.77 222.959 193.255 212.912 193.255 212.912C193.255 212.912 189.351 230.708 191.627 230.708C193.902 230.708 199.722 217.603 199.722 217.603C199.722 217.603 210.416 234.437 212.422 233.577C214.428 232.717 208.41 214.351 208.41 214.351C208.41 214.351 221.003 216.939 221.003 214.351C221.003 211.762 212.224 206.219 212.224 206.219C212.224 206.219 235.889 200.565 235.035 199.714C234.18 198.863 212.989 199.714 212.989 199.714C212.989 199.714 215.858 183.638 212.989 185.588C210.12 187.538 203.095 194.997 203.095 194.997C203.095 194.997 194.667 176.179 191.276 176.179Z" fill="var(--fill-0, white)"/>
</g>
</svg>
