<svg preserveAspectRatio="none" width="100%" height="100%" overflow="visible" style="display: block;" viewBox="0 0 1135 544" fill="none" xmlns="http://www.w3.org/2000/svg">
<path id="Vector" d="M540.032 405.962L611.468 389.343L610.679 386.548L539.242 403.167L540.032 405.962ZM492.59 291.67L564.808 231.68L562.949 229.405L490.738 289.402L492.59 291.67ZM137.99 180.076L139.608 177.849L102.382 148.364L100.763 150.583L137.99 180.076ZM567.179 64.2088C567.179 64.2088 569.004 44.2607 567.506 43.803C566.008 43.3452 560.362 61.0391 560.362 61.0391C560.362 61.0391 544.823 60.2483 545.011 61.2749C545.517 64.0007 558.983 68.6271 558.983 68.6271C558.983 68.6271 554.439 89.8445 556.294 90.7184C558.511 91.7658 566.222 71.9911 566.222 71.9911C566.222 71.9911 578.68 74.8765 579.349 74.1482C580.018 73.4199 567.179 64.2088 567.179 64.2088ZM663.24 165.191C663.24 165.191 665.4 148.204 662.707 148.204C660.013 148.204 654.279 163.533 654.279 163.533C654.279 163.533 648.29 157.45 645.905 155.903C643.519 154.357 646.649 167.403 646.649 167.403C646.649 167.403 629.726 166.71 629.083 167.403C628.441 168.097 647.601 172.703 647.601 172.703C647.601 172.703 640.895 177.225 641.031 179.327C641.167 181.428 651.06 179.327 651.06 179.327C651.06 179.327 647.236 194.295 648.879 194.995C650.522 195.696 658.152 181.976 658.152 181.976C658.152 181.976 663.485 192.658 665.29 192.658C667.095 192.658 663.063 178.161 663.063 178.161C663.063 178.161 682.297 186.346 683.484 183.773C684.672 181.199 665.789 171.149 665.789 171.149C665.789 171.149 679.648 166.786 679.157 165.066C678.652 163.131 663.24 165.191 663.24 165.191ZM743.153 134.54L744.778 132.314L707.553 102.829L705.927 105.048L743.153 134.54ZM1032.69 20.4146C1032.69 20.4146 1034.52 0.466522 1033.01 0.00874217C1031.5 -0.449038 1025.88 17.224 1025.88 17.224C1025.88 17.224 1010.34 16.4333 1010.53 17.4529C1011.03 20.1857 1024.5 24.8121 1024.5 24.8121C1024.5 24.8121 1019.96 46.0225 1021.81 46.8965C1024.03 47.9507 1031.74 28.1691 1031.74 28.1691C1031.74 28.1691 1044.2 31.0545 1044.86 30.3193C1045.53 29.5841 1032.69 20.4146 1032.69 20.4146ZM1063.2 464.253C1063.2 464.253 1065.36 447.266 1062.67 447.266C1059.97 447.266 1054.24 462.595 1054.24 462.595C1054.24 462.595 1048.25 456.519 1045.86 454.965C1043.48 453.412 1046.61 466.472 1046.61 466.472C1046.61 466.472 1029.69 465.779 1029.04 466.472C1028.4 467.166 1047.57 471.737 1047.57 471.737C1047.57 471.737 1040.87 476.252 1041 478.361C1041.14 480.469 1051.03 478.361 1051.03 478.361C1051.03 478.361 1047.21 493.322 1048.85 494.022C1050.49 494.723 1058.12 481.01 1058.12 481.01C1058.12 481.01 1063.45 491.685 1065.26 491.685C1067.07 491.685 1063.03 477.189 1063.03 477.189C1063.03 477.189 1082.27 485.373 1083.46 482.8C1084.64 480.227 1065.76 470.176 1065.76 470.176C1065.76 470.176 1079.62 465.813 1079.13 464.1C1078.61 462.193 1063.2 464.253 1063.2 464.253ZM1132.47 164.06L1134.1 161.834L1096.87 132.349L1095.25 134.568L1132.47 164.06ZM52.6853 377.462L55.0375 376.061L33.3849 340.583L31.0398 341.984L52.6853 377.462ZM0.464352 543.65L81.1359 535.354L80.6721 532.503L0 540.792L0.464352 543.65Z" fill="var(--fill-0, white)"/>
</svg>
