<svg preserveAspectRatio="none" width="100%" height="100%" overflow="visible" style="display: block;" viewBox="0 0 637 543" fill="none" xmlns="http://www.w3.org/2000/svg">
<path id="Vector" d="M196.044 146.182C196.044 146.182 185.665 160.629 184.184 159.682C182.702 158.735 188.668 142.628 188.668 142.628C188.668 142.628 175.712 130.309 176.47 129.804C178.499 128.448 192.066 136.563 192.066 136.563C192.066 136.563 201.019 119.051 203.039 120.027C205.445 121.182 199.891 140.378 199.891 140.378C199.891 140.378 211.642 148.819 211.721 149.816C211.8 150.814 196.044 146.182 196.044 146.182ZM620.766 529.039C620.766 529.039 610.427 543.502 608.907 542.548C607.386 541.594 613.391 525.494 613.391 525.494C613.391 525.494 600.436 513.175 601.197 512.666C603.217 511.308 616.789 519.429 616.789 519.429C616.789 519.429 625.743 501.917 627.763 502.893C630.173 504.044 624.613 523.235 624.613 523.235C624.613 523.235 636.364 531.675 636.439 532.677C636.514 533.678 620.766 529.039 620.766 529.039ZM361.541 19.0245C361.541 19.0245 356.437 26.8438 355.113 25.4838C353.789 24.1238 356.542 15.1633 356.542 15.1633C356.542 15.1633 351.397 14.5517 349.675 13.9983C347.952 13.4448 354.21 9.8184 354.21 9.8184C354.21 9.8184 345.648 1.55478 345.586 0.958413C345.525 0.362042 356.602 8.19282 356.602 8.19282C356.602 8.19282 354.951 3.02298 355.78 2.25871C356.61 1.49445 360.724 7.33767 360.724 7.33767C360.724 7.33767 364.276 -0.518153 365.334 0.0271275C366.392 0.572408 365.148 9.8335 365.148 9.8335C365.148 9.8335 371.638 8.29505 372.534 9.21491C373.429 10.1348 366.177 13.8314 366.177 13.8314C366.177 13.8314 378.588 20.2927 378.245 21.9148C377.902 23.537 364.982 17.9942 364.982 17.9942C364.982 17.9942 370.21 26.6976 369.335 27.14C368.358 27.6115 361.541 19.0245 361.541 19.0245ZM15.9505 106.63C15.9505 106.63 10.8505 114.446 9.53217 113.091C8.21387 111.737 10.9516 102.769 10.9516 102.769C10.9516 102.769 5.80701 102.157 4.08432 101.604C2.36163 101.05 8.62408 97.4201 8.62408 97.4201C8.62408 97.4201 0.0629676 89.1661 0.000265281 88.5602C-0.062437 87.9542 11.0111 95.7985 11.0111 95.7985C11.0111 95.7985 9.36055 90.6286 10.1898 89.8643C11.0191 89.1001 15.1335 94.9433 15.1335 94.9433C15.1335 94.9433 18.6859 87.0875 19.7492 87.6384C20.8125 88.1893 19.5631 97.4448 19.5631 97.4448C19.5631 97.4448 26.0478 95.9007 26.9432 96.8206C27.8385 97.7404 20.5919 101.443 20.5919 101.443C20.5919 101.443 33.0023 107.894 32.655 109.52C32.3078 111.147 19.3917 105.6 19.3917 105.6C19.3917 105.6 24.6247 114.309 23.7497 114.751C22.7404 115.189 15.9505 106.63 15.9505 106.63Z" fill="var(--fill-0, white)"/>
</svg>
