<svg preserveAspectRatio="none" width="100%" height="100%" overflow="visible" style="display: block;" viewBox="0 0 619 333" fill="none" xmlns="http://www.w3.org/2000/svg">
<path id="Vector" d="M325.406 248.24L286.716 238.078L287.041 236.369L325.731 246.531L325.406 248.24ZM346.773 178.352L306.168 141.669L307.081 140.278L347.683 176.965L346.773 178.352ZM532.123 110.114L531.183 108.752L550.027 90.7226L550.967 92.0798L532.123 110.114ZM299.119 39.2628C299.119 39.2628 297.457 27.0649 298.24 26.7849C299.024 26.505 302.647 37.3246 302.647 37.3246C302.647 37.3246 310.911 36.8411 310.846 37.4688C310.671 39.1356 303.645 41.9646 303.645 41.9646C303.645 41.9646 306.802 54.9387 305.843 55.4731C304.696 56.1135 299.899 44.0216 299.899 44.0216C299.899 44.0216 293.351 45.786 292.969 45.3406C292.587 44.8953 299.119 39.2628 299.119 39.2628ZM251.351 101.012C251.351 101.012 249.612 90.625 251.049 90.625C252.486 90.625 256.076 99.9983 256.076 99.9983C256.076 99.9983 259.061 96.2787 260.28 95.3329C261.5 94.3871 260.28 102.365 260.28 102.365C260.28 102.365 269.286 101.941 269.653 102.365C270.02 102.789 259.955 105.605 259.955 105.605C259.955 105.605 263.69 108.371 263.69 109.656C263.69 110.941 258.339 109.656 258.339 109.656C258.339 109.656 260.896 118.808 260.043 119.237C259.191 119.665 254.646 111.276 254.646 111.276C254.646 111.276 252.169 117.808 251.206 117.808C250.243 117.808 251.894 108.943 251.894 108.943C251.894 108.943 241.914 113.948 241.191 112.374C240.469 110.801 250.197 104.655 250.197 104.655C250.197 104.655 242.652 101.987 242.854 100.936C243.057 99.7523 251.351 101.012 251.351 101.012ZM207.654 82.2697L206.71 80.9082L225.554 62.8784L226.498 64.2356L207.654 82.2697ZM49.2244 12.4833C49.2244 12.4833 47.5617 0.285272 48.3491 0.00534571C49.1365 -0.27458 52.7487 10.5323 52.7487 10.5323C52.7487 10.5323 61.0126 10.0488 60.9476 10.6722C60.7718 12.3433 53.7463 15.1722 53.7463 15.1722C53.7463 15.1722 56.9036 28.1422 55.9442 28.6766C54.7975 29.3212 50.0004 17.225 50.0004 17.225C50.0004 17.225 43.4527 18.9894 43.0704 18.5398C42.6882 18.0903 49.2244 12.4833 49.2244 12.4833ZM48.2727 283.884C48.2727 283.884 46.5335 273.497 47.9707 273.497C49.4079 273.497 52.9971 282.871 52.9971 282.871C52.9971 282.871 55.9824 279.155 57.2017 278.205C58.4211 277.255 57.2017 285.242 57.2017 285.242C57.2017 285.242 66.2072 284.817 66.5742 285.242C66.9411 285.666 56.8692 288.461 56.8692 288.461C56.8692 288.461 60.6036 291.222 60.6036 292.511C60.6036 293.8 55.2523 292.511 55.2523 292.511C55.2523 292.511 57.8095 301.66 56.9571 302.088C56.1047 302.516 51.5599 294.131 51.5599 294.131C51.5599 294.131 49.0868 300.659 48.1198 300.659C47.1527 300.659 48.8078 291.794 48.8078 291.794C48.8078 291.794 38.8276 296.799 38.1052 295.226C37.3828 293.652 47.1107 287.506 47.1107 287.506C47.1107 287.506 39.5653 284.839 39.7679 283.791C39.9781 282.625 48.2727 283.884 48.2727 283.884ZM0.944125 100.321L0 98.9592L18.8443 80.9294L19.7884 82.2866L0.944125 100.321ZM584.455 230.813L583.152 229.956L593.48 208.262L594.779 209.119L584.455 230.813ZM618.058 332.434L574.727 327.362L574.876 325.619L618.207 330.687L618.058 332.434Z" fill="var(--fill-0, white)"/>
</svg>
