<svg preserveAspectRatio="none" width="100%" height="100%" overflow="visible" style="display: block;" viewBox="0 0 689 326" fill="none" xmlns="http://www.w3.org/2000/svg">
<path id="Vector" d="M664.385 244.385C664.385 244.385 665.503 234.293 666.181 234.288C666.859 234.284 667.561 243.792 667.561 243.792C667.561 243.792 674.189 245.684 674.014 246.159C673.544 247.431 667.422 247.734 667.422 247.734C667.422 247.734 667.328 258.85 666.467 259.008C665.426 259.198 664.05 248.323 664.05 248.323C664.05 248.323 658.524 247.915 658.308 247.458C658.091 247.001 664.385 244.385 664.385 244.385ZM302.109 151.19C302.109 151.19 300.248 137.549 301.13 137.237C302.012 136.924 306.056 149.004 306.056 149.004C306.056 149.004 315.305 148.465 315.232 149.162C315.036 151.031 307.175 154.195 307.175 154.195C307.175 154.195 310.705 168.705 309.624 169.302C308.338 170.017 302.971 156.49 302.971 156.49C302.971 156.49 295.624 158.463 295.216 157.965C294.808 157.467 302.109 151.19 302.109 151.19ZM6.91026 180.25C6.91026 180.25 5.02866 166.623 5.9266 166.292C6.82454 165.962 10.8531 178.059 10.8531 178.059C10.8531 178.059 20.1019 177.521 20.0284 178.222C19.8366 180.087 11.9714 183.251 11.9714 183.251C11.9714 183.251 15.502 197.76 14.4203 198.358C13.1346 199.077 7.77147 185.55 7.77147 185.55C7.77147 185.55 0.424652 187.523 0.016495 187.021C-0.391662 186.518 6.91026 180.25 6.91026 180.25ZM675.891 38.8504C675.891 38.8504 674.116 25.8387 674.956 25.54C675.797 25.2413 679.658 36.7685 679.658 36.7685C679.658 36.7685 688.483 36.2526 688.409 36.9224C688.226 38.7055 680.724 41.7197 680.724 41.7197C680.724 41.7197 684.091 55.5641 683.071 56.1344C681.846 56.8178 676.724 43.9147 676.724 43.9147C676.724 43.9147 669.732 45.802 669.32 45.3223C668.907 44.8425 675.891 38.8504 675.891 38.8504ZM543.767 8.9484C543.767 8.9484 546.101 -0.103202 546.726 0.000890971C547.35 0.104984 546.767 8.83526 546.767 8.83526C546.767 8.83526 552.632 11.4104 552.407 11.8223C551.811 12.913 546.134 12.4016 546.134 12.4016C546.134 12.4016 544.612 22.4941 543.795 22.5303C542.812 22.5665 542.95 12.5057 542.95 12.5057C542.95 12.5057 537.906 11.424 537.771 10.9805C537.636 10.537 543.767 8.9484 543.767 8.9484ZM624.888 104.728C624.888 104.728 623.027 93.6442 624.565 93.6442C626.104 93.6442 629.929 103.646 629.929 103.646C629.929 103.646 633.116 99.6816 634.418 98.6452C635.72 97.6088 634.418 106.154 634.418 106.154C634.418 106.154 644.034 105.701 644.422 106.154C644.81 106.606 634.071 109.611 634.071 109.611C634.071 109.611 638.055 112.558 638.055 113.933C638.055 115.309 632.341 113.933 632.341 113.933C632.341 113.933 635.071 123.696 634.161 124.153C633.251 124.61 628.398 115.662 628.398 115.662C628.398 115.662 625.757 122.627 624.725 122.627C623.692 122.627 625.463 113.169 625.463 113.169C625.463 113.169 614.806 118.509 614.035 116.83C613.263 115.151 623.651 108.593 623.651 108.593C623.651 108.593 615.594 105.746 615.81 104.628C616.039 103.384 624.888 104.728 624.888 104.728ZM292.44 312.63C292.44 312.63 291.252 305.533 292.236 305.533C293.22 305.533 295.669 311.937 295.669 311.937C295.669 311.937 297.71 309.398 298.526 308.737C299.342 308.077 298.526 313.539 298.526 313.539C298.526 313.539 304.685 313.25 304.934 313.539C305.183 313.829 298.305 315.757 298.305 315.757C298.305 315.757 300.856 317.644 300.856 318.522C300.856 319.4 297.183 318.522 297.183 318.522C297.183 318.522 298.93 324.772 298.35 325.067C297.771 325.361 294.677 319.636 294.677 319.636C294.677 319.636 292.983 324.093 292.318 324.093C291.652 324.093 292.791 318.038 292.791 318.038C292.791 318.038 285.967 321.455 285.469 320.382C284.971 319.31 291.624 315.11 291.624 315.11C291.624 315.11 286.469 313.299 286.608 312.571C286.771 311.77 292.44 312.63 292.44 312.63ZM380.467 72.1648C380.467 72.1648 379.28 65.0729 380.259 65.0729C381.239 65.0729 383.696 71.4723 383.696 71.4723C383.696 71.4723 385.737 68.9334 386.553 68.2726C387.369 67.6118 386.553 73.079 386.553 73.079C386.553 73.079 392.708 72.7848 392.961 73.079C393.214 73.3732 386.333 75.2921 386.333 75.2921C386.333 75.2921 388.884 77.1794 388.884 78.0574C388.884 78.9354 385.21 78.0574 385.21 78.0574C385.21 78.0574 386.957 84.3075 386.373 84.6017C385.79 84.8959 382.7 79.1707 382.7 79.1707C382.7 79.1707 381.01 83.6286 380.345 83.6286C379.68 83.6286 380.814 77.5731 380.814 77.5731C380.814 77.5731 373.994 80.9946 373.496 79.9175C372.998 78.8403 379.651 74.6449 379.651 74.6449C379.651 74.6449 374.492 72.8346 374.631 72.106C374.818 71.3049 380.467 72.1648 380.467 72.1648Z" fill="var(--fill-0, white)"/>
</svg>
