<svg preserveAspectRatio="none" width="100%" height="100%" overflow="visible" style="display: block;" viewBox="0 0 982 424" fill="none" xmlns="http://www.w3.org/2000/svg">
<path id="Vector" d="M947.73 318.139C947.73 318.139 949.325 305.001 950.291 304.995C951.258 304.989 952.259 317.368 952.259 317.368C952.259 317.368 961.715 319.83 961.464 320.449C960.795 322.105 952.061 322.499 952.061 322.499C952.061 322.499 951.927 336.969 950.699 337.175C949.214 337.423 947.252 323.265 947.252 323.265C947.252 323.265 939.369 322.735 939.06 322.14C938.752 321.545 947.73 318.139 947.73 318.139ZM430.952 196.818C430.952 196.818 428.297 179.061 429.555 178.654C430.812 178.248 436.582 193.973 436.582 193.973C436.582 193.973 449.775 193.271 449.671 194.179C449.391 196.612 438.177 200.73 438.177 200.73C438.177 200.73 443.214 219.619 441.671 220.397C439.837 221.328 432.18 203.717 432.18 203.717C432.18 203.717 421.7 206.286 421.118 205.638C420.536 204.99 430.952 196.818 430.952 196.818ZM9.85732 234.649C9.85732 234.649 7.17326 216.909 8.45415 216.479C9.73505 216.049 15.4816 231.797 15.4816 231.797C15.4816 231.797 28.6748 231.096 28.57 232.009C28.2964 234.437 17.0769 238.555 17.0769 238.555C17.0769 238.555 22.1132 257.443 20.5703 258.221C18.7363 259.158 11.0858 241.548 11.0858 241.548C11.0858 241.548 0.605755 244.117 0.0235297 243.463C-0.558696 242.809 9.85732 234.649 9.85732 234.649ZM964.143 50.5752C964.143 50.5752 961.61 33.6367 962.809 33.2478C964.009 32.859 969.516 47.8651 969.516 47.8651C969.516 47.8651 982.104 47.1934 981.999 48.0654C981.737 50.3867 971.036 54.3106 971.036 54.3106C971.036 54.3106 975.839 72.3332 974.384 73.0755C972.637 73.9652 965.33 57.168 965.33 57.168C965.33 57.168 955.357 59.6248 954.769 59.0003C954.181 58.3758 964.143 50.5752 964.143 50.5752ZM775.67 11.649C775.67 11.649 779.001 -0.134348 779.891 0.00115986C780.782 0.136668 779.95 11.5017 779.95 11.5017C779.95 11.5017 788.316 14.8541 787.996 15.3902C787.146 16.8101 779.047 16.1443 779.047 16.1443C779.047 16.1443 776.875 29.2827 775.711 29.3299C774.308 29.377 774.506 16.2798 774.506 16.2798C774.506 16.2798 767.309 14.8717 767.117 14.2943C766.925 13.717 775.67 11.649 775.67 11.649ZM891.388 136.334C891.388 136.334 888.733 121.906 890.928 121.906C893.123 121.906 898.578 134.926 898.578 134.926C898.578 134.926 903.125 129.765 904.983 128.416C906.84 127.067 904.983 138.19 904.983 138.19C904.983 138.19 918.7 137.601 919.253 138.19C919.806 138.779 904.488 142.691 904.488 142.691C904.488 142.691 910.17 146.527 910.17 148.318C910.17 150.109 902.019 148.318 902.019 148.318C902.019 148.318 905.914 161.026 904.616 161.621C903.317 162.216 896.395 150.569 896.395 150.569C896.395 150.569 892.628 159.636 891.155 159.636C889.682 159.636 892.209 147.322 892.209 147.322C892.209 147.322 877.007 154.274 875.906 152.089C874.806 149.903 889.623 141.366 889.623 141.366C889.623 141.366 878.13 137.66 878.439 136.205C878.765 134.585 891.388 136.334 891.388 136.334ZM417.159 406.98C417.159 406.98 415.465 397.742 416.868 397.742C418.271 397.742 421.764 406.078 421.764 406.078C421.764 406.078 424.676 402.773 425.84 401.913C427.004 401.053 425.84 408.164 425.84 408.164C425.84 408.164 434.626 407.787 434.981 408.164C435.336 408.541 425.526 411.051 425.526 411.051C425.526 411.051 429.165 413.508 429.165 414.651C429.165 415.794 423.924 414.651 423.924 414.651C423.924 414.651 426.416 422.787 425.59 423.17C424.763 423.553 420.35 416.1 420.35 416.1C420.35 416.1 417.933 421.903 416.984 421.903C416.035 421.903 417.66 414.02 417.66 414.02C417.66 414.02 407.925 418.469 407.215 417.072C406.504 415.676 415.995 410.209 415.995 410.209C415.995 410.209 408.641 407.852 408.839 406.903C409.072 405.86 417.159 406.98 417.159 406.98ZM542.728 93.9438C542.728 93.9438 541.033 84.7116 542.431 84.7116C543.828 84.7116 547.333 93.0424 547.333 93.0424C547.333 93.0424 550.244 89.7372 551.409 88.877C552.573 88.0168 551.409 95.1339 551.409 95.1339C551.409 95.1339 560.189 94.751 560.55 95.1339C560.911 95.5169 551.094 98.015 551.094 98.015C551.094 98.015 554.733 100.472 554.733 101.615C554.733 102.758 549.493 101.615 549.493 101.615C549.493 101.615 551.985 109.751 551.152 110.134C550.32 110.517 545.912 103.064 545.912 103.064C545.912 103.064 543.502 108.867 542.553 108.867C541.604 108.867 543.222 100.984 543.222 100.984C543.222 100.984 533.494 105.438 532.783 104.036C532.073 102.634 541.563 97.1724 541.563 97.1724C541.563 97.1724 534.204 94.8158 534.402 93.8672C534.67 92.8244 542.728 93.9438 542.728 93.9438Z" fill="var(--fill-0, white)"/>
</svg>
