<svg preserveAspectRatio="none" width="100%" height="100%" overflow="visible" style="display: block;" viewBox="0 0 882 433" fill="none" xmlns="http://www.w3.org/2000/svg">
<path id="Vector" d="M464.183 323.158L408.993 309.929L409.457 307.704L464.647 320.933L464.183 323.158ZM494.663 232.178L436.741 184.424L438.044 182.613L495.961 230.373L494.663 232.178ZM759.061 143.346L757.72 141.573L784.601 118.102L785.942 119.869L759.061 143.346ZM426.687 51.1122C426.687 51.1122 424.315 35.2329 425.432 34.8685C426.55 34.5041 431.719 48.589 431.719 48.589C431.719 48.589 443.508 47.9595 443.415 48.7767C443.164 50.9466 433.142 54.6293 433.142 54.6293C433.142 54.6293 437.646 71.519 436.278 72.2147C434.642 73.0484 427.799 57.3071 427.799 57.3071C427.799 57.3071 418.459 59.604 417.913 59.0242C417.368 58.4445 426.687 51.1122 426.687 51.1122ZM358.546 131.497C358.546 131.497 356.066 117.975 358.116 117.975C360.166 117.975 365.286 130.177 365.286 130.177C365.286 130.177 369.544 125.335 371.284 124.104C373.023 122.873 371.284 133.258 371.284 133.258C371.284 133.258 384.13 132.706 384.653 133.258C385.177 133.81 370.82 137.477 370.82 137.477C370.82 137.477 376.147 141.076 376.147 142.749C376.147 144.422 368.514 142.749 368.514 142.749C368.514 142.749 372.161 154.664 370.945 155.222C369.73 155.78 363.247 144.859 363.247 144.859C363.247 144.859 359.713 153.361 358.339 153.361C356.965 153.361 359.321 141.822 359.321 141.822C359.321 141.822 345.084 148.337 344.054 146.289C343.023 144.24 356.9 136.24 356.9 136.24C356.9 136.24 346.137 132.767 346.426 131.398C346.715 129.857 358.546 131.497 358.546 131.497ZM296.213 107.098L294.867 105.326L321.747 81.8549L323.094 83.6217L296.213 107.098ZM70.2175 16.2507C70.2175 16.2507 67.8456 0.371366 68.9689 0.00695903C70.0921 -0.357447 75.2447 13.7109 75.2447 13.7109C75.2447 13.7109 87.033 13.0814 86.9404 13.8931C86.6895 16.0685 76.6678 19.7512 76.6678 19.7512C76.6678 19.7512 81.1716 36.6353 79.803 37.331C78.1672 38.1703 71.3243 22.4235 71.3243 22.4235C71.3243 22.4235 61.9842 24.7203 61.4389 24.1351C60.8937 23.5498 70.2175 16.2507 70.2175 16.2507ZM68.8598 369.559C68.8598 369.559 66.3789 356.038 68.4291 356.038C70.4792 356.038 75.5991 368.24 75.5991 368.24C75.5991 368.24 79.8575 363.403 81.5969 362.166C83.3362 360.93 81.5969 371.326 81.5969 371.326C81.5969 371.326 94.443 370.774 94.9665 371.326C95.4899 371.878 81.1225 375.517 81.1225 375.517C81.1225 375.517 86.4496 379.111 86.4496 380.79C86.4496 382.468 78.8161 380.79 78.8161 380.79C78.8161 380.79 82.4638 392.699 81.2479 393.257C80.032 393.814 73.549 382.899 73.549 382.899C73.549 382.899 70.0212 391.396 68.6417 391.396C67.2622 391.396 69.6232 379.857 69.6232 379.857C69.6232 379.857 55.3866 386.372 54.3561 384.323C53.3256 382.275 67.2022 374.275 67.2022 374.275C67.2022 374.275 56.439 370.802 56.728 369.438C57.0279 367.919 68.8598 369.559 68.8598 369.559ZM1.34677 130.597L0 128.825L26.8809 105.354L28.2277 107.12L1.34677 130.597ZM833.711 300.471L831.852 299.356L846.585 271.114L848.439 272.23L833.711 300.471ZM881.644 432.762L819.835 426.158L820.047 423.889L881.857 430.487L881.644 432.762Z" fill="var(--fill-0, white)"/>
</svg>
