<svg preserveAspectRatio="none" width="100%" height="100%" overflow="visible" style="display: block;" viewBox="0 0 258 268" fill="none" xmlns="http://www.w3.org/2000/svg">
<g id="Vector">
<path d="M219.82 242.147C218.661 242.152 216.746 252.583 216.746 252.583C216.746 252.583 205.972 255.286 206.343 255.759C206.713 256.231 216.173 256.652 216.173 256.652C216.173 256.652 218.528 267.893 220.31 267.696C221.784 267.532 221.944 256.044 221.944 256.044C221.944 256.044 232.425 255.731 233.228 254.416C233.529 253.925 222.182 251.97 222.182 251.97C222.182 251.97 220.98 242.142 219.82 242.147Z" fill="var(--fill-0, white)"/>
<path d="M234.842 26.3967C233.403 26.7054 236.442 40.1536 236.442 40.1536C236.442 40.1536 224.488 46.3467 225.193 46.8426C225.899 47.3384 237.868 45.3878 237.868 45.3878C237.868 45.3878 246.636 58.7237 248.732 58.0174C250.479 57.428 244.715 43.1192 244.715 43.1192C244.715 43.1192 257.557 40.0039 257.871 38.1609C257.997 37.4686 242.891 38.0019 242.891 38.0019C242.891 38.0019 236.282 26.088 234.842 26.3967Z" fill="var(--fill-0, white)"/>
<path d="M15.3332 0.000920858C14.2642 -0.106664 10.2677 9.24857 10.2677 9.24857C10.2677 9.24857 -0.226825 10.8904 0.00374441 11.3488C0.234314 11.8072 8.87026 12.9252 8.87026 12.9252C8.87026 12.9252 8.63264 23.3235 10.3165 23.2861C11.7139 23.2487 14.3201 12.8176 14.3201 12.8176C14.3201 12.8176 24.0389 13.3462 25.059 12.2189C25.4433 11.7932 15.403 9.13163 15.403 9.13163C15.403 9.13163 16.4022 0.108506 15.3332 0.000920858Z" fill="var(--fill-0, white)"/>
<path d="M148.581 96.7855C145.947 96.7855 149.133 108.241 149.133 108.241C149.133 108.241 133.986 106.852 133.594 108.138C133.224 109.293 147.016 112.236 147.016 112.236C147.016 112.236 129.235 119.013 130.555 120.749C131.876 122.484 150.118 116.965 150.118 116.965C150.118 116.965 147.086 126.741 148.854 126.741C150.622 126.741 155.142 119.542 155.142 119.542C155.142 119.542 163.45 128.79 165.008 128.317C166.566 127.845 161.892 117.755 161.892 117.755C161.892 117.755 171.673 119.177 171.673 117.755C171.673 116.333 164.854 113.288 164.854 113.288C164.854 113.288 183.237 110.182 182.573 109.714C181.909 109.247 165.448 109.714 165.448 109.714C165.448 109.714 167.677 100.883 165.448 101.954C163.219 103.025 157.762 107.123 157.762 107.123C157.762 107.123 151.215 96.7855 148.581 96.7855Z" fill="var(--fill-0, white)"/>
</g>
</svg>
