<svg preserveAspectRatio="none" width="100%" height="100%" overflow="visible" style="display: block;" viewBox="0 0 339 488" fill="none" xmlns="http://www.w3.org/2000/svg">
<g id="Vector">
<path d="M288.908 440.782C287.383 440.791 284.867 459.779 284.867 459.779C284.867 459.779 270.707 464.7 271.194 465.56C271.68 466.42 284.114 467.186 284.114 467.186C284.114 467.186 287.209 487.647 289.55 487.289C291.488 486.991 291.699 466.079 291.699 466.079C291.699 466.079 305.473 465.509 306.529 463.116C306.924 462.222 292.011 458.663 292.011 458.663C292.011 458.663 290.432 440.774 288.908 440.782Z" fill="var(--fill-0, white)"/>
<path d="M308.651 48.0501C306.759 48.6121 310.754 73.0919 310.754 73.0919C310.754 73.0919 295.042 84.3653 295.969 85.2679C296.897 86.1704 312.627 82.6198 312.627 82.6198C312.627 82.6198 324.151 106.895 326.906 105.61C329.202 104.537 321.626 78.4902 321.626 78.4902C321.626 78.4902 338.504 72.8194 338.918 69.4646C339.083 68.2044 319.229 69.1751 319.229 69.1751C319.229 69.1751 310.542 47.4882 308.651 48.0501Z" fill="var(--fill-0, white)"/>
<path d="M20.1522 0.00167625C18.7472 -0.194162 13.4947 16.8352 13.4947 16.8352C13.4947 16.8352 -0.298114 19.8239 0.00492124 20.6583C0.307956 21.4928 11.6581 23.5278 11.6581 23.5278C11.6581 23.5278 11.3458 42.456 13.5589 42.3879C15.3954 42.3197 18.8207 23.332 18.8207 23.332C18.8207 23.332 31.5941 24.2941 32.9348 22.2421C33.4398 21.4672 20.244 16.6224 20.244 16.6224C20.244 16.6224 21.5572 0.197514 20.1522 0.00167625Z" fill="var(--fill-0, white)"/>
<path d="M195.279 176.179C191.817 176.179 196.004 197.032 196.004 197.032C196.004 197.032 176.096 194.503 175.582 196.845C175.095 198.948 193.222 204.303 193.222 204.303C193.222 204.303 169.851 216.641 171.587 219.8C173.323 222.959 197.299 212.912 197.299 212.912C197.299 212.912 193.314 230.708 195.637 230.708C197.96 230.708 203.902 217.603 203.902 217.603C203.902 217.603 214.82 234.437 216.868 233.577C218.916 232.717 212.772 214.351 212.772 214.351C212.772 214.351 225.628 216.939 225.628 214.351C225.628 211.762 216.666 206.219 216.666 206.219C216.666 206.219 240.826 200.565 239.954 199.714C239.081 198.863 217.446 199.714 217.446 199.714C217.446 199.714 220.376 183.638 217.446 185.588C214.517 187.538 207.345 194.997 207.345 194.997C207.345 194.997 198.741 176.179 195.279 176.179Z" fill="var(--fill-0, white)"/>
</g>
</svg>
