<svg preserveAspectRatio="none" width="100%" height="100%" overflow="visible" style="display: block;" viewBox="0 0 1135 447" fill="none" xmlns="http://www.w3.org/2000/svg">
<path id="Vector" d="M540.032 333.714L611.468 320.052L610.679 317.755L539.242 331.416L540.032 333.714ZM492.59 239.762L564.808 190.448L562.949 188.578L490.738 237.897L492.59 239.762ZM137.99 148.028L139.608 146.198L102.382 121.96L100.763 123.784L137.99 148.028ZM567.179 52.7817C567.179 52.7817 569.004 36.3837 567.506 36.0074C566.008 35.6311 560.362 50.176 560.362 50.176C560.362 50.176 544.823 49.526 545.011 50.3699C545.517 52.6106 558.983 56.4136 558.983 56.4136C558.983 56.4136 554.439 73.855 556.294 74.5734C558.511 75.4344 566.222 59.1789 566.222 59.1789C566.222 59.1789 578.68 61.5508 579.349 60.9522C580.018 60.3535 567.179 52.7817 567.179 52.7817ZM663.24 135.792C663.24 135.792 665.4 121.829 662.707 121.829C660.013 121.829 654.279 134.429 654.279 134.429C654.279 134.429 648.29 129.429 645.905 128.158C643.519 126.886 646.649 137.611 646.649 137.611C646.649 137.611 629.726 137.041 629.083 137.611C628.441 138.181 647.601 141.967 647.601 141.967C647.601 141.967 640.895 145.684 641.031 147.412C641.167 149.14 651.06 147.412 651.06 147.412C651.06 147.412 647.236 159.716 648.879 160.292C650.522 160.868 658.152 149.59 658.152 149.59C658.152 149.59 663.485 158.371 665.29 158.371C667.095 158.371 663.063 146.454 663.063 146.454C663.063 146.454 682.297 153.182 683.484 151.067C684.672 148.952 665.789 140.69 665.789 140.69C665.789 140.69 679.648 137.103 679.157 135.689C678.652 134.099 663.24 135.792 663.24 135.792ZM743.153 110.596L744.778 108.766L707.553 84.5285L705.927 86.353L743.153 110.596ZM1032.69 16.7815C1032.69 16.7815 1034.52 0.383496 1033.01 0.00718634C1031.5 -0.369123 1025.88 14.1587 1025.88 14.1587C1025.88 14.1587 1010.34 13.5087 1010.53 14.3468C1011.03 16.5933 1024.5 20.3963 1024.5 20.3963C1024.5 20.3963 1019.96 37.832 1021.81 38.5504C1024.03 39.417 1031.74 23.1559 1031.74 23.1559C1031.74 23.1559 1044.2 25.5278 1044.86 24.9234C1045.53 24.319 1032.69 16.7815 1032.69 16.7815ZM1063.2 381.63C1063.2 381.63 1065.36 367.667 1062.67 367.667C1059.97 367.667 1054.24 380.268 1054.24 380.268C1054.24 380.268 1048.25 375.273 1045.86 373.996C1043.48 372.719 1046.61 383.455 1046.61 383.455C1046.61 383.455 1029.69 382.885 1029.04 383.455C1028.4 384.025 1047.57 387.782 1047.57 387.782C1047.57 387.782 1040.87 391.494 1041 393.228C1041.14 394.961 1051.03 393.228 1051.03 393.228C1051.03 393.228 1047.21 405.526 1048.85 406.102C1050.49 406.678 1058.12 395.406 1058.12 395.406C1058.12 395.406 1063.45 404.18 1065.26 404.18C1067.07 404.18 1063.03 392.264 1063.03 392.264C1063.03 392.264 1082.27 398.992 1083.46 396.877C1084.64 394.761 1065.76 386.5 1065.76 386.5C1065.76 386.5 1079.62 382.913 1079.13 381.505C1078.61 379.937 1063.2 381.63 1063.2 381.63ZM1132.47 134.863L1134.1 133.033L1096.87 108.795L1095.25 110.619L1132.47 134.863ZM52.6853 310.286L55.0375 309.134L33.3849 279.97L31.0398 281.122L52.6853 310.286ZM0.464352 446.897L81.1359 440.078L80.6721 437.735L0 444.548L0.464352 446.897Z" fill="var(--fill-0, white)"/>
</svg>
