<svg preserveAspectRatio="none" width="100%" height="100%" overflow="visible" style="display: block;" viewBox="0 0 56 56" fill="none" xmlns="http://www.w3.org/2000/svg">
<g id="Link - Telegram">
<path d="M0 12C0 5.37258 5.37258 0 12 0H44C50.6274 0 56 5.37258 56 12V44C56 50.6274 50.6274 56 44 56H12C5.37258 56 0 50.6274 0 44V12Z" fill="var(--fill-0, white)"/>
<path id="Vector" d="M19.81 27.0208L35.2366 21.0728C35.9526 20.8141 36.578 21.2474 36.346 22.3301L36.3473 22.3288L33.7206 34.7034C33.526 35.5808 33.0046 35.7941 32.2753 35.3808L28.2753 32.4328L26.346 34.2914C26.1326 34.5048 25.9526 34.6848 25.5393 34.6848L25.8233 30.6141L33.2366 23.9168C33.5593 23.6328 33.1646 23.4728 32.7393 23.7554L23.578 29.5234L19.6286 28.2914C18.7713 28.0194 18.7526 27.4341 19.81 27.0208Z" fill="var(--fill-0, #6063A6)"/>
</g>
</svg>
