<svg preserveAspectRatio="none" width="100%" height="100%" overflow="visible" style="display: block;" viewBox="0 0 56 56" fill="none" xmlns="http://www.w3.org/2000/svg">
<g id="Link - &#208;&#146;&#208;&#186;&#208;&#190;&#208;&#189;&#209;&#130;&#208;&#176;&#208;&#186;&#209;&#130;&#208;&#181;">
<path d="M0 12C0 5.37258 5.37258 0 12 0H44C50.6274 0 56 5.37258 56 12V44C56 50.6274 50.6274 56 44 56H12C5.37258 56 0 50.6274 0 44V12Z" fill="var(--fill-0, white)"/>
<path id="Vector" fill-rule="evenodd" clip-rule="evenodd" d="M25.4049 23.0063C26.4088 23.0063 27.1224 23.005 28.2403 23C28.4805 23 28.7952 23.0378 28.9919 23.1665C28.997 23.1692 29.002 23.1722 29.0068 23.1753C29.152 23.2687 29.3324 23.3835 29.3338 23.7947C29.3379 24.3396 29.3365 24.858 29.3351 25.3714C29.3324 26.166 29.3324 26.9519 29.346 27.8147C29.3745 28.1098 29.5821 28.2334 29.7774 28.2322C29.9714 28.2322 30.1953 28.1187 30.3621 27.966C31.2684 27.1386 32.3116 25.1494 32.952 23.8451C33.1758 23.3872 33.5313 23.3872 33.9356 23.3885H34.0102C34.892 23.3885 35.455 23.3935 36.0655 23.4011C36.463 23.4049 36.8808 23.4087 37.4194 23.4112C37.6704 23.4137 37.8875 23.6092 37.958 23.7505C38.0191 23.8729 38.0611 24.2286 37.7288 24.7293C36.7085 26.2733 35.7684 27.517 34.6315 28.9827C34.561 29.076 34.4918 29.1858 34.4945 29.3006C34.5017 29.4071 34.5504 29.5075 34.6315 29.5831L35.3682 30.2996C36.1523 31.0589 36.9527 31.8347 37.7423 32.6646C38.0476 32.985 37.8563 33.482 37.7722 33.6208C37.7084 33.7255 37.4221 33.9954 37.2281 33.9979C36.8429 34.0004 36.6665 34.0004 36.1076 33.9992L33.5665 33.9979C33.1297 33.9979 32.956 33.8781 32.7254 33.6523C31.9318 32.8791 31.83 32.7769 31.3023 32.2522L30.704 31.6568C30.5588 31.5117 30.2685 31.3288 29.9931 31.4449L29.9389 31.4663C29.6974 31.566 29.3284 31.7186 29.3284 32.0907V33.4921C29.3284 33.7469 28.8983 33.9361 28.6392 33.9361H26.6313C25.6857 33.9361 24.8677 33.7242 24.4132 33.5199C22.4583 32.6369 21.2943 31.4083 20.0244 29.3611C18.9644 27.64 17.977 25.8812 17.0642 24.0886C16.9598 23.8867 16.8851 23.4453 17.6612 23.4453C18.0288 23.4453 18.3856 23.4427 18.779 23.439C19.2661 23.4339 19.8074 23.4289 20.4979 23.4289C20.8629 23.4289 21.0908 23.497 21.2441 23.6004C21.3919 23.7001 21.4652 23.8287 21.5371 23.9536L21.548 23.9738C21.8654 24.5237 22.1191 24.9677 22.3294 25.3386C23.1475 26.774 23.3292 27.0957 24.2097 28.1552C24.3142 28.2801 24.4648 28.299 24.576 28.299C24.7085 28.3076 24.8398 28.2718 24.9464 28.1981C25.1702 28.0304 25.234 27.8512 25.234 27.5927V24.8794C25.234 24.5679 25.0061 24.1075 24.7551 23.9624C24.69 23.9284 24.6153 23.8943 24.5394 23.859C24.3087 23.7518 24.0673 23.6408 24.0781 23.5109C24.093 23.3216 24.5638 23.0063 25.4049 23.0063Z" fill="var(--fill-0, #6063A6)"/>
</g>
</svg>
