<svg width="67" height="64" viewBox="0 0 67 64" fill="none" xmlns="http://www.w3.org/2000/svg">
<path d="M4.06359 59.4793H2.68718V54.3491H0.921875V53.2495H5.82598V54.3491H4.06359V59.4793Z" fill="#384895"/>
<path d="M10.5714 59.4793H6.82812V53.2495H10.5714V54.3316H8.20599V55.6989H10.4068V56.7825H8.20599V58.3825H10.5714V59.4793Z" fill="#384895"/>
<path d="M13.3037 55.6393H13.8455C14.6932 55.6393 15.3481 55.8041 15.8103 56.1338C16.0344 56.2896 16.2155 56.4995 16.3367 56.7438C16.4579 56.9882 16.5153 57.2592 16.5036 57.5316C16.5036 58.8301 15.6088 59.4793 13.8193 59.4793H11.9258V53.2495H16.0332V54.3404H13.3037V55.6393ZM13.3037 58.4029H13.7654C14.2315 58.4029 14.5713 58.3311 14.7849 58.1876C14.8914 58.1172 14.9775 58.0201 15.0345 57.906C15.0915 57.7918 15.1174 57.6648 15.1097 57.5375C15.1189 57.4137 15.0928 57.2899 15.0346 57.1803C14.9763 57.0706 14.8883 56.9797 14.7806 56.9178C14.5621 56.7913 14.1848 56.7287 13.6518 56.7287H13.3007L13.3037 58.4029Z" fill="#384895"/>
<path d="M21.4776 59.4793H17.7344V53.2495H21.4776V54.3316H19.1122V55.6989H21.313V56.7825H19.1122V58.3825H21.4776V59.4793Z" fill="#384895"/>
<path d="M30.3393 59.4793H28.9658V54.3491H26.5742V59.4793H25.1978V53.2495H30.3393V59.4793Z" fill="#384895"/>
<path d="M37.8768 56.3564C37.8768 57.3881 37.6102 58.1804 37.0771 58.7331C36.5441 59.2858 35.7794 59.5632 34.7831 59.5651C33.7888 59.5651 33.0246 59.2878 32.4906 58.7331C31.9565 58.1784 31.6899 57.3833 31.6909 56.3476C31.6909 55.311 31.9579 54.5188 32.492 53.9709C33.0261 53.423 33.7927 53.1501 34.7919 53.152C35.791 53.152 36.5547 53.4274 37.083 53.9782C37.6112 54.529 37.8758 55.3217 37.8768 56.3564ZM33.1343 56.3564C33.1343 57.0516 33.2722 57.5758 33.548 57.9287C33.8238 58.2817 34.2355 58.4577 34.7831 58.4567C35.8823 58.4567 36.4319 57.7566 36.4319 56.3564C36.4319 54.9561 35.8852 54.2555 34.7919 54.2545C34.2442 54.2545 33.831 54.4315 33.5524 54.7855C33.2737 55.1394 33.1343 55.663 33.1343 56.3564Z" fill="#384895"/>
<path d="M39.2227 53.2495H41.2458C42.1663 53.2495 42.8353 53.375 43.2528 53.6262C43.6704 53.8773 43.8782 54.2773 43.8762 54.8262C43.8903 55.1534 43.7944 55.476 43.6039 55.7425C43.5173 55.8596 43.4084 55.9585 43.2834 56.0334C43.1584 56.1082 43.0198 56.1577 42.8756 56.1789V56.2211C43.223 56.2725 43.5398 56.4483 43.767 56.7156C43.9967 57.0752 44.0867 57.5063 44.0199 57.9276C43.9531 58.3489 43.7341 58.7311 43.4043 59.0022C42.9761 59.3202 42.3935 59.4793 41.6565 59.4793H39.2241L39.2227 53.2495ZM40.6005 55.7222H41.4016C41.7745 55.7222 42.0449 55.6669 42.2129 55.5564C42.2987 55.4942 42.3669 55.4108 42.4108 55.3144C42.4547 55.2181 42.4728 55.112 42.4634 55.0065C42.4711 54.9039 42.4495 54.8011 42.401 54.7102C42.3525 54.6193 42.2792 54.544 42.1896 54.4931C41.9187 54.3717 41.6222 54.3183 41.3259 54.3375H40.5976L40.6005 55.7222ZM40.6005 56.7709V58.3942H41.4992C41.8779 58.3942 42.1575 58.3248 42.3382 58.1862C42.4315 58.109 42.505 58.0107 42.5524 57.8993C42.5997 57.7879 42.6197 57.6668 42.6105 57.5462C42.6105 57.0303 42.225 56.7719 41.454 56.7709H40.6005Z" fill="#384895"/>
<path d="M49.0846 59.4793H45.3384V53.2495H49.0846V54.3316H46.7162V55.6989H48.9156V56.7825H46.7162V58.3825H49.0846V59.4793Z" fill="#384895"/>
<path d="M54.9255 55.1927C54.9255 55.8638 54.707 56.3762 54.2701 56.7302C53.8331 57.0841 53.2117 57.2621 52.4057 57.264H51.8144V59.4793H50.4365V53.2495H52.5121C53.3005 53.2495 53.8996 53.4119 54.3094 53.7367C54.7192 54.0616 54.9246 54.5469 54.9255 55.1927ZM51.8144 56.1818H52.2674C52.6912 56.1818 53.0087 56.1004 53.2185 55.9404C53.3241 55.8578 53.4081 55.7509 53.4632 55.6288C53.5182 55.5066 53.5427 55.373 53.5345 55.2393C53.5448 55.1123 53.5263 54.9846 53.4805 54.8658C53.4346 54.7469 53.3624 54.6399 53.2695 54.5527C53.0927 54.4063 52.8165 54.3326 52.4407 54.3316H51.8144V56.1818Z" fill="#384895"/>
<path d="M58.3381 57.0894L56.8189 59.4793H55.2896L57.1379 56.7389C56.7936 56.6155 56.498 56.385 56.2946 56.0815C56.0945 55.7678 55.993 55.4015 56.0032 55.0298C55.9908 54.7749 56.0422 54.5208 56.1528 54.2907C56.2634 54.0606 56.4298 53.8617 56.6368 53.712C57.0592 53.4036 57.6661 53.2495 58.4575 53.2495H60.5724V59.4793H59.1945V57.0894H58.3381ZM59.1916 54.3258H58.5114C58.2244 54.3096 57.9386 54.3731 57.6855 54.5091C57.5869 54.5754 57.5078 54.6669 57.4566 54.7741C57.4054 54.8813 57.3838 55.0002 57.3942 55.1185C57.3892 55.2422 57.4129 55.3654 57.4634 55.4785C57.5139 55.5915 57.59 55.6913 57.6855 55.7702C57.8749 55.9302 58.1647 56.0087 58.5594 56.0087H59.2032L59.1916 54.3258Z" fill="#384895"/>
<path d="M64.7115 59.4793H63.3337V54.3491H61.5698V53.2495H66.4754V54.3491H64.7115V59.4793Z" fill="#384895"/>
<path d="M34.767 57.0647C35.705 57.0647 35.7065 55.6102 34.767 55.6102C33.8276 55.6102 33.829 57.0647 34.767 57.0647Z" fill="#384895"/>
<path d="M48.3433 26.5876H16.9829V46.1498H48.3433V26.5876Z" fill="#263166"/>
<path d="M19.038 2.95651C19.3556 2.77336 19.3598 2.18667 19.0473 1.64611C18.7348 1.10556 18.2239 0.815826 17.9062 0.998984C17.5886 1.18214 17.5844 1.76883 17.8969 2.30939C18.2094 2.84994 18.7203 3.13967 19.038 2.95651Z" fill="#E48123"/>
<path d="M17.9757 5.06174C18.3274 4.9574 18.4681 4.38777 18.29 3.78945C18.112 3.19113 17.6826 2.79068 17.331 2.89502C16.9794 2.99937 16.8387 3.569 17.0167 4.16732C17.1947 4.76564 17.6241 5.16609 17.9757 5.06174Z" fill="#E48123"/>
<path d="M21.7142 4.94479C22.0398 4.77604 22.0703 4.19013 21.7824 3.63612C21.4945 3.08211 20.9971 2.7698 20.6715 2.93854C20.346 3.10729 20.3154 3.6932 20.6034 4.24721C20.8913 4.80122 21.3886 5.11354 21.7142 4.94479Z" fill="#E48123"/>
<path d="M29.8877 26.6793C29.8877 26.6793 31.2568 25.4327 31.6836 24.0611C32.1103 22.6895 31.2292 22.2429 30.4805 23.9084C30.0916 24.7767 29.8877 26.6793 29.8877 26.6793Z" fill="#575E4C"/>
<path d="M29.5674 21.0676C29.5674 21.0676 32.7513 19.4516 31.3152 18.416C30.3044 17.6858 29.5674 21.0676 29.5674 21.0676Z" fill="#575E4C"/>
<path d="M31.9503 39.44C31.9386 39.4065 30.7384 36.0233 30.2476 29.28C30.048 26.5295 28.6716 22.3695 26.2684 17.2509C24.4463 13.3731 22.6635 10.2865 22.646 10.2545L23.0247 10.0364C23.316 10.5411 30.1922 22.4844 30.6845 29.248C31.1696 35.9273 32.3508 39.2582 32.3625 39.2916L31.9503 39.44Z" fill="#575E4C"/>
<path d="M31.7739 12.3418C31.7739 12.3418 34.1859 12.4698 33.4926 11.3833C33.1285 10.8102 31.7739 12.3418 31.7739 12.3418Z" fill="#575E4C"/>
<path d="M34.7133 8.47418C34.7133 8.47418 34.0579 6.112 35.0265 6.19636C35.9951 6.28073 34.9566 8.72727 34.9566 8.72727L34.7133 8.47418Z" fill="#D26C71"/>
<path d="M35.1299 9.27564C35.1299 9.27564 36.231 7.91273 36.0679 7.20291C35.9048 6.49309 35.3921 6.48873 35.2479 6.66618C35.1037 6.84364 34.7935 8.81454 34.7935 8.81454L35.1299 9.27564Z" fill="#F19192"/>
<path d="M36.4423 9.23927C36.4423 9.23927 37.4108 8.10909 36.9914 7.61309C36.5719 7.11709 35.1765 8.61091 34.9683 9.27563C34.9683 9.27563 35.9121 9.93745 36.4423 9.23927Z" fill="#D26C71"/>
<path d="M36.1349 9.65673C36.1349 9.65673 38.41 9.20291 38.0284 8.45818C37.6468 7.71345 34.9697 9.27564 34.9697 9.27564L36.2806 9.42109L36.1349 9.65673Z" fill="#F19192"/>
<path d="M25.352 15.3702C25.352 15.3702 24.3674 9.40654 25.0767 9.04436C25.786 8.68218 25.4161 11.0196 25.7482 10.8713C26.0803 10.7229 25.9798 8.49309 25.8938 7.46036C25.8079 6.42764 26.3118 5.79782 26.5056 6.35491C26.6993 6.912 26.6425 8.77818 26.8318 8.67054C27.0212 8.56291 27.2105 5.36291 28.249 5.06182C29.2875 4.76073 28.0131 6.95273 28.1514 7.12145C28.2898 7.29018 29.9167 5.13164 30.0449 5.64364C30.1731 6.15564 28.7967 7.76145 28.8637 8.02473C28.9307 8.288 32.068 5.74836 32.1656 6.57018C32.2632 7.392 31.4548 7.60436 31.5233 7.94036C31.5917 8.27636 32.6666 7.80945 32.4657 8.25745C32.2646 8.70545 29.222 9.55782 29.0734 9.80945C28.9248 10.0611 30.6931 9.73964 30.3391 10.3593C29.9852 10.9789 27.8397 11.232 27.3591 11.6262C26.8784 12.0204 27.8674 12.0015 27.9169 12.5993C27.9665 13.1971 25.8064 16.2633 25.8064 16.2633L25.352 15.3702Z" fill="#575E4C"/>
<path d="M27.4642 19.5651C27.4642 19.5651 26.1431 16.8276 25.7455 16.8829C25.3479 16.9382 26.1825 17.7935 25.9975 17.8284C25.8125 17.8633 25.2139 16.9164 24.9517 16.4655C24.6895 16.0145 24.2992 15.9011 24.3808 16.1862C24.4623 16.4713 25.026 17.2233 24.9168 17.2335C24.8075 17.2436 23.8025 15.9825 23.2884 16.1585C22.7742 16.3345 23.9321 16.8669 23.9249 16.9775C23.9176 17.088 22.6227 16.6691 22.7189 16.9164C22.815 17.1636 23.8462 17.4269 23.8943 17.5549C23.9423 17.6829 21.9149 17.5433 22.1144 17.9098C22.314 18.2764 22.7058 18.1295 22.7757 18.288C22.8456 18.4465 22.2659 18.5644 22.4844 18.6909C22.7028 18.8175 24.1958 18.288 24.3298 18.3491C24.4638 18.4102 23.6423 18.7855 23.9686 18.9411C24.2948 19.0967 25.2474 18.5745 25.562 18.6007C25.8766 18.6269 25.4615 18.9033 25.613 19.1636C25.7645 19.424 27.5443 20.0611 27.5443 20.0611L27.4642 19.5651Z" fill="#575E4C"/>
<path d="M23.2368 6.57443C23.5473 6.484 23.6786 5.99871 23.5302 5.4905C23.3817 4.98229 23.0097 4.6436 22.6993 4.73402C22.3889 4.82444 22.2575 5.30973 22.406 5.81795C22.5544 6.32616 22.9264 6.66485 23.2368 6.57443Z" fill="#E48123"/>
<path d="M21.4271 11.1124C21.4282 10.7895 20.9994 10.5262 20.4693 10.5243C19.9392 10.5225 19.5085 10.7828 19.5074 11.1057C19.5063 11.4287 19.9351 11.692 20.4652 11.6938C20.9953 11.6956 21.426 11.4354 21.4271 11.1124Z" fill="#E48123"/>
<path d="M23.4105 12.375C23.4116 12.0521 22.9828 11.7888 22.4527 11.787C21.9226 11.7851 21.4919 12.0454 21.4908 12.3683C21.4897 12.6913 21.9185 12.9546 22.4486 12.9564C22.9787 12.9583 23.4094 12.698 23.4105 12.375Z" fill="#E48123"/>
<path d="M23.8141 8.86906C24.1286 8.79389 24.2835 8.31558 24.1601 7.80073C24.0368 7.28589 23.6818 6.92945 23.3673 7.00462C23.0528 7.07979 22.8979 7.5581 23.0213 8.07294C23.1447 8.58779 23.4996 8.94422 23.8141 8.86906Z" fill="#E48123"/>
<path d="M19.0084 7.28316C19.2256 7.04389 19.0833 6.5617 18.6905 6.20617C18.2977 5.85064 17.8033 5.75639 17.5861 5.99566C17.3689 6.23493 17.5113 6.71711 17.904 7.07264C18.2968 7.42818 18.7913 7.52243 19.0084 7.28316Z" fill="#E48123"/>
<path d="M20.3809 9.71795C20.6182 9.49853 20.5185 9.00578 20.1584 8.61735C19.7982 8.22892 19.3139 8.09191 19.0766 8.31132C18.8393 8.53074 18.939 9.02349 19.2991 9.41192C19.6593 9.80035 20.1436 9.93736 20.3809 9.71795Z" fill="#E48123"/>
<path d="M23.1993 10.6383C23.4365 10.4189 23.3369 9.92612 22.9767 9.53769C22.6165 9.14926 22.1322 9.01224 21.8949 9.23166C21.6577 9.45108 21.7573 9.94384 22.1175 10.3323C22.4777 10.7207 22.962 10.8577 23.1993 10.6383Z" fill="#E48123"/>
<path d="M21.6577 8.2203C21.9599 8.1648 22.1284 7.70414 22.034 7.19138C21.9395 6.67862 21.618 6.30794 21.3158 6.36344C21.0136 6.41894 20.8451 6.8796 20.9395 7.39236C21.0339 7.90512 21.3555 8.2758 21.6577 8.2203Z" fill="#E48123"/>
<path d="M20.0095 6.44308C20.3565 6.32406 20.4731 5.74903 20.27 5.15871C20.0669 4.5684 19.621 4.18633 19.2741 4.30535C18.9272 4.42437 18.8106 4.9994 19.0137 5.58972C19.2168 6.18004 19.6626 6.5621 20.0095 6.44308Z" fill="#E48123"/>
<path d="M29.276 24.7171C29.1521 18.9775 30.0042 14.672 31.7899 11.9171C33.1532 9.82109 34.5573 9.45891 34.6228 9.44436L34.7248 9.86909L34.6738 9.65673L34.7263 9.86909C34.7131 9.86909 33.395 10.2225 32.1264 12.1964C29.9809 15.5418 29.6299 20.8422 29.7129 24.7055L29.276 24.7171Z" fill="#575E4C"/>
<path d="M34.4146 9.72946C34.4146 9.72946 37.0115 10.7476 37.096 9.93891C37.1805 9.13018 36.7231 9.13455 36.2585 9.07927C35.7939 9.024 34.4146 9.72946 34.4146 9.72946Z" fill="#575E4C"/>
<path d="M35.4209 9.77891C35.4209 9.77891 35.1558 7.09818 33.8857 7.12727C33.0847 7.14182 33.0599 8.46254 34.4145 9.73527L35.4209 9.77891Z" fill="#575E4C"/>
<path d="M30.4893 15.7905C30.4893 15.7905 29.9271 14.6967 30.0524 14.608C30.1776 14.5193 30.7603 14.3171 30.9875 14.4131C31.2147 14.5091 31.2118 15.6436 31.2118 15.6436L30.4893 15.7905Z" fill="#D26C71"/>
<path d="M30.5054 16.1775C30.5054 16.1775 28.7285 15.7193 29.0489 14.9775C29.3693 14.2356 31.1274 15.8909 31.1274 15.8909L30.5054 16.1775Z" fill="#575E4C"/>
<path d="M30.4105 14.7578C30.4105 14.7578 29.5075 14.6124 29.6371 14.3084C29.7667 14.0044 28.6729 13.872 29.1273 13.4284C29.5817 12.9847 30.2765 13.7411 30.4382 13.6582C30.5998 13.5753 30.9989 12.7084 31.3223 13.0676C31.6456 13.4269 31.9573 14.0145 31.6296 14.0305C31.3019 14.0465 31.8219 14.5178 31.4563 14.6691C31.0907 14.8204 30.4105 14.7578 30.4105 14.7578Z" fill="#F19192"/>
<path d="M33.5205 35.5098C33.5205 35.5098 36.7831 26.5338 41.9829 24.928C41.9829 24.928 40.4084 28.4058 39.7413 29.3411C39.0742 30.2764 35.2042 34.1411 35.2042 34.1411L33.5205 35.5098Z" fill="#575E4C"/>
<path d="M32.668 35.3149L32.2456 35.2C32.2733 35.1011 34.9708 25.2553 36.4389 20.768L36.5613 20.4C36.7302 19.8924 36.8759 19.4836 36.9982 19.1825C38.1999 16.1164 44.2401 8.22545 44.4964 7.89236L44.8445 8.15709C44.7819 8.23854 38.5815 16.3316 37.4061 19.3411C37.291 19.632 37.1468 20.0378 36.9793 20.5382C36.94 20.6545 36.9006 20.7767 36.8584 20.9033C35.3931 25.3804 32.6942 35.216 32.668 35.3149Z" fill="#575E4C"/>
<path d="M36.7683 20.4684C36.7683 20.4684 37.1746 18.1498 35.6278 17.5069C34.081 16.864 33.1226 17.7542 33.1765 18.6429C33.2304 19.5316 33.3979 20.6618 34.8995 21.1287L36.4027 21.5956L36.7683 20.4684Z" fill="#575E4C"/>
<path d="M37.6406 18.8684C37.6406 18.8684 38.8554 19.9622 40.4415 20.1207C42.0277 20.2793 43.1987 19.5593 43.1783 18.6473C43.1579 17.7353 42.0408 16.6691 40.6644 16.9876C39.288 17.3062 37.6741 18.2473 37.6741 18.2473L37.6406 18.8684Z" fill="#575E4C"/>
<path d="M38.3064 17.1287C38.3064 17.1287 39.227 15.8196 37.7996 14.3142C36.3722 12.8087 34.6797 13.8531 34.7409 14.8698C34.802 15.8865 35.408 16.5673 36.4785 16.8727C37.549 17.1782 38.1608 17.3862 38.1608 17.3862L38.3064 17.1287Z" fill="#575E4C"/>
<path d="M39.5837 15.1113C39.5837 15.1113 45.2102 11.7964 45.7083 15.248C46.2065 18.6996 39.269 15.5913 39.269 15.5913L39.5837 15.1113Z" fill="#575E4C"/>
<path d="M40.1579 14.2545C40.1579 14.2545 42.5553 9.48945 39.2971 9.80073C36.0389 10.112 37.5041 12.8204 38.0692 13.4676C38.6344 14.1149 39.8753 14.9469 39.8753 14.9469L40.1579 14.2545Z" fill="#575E4C"/>
<path d="M42.0933 11.4909C42.0933 11.4909 46.355 13.9898 47.4824 10.8698C48.6097 7.74982 42.587 10.8175 42.587 10.8175L42.0933 11.4909Z" fill="#575E4C"/>
<path d="M43.0064 10.2444C43.0064 10.2444 45.13 5.98545 41.9868 5.71636C38.8437 5.44727 40.8478 9.168 41.2717 9.65382C41.6955 10.1396 42.8054 10.5265 42.8054 10.5265L43.0064 10.2444Z" fill="#575E4C"/>
<path d="M44.1428 8.71563C44.1428 8.71563 43.5384 5.64945 45.1493 4.68073C46.7602 3.712 48.61 5.16363 47.8468 6.36509C47.0835 7.56654 44.0132 9.07636 44.0132 9.07636L44.1428 8.71563Z" fill="#575E4C"/>
<path d="M36.1826 22.2953C36.1826 22.2953 40.8304 24.8567 41.5251 22.6225C42.2199 20.3884 39.6521 20.2298 38.4024 20.6545C37.6348 20.9205 36.9264 21.333 36.3166 21.8691L36.1826 22.2953Z" fill="#575E4C"/>
<path d="M36.9721 36.4916L36.6108 36.2458C36.9182 35.7978 44.1469 25.2349 46.505 22.6909L46.8254 22.9818C44.4892 25.5069 37.0478 36.3825 36.9721 36.4916Z" fill="#575E4C"/>
<path d="M48.2109 20.6982L48.5022 15.4356C48.5022 15.4356 52.3125 17.2495 51.0628 20.0902C51.0628 20.0902 55.2867 20.848 55.2867 23.8211L48.2109 20.6982Z" fill="#D26C71"/>
<path d="M48.2779 19.3891C48.2779 19.3891 49.9835 19.4415 50.6739 20.4596C51.3643 21.4778 51.3701 22.0931 51.3701 22.0931L47.4375 22.2895L48.2779 19.3891Z" fill="white"/>
<path d="M48.5022 15.4356C48.5022 15.4356 49.5218 19.888 48.9785 21.5869C48.9785 21.5869 53.2024 20.5498 55.2896 23.8196C55.2896 23.8196 52.9097 26.6982 48.8605 26.0305C44.8114 25.3629 44.6366 23.2247 44.3934 22.0655C44.1501 20.9062 44.9279 16.6836 48.5022 15.4356Z" fill="#F19192"/>
<path d="M19.3787 21.8022C19.3787 21.8022 19.619 19.6305 19.1354 18.4262C18.6519 17.2218 18.228 16.1295 18.228 16.1295L18.8106 16.3084V15.6175L19.2796 15.952L19.4093 15.3047L19.7006 15.6625L19.9686 15.3047C19.9686 15.3047 20.9139 16.7593 20.809 18.4858C20.7535 19.4973 20.5131 20.4902 20.0997 21.4153L19.3787 21.8022Z" fill="#D26C71"/>
<path d="M19.1152 22.2822C19.1152 22.2822 18.4962 21.0807 17.5582 19.5636C16.6202 18.0465 16.2852 17.4909 16.2852 17.4909L16.8212 17.6465L16.776 16.9105L17.3586 17.0895L17.5145 16.5542C17.8716 17.0737 18.1919 17.6176 18.4729 18.1818C18.8982 19.0545 19.59 21.504 19.6381 21.8313L19.1152 22.2822Z" fill="#D26C71"/>
<path d="M19.2258 22.1164C19.2258 22.1164 17.3862 20.0029 16.8356 19.3935C16.2851 18.784 15.4665 17.7935 15.4665 17.7935L15.3922 18.6109L14.7368 18.4916L14.8416 18.9527L14.2168 18.9382C14.2168 18.9382 15.0645 20.528 15.6151 20.7811C16.1656 21.0342 18.7262 22.3564 18.7262 22.3564L19.2258 22.1164Z" fill="#D26C71"/>
<path d="M19.1153 22.2822C19.1153 22.2822 16.4193 22.0087 15.4215 21.0284C14.4238 20.048 13.8587 19.6902 13.8587 19.6902L13.9781 20.3447L13.4421 20.3302L13.8441 20.8495L13.011 20.7156L13.3999 21.2218L12.7139 21.2058C13.1502 21.7777 13.7706 22.182 14.4704 22.3505C15.6619 22.6487 18.7424 22.6924 18.7424 22.6924L19.1153 22.2822Z" fill="#D26C71"/>
<path d="M20.3419 22.5295L20.2049 21.1884C20.2049 21.1884 18.4717 22.4102 18.4731 22.6924H20.1263C20.1263 22.6924 22.649 25.6364 23.3044 27.1375C23.9599 28.6385 25.3363 32.0945 25.3363 32.0945L25.6931 32.3622C25.6931 32.3622 23.9846 27.728 23.2593 26.432C22.3985 24.9105 20.3419 22.5295 20.3419 22.5295Z" fill="#575E4C"/>
<path d="M26.6817 25.4909C26.6817 25.4909 22.1257 22.8364 22.752 21.8182C23.5953 20.4349 25.6913 22.9891 26.6817 25.4909Z" fill="#575E4C"/>
<path d="M27.8951 28.9455C27.8951 28.9455 24.5248 23.8764 24.0485 25.7716C23.7411 26.9615 27.8951 28.9455 27.8951 28.9455Z" fill="#575E4C"/>
<path d="M27.895 28.9455C27.895 28.9455 26.638 24.0727 27.7304 23.8662C29.8584 23.456 27.895 28.9455 27.895 28.9455Z" fill="#575E4C"/>
<path d="M28.1456 33.4691C28.1456 33.4022 27.6853 26.7564 25.7612 24.8102L26.0729 24.5047C28.1121 26.5658 28.5636 33.1607 28.5811 33.44L28.1456 33.4691Z" fill="#575E4C"/>
<path d="M28.0029 30.8044C28.0029 30.8044 25.4467 28.0829 25.301 29.0589C25.1554 30.0349 28.1704 31.5956 28.1704 31.5956L28.0029 30.8044Z" fill="#575E4C"/>
<path d="M28.1499 30.8014C28.1499 30.8014 28.7514 27.6218 29.672 28.4291C30.5925 29.2364 28.1892 31.3862 28.1892 31.3862L28.1499 30.8014Z" fill="#575E4C"/>
<path d="M30.2139 16.0742C30.2139 16.0742 31.784 14.3651 32.17 14.7651C32.556 15.1651 31.3485 16.3898 30.2139 16.0742Z" fill="#575E4C"/>
<path d="M31.7738 12.3418C31.7738 12.3418 30.9655 10.4596 31.6835 10.0364C32.4016 9.61309 32.2443 11.6989 32.2443 11.6989L31.7738 12.3418Z" fill="#575E4C"/>
<path d="M16.9829 26.5876V46.1498H48.3433V27.0749L33.3979 34.9135L16.9829 26.5876Z" fill="#384895"/>
<path d="M16.9829 46.1498V45.8487L33.3979 34.9135L48.3433 45.84V46.1498L33.3935 35.2393L16.9829 46.1498Z" fill="white"/>
</svg>
