<svg preserveAspectRatio="none" width="100%" height="100%" overflow="visible" style="display: block;" viewBox="0 0 561 56" fill="none" xmlns="http://www.w3.org/2000/svg">
<g id="Group">
<path id="svg_1" d="M26.8687 54.5728H15.0973V10.325H-6.20184e-07V0.8406H41.9411V10.325H26.8687V54.5728Z" fill="var(--fill-0, white)"/>
<path id="svg_2" d="M82.5245 54.5728H50.5112V0.8406H82.5245V10.1744H62.2951V21.9671H81.1169V31.3135H62.2951V45.1135H82.5245V54.5728Z" fill="var(--fill-0, white)"/>
<path id="svg_3" d="M105.893 21.4528H110.527C117.776 21.4528 123.378 22.8746 127.331 25.7183C129.247 27.0622 130.796 28.872 131.832 30.9797C132.869 33.0873 133.36 35.4245 133.26 37.7744C133.26 48.9733 125.607 54.5728 110.302 54.5728H94.109V0.8406H129.236V10.2497H105.893V21.4528ZM105.893 45.2891H109.842C113.828 45.2891 116.734 44.6703 118.561 43.4324C119.472 42.8251 120.208 41.9872 120.695 41.0029C121.183 40.0187 121.405 38.9226 121.339 37.8246C121.417 36.7572 121.194 35.6893 120.696 34.7438C120.198 33.7983 119.445 33.0137 118.524 32.4802C116.655 31.3888 113.429 30.8493 108.87 30.8493H105.868L105.893 45.2891Z" fill="var(--fill-0, white)"/>
<path id="svg_4" d="M175.799 54.5728H143.786V0.8406H175.799V10.1744H155.569V21.9671H174.391V31.3135H155.569V45.1135H175.799V54.5728Z" fill="var(--fill-0, white)"/>
<path id="svg_5" d="M251.584 54.5728H239.838V10.325H219.384V54.5728H207.613V0.8406H251.584V54.5728Z" fill="var(--fill-0, white)"/>
<path id="svg_6" d="M316.047 27.6377C316.047 36.5366 313.767 43.3697 309.208 48.137C304.649 52.9043 298.109 55.2963 289.589 55.313C281.086 55.313 274.55 52.921 269.983 48.137C265.415 43.353 263.136 36.4948 263.144 27.5625C263.144 18.6217 265.428 11.7886 269.995 7.06315C274.563 2.33769 281.119 -0.0166395 289.664 8.77423e-05C298.209 8.77423e-05 304.741 2.37535 309.258 7.1259C313.776 11.8764 316.039 18.7137 316.047 27.6377ZM275.488 27.6377C275.488 33.6345 276.668 38.155 279.026 41.1994C281.385 44.2437 284.906 45.7617 289.589 45.7534C298.99 45.7534 303.69 39.7148 303.69 27.6377C303.69 15.5606 299.015 9.51789 289.664 9.50953C284.98 9.50953 281.447 11.0359 279.063 14.0886C276.68 17.1413 275.488 21.6577 275.488 27.6377Z" fill="var(--fill-0, white)"/>
<path id="svg_7" d="M327.557 0.8406H344.859C352.731 0.8406 358.453 1.92369 362.024 4.08987C365.595 6.25605 367.372 9.70605 367.355 14.4399C367.475 17.2623 366.656 20.0442 365.026 22.3435C364.285 23.3534 363.354 24.2058 362.285 24.8517C361.216 25.4977 360.031 25.9243 358.798 26.1072V26.471C361.768 26.9146 364.478 28.4306 366.421 30.7364C368.386 33.8377 369.155 37.5561 368.584 41.1895C368.012 44.823 366.14 48.12 363.319 50.4579C359.657 53.2012 354.675 54.5728 348.372 54.5728H327.569L327.557 0.8406ZM339.341 22.1679H346.192C349.381 22.1679 351.693 21.6912 353.13 20.7377C353.864 20.2012 354.447 19.4823 354.822 18.6512C355.198 17.82 355.353 16.9051 355.272 15.9955C355.338 15.1098 355.153 14.2234 354.739 13.4395C354.324 12.6556 353.697 12.0062 352.931 11.567C350.614 10.5201 348.078 10.0592 345.544 10.2246H339.316L339.341 22.1679ZM339.341 31.2131V45.2139H347.026C350.265 45.2139 352.657 44.6159 354.201 43.4199C355 42.7545 355.628 41.906 356.033 40.9455C356.438 39.985 356.609 38.9405 356.531 37.8999C356.531 33.4504 353.234 31.2215 346.64 31.2131H339.341Z" fill="var(--fill-0, white)"/>
<path id="svg_8" d="M411.9 54.5728H379.862V0.8406H411.9V10.1744H391.646V21.9671H410.455V31.3135H391.646V45.1135H411.9V54.5728Z" fill="var(--fill-0, white)"/>
<path id="svg_9" d="M461.85 17.6013C461.85 23.389 459.982 27.8091 456.245 30.8619C452.508 33.9146 447.193 35.4493 440.301 35.4661H435.243V54.5728H423.459V0.8406H441.21C447.953 0.8406 453.077 2.24152 456.581 5.04333C460.086 7.84515 461.842 12.0312 461.85 17.6013ZM435.243 26.1322H439.117C442.742 26.1322 445.458 25.4297 447.251 24.0497C448.155 23.3379 448.873 22.4156 449.344 21.3622C449.815 20.3088 450.024 19.1559 449.954 18.0028C450.042 16.9076 449.884 15.8066 449.492 14.7815C449.099 13.7564 448.483 12.8334 447.687 12.0813C446.176 10.8184 443.813 10.1828 440.6 10.1744H435.243V26.1322Z" fill="var(--fill-0, white)"/>
<path id="svg_10" d="M491.036 33.9606L478.044 54.5728H464.965L480.772 30.9371C477.828 29.8726 475.3 27.8851 473.56 25.2666C471.848 22.5616 470.981 19.4024 471.068 16.1962C470.962 13.9973 471.401 11.8063 472.347 9.82158C473.294 7.8369 474.716 6.12124 476.487 4.83005C480.099 2.17041 485.29 0.8406 492.058 0.8406H510.144V54.5728H498.361V33.9606H491.036ZM498.336 10.1242H492.518C490.064 9.98454 487.62 10.5317 485.456 11.705C484.612 12.2771 483.936 13.0665 483.498 13.9909C483.06 14.9153 482.875 15.9411 482.964 16.9615C482.921 18.0284 483.124 19.0908 483.556 20.0658C483.988 21.0407 484.638 21.9019 485.456 22.5819C487.075 23.9619 489.554 24.6393 492.93 24.6393H498.435L498.336 10.1242Z" fill="var(--fill-0, white)"/>
<path id="svg_11" d="M545.546 54.5728H533.762V10.325H518.677V0.8406H560.631V10.325H545.546V54.5728Z" fill="var(--fill-0, white)"/>
<path id="svg_12" d="M289.452 33.7474C297.474 33.7474 297.487 21.2019 289.452 21.2019C281.418 21.2019 281.43 33.7474 289.452 33.7474Z" fill="var(--fill-0, white)"/>
</g>
</svg>
