<svg preserveAspectRatio="none" width="100%" height="100%" overflow="visible" style="display: block;" viewBox="0 0 61 64" fill="none" xmlns="http://www.w3.org/2000/svg">
<g id="Group 4">
<path id="svg_13" d="M50.5512 36.4734H6.05703V64H50.5512V36.4734Z" fill="var(--fill-0, #263166)"/>
<path id="svg_14" d="M8.97289 3.22117C9.4236 2.96344 9.42953 2.1379 8.98613 1.37726C8.54273 0.61662 7.81791 0.208929 7.3672 0.466657C6.91649 0.724385 6.91056 1.54993 7.35396 2.31057C7.79736 3.07121 8.52218 3.4789 8.97289 3.22117Z" fill="var(--fill-0, #E48123)"/>
<path id="svg_15" d="M7.46529 6.18351C7.96416 6.03668 8.1638 5.23514 7.9112 4.39322C7.65859 3.5513 7.0494 2.98781 6.55052 3.13464C6.05165 3.28147 5.85201 4.08301 6.10461 4.92493C6.35722 5.76685 6.96641 6.33034 7.46529 6.18351Z" fill="var(--fill-0, #E48123)"/>
<path id="svg_16" d="M12.7696 6.01894C13.2315 5.78149 13.2748 4.95703 12.8663 4.17747C12.4578 3.3979 11.7522 2.95843 11.2902 3.19589C10.8283 3.43334 10.785 4.25779 11.1935 5.03736C11.602 5.81692 12.3077 6.25639 12.7696 6.01894Z" fill="var(--fill-0, #E48123)"/>
<path id="svg_17" d="M24.3663 36.6023C24.3663 36.6023 26.3088 34.8482 26.9143 32.9182C27.5198 30.9881 26.2695 30.3597 25.2074 32.7033C24.6556 33.9252 24.3663 36.6023 24.3663 36.6023Z" fill="var(--fill-0, #575E4C)"/>
<path id="svg_18" d="M23.9117 28.706C23.9117 28.706 28.4291 26.432 26.3915 24.9748C24.9573 23.9473 23.9117 28.706 23.9117 28.706Z" fill="var(--fill-0, #575E4C)"/>
<path id="svg_19" d="M27.2925 54.5584C27.276 54.5113 25.5732 49.7506 24.8768 40.2619C24.5937 36.3915 22.6408 30.5378 19.2311 23.3353C16.6458 17.8787 14.1164 13.5355 14.0916 13.4905L14.6289 13.1835C15.0422 13.8937 24.7983 30.6995 25.4967 40.2169C26.1849 49.6155 27.8608 54.3025 27.8774 54.3496L27.2925 54.5584Z" fill="var(--fill-0, #575E4C)"/>
<path id="svg_20" d="M27.0425 16.4276C27.0425 16.4276 30.4647 16.6077 29.481 15.0788C28.9644 14.2723 27.0425 16.4276 27.0425 16.4276Z" fill="var(--fill-0, #575E4C)"/>
<path id="svg_21" d="M31.2127 10.9853C31.2127 10.9853 30.2828 7.66136 31.657 7.78008C33.0313 7.89879 31.5578 11.3414 31.5578 11.3414L31.2127 10.9853Z" fill="var(--fill-0, #D26C71)"/>
<path id="svg_22" d="M31.8037 12.113C31.8037 12.113 33.366 10.1952 33.1346 9.19642C32.9031 8.19761 32.1757 8.19147 31.9711 8.44117C31.7665 8.69088 31.3264 11.4642 31.3264 11.4642L31.8037 12.113Z" fill="var(--fill-0, #F19192)"/>
<path id="svg_23" d="M33.6656 12.0619C33.6656 12.0619 35.0399 10.4715 34.4447 9.7736C33.8496 9.07566 31.8698 11.1777 31.5743 12.113C31.5743 12.113 32.9134 13.0443 33.6656 12.0619Z" fill="var(--fill-0, #D26C71)"/>
<path id="svg_24" d="M33.2296 12.6493C33.2296 12.6493 36.4575 12.0107 35.9161 10.9628C35.3746 9.91483 31.5764 12.113 31.5764 12.113L33.4363 12.3177L33.2296 12.6493Z" fill="var(--fill-0, #F19192)"/>
<path id="svg_25" d="M17.9313 20.6889C17.9313 20.6889 16.5343 12.2972 17.5407 11.7876C18.5471 11.278 18.0222 14.5671 18.4934 14.3583C18.9645 14.1495 18.8219 11.0119 18.7 9.5587C18.5781 8.10551 19.2931 7.21927 19.5679 8.00317C19.8428 8.78707 19.7622 11.413 20.0308 11.2616C20.2995 11.1101 20.5681 6.60729 22.0416 6.18362C23.515 5.75994 21.7068 8.84438 21.9031 9.0818C22.0994 9.31923 24.4077 6.28186 24.5896 7.00231C24.7714 7.72277 22.8186 9.98237 22.9136 10.3528C23.0087 10.7233 27.46 7.14968 27.5984 8.30609C27.7369 9.4625 26.59 9.76132 26.6871 10.2341C26.7842 10.7069 28.3093 10.0499 28.0241 10.6803C27.739 11.3107 23.422 12.5101 23.2112 12.8642C23.0004 13.2183 25.5092 12.7659 25.007 13.6379C24.5049 14.5098 21.4609 14.8659 20.7789 15.4206C20.097 15.9752 21.5001 15.9486 21.5704 16.7898C21.6407 17.631 18.576 21.9456 18.576 21.9456L17.9313 20.6889Z" fill="var(--fill-0, #575E4C)"/>
<path id="svg_26" d="M20.9276 26.5917C20.9276 26.5917 19.0533 22.7397 18.4891 22.8175C17.925 22.8953 19.1091 24.0988 18.8467 24.1479C18.5842 24.197 17.7349 22.8646 17.3629 22.2301C16.9909 21.5956 16.4371 21.4359 16.5528 21.8371C16.6685 22.2383 17.4683 23.2964 17.3133 23.3108C17.1583 23.3251 15.7324 21.5506 15.0029 21.7982C14.2735 22.0459 15.9163 22.795 15.906 22.9505C15.8957 23.1061 14.0585 22.5166 14.1949 22.8646C14.3313 23.2125 15.7944 23.583 15.8626 23.7631C15.9308 23.9432 13.0542 23.7467 13.3373 24.2625C13.6204 24.7783 14.1763 24.5716 14.2755 24.7946C14.3747 25.0177 13.5522 25.1835 13.8622 25.3616C14.1722 25.5397 16.2904 24.7946 16.4805 24.8806C16.6706 24.9666 15.5051 25.4946 15.968 25.7136C16.4309 25.9326 17.7824 25.1979 18.2288 25.2347C18.6751 25.2715 18.0862 25.6604 18.3011 26.0268C18.516 26.3932 21.0413 27.2896 21.0413 27.2896L20.9276 26.5917Z" fill="var(--fill-0, #575E4C)"/>
<path id="svg_27" d="M14.9298 8.31206C15.3702 8.18483 15.5565 7.50196 15.346 6.78683C15.1354 6.07171 14.6076 5.59513 14.1671 5.72236C13.7267 5.8496 13.5403 6.53247 13.7509 7.24759C13.9615 7.96272 14.4893 8.4393 14.9298 8.31206Z" fill="var(--fill-0, #E48123)"/>
<path id="svg_28" d="M12.3624 14.6976C12.364 14.2432 11.7556 13.8727 11.0034 13.8701C10.2513 13.8675 9.64033 14.2338 9.63872 14.6882C9.63712 15.1426 10.2455 15.5131 10.9976 15.5157C11.7498 15.5183 12.3608 15.152 12.3624 14.6976Z" fill="var(--fill-0, #E48123)"/>
<path id="svg_29" d="M15.1764 16.4743C15.178 16.0199 14.5696 15.6494 13.8175 15.6468C13.0654 15.6442 12.4544 16.0105 12.4528 16.4649C12.4511 16.9193 13.0596 17.2898 13.8117 17.2924C14.5638 17.295 15.1748 16.9287 15.1764 16.4743Z" fill="var(--fill-0, #E48123)"/>
<path id="svg_30" d="M15.7492 11.5409C16.1954 11.4351 16.4152 10.7621 16.2402 10.0376C16.0651 9.31318 15.5615 8.81163 15.1153 8.91741C14.6691 9.02318 14.4493 9.69622 14.6243 10.4207C14.7994 11.1451 15.303 11.6467 15.7492 11.5409Z" fill="var(--fill-0, #E48123)"/>
<path id="svg_31" d="M8.93053 9.30935C9.23866 8.97266 9.0367 8.29416 8.47943 7.79388C7.92217 7.2936 7.22063 7.16098 6.9125 7.49766C6.60437 7.83435 6.80633 8.51284 7.3636 9.01313C7.92086 9.51341 8.6224 9.64603 8.93053 9.30935Z" fill="var(--fill-0, #E48123)"/>
<path id="svg_32" d="M10.8783 12.7354C11.2149 12.4267 11.0735 11.7333 10.5625 11.1867C10.0515 10.6402 9.36432 10.4474 9.02768 10.7561C8.69104 11.0649 8.8324 11.7582 9.34343 12.3048C9.85445 12.8514 10.5416 13.0442 10.8783 12.7354Z" fill="var(--fill-0, #E48123)"/>
<path id="svg_33" d="M14.8766 14.0305C15.2133 13.7217 15.0719 13.0283 14.5609 12.4818C14.0499 11.9352 13.3627 11.7424 13.026 12.0511C12.6894 12.3599 12.8308 13.0533 13.3418 13.5998C13.8528 14.1464 14.54 14.3392 14.8766 14.0305Z" fill="var(--fill-0, #E48123)"/>
<path id="svg_34" d="M12.6894 10.628C13.1182 10.5499 13.3572 9.90171 13.2232 9.18019C13.0892 8.45867 12.633 7.93707 12.2042 8.01517C11.7754 8.09327 11.5364 8.74149 11.6704 9.46301C11.8044 10.1845 12.2606 10.7061 12.6894 10.628Z" fill="var(--fill-0, #E48123)"/>
<path id="svg_35" d="M10.351 8.12724C10.8432 7.95977 11.0087 7.15062 10.7205 6.31996C10.4324 5.48931 9.79984 4.95169 9.30764 5.11917C8.81544 5.28664 8.65 6.09579 8.93813 6.92645C9.22626 7.7571 9.85884 8.29472 10.351 8.12724Z" fill="var(--fill-0, #E48123)"/>
<path id="svg_36" d="M23.4984 33.8412C23.3228 25.7648 24.5317 19.7064 27.0652 15.8299C28.9995 12.8806 30.9916 12.3709 31.0846 12.3505L31.2293 12.9481L31.1569 12.6493L31.2313 12.9481C31.2127 12.9481 29.3425 13.4455 27.5426 16.2229C24.4986 20.9304 24.0006 28.3887 24.1184 33.8249L23.4984 33.8412Z" fill="var(--fill-0, #575E4C)"/>
<path id="svg_37" d="M30.789 12.7516C30.789 12.7516 34.4736 14.1843 34.5935 13.0463C34.7133 11.9084 34.0645 11.9145 33.4052 11.8367C32.746 11.7589 30.789 12.7516 30.789 12.7516Z" fill="var(--fill-0, #575E4C)"/>
<path id="svg_38" d="M32.217 12.8212C32.217 12.8212 31.8409 9.04906 30.0389 9.08999C28.9023 9.11046 28.8672 10.9689 30.789 12.7598L32.217 12.8212Z" fill="var(--fill-0, #575E4C)"/>
<path id="svg_39" d="M25.2198 21.2804C25.2198 21.2804 24.4222 19.7412 24.5999 19.6164C24.7776 19.4915 25.6042 19.207 25.9266 19.3421C26.249 19.4772 26.2448 21.0737 26.2448 21.0737L25.2198 21.2804Z" fill="var(--fill-0, #D26C71)"/>
<path id="svg_40" d="M25.2425 21.8248C25.2425 21.8248 22.7213 21.1801 23.176 20.1363C23.6306 19.0924 26.1249 21.4216 26.1249 21.4216L25.2425 21.8248Z" fill="var(--fill-0, #575E4C)"/>
<path id="svg_41" d="M25.1083 19.8272C25.1083 19.8272 23.827 19.6225 24.0109 19.1948C24.1949 18.767 22.6429 18.5807 23.2877 17.9565C23.9324 17.3322 24.9181 18.3965 25.1475 18.2799C25.3769 18.1632 25.9431 16.9433 26.4019 17.4489C26.8607 17.9544 27.3029 18.7813 26.8379 18.8038C26.373 18.8263 27.1107 19.4895 26.592 19.7024C26.0733 19.9152 25.1083 19.8272 25.1083 19.8272Z" fill="var(--fill-0, #F19192)"/>
<path id="svg_42" d="M29.5203 49.0281C29.5203 49.0281 34.1493 36.3976 41.5268 34.138C41.5268 34.138 39.2929 39.0318 38.3464 40.3478C37.3999 41.6639 31.9092 47.1021 31.9092 47.1021L29.5203 49.0281Z" fill="var(--fill-0, #575E4C)"/>
<path id="svg_43" d="M28.3113 48.7538L27.712 48.5921C27.7513 48.4529 31.5785 34.5985 33.6615 28.2843L33.8351 27.7665C34.0748 27.0522 34.2815 26.4771 34.4551 26.0534C36.1599 21.7389 44.7298 10.6353 45.0935 10.1666L45.5874 10.5391C45.4985 10.6537 36.7014 22.0418 35.0337 26.2765C34.8704 26.6858 34.6659 27.2569 34.4282 27.961C34.3724 28.1247 34.3166 28.2966 34.2567 28.4747C32.1778 34.7746 28.3485 48.6146 28.3113 48.7538Z" fill="var(--fill-0, #575E4C)"/>
<path id="svg_44" d="M34.1286 27.8627C34.1286 27.8627 34.7052 24.6002 32.5105 23.6955C30.3159 22.7909 28.9561 24.0435 29.0326 25.294C29.109 26.5446 29.3467 28.1349 31.4773 28.7919L33.6099 29.4489L34.1286 27.8627Z" fill="var(--fill-0, #575E4C)"/>
<path id="svg_45" d="M35.3664 25.6113C35.3664 25.6113 37.0898 27.1504 39.3403 27.3735C41.5907 27.5966 43.2522 26.5835 43.2233 25.3002C43.1943 24.0169 41.6093 22.5166 39.6565 22.9649C37.7036 23.4131 35.4139 24.7373 35.4139 24.7373L35.3664 25.6113Z" fill="var(--fill-0, #575E4C)"/>
<path id="svg_46" d="M36.3108 23.1634C36.3108 23.1634 37.6168 21.3213 35.5916 19.2029C33.5664 17.0846 31.1651 18.5541 31.2519 19.9848C31.3387 21.4155 32.1984 22.3733 33.7173 22.8032C35.2362 23.233 36.1041 23.5257 36.1041 23.5257L36.3108 23.1634Z" fill="var(--fill-0, #575E4C)"/>
<path id="svg_47" d="M38.1232 20.3246C38.1232 20.3246 46.1061 15.66 46.8129 20.517C47.5196 25.3739 37.6768 21 37.6768 21L38.1232 20.3246Z" fill="var(--fill-0, #575E4C)"/>
<path id="svg_48" d="M38.9374 19.119C38.9374 19.119 42.3389 12.4139 37.7161 12.8519C33.0933 13.2899 35.1722 17.1009 35.974 18.0117C36.7758 18.9225 38.5365 20.0933 38.5365 20.0933L38.9374 19.119Z" fill="var(--fill-0, #575E4C)"/>
<path id="svg_49" d="M41.6838 15.2302C41.6838 15.2302 47.7305 18.7465 49.3299 14.3563C50.9294 9.966 42.3844 14.2826 42.3844 14.2826L41.6838 15.2302Z" fill="var(--fill-0, #575E4C)"/>
<path id="svg_50" d="M42.9795 13.4762C42.9795 13.4762 45.9925 7.4833 41.5329 7.10465C37.0734 6.726 39.9169 11.9616 40.5182 12.6452C41.1196 13.3288 42.6943 13.8732 42.6943 13.8732L42.9795 13.4762Z" fill="var(--fill-0, #575E4C)"/>
<path id="svg_51" d="M44.5914 11.325C44.5914 11.325 43.7338 7.0105 46.0194 5.64737C48.3049 4.28424 50.9294 6.32689 49.8465 8.0175C48.7637 9.70811 44.4075 11.8326 44.4075 11.8326L44.5914 11.325Z" fill="var(--fill-0, #575E4C)"/>
<path id="svg_52" d="M33.2978 30.4334C33.2978 30.4334 39.8921 34.0377 40.8778 30.8939C41.8635 27.7501 38.2203 27.527 36.4472 28.1247C35.3582 28.4989 34.3531 29.0793 33.4879 29.8337L33.2978 30.4334Z" fill="var(--fill-0, #575E4C)"/>
<path id="svg_53" d="M34.4179 50.4096L33.9054 50.0637C34.3414 49.4333 44.5975 34.5699 47.9432 30.9901L48.3979 31.3995C45.0832 34.9526 34.5253 50.2561 34.4179 50.4096Z" fill="var(--fill-0, #575E4C)"/>
<path id="svg_54" d="M50.3631 28.1861L50.7764 20.781C50.7764 20.781 56.1824 23.3333 54.4094 27.3306C54.4094 27.3306 60.4023 28.3969 60.4023 32.5805L50.3631 28.1861Z" fill="var(--fill-0, #D26C71)"/>
<path id="svg_55" d="M50.4582 26.344C50.4582 26.344 52.8781 26.4177 53.8577 27.8504C54.8372 29.2832 54.8455 30.1489 54.8455 30.1489L49.2659 30.4252L50.4582 26.344Z" fill="var(--fill-0, white)"/>
<path id="svg_56" d="M50.7764 20.781C50.7764 20.781 52.223 27.0461 51.4522 29.4367C51.4522 29.4367 57.4451 27.9773 60.4064 32.5784C60.4064 32.5784 57.0297 36.6289 51.2848 35.6895C45.5399 34.75 45.2919 31.7413 44.9468 30.11C44.6017 28.4788 45.7052 22.5371 50.7764 20.781Z" fill="var(--fill-0, #F19192)"/>
<path id="svg_57" d="M9.45644 29.7396C9.45644 29.7396 9.79742 26.6838 9.11133 24.9891C8.42525 23.2944 7.82389 21.7573 7.82389 21.7573L8.6505 22.009V21.0368L9.31592 21.5076L9.49984 20.5968L9.91314 21.1003L10.2934 20.5968C10.2934 20.5968 11.6346 22.6435 11.4858 25.073C11.407 26.4964 11.0659 27.8934 10.4794 29.1951L9.45644 29.7396Z" fill="var(--fill-0, #D26C71)"/>
<path id="svg_58" d="M9.0824 30.415C9.0824 30.415 8.20413 28.7244 6.87329 26.5896C5.54245 24.4549 5.06715 23.673 5.06715 23.673L5.82763 23.892L5.76357 22.8564L6.59018 23.1081L6.81129 22.3549C7.31807 23.0859 7.77244 23.8513 8.17106 24.6452C8.77449 25.8733 9.75608 29.32 9.82428 29.7805L9.0824 30.415Z" fill="var(--fill-0, #D26C71)"/>
<path id="svg_59" d="M9.23944 30.1817C9.23944 30.1817 6.62943 27.2078 5.84829 26.3502C5.06714 25.4926 3.90576 24.0988 3.90576 24.0988L3.80037 25.249L2.87044 25.0812L3.01923 25.73L2.13269 25.7095C2.13269 25.7095 3.3354 27.9466 4.11655 28.3028C4.89769 28.6589 8.53063 30.5194 8.53063 30.5194L9.23944 30.1817Z" fill="var(--fill-0, #D26C71)"/>
<path id="svg_60" d="M9.08235 30.415C9.08235 30.415 5.25722 30.0302 3.84166 28.6507C2.42609 27.2712 1.62428 26.7677 1.62428 26.7677L1.79374 27.6887L1.03326 27.6683L1.60362 28.399L0.42157 28.2107L0.97333 28.9229L0 28.9004C0.619088 29.7051 1.49923 30.274 2.49222 30.5112C4.18263 30.9308 8.55331 30.9922 8.55331 30.9922L9.08235 30.415Z" fill="var(--fill-0, #D26C71)"/>
<path id="svg_61" d="M10.8224 30.7629L10.6281 28.8759C10.6281 28.8759 8.16897 30.5951 8.17104 30.9922H10.5165C10.5165 30.9922 14.0957 35.1348 15.0257 37.247C15.9556 39.3593 17.9085 44.2223 17.9085 44.2223L18.4148 44.5989C18.4148 44.5989 15.9907 38.078 14.9616 36.2544C13.7403 34.1135 10.8224 30.7629 10.8224 30.7629Z" fill="var(--fill-0, #575E4C)"/>
<path id="svg_62" d="M19.8179 34.9301C19.8179 34.9301 13.3539 31.1948 14.2425 29.7621C15.439 27.8156 18.4127 31.4097 19.8179 34.9301Z" fill="var(--fill-0, #575E4C)"/>
<path id="svg_63" d="M21.5393 39.7911C21.5393 39.7911 16.7574 32.6582 16.0816 35.3251C15.6456 36.9994 21.5393 39.7911 21.5393 39.7911Z" fill="var(--fill-0, #575E4C)"/>
<path id="svg_64" d="M21.5393 39.7911C21.5393 39.7911 19.7559 32.9345 21.3058 32.6439C24.325 32.0667 21.5393 39.7911 21.5393 39.7911Z" fill="var(--fill-0, #575E4C)"/>
<path id="svg_65" d="M21.8948 46.1565C21.8948 46.0623 21.2418 36.7108 18.5119 33.9722L18.9541 33.5424C21.8473 36.4427 22.4879 45.7226 22.5127 46.1156L21.8948 46.1565Z" fill="var(--fill-0, #575E4C)"/>
<path id="svg_66" d="M21.6922 42.4069C21.6922 42.4069 18.0655 38.5774 17.8588 39.9508C17.6522 41.3241 21.9299 43.5203 21.9299 43.5203L21.6922 42.4069Z" fill="var(--fill-0, #575E4C)"/>
<path id="svg_67" d="M21.901 42.4028C21.901 42.4028 22.7545 37.9286 24.0605 39.0645C25.3665 40.2005 21.9568 43.2256 21.9568 43.2256L21.901 42.4028Z" fill="var(--fill-0, #575E4C)"/>
<path id="svg_68" d="M24.8292 21.6795C24.8292 21.6795 27.0569 19.2746 27.6046 19.8374C28.1522 20.4003 26.439 22.1236 24.8292 21.6795Z" fill="var(--fill-0, #575E4C)"/>
<path id="svg_69" d="M27.0424 16.4276C27.0424 16.4276 25.8955 13.7791 26.9143 13.1835C27.9331 12.5879 27.7099 15.5229 27.7099 15.5229L27.0424 16.4276Z" fill="var(--fill-0, #575E4C)"/>
<path id="svg_70" d="M6.05703 36.4734V64H50.5512V37.159L29.3467 48.1889L6.05703 36.4734Z" fill="var(--fill-0, #384895)"/>
<path id="svg_71" d="M6.05703 64V63.5763L29.3467 48.1889L50.5512 63.564V64L29.3405 48.6474L6.05703 64Z" fill="var(--fill-0, white)"/>
</g>
</svg>
