<svg width="61" height="64" viewBox="0 0 61 64" fill="none" xmlns="http://www.w3.org/2000/svg">
<path d="M50.5513 36.4734H6.05713V64H50.5513V36.4734Z" fill="#263166"/>
<path d="M8.97279 3.22117C9.4235 2.96344 9.42943 2.1379 8.98603 1.37726C8.54264 0.61662 7.81782 0.20893 7.36711 0.466657C6.9164 0.724385 6.91047 1.54993 7.35387 2.31057C7.79727 3.07121 8.52208 3.4789 8.97279 3.22117Z" fill="#E48123"/>
<path d="M7.46528 6.18351C7.96415 6.03668 8.16379 5.23514 7.91119 4.39322C7.65858 3.5513 7.04939 2.98781 6.55051 3.13464C6.05164 3.28147 5.85199 4.08301 6.1046 4.92493C6.3572 5.76685 6.9664 6.33034 7.46528 6.18351Z" fill="#E48123"/>
<path d="M12.7696 6.01894C13.2315 5.78149 13.2748 4.95703 12.8663 4.17747C12.4578 3.3979 11.7522 2.95843 11.2902 3.19588C10.8283 3.43334 10.785 4.25779 11.1935 5.03736C11.6021 5.81692 12.3077 6.25639 12.7696 6.01894Z" fill="#E48123"/>
<path d="M24.3662 36.6023C24.3662 36.6023 26.3087 34.8482 26.9142 32.9182C27.5197 30.9881 26.2695 30.3597 25.2073 32.7033C24.6555 33.9252 24.3662 36.6023 24.3662 36.6023Z" fill="#575E4C"/>
<path d="M23.9116 28.706C23.9116 28.706 28.429 26.432 26.3914 24.9748C24.9573 23.9473 23.9116 28.706 23.9116 28.706Z" fill="#575E4C"/>
<path d="M27.2925 54.5584C27.2759 54.5113 25.5731 49.7506 24.8767 40.2619C24.5936 36.3915 22.6407 30.5378 19.231 23.3353C16.6458 17.8787 14.1164 13.5355 14.0916 13.4905L14.6288 13.1835C15.0422 13.8937 24.7982 30.6995 25.4967 40.2169C26.1848 49.6155 27.8608 54.3025 27.8773 54.3496L27.2925 54.5584Z" fill="#575E4C"/>
<path d="M27.0425 16.4276C27.0425 16.4276 30.4646 16.6077 29.481 15.0788C28.9643 14.2723 27.0425 16.4276 27.0425 16.4276Z" fill="#575E4C"/>
<path d="M31.2128 10.9853C31.2128 10.9853 30.2829 7.66136 31.6571 7.78008C33.0314 7.89879 31.5579 11.3414 31.5579 11.3414L31.2128 10.9853Z" fill="#D26C71"/>
<path d="M31.8038 12.113C31.8038 12.113 33.3661 10.1952 33.1346 9.19642C32.9032 8.19761 32.1758 8.19147 31.9712 8.44117C31.7666 8.69088 31.3264 11.4642 31.3264 11.4642L31.8038 12.113Z" fill="#F19192"/>
<path d="M33.6655 12.0619C33.6655 12.0619 35.0398 10.4715 34.4446 9.7736C33.8495 9.07566 31.8697 11.1777 31.5742 12.113C31.5742 12.113 32.9133 13.0443 33.6655 12.0619Z" fill="#D26C71"/>
<path d="M33.2296 12.6493C33.2296 12.6493 36.4575 12.0107 35.9161 10.9628C35.3747 9.91483 31.5764 12.113 31.5764 12.113L33.4363 12.3177L33.2296 12.6493Z" fill="#F19192"/>
<path d="M17.9313 20.6889C17.9313 20.6889 16.5344 12.2972 17.5407 11.7876C18.5471 11.278 18.0222 14.5671 18.4934 14.3583C18.9646 14.1495 18.822 11.0119 18.7001 9.5587C18.5781 8.10551 19.2932 7.21927 19.568 8.00317C19.8428 8.78707 19.7623 11.413 20.0309 11.2616C20.2996 11.1101 20.5682 6.60729 22.0416 6.18362C23.5151 5.75994 21.7068 8.84438 21.9032 9.0818C22.0995 9.31923 24.4078 6.28186 24.5896 7.00231C24.7715 7.72277 22.8186 9.98237 22.9137 10.3528C23.0088 10.7233 27.46 7.14968 27.5985 8.30609C27.7369 9.4625 26.59 9.76132 26.6872 10.2341C26.7843 10.7069 28.3094 10.0499 28.0242 10.6803C27.739 11.3107 23.4221 12.5101 23.2113 12.8642C23.0005 13.2183 25.5092 12.7659 25.0071 13.6379C24.5049 14.5098 21.4609 14.8659 20.779 15.4206C20.097 15.9752 21.5002 15.9486 21.5705 16.7898C21.6407 17.631 18.5761 21.9456 18.5761 21.9456L17.9313 20.6889Z" fill="#575E4C"/>
<path d="M20.9276 26.5917C20.9276 26.5917 19.0532 22.7397 18.4891 22.8175C17.9249 22.8953 19.109 24.0988 18.8466 24.1479C18.5841 24.197 17.7348 22.8646 17.3628 22.2301C16.9908 21.5956 16.437 21.4359 16.5527 21.8371C16.6685 22.2383 17.4682 23.2964 17.3132 23.3108C17.1582 23.3251 15.7323 21.5506 15.0029 21.7982C14.2734 22.0459 15.9163 22.795 15.9059 22.9505C15.8956 23.1061 14.0585 22.5166 14.1948 22.8646C14.3312 23.2125 15.7943 23.583 15.8625 23.7631C15.9307 23.9432 13.0541 23.7467 13.3372 24.2625C13.6204 24.7783 14.1762 24.5715 14.2754 24.7946C14.3746 25.0177 13.5522 25.1835 13.8621 25.3616C14.1721 25.5397 16.2903 24.7946 16.4804 24.8806C16.6705 24.9666 15.505 25.4946 15.9679 25.7136C16.4308 25.9326 17.7823 25.1979 18.2287 25.2347C18.6751 25.2715 18.0861 25.6604 18.301 26.0268C18.5159 26.3931 21.0412 27.2896 21.0412 27.2896L20.9276 26.5917Z" fill="#575E4C"/>
<path d="M14.9298 8.31206C15.3702 8.18483 15.5566 7.50196 15.346 6.78683C15.1354 6.07171 14.6076 5.59513 14.1671 5.72236C13.7267 5.8496 13.5403 6.53247 13.7509 7.24759C13.9615 7.96272 14.4893 8.4393 14.9298 8.31206Z" fill="#E48123"/>
<path d="M12.3623 14.6976C12.3639 14.2432 11.7555 13.8727 11.0034 13.8701C10.2512 13.8675 9.64024 14.2338 9.63864 14.6882C9.63704 15.1426 10.2454 15.5131 10.9976 15.5157C11.7497 15.5183 12.3607 15.152 12.3623 14.6976Z" fill="#E48123"/>
<path d="M15.1765 16.4743C15.1781 16.0199 14.5697 15.6494 13.8176 15.6468C13.0655 15.6442 12.4545 16.0105 12.4529 16.4649C12.4512 16.9193 13.0597 17.2898 13.8118 17.2924C14.5639 17.295 15.1749 16.9287 15.1765 16.4743Z" fill="#E48123"/>
<path d="M15.7493 11.5409C16.1955 11.4351 16.4153 10.7621 16.2402 10.0376C16.0651 9.31318 15.5615 8.81163 15.1153 8.91741C14.6691 9.02318 14.4493 9.69622 14.6244 10.4207C14.7994 11.1451 15.3031 11.6467 15.7493 11.5409Z" fill="#E48123"/>
<path d="M8.93043 9.30935C9.23856 8.97266 9.0366 8.29416 8.47934 7.79388C7.92208 7.2936 7.22054 7.16098 6.91241 7.49766C6.60428 7.83435 6.80624 8.51284 7.36351 9.01313C7.92077 9.51341 8.6223 9.64603 8.93043 9.30935Z" fill="#E48123"/>
<path d="M10.8783 12.7354C11.215 12.4267 11.0736 11.7333 10.5626 11.1867C10.0516 10.6402 9.36439 10.4474 9.02775 10.7561C8.69111 11.0649 8.83248 11.7582 9.3435 12.3048C9.85452 12.8514 10.5417 13.0442 10.8783 12.7354Z" fill="#E48123"/>
<path d="M14.8766 14.0305C15.2133 13.7217 15.0719 13.0283 14.5609 12.4818C14.0499 11.9352 13.3627 11.7424 13.026 12.0511C12.6894 12.3599 12.8308 13.0533 13.3418 13.5998C13.8528 14.1464 14.54 14.3392 14.8766 14.0305Z" fill="#E48123"/>
<path d="M12.6893 10.628C13.118 10.5499 13.357 9.90171 13.2231 9.18019C13.0891 8.45867 12.6329 7.93707 12.2041 8.01517C11.7753 8.09327 11.5363 8.74149 11.6703 9.46301C11.8043 10.1845 12.2605 10.7061 12.6893 10.628Z" fill="#E48123"/>
<path d="M10.3511 8.12724C10.8433 7.95977 11.0087 7.15062 10.7206 6.31996C10.4325 5.48931 9.79991 4.95169 9.30771 5.11917C8.81551 5.28664 8.65008 6.09579 8.9382 6.92645C9.22633 7.7571 9.85891 8.29472 10.3511 8.12724Z" fill="#E48123"/>
<path d="M23.4984 33.8412C23.3228 25.7648 24.5317 19.7064 27.0652 15.8299C28.9995 12.8806 30.9916 12.3709 31.0846 12.3505L31.2293 12.9481L31.1569 12.6493L31.2313 12.9481C31.2127 12.9481 29.3425 13.4455 27.5426 16.2229C24.4986 20.9304 24.0006 28.3887 24.1184 33.8249L23.4984 33.8412Z" fill="#575E4C"/>
<path d="M30.7891 12.7516C30.7891 12.7516 34.4737 14.1843 34.5935 13.0463C34.7134 11.9084 34.0645 11.9145 33.4053 11.8367C32.7461 11.7589 30.7891 12.7516 30.7891 12.7516Z" fill="#575E4C"/>
<path d="M32.217 12.8212C32.217 12.8212 31.8409 9.04906 30.0389 9.08999C28.9023 9.11046 28.8672 10.9689 30.7891 12.7598L32.217 12.8212Z" fill="#575E4C"/>
<path d="M25.2198 21.2804C25.2198 21.2804 24.4221 19.7412 24.5998 19.6164C24.7775 19.4915 25.6041 19.207 25.9265 19.3421C26.2489 19.4772 26.2447 21.0737 26.2447 21.0737L25.2198 21.2804Z" fill="#D26C71"/>
<path d="M25.2425 21.8248C25.2425 21.8248 22.7213 21.1801 23.1759 20.1363C23.6306 19.0924 26.1249 21.4216 26.1249 21.4216L25.2425 21.8248Z" fill="#575E4C"/>
<path d="M25.1082 19.8272C25.1082 19.8272 23.827 19.6225 24.0109 19.1948C24.1948 18.767 22.6429 18.5807 23.2876 17.9565C23.9324 17.3322 24.9181 18.3965 25.1475 18.2799C25.3769 18.1632 25.9431 16.9433 26.4019 17.4489C26.8606 17.9544 27.3029 18.7813 26.8379 18.8038C26.373 18.8263 27.1107 19.4895 26.592 19.7023C26.0733 19.9152 25.1082 19.8272 25.1082 19.8272Z" fill="#F19192"/>
<path d="M29.5203 49.0281C29.5203 49.0281 34.1493 36.3976 41.5267 34.138C41.5267 34.138 39.2928 39.0318 38.3464 40.3478C37.3999 41.6639 31.9092 47.1021 31.9092 47.1021L29.5203 49.0281Z" fill="#575E4C"/>
<path d="M28.3112 48.7538L27.7119 48.5921C27.7512 48.4529 31.5784 34.5985 33.6614 28.2843L33.835 27.7665C34.0747 27.0522 34.2814 26.4771 34.455 26.0534C36.1598 21.7389 44.7297 10.6353 45.0934 10.1666L45.5873 10.5391C45.4984 10.6537 36.7013 22.0418 35.0336 26.2765C34.8703 26.6858 34.6657 27.2569 34.4281 27.961C34.3723 28.1247 34.3165 28.2966 34.2566 28.4747C32.1777 34.7746 28.3484 48.6146 28.3112 48.7538Z" fill="#575E4C"/>
<path d="M34.1286 27.8627C34.1286 27.8627 34.7052 24.6002 32.5106 23.6955C30.3159 22.7909 28.9561 24.0435 29.0326 25.294C29.1091 26.5446 29.3467 28.1349 31.4773 28.7919L33.6099 29.4489L34.1286 27.8627Z" fill="#575E4C"/>
<path d="M35.3665 25.6113C35.3665 25.6113 37.0899 27.1504 39.3404 27.3735C41.5908 27.5966 43.2523 26.5835 43.2234 25.3002C43.1944 24.0169 41.6094 22.5166 39.6565 22.9649C37.7037 23.4131 35.414 24.7373 35.414 24.7373L35.3665 25.6113Z" fill="#575E4C"/>
<path d="M36.3109 23.1634C36.3109 23.1634 37.6169 21.3213 35.5917 19.2029C33.5665 17.0846 31.1652 18.5541 31.252 19.9848C31.3388 21.4155 32.1985 22.3733 33.7174 22.8032C35.2363 23.233 36.1042 23.5257 36.1042 23.5257L36.3109 23.1634Z" fill="#575E4C"/>
<path d="M38.1231 20.3246C38.1231 20.3246 46.1061 15.66 46.8128 20.517C47.5196 25.3739 37.6768 21 37.6768 21L38.1231 20.3246Z" fill="#575E4C"/>
<path d="M38.9373 19.119C38.9373 19.119 42.3388 12.4139 37.716 12.8519C33.0932 13.2899 35.1722 17.1009 35.974 18.0117C36.7758 18.9225 38.5364 20.0933 38.5364 20.0933L38.9373 19.119Z" fill="#575E4C"/>
<path d="M41.6838 15.2302C41.6838 15.2302 47.7305 18.7465 49.33 14.3563C50.9294 9.966 42.3844 14.2826 42.3844 14.2826L41.6838 15.2302Z" fill="#575E4C"/>
<path d="M42.9795 13.4762C42.9795 13.4762 45.9925 7.4833 41.533 7.10465C37.0734 6.72601 39.917 11.9616 40.5183 12.6452C41.1197 13.3288 42.6944 13.8732 42.6944 13.8732L42.9795 13.4762Z" fill="#575E4C"/>
<path d="M44.5914 11.325C44.5914 11.325 43.7338 7.0105 46.0194 5.64737C48.3049 4.28424 50.9294 6.32689 49.8465 8.0175C48.7637 9.70811 44.4075 11.8326 44.4075 11.8326L44.5914 11.325Z" fill="#575E4C"/>
<path d="M33.2979 30.4334C33.2979 30.4334 39.8921 34.0377 40.8778 30.8939C41.8636 27.7501 38.2203 27.527 36.4472 28.1247C35.3582 28.4989 34.3531 29.0793 33.488 29.8337L33.2979 30.4334Z" fill="#575E4C"/>
<path d="M34.4178 50.4096L33.9053 50.0637C34.3413 49.4333 44.5974 34.5699 47.9431 30.9901L48.3978 31.3995C45.0831 34.9526 34.5252 50.2561 34.4178 50.4096Z" fill="#575E4C"/>
<path d="M50.363 28.1861L50.7763 20.781C50.7763 20.781 56.1823 23.3333 54.4093 27.3306C54.4093 27.3306 60.4022 28.3969 60.4022 32.5805L50.363 28.1861Z" fill="#D26C71"/>
<path d="M50.4582 26.344C50.4582 26.344 52.8781 26.4177 53.8577 27.8504C54.8372 29.2832 54.8455 30.1489 54.8455 30.1489L49.2659 30.4252L50.4582 26.344Z" fill="white"/>
<path d="M50.7765 20.781C50.7765 20.781 52.2231 27.0461 51.4523 29.4367C51.4523 29.4367 57.4452 27.9773 60.4065 32.5784C60.4065 32.5784 57.0298 36.6289 51.2849 35.6895C45.54 34.75 45.292 31.7413 44.9469 30.11C44.6018 28.4788 45.7053 22.5371 50.7765 20.781Z" fill="#F19192"/>
<path d="M9.45652 29.7396C9.45652 29.7396 9.7975 26.6838 9.11142 24.9891C8.42533 23.2944 7.82397 21.7573 7.82397 21.7573L8.65058 22.009V21.0368L9.316 21.5076L9.49992 20.5968L9.91322 21.1003L10.2935 20.5968C10.2935 20.5968 11.6346 22.6435 11.4858 25.073C11.4071 26.4964 11.066 27.8934 10.4794 29.1951L9.45652 29.7396Z" fill="#D26C71"/>
<path d="M9.08238 30.415C9.08238 30.415 8.20411 28.7244 6.87328 26.5896C5.54244 24.4549 5.06714 23.673 5.06714 23.673L5.82762 23.892L5.76356 22.8564L6.59016 23.1081L6.81128 22.3549C7.31806 23.0859 7.77243 23.8513 8.17105 24.6452C8.77447 25.8733 9.75607 29.32 9.82426 29.7805L9.08238 30.415Z" fill="#D26C71"/>
<path d="M9.23932 30.1817C9.23932 30.1817 6.62931 27.2078 5.84817 26.3502C5.06702 25.4926 3.90564 24.0988 3.90564 24.0988L3.80025 25.249L2.87032 25.0812L3.0191 25.73L2.13257 25.7095C2.13257 25.7095 3.33528 27.9466 4.11643 28.3028C4.89757 28.6589 8.53051 30.5194 8.53051 30.5194L9.23932 30.1817Z" fill="#D26C71"/>
<path d="M9.08235 30.415C9.08235 30.415 5.25722 30.0302 3.84166 28.6507C2.42609 27.2712 1.62428 26.7677 1.62428 26.7677L1.79374 27.6887L1.03326 27.6683L1.60362 28.399L0.42157 28.2107L0.97333 28.9229L0 28.9004C0.619088 29.7051 1.49923 30.274 2.49222 30.5112C4.18263 30.9308 8.55332 30.9922 8.55332 30.9922L9.08235 30.415Z" fill="#D26C71"/>
<path d="M10.8225 30.763L10.6282 28.8759C10.6282 28.8759 8.16908 30.5951 8.17114 30.9922H10.5166C10.5166 30.9922 14.0958 35.1348 15.0258 37.247C15.9557 39.3593 17.9086 44.2223 17.9086 44.2223L18.4149 44.5989C18.4149 44.5989 15.9908 38.078 14.9617 36.2544C13.7404 34.1135 10.8225 30.763 10.8225 30.763Z" fill="#575E4C"/>
<path d="M19.8178 34.9301C19.8178 34.9301 13.3537 31.1948 14.2423 29.7621C15.4388 27.8156 18.4126 31.4097 19.8178 34.9301Z" fill="#575E4C"/>
<path d="M21.5393 39.7911C21.5393 39.7911 16.7574 32.6582 16.0816 35.3251C15.6456 36.9994 21.5393 39.7911 21.5393 39.7911Z" fill="#575E4C"/>
<path d="M21.5392 39.7911C21.5392 39.7911 19.7558 32.9345 21.3057 32.6439C24.3249 32.0667 21.5392 39.7911 21.5392 39.7911Z" fill="#575E4C"/>
<path d="M21.8949 46.1565C21.8949 46.0623 21.2418 36.7108 18.512 33.9722L18.9542 33.5424C21.8473 36.4427 22.4879 45.7226 22.5127 46.1156L21.8949 46.1565Z" fill="#575E4C"/>
<path d="M21.6922 42.4069C21.6922 42.4069 18.0655 38.5774 17.8588 39.9508C17.6522 41.3241 21.9299 43.5203 21.9299 43.5203L21.6922 42.4069Z" fill="#575E4C"/>
<path d="M21.9009 42.4028C21.9009 42.4028 22.7544 37.9286 24.0604 39.0645C25.3664 40.2005 21.9567 43.2256 21.9567 43.2256L21.9009 42.4028Z" fill="#575E4C"/>
<path d="M24.8291 21.6795C24.8291 21.6795 27.0568 19.2746 27.6044 19.8374C28.1521 20.4003 26.4389 22.1236 24.8291 21.6795Z" fill="#575E4C"/>
<path d="M27.0424 16.4276C27.0424 16.4276 25.8954 13.7791 26.9142 13.1835C27.933 12.5879 27.7099 15.5229 27.7099 15.5229L27.0424 16.4276Z" fill="#575E4C"/>
<path d="M6.05713 36.4734V64H50.5513V37.159L29.3468 48.1889L6.05713 36.4734Z" fill="#384895"/>
<path d="M6.05713 64V63.5763L29.3468 48.1889L50.5513 63.564V64L29.3406 48.6474L6.05713 64Z" fill="white"/>
</svg>
