<svg preserveAspectRatio="none" width="100%" height="100%" overflow="visible" style="display: block;" viewBox="0 0 165 16" fill="none" xmlns="http://www.w3.org/2000/svg">
<g id="Group 3">
<path id="svg_1" d="M7.90324 15.7859H4.44077V2.98663H0V0.243155H12.3367V2.98663H7.90324V15.7859Z" fill="var(--fill-0, #384895)"/>
<path id="svg_2" d="M24.2741 15.7859H14.8576V0.243155H24.2741V2.94308H18.3237V6.35428H23.86V9.05784H18.3237V13.0497H24.2741V15.7859Z" fill="var(--fill-0, #384895)"/>
<path id="svg_3" d="M31.1476 6.20549H32.5106C34.643 6.20549 36.2906 6.61678 37.4533 7.43934C38.017 7.8281 38.4725 8.3516 38.7774 8.96127C39.0823 9.57094 39.2267 10.247 39.1974 10.9267C39.1974 14.1662 36.9465 15.7859 32.4446 15.7859H27.6814V0.243155H38.0139V2.96486H31.1476V6.20549ZM31.1476 13.1005H32.3091C33.4815 13.1005 34.3365 12.9215 34.8739 12.5634C35.1417 12.3877 35.3582 12.1453 35.5016 11.8606C35.645 11.5759 35.7103 11.2589 35.6909 10.9413C35.7139 10.6325 35.6483 10.3236 35.5018 10.0501C35.3554 9.7766 35.1339 9.54964 34.8629 9.39533C34.3133 9.07961 33.3643 8.92357 32.0233 8.92357H31.1402L31.1476 13.1005Z" fill="var(--fill-0, #384895)"/>
<path id="svg_4" d="M51.7099 15.7859H42.2934V0.243155H51.7099V2.94308H45.7595V6.35428H51.2958V9.05784H45.7595V13.0497H51.7099V15.7859Z" fill="var(--fill-0, #384895)"/>
<path id="svg_5" d="M74.0018 15.7859H70.5466V2.98663H64.5304V15.7859H61.0679V0.243155H74.0018V15.7859Z" fill="var(--fill-0, #384895)"/>
<path id="svg_6" d="M92.9629 7.99457C92.9629 10.5687 92.2924 12.5453 90.9514 13.9242C89.6104 15.3032 87.6868 15.9952 85.1806 16C82.6793 16 80.7569 15.3081 79.4135 13.9242C78.07 12.5404 77.3995 10.5566 77.4019 7.9728C77.4019 5.38658 78.0736 3.41001 79.4171 2.04311C80.7606 0.676208 82.6891 -0.00481298 85.2026 2.56013e-05C87.7161 2.56013e-05 89.6372 0.687101 90.966 2.06126C92.2948 3.43542 92.9605 5.41319 92.9629 7.99457ZM81.0329 7.99457C81.0329 9.7292 81.3798 11.0368 82.0735 11.9174C82.7672 12.7981 83.8029 13.2372 85.1806 13.2348C87.9457 13.2348 89.3282 11.488 89.3282 7.99457C89.3282 4.50111 87.953 2.75317 85.2026 2.75075C83.8249 2.75075 82.7855 3.19227 82.0845 4.07531C81.3835 4.95835 81.0329 6.26478 81.0329 7.99457Z" fill="var(--fill-0, #384895)"/>
<path id="svg_7" d="M96.3485 0.243155H101.438C103.753 0.243155 105.436 0.556451 106.487 1.18305C107.537 1.80964 108.06 2.8076 108.055 4.17692C108.09 4.99334 107.849 5.79804 107.37 6.46316C107.152 6.75528 106.878 7.00185 106.564 7.18869C106.249 7.37553 105.901 7.49895 105.538 7.55184V7.65707C106.412 7.7854 107.209 8.22391 107.78 8.89091C108.358 9.78798 108.584 10.8636 108.416 11.9146C108.248 12.9656 107.697 13.9193 106.868 14.5956C105.791 15.3891 104.325 15.7859 102.471 15.7859H96.3522L96.3485 0.243155ZM99.8147 6.41234H101.83C102.768 6.41234 103.448 6.27445 103.871 5.99865C104.087 5.84347 104.258 5.63551 104.368 5.3951C104.479 5.15468 104.525 4.89001 104.501 4.62691C104.52 4.37071 104.466 4.11432 104.344 3.88755C104.222 3.66078 104.038 3.47296 103.812 3.3459C103.131 3.04306 102.385 2.90976 101.639 2.9576H99.8074L99.8147 6.41234ZM99.8147 9.0288V13.0787H102.075C103.028 13.0787 103.731 12.9057 104.186 12.5598C104.421 12.3673 104.605 12.1218 104.725 11.844C104.844 11.5662 104.894 11.2641 104.871 10.963C104.871 9.67597 103.901 9.03122 101.962 9.0288H99.8147Z" fill="var(--fill-0, #384895)"/>
<path id="svg_8" d="M121.157 15.7859H111.734V0.243155H121.157V2.94308H115.2V6.35428H120.732V9.05784H115.2V13.0497H121.157V15.7859Z" fill="var(--fill-0, #384895)"/>
<path id="svg_9" d="M135.85 5.09142C135.85 6.76557 135.3 8.04415 134.201 8.92719C133.102 9.81024 131.539 10.2542 129.511 10.259H128.024V15.7859H124.557V0.243155H129.779C131.762 0.243155 133.269 0.648388 134.3 1.45885C135.331 2.26931 135.847 3.48017 135.85 5.09142ZM128.024 7.55909H129.163C130.229 7.55909 131.028 7.35587 131.556 6.95669C131.821 6.7508 132.033 6.48401 132.171 6.1793C132.31 5.87459 132.371 5.54109 132.351 5.20754C132.377 4.89076 132.33 4.57227 132.215 4.27574C132.099 3.9792 131.918 3.71224 131.684 3.49468C131.239 3.12936 130.544 2.9455 129.599 2.94308H128.024V7.55909Z" fill="var(--fill-0, #384895)"/>
<path id="svg_10" d="M144.435 9.82354L140.613 15.7859H136.766L141.416 8.94897C140.55 8.64103 139.806 8.06612 139.294 7.30869C138.791 6.52623 138.536 5.6124 138.561 4.68497C138.53 4.04889 138.659 3.41511 138.938 2.84102C139.216 2.26693 139.634 1.77065 140.155 1.39715C141.218 0.627819 142.744 0.243155 144.735 0.243155H150.055V15.7859H146.589V9.82354H144.435ZM146.582 2.92856H144.871C144.149 2.88816 143.43 3.04642 142.793 3.38581C142.545 3.55131 142.346 3.77964 142.217 4.04705C142.089 4.31445 142.034 4.61117 142.06 4.90634C142.048 5.21494 142.107 5.52225 142.234 5.80428C142.362 6.08631 142.553 6.33541 142.793 6.53211C143.27 6.93129 143.999 7.12725 144.992 7.12725H146.611L146.582 2.92856Z" fill="var(--fill-0, #384895)"/>
<path id="svg_11" d="M160.468 15.7859H157.002V2.98663H152.565V0.243155H164.905V2.98663H160.468V15.7859Z" fill="var(--fill-0, #384895)"/>
<path id="svg_12" d="M85.1403 9.76186C87.4999 9.76186 87.5036 6.13293 85.1403 6.13293C82.777 6.13293 82.7807 9.76186 85.1403 9.76186Z" fill="var(--fill-0, #384895)"/>
</g>
</svg>
