<svg preserveAspectRatio="none" width="100%" height="100%" overflow="visible" style="display: block;" viewBox="0 0 637 447" fill="none" xmlns="http://www.w3.org/2000/svg">
<path id="Vector" d="M196.044 120.166C196.044 120.166 185.665 132.042 184.184 131.264C182.702 130.485 188.668 117.245 188.668 117.245C188.668 117.245 175.712 107.118 176.47 106.703C178.499 105.588 192.066 112.259 192.066 112.259C192.066 112.259 201.019 97.864 203.039 98.6659C205.445 99.6155 199.891 115.395 199.891 115.395C199.891 115.395 211.642 122.334 211.721 123.154C211.8 123.974 196.044 120.166 196.044 120.166ZM620.766 434.886C620.766 434.886 610.427 446.776 608.907 445.992C607.386 445.207 613.391 431.972 613.391 431.972C613.391 431.972 600.436 421.846 601.197 421.427C603.217 420.311 616.789 426.987 616.789 426.987C616.789 426.987 625.743 412.592 627.763 413.394C630.173 414.34 624.613 430.115 624.613 430.115C624.613 430.115 636.364 437.054 636.439 437.877C636.514 438.7 620.766 434.886 620.766 434.886ZM361.541 15.6387C361.541 15.6387 356.437 22.0665 355.113 20.9485C353.789 19.8305 356.542 12.4647 356.542 12.4647C356.542 12.4647 351.397 11.962 349.675 11.507C347.952 11.052 354.21 8.07104 354.21 8.07104C354.21 8.07104 345.648 1.27808 345.586 0.787846C345.525 0.29761 356.602 6.73476 356.602 6.73476C356.602 6.73476 354.951 2.48498 355.78 1.85673C356.61 1.22848 360.724 6.03179 360.724 6.03179C360.724 6.03179 364.276 -0.425938 365.334 0.0222996C366.392 0.470537 365.148 8.08345 365.148 8.08345C365.148 8.08345 371.638 6.81879 372.534 7.57495C373.429 8.3311 366.177 11.3698 366.177 11.3698C366.177 11.3698 378.588 16.6812 378.245 18.0147C377.902 19.3481 364.982 14.7918 364.982 14.7918C364.982 14.7918 370.21 21.9462 369.335 22.3099C368.358 22.6975 361.541 15.6387 361.541 15.6387ZM15.9505 87.6533C15.9505 87.6533 10.8505 94.0778 9.53217 92.9645C8.21387 91.8511 10.9516 84.4793 10.9516 84.4793C10.9516 84.4793 5.80701 83.9766 4.08432 83.5216C2.36163 83.0666 8.62408 80.0824 8.62408 80.0824C8.62408 80.0824 0.0629676 73.2974 0.000265281 72.7993C-0.062437 72.3011 11.0111 78.7493 11.0111 78.7493C11.0111 78.7493 9.36055 74.4996 10.1898 73.8713C11.0191 73.2431 15.1335 78.0464 15.1335 78.0464C15.1335 78.0464 18.6859 71.5886 19.7492 72.0415C20.8125 72.4944 19.5631 80.1027 19.5631 80.1027C19.5631 80.1027 26.0478 78.8334 26.9432 79.5895C27.8385 80.3457 20.5919 83.3891 20.5919 83.3891C20.5919 83.3891 33.0023 88.6926 32.655 90.0293C32.3078 91.366 19.3917 86.8064 19.3917 86.8064C19.3917 86.8064 24.6247 93.9654 23.7497 94.3291C22.7404 94.6889 15.9505 87.6533 15.9505 87.6533Z" fill="var(--fill-0, white)"/>
</svg>
