<svg preserveAspectRatio="none" width="100%" height="100%" overflow="visible" style="display: block;" viewBox="0 0 216 488" fill="none" xmlns="http://www.w3.org/2000/svg">
<g id="Vector">
<path d="M183.495 440.782C182.527 440.791 180.929 459.779 180.929 459.779C180.929 459.779 171.936 464.7 172.245 465.56C172.554 466.42 180.451 467.186 180.451 467.186C180.451 467.186 182.416 487.647 183.904 487.289C185.134 486.991 185.268 466.079 185.268 466.079C185.268 466.079 194.017 465.509 194.688 463.116C194.938 462.222 185.467 458.663 185.467 458.663C185.467 458.663 184.463 440.774 183.495 440.782Z" fill="var(--fill-0, white)"/>
<path d="M196.035 48.0501C194.833 48.6121 197.371 73.0919 197.371 73.0919C197.371 73.0919 187.391 84.3653 187.98 85.2679C188.57 86.1704 198.56 82.6198 198.56 82.6198C198.56 82.6198 205.88 106.895 207.63 105.61C209.088 104.537 204.276 78.4902 204.276 78.4902C204.276 78.4902 214.996 72.8194 215.258 69.4646C215.363 68.2044 202.754 69.1751 202.754 69.1751C202.754 69.1751 197.236 47.4882 196.035 48.0501Z" fill="var(--fill-0, white)"/>
<path d="M12.7994 0.00167625C11.907 -0.194162 8.57094 16.8352 8.57094 16.8352C8.57094 16.8352 -0.189343 19.8239 0.00312565 20.6583C0.195594 21.4928 7.40446 23.5278 7.40446 23.5278C7.40446 23.5278 7.20611 42.456 8.61171 42.3879C9.77818 42.3197 11.9537 23.332 11.9537 23.332C11.9537 23.332 20.0665 24.2941 20.918 22.2421C21.2388 21.4672 12.8577 16.6224 12.8577 16.6224C12.8577 16.6224 13.6917 0.197514 12.7994 0.00167625Z" fill="var(--fill-0, white)"/>
<path d="M124.028 176.179C121.83 176.179 124.489 197.032 124.489 197.032C124.489 197.032 111.845 194.503 111.518 196.845C111.209 198.948 122.722 204.303 122.722 204.303C122.722 204.303 107.879 216.641 108.981 219.8C110.083 222.959 125.312 212.912 125.312 212.912C125.312 212.912 122.78 230.708 124.256 230.708C125.732 230.708 129.505 217.603 129.505 217.603C129.505 217.603 136.44 234.437 137.74 233.577C139.041 232.717 135.139 214.351 135.139 214.351C135.139 214.351 143.304 216.939 143.304 214.351C143.304 211.762 137.612 206.219 137.612 206.219C137.612 206.219 152.957 200.565 152.403 199.714C151.849 198.863 138.108 199.714 138.108 199.714C138.108 199.714 139.968 183.638 138.108 185.588C136.247 187.538 131.692 194.997 131.692 194.997C131.692 194.997 126.227 176.179 124.028 176.179Z" fill="var(--fill-0, white)"/>
</g>
</svg>
