<svg preserveAspectRatio="none" width="100%" height="100%" overflow="visible" style="display: block;" viewBox="0 0 319 149" fill="none" xmlns="http://www.w3.org/2000/svg">
<path id="Vector" d="M244.6 49.0729C244.6 49.0729 243.094 41.2999 243.807 41.1219C244.521 40.944 247.796 47.8273 247.796 47.8273C247.796 47.8273 255.284 47.5204 255.225 47.9175C255.066 48.9827 248.702 50.7854 248.702 50.7854C248.702 50.7854 251.56 59.0536 250.684 59.394C249.643 59.8015 245.298 52.0929 245.298 52.0929C245.298 52.0929 239.349 53.2173 239.019 52.9337C238.689 52.65 244.6 49.0729 244.6 49.0729ZM5.59483 65.6326C5.59483 65.6326 4.07141 57.8673 4.79842 57.679C5.52544 57.4907 8.78709 64.3844 8.78709 64.3844C8.78709 64.3844 16.2753 64.0774 16.2158 64.4772C16.0605 65.5397 9.69254 67.3424 9.69254 67.3424C9.69254 67.3424 12.551 75.6107 11.6753 75.9511C10.6344 76.3612 6.29211 68.6526 6.29211 68.6526C6.29211 68.6526 0.343816 69.777 0.013355 69.4907C-0.317106 69.2045 5.59483 65.6326 5.59483 65.6326ZM236.772 141.068C236.772 141.068 235.81 137.024 236.607 137.024C237.403 137.024 239.386 140.673 239.386 140.673C239.386 140.673 241.038 139.226 241.699 138.85C242.36 138.473 241.699 141.586 241.699 141.586C241.699 141.586 246.686 141.421 246.887 141.586C247.089 141.751 241.521 142.85 241.521 142.85C241.521 142.85 243.586 143.925 243.586 144.426C243.586 144.926 240.612 144.426 240.612 144.426C240.612 144.426 242.026 147.987 241.557 148.155C241.088 148.323 238.583 145.06 238.583 145.06C238.583 145.06 237.211 147.6 236.673 147.6C236.134 147.6 237.056 144.15 237.056 144.15C237.056 144.15 231.531 146.097 231.128 145.486C230.724 144.874 236.111 142.481 236.111 142.481C236.111 142.481 231.937 141.45 232.05 141.034C232.182 140.578 236.772 141.068 236.772 141.068ZM308.042 4.04127C308.042 4.04127 307.081 0 307.874 0C308.667 0 310.656 3.64668 310.656 3.64668C310.656 3.64668 312.309 2.19988 312.969 1.82334C313.63 1.44681 312.969 4.56222 312.969 4.56222C312.969 4.56222 317.953 4.39459 318.158 4.56222C318.363 4.72986 312.791 5.82335 312.791 5.82335C312.791 5.82335 314.856 6.89878 314.856 7.3991C314.856 7.89943 311.882 7.3991 311.882 7.3991C311.882 7.3991 313.297 10.9607 312.824 11.1283C312.352 11.2959 309.85 8.03353 309.85 8.03353C309.85 8.03353 308.482 10.5738 307.943 10.5738C307.405 10.5738 308.323 7.12315 308.323 7.12315C308.323 7.12315 302.801 9.07287 302.398 8.45907C301.995 7.84527 307.381 5.45455 307.381 5.45455C307.381 5.45455 303.204 4.42296 303.317 4.00774C303.469 3.55126 308.042 4.04127 308.042 4.04127Z" fill="var(--fill-0, white)"/>
</svg>
