<svg preserveAspectRatio="none" width="100%" height="100%" overflow="visible" style="display: block;" viewBox="0 0 69 39" fill="none" xmlns="http://www.w3.org/2000/svg">
<g id="a" clip-path="url(#clip0_0_21)">
<path id="Vector" d="M33.0904 2.77063V14.3512L33.0658 14.3268L32.8851 14.1237L29.0654 9.22594L24.5886 3.36131C19.2264 3.36131 15.6597 11.3051 15.6597 19.5301C15.6597 27.755 19.72 36.0141 24.3053 35.9369C24.3053 35.9369 26.1247 33.5766 27.3002 32.1222L33.0666 24.7203V36.2343C30.1078 37.8438 24.9739 38.9643 20.203 38.9643C7.50046 38.9643 0 31.0318 0 19.2912C0 7.02081 8.09107 0 20.5694 0C24.4983 0 30.0594 1.16188 33.0904 2.77063ZM68.3379 34.3866V36.8355C66.9399 38.35 64.8674 39 61.8486 39C58.0405 39 55.3347 37.3969 54.4977 35.2576C52.3349 37.5757 48.774 39 45.5745 39C39.965 39 37.122 36.2172 37.122 30.5078L37.1458 19.6129L34.2355 15.912L47.5328 11.6334V29.8821C47.5328 32.1344 48.5021 33.5107 50.7799 33.5107C51.9734 33.5107 53.0101 33.0883 53.9794 32.1945V19.5886L50.6 15.3335L64.3918 10.8339V32.4253C64.3918 34.0941 65.2954 34.7441 66.5538 34.7441C67.0056 34.7441 67.4763 34.6962 68.2229 34.411C68.2714 34.4338 68.2886 34.411 68.3379 34.3866Z" fill="var(--fill-0, #1C5358)"/>
</g>
<defs>
<clipPath id="clip0_0_21">
<rect width="69" height="39" fill="white"/>
</clipPath>
</defs>
</svg>
