<svg preserveAspectRatio="none" width="100%" height="100%" overflow="visible" style="display: block;" viewBox="0 0 95 27" fill="none" xmlns="http://www.w3.org/2000/svg">
<g id="Frame" clip-path="url(#clip0_0_15)">
<path id="Vector" d="M23.4505 0.509434V26.5755H16.6036V16.217H6.84685V26.5755H0V0.509434H6.84685V10.1887H16.6036V0.509434H23.4505ZM54.2613 13.5C54.2613 21.2264 49.6396 27 41.0811 27C32.6081 27 27.9009 21.2264 27.9009 13.5C27.9865 5.77358 32.6081 0 41.0811 0C49.6396 0 54.2613 5.77358 54.2613 13.5ZM47.2432 13.5C47.2432 9.08491 45.1892 5.9434 41.0811 5.9434C36.973 5.9434 34.9189 9.08491 34.9189 13.5C34.9189 17.9151 36.973 21.0566 41.0811 21.0566C45.1892 21.0566 47.2432 17.9151 47.2432 13.5ZM72.6622 0.509434H79.2523V10.2736H83.8739L87.8108 0.509434H94.6577L89.4369 13.3302L95 26.5755H88.1532L83.9595 16.3868H79.3378V26.5755H72.7477V16.3868H68.1261L63.9324 26.5755H57.0856L62.6486 13.3302L57.3423 0.509434H64.1892L68.1261 10.2736H72.6622V0.509434Z" fill="var(--fill-0, #1C5358)"/>
</g>
<defs>
<clipPath id="clip0_0_15">
<rect width="95" height="27" fill="white"/>
</clipPath>
</defs>
</svg>
