<svg preserveAspectRatio="none" width="100%" height="100%" overflow="visible" style="display: block;" viewBox="0 0 147 32" fill="none" xmlns="http://www.w3.org/2000/svg">
<g id="download 1">
<path id="Vector" fill-rule="evenodd" clip-rule="evenodd" d="M43.7845 1.33333L38.5951 4.33229V5.96912H45.336V1.33333H43.7845ZM138.969 7.56599C137.42 7.56599 135.556 7.72423 134.489 7.81485C134.061 7.85121 133.76 7.87668 133.66 7.87668V27.2776H137.961V20.656C138.589 20.7599 139.224 20.8117 139.86 20.8115C143.811 20.8115 146.833 18.202 146.833 14.2281C146.833 9.70939 143.503 7.56599 138.969 7.56599ZM139.357 17.1907C138.883 17.2017 138.409 17.1255 137.963 16.9656V11.4652C138.187 11.4269 138.932 11.4269 139.357 11.4269C141.256 11.4269 142.535 12.3613 142.535 14.3088C142.535 16.1799 141.217 17.1907 139.357 17.1907ZM128.863 20.4715H124.717V23.3848H130.061V27.2799H120.492V7.80013H129.754V11.6907H124.717V16.7227H128.863V20.4715ZM109.066 17.3464V7.80013H104.843V27.2799H109.066V20.9757H109.84L114.799 27.2799H116.59V22.7612C116.251 22.2969 115.87 21.7832 115.484 21.2644L115.483 21.2625L115.481 21.2607L115.48 21.2585C114.897 20.4733 114.305 19.6767 113.839 19.0215C114.345 17.5445 115.032 15.3988 115.464 13.9173L117.284 7.80013H112.861L109.995 17.3441L109.066 17.3464ZM54.7563 17.5404C54.7563 20.6588 57.2749 22.0997 58.8241 22.0997V12.9835C57.2704 12.9835 54.7563 14.4221 54.7563 17.5404ZM43.2813 27.2821V21.7885L42.594 21.7863L38.0225 27.2799H35.7367V7.80013H39.9904V10.7631C39.9904 12.7823 39.874 16.2055 39.7933 18.5783L39.7665 19.3727H40.4627L43.2813 15.6803V7.80013H47.5349V27.2821H43.2813ZM2.9181 15.2432C2.9181 19.1383 2.40542 22.9951 0.166664 23.8123V27.982C5.39641 27.4372 7.024 22.8396 7.024 15.9817V11.2401H9.81349V27.2908H14.0672V7.79981H2.9181V15.2432ZM67.0299 17.5511C67.0299 14.4328 64.5113 12.9919 62.962 12.9919V22.0991C64.5113 22.0991 67.0299 20.6695 67.0299 17.5511ZM62.9633 25.5001C67.6111 25.5001 71.3319 22.2265 71.3319 17.5524C71.3319 12.8784 67.6133 9.60473 62.9633 9.60473V6.94573H58.8217V9.59347C54.174 9.59347 50.4532 12.8671 50.4532 17.5412C50.4532 22.2152 54.1717 25.4889 58.8217 25.4889V27.8259H62.9633V25.5001ZM75.3889 7.79981C76.2509 9.36009 77.4039 11.4652 78.1875 13.0322L79.0023 13.021C79.7037 11.6102 80.7228 9.75071 81.5424 8.25512L81.7919 7.79981H83.65V13.1381L81.2097 17.1907L83.9925 21.9053V27.2819H82.1321L78.9979 21.3604H78.1852L75.0509 27.2819H73.1905V21.9053L75.9688 17.1907L73.5285 13.1381V7.79981H75.3889ZM97.3304 7.80013H90.7036L85.512 27.2799H89.8507L90.7036 23.8487H97.3304L98.1833 27.2776H102.522L97.3304 7.80013ZM91.6321 20.2667H96.3963L94.3836 12.0466H93.6091L91.6321 20.2667ZM28.2139 7.79981H21.5893L16.3976 27.2796H20.7364L21.5893 23.8483H28.2139L29.0668 27.2773H33.4055L28.2139 7.79981ZM22.5167 20.2667H27.2829L25.2681 12.0466H24.4935L22.5167 20.2667Z" fill="var(--fill-0, #1C5358)"/>
</g>
</svg>
