<svg preserveAspectRatio="none" width="100%" height="100%" overflow="visible" style="display: block;" viewBox="0 0 145 33" fill="none" xmlns="http://www.w3.org/2000/svg">
<g id="a" clip-path="url(#clip0_0_91)">
<path id="Vector" d="M0 0H25.7566V1.17259L22.4458 1.81472V22.8655L25.7566 23.5076V24.6523H15.7682V23.5076L19.0789 22.8655V1.95431H6.73375V22.8655L10.0445 23.5076V24.6523H0V23.5076L3.31076 22.8655V1.81472L0 1.17259V0ZM44.1341 15.2995C44.1341 20.9949 40.8795 25.0431 35.5205 25.0431C34.3421 25.0431 33.1637 24.6802 31.9292 23.9822V31.5203L33.8932 31.967V33H27.1033V31.967L28.8148 31.5203V10.0508L26.2616 9.38071V8.37563C26.43 8.37563 26.6544 8.40355 27.0472 8.40355C28.422 8.40355 29.9371 8.1802 31.4803 7.59391L31.0875 11.7259L31.1997 11.7538C32.7428 8.7665 35.0435 7.4264 37.7651 7.4264C41.5809 7.4264 44.1341 10.5812 44.1341 15.2995ZM41.0478 15.7462C41.0478 12.1726 39.3924 9.71574 36.5306 9.71574C35.0716 9.71574 33.332 10.2462 31.9292 12.0888V22.3071C33.2198 22.8376 34.1457 23.033 35.1838 23.033C39.0838 23.0609 41.0478 19.5431 41.0478 15.7462ZM59.257 24.9594C57.5455 24.9594 56.7879 24.0939 56.7879 22.5025C56.7879 22.1675 56.7879 21.5533 56.9282 20.6878C55.8059 22.7259 53.5613 24.9315 50.0822 24.9315C47.6974 24.9315 45.8456 23.368 45.8456 20.7157C45.8456 17.4772 49.1844 15.2437 56.3951 15.2437C56.4232 14.3503 56.4512 13.736 56.4512 12.4239C56.4512 10.4695 54.7117 9.60406 52.5793 9.60406C49.9981 9.60406 48.4269 11.1117 47.3326 12.4797C46.7715 12.1447 46.547 11.4746 46.547 10.7766C46.547 8.59898 49.5772 7.39848 53.3088 7.39848C57.8822 7.39848 59.5095 9.68782 59.5095 13.5406C59.5095 15.1878 59.2289 19.4594 59.2289 21.0508C59.2289 22.4467 59.8742 23.1726 60.8562 23.1726C61.221 23.1726 61.9224 23.033 62.203 22.8096C61.8944 23.9543 60.8001 24.9594 59.257 24.9594ZM56.1146 19.6548L56.339 16.7792C50.2225 16.835 48.7074 18.901 48.7074 20.6878C48.7074 22.0838 49.6053 23.1447 51.2326 23.1447C52.6635 23.1447 54.5153 22 56.1146 19.6548ZM65.8224 9.35279L63.185 8.90609V7.8731H72.3036C75.6144 7.8731 77.9712 9.18528 77.9712 12.0609C77.9712 13.9315 76.6525 15.2995 74.2115 15.7741C76.8489 16.165 78.9532 17.6726 78.9532 20.1294C78.9532 23.2005 76.2316 24.6244 72.6683 24.6244H63.213V23.6193L65.8504 23.1726V9.35279H65.8224ZM71.9108 15.132C73.8748 15.132 75.2496 14.099 75.2496 12.0888C75.2496 9.96701 73.7626 9.43655 71.9108 9.43655H68.9087V15.132H71.9108ZM68.9087 23.0609H72.1633C74.4079 23.0609 76.0072 22.0279 76.0072 19.8223C76.0072 17.7843 74.5201 16.7513 72.3597 16.7513H68.8806V23.0609H68.9087ZM86.4445 7.8731C88.6891 12.6751 90.5128 16.8909 91.9718 21.1624L97.6393 7.8731H104.092V8.90609L101.455 9.35279V23.1726L104.092 23.6193V24.6244H95.7314V23.6193L98.3688 23.1726V16.9746C98.3688 14.5178 98.3969 12.1726 98.5091 9.74366H98.3688L91.7192 25.1269H91.0459L86.9776 15.9137C86.1078 13.9036 85.4064 11.8376 84.5085 9.74366H84.3682V23.1726L87.0056 23.6193V24.6244H80.0755V23.6193L82.7128 23.1726V9.35279L80.0755 8.90609V7.8731H86.4445ZM126.258 8.90609L123.592 9.35279V23.1447L126.258 23.6193V24.6244H117.869V23.6193L120.534 23.1447V11.1954L111.387 24.6244H105.804V23.6193L108.441 23.1447V9.35279L105.804 8.90609V7.8731H114.165V8.90609L111.528 9.35279V21.3858L120.674 7.8731H126.258V8.90609ZM145 15.2995C145 20.9949 141.745 25.0431 136.386 25.0431C135.208 25.0431 134.03 24.6802 132.795 23.9822V31.5203L135.601 31.967V33H127.099V31.967L129.653 31.5203V10.0508L127.099 9.38071V8.37563C127.268 8.37563 127.492 8.40355 127.885 8.40355C129.26 8.40355 130.775 8.1802 132.318 7.59391L131.925 11.7259L132.038 11.7538C133.581 8.7665 135.881 7.4264 138.603 7.4264C142.419 7.4264 145 10.5812 145 15.2995ZM141.886 15.7462C141.886 12.1726 140.23 9.71574 137.368 9.71574C135.909 9.71574 134.17 10.2462 132.767 12.0888V22.3071C134.058 22.8376 134.984 23.033 136.022 23.033C139.95 23.0609 141.886 19.5431 141.886 15.7462Z" fill="var(--fill-0, #1C5358)"/>
</g>
<defs>
<clipPath id="clip0_0_91">
<rect width="145" height="33" fill="white"/>
</clipPath>
</defs>
</svg>
