<svg preserveAspectRatio="none" width="100%" height="100%" overflow="visible" style="display: block;" viewBox="0 0 140 47" fill="none" xmlns="http://www.w3.org/2000/svg">
<g id="Frame">
<path id="Vector" d="M83.8587 33.3195V38.3595H85.2118V34.674H97.4817V38.3595H98.8361V33.3195H96.6729V11.0107H87.5456C87.5456 20.5099 87.2415 26.1567 85.8552 33.3215H83.86L83.8587 33.3195ZM55.481 34.674H58.186V11.0107H55.4817V13.0397L49.5313 28.8968V11.0094H46.8271V34.674H49.5313V32.6462L55.4817 16.7904V34.6746L55.481 34.674ZM40.6072 34.674H43.4462L38.9506 20.9474L42.0957 11.0094H40.7087L37.5311 20.9481H33.9126V11.0107H31.207V34.674H33.9132V22.3019H36.5491L40.6072 34.674ZM87.2057 33.3195C88.3543 26.526 88.8284 21.0503 88.8974 12.3612H93.9654V33.3195H87.2057ZM135.782 34.674H138.589L133.419 11.0107H130.613L131.186 13.7495L126.724 34.6759H128.111L129.798 26.7988H134.061L135.782 34.6766V34.674ZM25.3621 34.674H28.1687L22.9926 11.0107H20.188L20.7623 13.7495L16.2999 34.6759H17.6869L19.3786 26.7988H23.6359L25.3615 34.6766L25.3621 34.674ZM121.314 34.674H124.022V11.0107H114.926V12.3625C114.894 17.6044 114.657 24.1616 114.182 27.4721C113.879 29.4686 113.134 31.0587 111.882 31.0587V34.6759C114.219 34.6759 114.892 31.5308 115.298 28.6592C115.908 24.2625 116.21 17.605 116.279 12.3638H121.314V34.674H121.314ZM104.108 12.3625H110.194V11.0094H101.406V34.674H110.194V33.3195H104.107V20.6114H108.838V19.2596H104.107V12.3619L104.108 12.3625ZM65.6242 12.3625H71.706V11.0094H62.9193V34.674H71.7073V33.3195H65.6255V20.6114H70.3568V19.2596H65.6261V12.3619L65.6242 12.3625ZM2.98232 12.3625H8.39088V34.6759H11.0945V12.3619H16.5031V11.0094H2.98232V12.3625ZM21.4727 16.2845L23.3338 25.4444H19.6482L21.4727 16.2845ZM131.897 16.2845L133.755 25.4444H130.069L131.897 16.2845Z" fill="var(--fill-0, #1C5358)"/>
</g>
</svg>
