<svg preserveAspectRatio="none" width="100%" height="100%" overflow="visible" style="display: block;" viewBox="0 0 150 21" fill="none" xmlns="http://www.w3.org/2000/svg">
<g id="logo-novochag-full_7dc40fc 1" clip-path="url(#clip0_0_275)">
<path id="Vector" d="M138.662 6.584V17.4809H140.525C141.554 17.4809 142.389 15.8756 142.389 13.8956C142.389 13.7826 142.389 13.6711 142.38 13.5597H142.389V5.66443H149.765V3.80674H140.518C139.494 3.80364 138.662 5.0483 138.662 6.584ZM110.551 3.79745H106.861V8.54077C106.851 9.18041 106.981 9.81458 107.243 10.3985C107.513 10.9697 107.933 11.4576 108.458 11.8103C109.109 12.2369 109.834 12.5408 110.595 12.7067C111.622 12.9349 112.672 13.0415 113.724 13.024H117.163V17.498H120.859V3.78971H117.163V11.171H113.731C112.605 11.171 111.795 10.947 111.302 10.4991C110.808 10.0512 110.561 9.39583 110.562 8.53303L110.551 3.79745ZM10.5982 17.4933H14.2945V3.78351H10.5982V9.58263H3.47903V3.78351H-0.226562V17.4933H3.47903V11.4295H10.606L10.5982 17.4933ZM102.372 10.6431C102.39 11.5239 102.279 12.4028 102.042 13.2516C101.865 13.8884 101.564 14.4843 101.157 15.0056C100.812 15.4357 100.368 15.7758 99.8618 15.9963C99.3601 16.2058 98.8216 16.3137 98.2776 16.3137C97.7337 16.3137 97.1952 16.2058 96.6935 15.9963C96.1887 15.7759 95.7448 15.4371 95.3998 15.0087C94.993 14.487 94.6923 13.8912 94.5146 13.2547C94.2738 12.4054 94.1603 11.5254 94.1776 10.6431C94.1585 9.76157 94.27 8.88209 94.5084 8.033C94.6844 7.3963 94.9853 6.80069 95.3936 6.28057C95.7384 5.85159 96.1823 5.51219 96.6873 5.29135C97.189 5.08186 97.7275 4.97398 98.2714 4.97398C98.8154 4.97398 99.3539 5.08186 99.8556 5.29135C100.361 5.51261 100.805 5.85192 101.151 6.28057C101.558 6.80145 101.859 7.39681 102.036 8.033C102.274 8.8822 102.387 9.76143 102.372 10.6431ZM105.737 13.8058C106.151 12.8034 106.353 11.7268 106.332 10.6431C106.35 9.56307 106.148 8.49063 105.737 7.49117C105.367 6.60429 104.803 5.81096 104.086 5.16905C103.345 4.5247 102.477 4.04031 101.539 3.74636C99.41 3.09618 97.1344 3.09618 95.0054 3.74636C94.0706 4.04184 93.2071 4.52673 92.4692 5.1706C91.7524 5.8125 91.1884 6.60584 90.8183 7.49272C90.4074 8.49218 90.205 9.56462 90.2235 10.6446C90.2023 11.7283 90.4048 12.8049 90.8183 13.8074C91.1905 14.6886 91.7544 15.4764 92.4692 16.114C93.2067 16.7568 94.0689 17.2416 95.0023 17.5382C97.1316 18.1866 99.4066 18.1866 101.536 17.5382C102.475 17.2439 103.342 16.7589 104.083 16.114C104.799 15.4763 105.364 14.6879 105.737 13.8058ZM27.3619 10.6369C27.3806 11.5183 27.2697 12.3976 27.0327 13.2469C26.8547 13.8829 26.554 14.4781 26.1475 14.9994C25.8022 15.4285 25.3578 15.768 24.8522 15.9886C24.3508 16.1971 23.8129 16.3044 23.2696 16.3044C22.7264 16.3044 22.1885 16.1971 21.6871 15.9886C21.1815 15.768 20.7371 15.4285 20.3918 14.9994C19.9846 14.4788 19.6844 13.8833 19.5081 13.2469C19.2713 12.3976 19.1604 11.5182 19.1789 10.6369C19.1601 9.756 19.271 8.87713 19.5081 8.02836C19.6847 7.39167 19.9849 6.79574 20.3918 6.27438C20.7371 5.8452 21.1815 5.50578 21.6871 5.28515C22.1885 5.07668 22.7264 4.96935 23.2696 4.96935C23.8129 4.96935 24.3508 5.07668 24.8522 5.28515C25.3596 5.50557 25.8061 5.84494 26.1537 6.27438C26.5605 6.796 26.8612 7.39181 27.0389 8.02836C27.274 8.87745 27.3828 9.7563 27.3619 10.6369ZM30.729 13.8012C31.1427 12.7982 31.3451 11.7211 31.3238 10.6369C31.3444 9.55571 31.1419 8.48185 30.729 7.48188C30.3603 6.59464 29.7967 5.80113 29.0796 5.15976C28.3381 4.51434 27.4703 4.02936 26.5311 3.73552C24.4022 3.08745 22.1278 3.08745 19.9989 3.73552C19.0645 4.03087 18.2015 4.51578 17.4643 5.15976C16.7472 5.80146 16.1832 6.59485 15.8134 7.48188C15.4026 8.48084 15.2002 9.55275 15.2186 10.6322C15.1965 11.7165 15.399 12.7937 15.8134 13.7965C16.1864 14.6778 16.7501 15.4659 17.4643 16.1047C18.202 16.7477 19.0649 17.232 19.9989 17.5274C22.1274 18.1776 24.4025 18.1776 26.5311 17.5274C27.4701 17.2338 28.3379 16.7494 29.0796 16.1047C29.7924 15.4669 30.3555 14.6804 30.729 13.8012ZM126.264 13.1494C126.264 11.4785 127.276 10.6436 129.302 10.6446H133.004V15.6527H129.302C127.276 15.6527 126.264 14.8182 126.264 13.1494ZM124.007 9.87831C122.868 10.6008 122.299 11.6901 122.299 13.1463C122.299 14.6025 122.868 15.6924 124.007 16.4159C125.146 17.1383 126.911 17.4995 129.302 17.4995H136.694V8.79466C136.703 8.01918 136.544 7.25091 136.228 6.5422C135.916 5.86108 135.45 5.26088 134.868 4.78822C134.219 4.2708 133.474 3.88574 132.676 3.65502C131.707 3.37732 130.702 3.24428 129.694 3.26026C129.239 3.26297 128.784 3.29815 128.334 3.36553C127.84 3.43912 127.351 3.54251 126.869 3.67515C126.38 3.8057 125.9 3.96808 125.431 4.16125C124.982 4.34637 124.553 4.57613 124.15 4.84705L125.082 6.42764C126.371 5.572 127.883 5.11182 129.432 5.10403C130.488 5.10403 131.346 5.40229 132.005 5.99882C132.665 6.59535 132.995 7.5242 132.996 8.78537H129.306C126.905 8.79466 125.139 9.15897 124.007 9.87831ZM42.2791 13.5364C42.2846 13.8194 42.2285 14.1003 42.1146 14.3595C42.0006 14.6188 41.8315 14.8503 41.619 15.0381C41.1795 15.4421 40.5629 15.6465 39.7709 15.6465H35.677V11.4279H39.7709C40.5629 11.4279 41.179 11.6302 41.619 12.0348C41.8311 12.2229 41.9999 12.4544 42.1138 12.7136C42.2278 12.9728 42.2841 13.2535 42.2791 13.5364ZM41.487 7.60728C41.4846 7.87194 41.4243 8.1329 41.3103 8.37194C41.1963 8.61097 41.0314 8.82233 40.827 8.99126C40.3869 9.38654 39.7709 9.58418 38.9788 9.58418H35.6801V5.62418H38.9788C39.7709 5.62418 40.3874 5.82079 40.827 6.21865C41.0328 6.38737 41.1987 6.59934 41.3128 6.83939C41.4269 7.07944 41.4864 7.34165 41.487 7.60728ZM45.2765 11.4403C44.6335 10.8335 43.6789 10.4341 42.4126 10.2421C43.4687 10.1028 44.239 9.79317 44.7236 9.31327C44.9564 9.09286 45.1411 8.82686 45.2659 8.53195C45.3907 8.23704 45.453 7.91959 45.4488 7.59954C45.4498 7.07891 45.3184 6.56655 45.0668 6.11028C44.7826 5.61563 44.379 5.19952 43.8927 4.89968C43.2732 4.51847 42.5947 4.24226 41.8846 4.08229C40.9331 3.86283 39.9585 3.75887 38.9819 3.77268H31.9854V17.4825H39.7724C40.7495 17.497 41.7247 17.3931 42.6766 17.1729C43.3881 17.0125 44.0668 16.7319 44.6832 16.3431C45.1751 16.0314 45.5792 15.5998 45.8573 15.0892C46.1131 14.6066 46.2449 14.0683 46.2409 13.5225C46.2378 12.7412 45.9163 12.0472 45.2765 11.4403ZM56.6681 13.0101C56.6681 13.8724 56.4476 14.5257 56.0081 14.9762C55.5686 15.4266 54.952 15.648 54.16 15.648H50.7277V10.3753H54.16C54.952 10.3753 55.5681 10.5992 56.0081 11.0471C56.4476 11.4945 56.6681 12.1509 56.6681 13.0101ZM60.6284 13.0101C60.6284 11.6209 60.1139 10.527 59.0847 9.72815C58.0555 8.92934 56.414 8.52994 54.16 8.52994H50.7277V3.78506H47.0314V17.4949H54.16C56.4119 17.4949 58.0535 17.0955 59.0847 16.2967C60.1159 15.4979 60.6315 14.4023 60.6315 13.0101H60.6284ZM62.6086 17.4995H66.3064V3.78351H62.6086V17.4995ZM82.261 0.278655V0H72.9659C71.2576 0 69.8676 0.9691 69.8676 2.16732V2.44597H79.1626C80.8725 2.44442 82.261 1.47532 82.261 0.278655ZM83.4615 17.4933V3.78351H78.7122L72.6398 14.0643H72.3758V3.78351H68.681V17.4933H73.4318L79.5043 7.21097H79.7683V17.4933H83.4615Z" fill="var(--fill-0, #1C5358)"/>
</g>
<defs>
<clipPath id="clip0_0_275">
<rect width="150" height="21" fill="white"/>
</clipPath>
</defs>
</svg>
