<svg width="40" height="40" viewBox="0 0 40 40" fill="none" xmlns="http://www.w3.org/2000/svg">
<path fill-rule="evenodd" clip-rule="evenodd" d="M19.9997 5.83337C12.188 5.83337 5.83301 12.1884 5.83301 20C5.83301 27.8117 12.188 34.1667 19.9997 34.1667C27.8113 34.1667 34.1663 27.8117 34.1663 20C34.1663 12.1884 27.8113 5.83337 19.9997 5.83337ZM19.9997 36.6667C10.8097 36.6667 3.33301 29.19 3.33301 20C3.33301 10.81 10.8097 3.33337 19.9997 3.33337C29.1897 3.33337 36.6663 10.81 36.6663 20C36.6663 29.19 29.1897 36.6667 19.9997 36.6667Z" fill="#6063A6"/>
<path fill-rule="evenodd" clip-rule="evenodd" d="M25.7861 23.654C25.4661 23.654 25.1444 23.5323 24.9011 23.2857L19.9994 18.364L15.1011 23.2857C14.6144 23.7757 13.8228 23.7757 13.3328 23.289C12.8444 22.8024 12.8411 22.0124 13.3294 21.5224L19.1144 15.7107C19.5828 15.239 20.4161 15.239 20.8861 15.7107L26.6711 21.5224C27.1578 22.0124 27.1561 22.8024 26.6678 23.289C26.4244 23.5324 26.1044 23.654 25.7861 23.654Z" fill="#6063A6"/>
</svg>
