<svg width="768" height="742" viewBox="0 0 768 742" fill="none" xmlns="http://www.w3.org/2000/svg">
<g opacity="0.45">
<path d="M264.718 272.367C264.718 272.367 254.339 286.814 252.857 285.867C251.376 284.92 257.342 268.812 257.342 268.812C257.342 268.812 244.386 256.493 245.143 255.988C247.173 254.632 260.74 262.748 260.74 262.748C260.74 262.748 269.693 245.236 271.713 246.211C274.119 247.367 268.565 266.563 268.565 266.563C268.565 266.563 280.316 275.003 280.395 276.001C280.474 276.999 264.718 272.367 264.718 272.367ZM689.44 655.223C689.44 655.223 679.101 669.687 677.581 668.733C676.06 667.779 682.065 651.678 682.065 651.678C682.065 651.678 669.11 639.359 669.871 638.85C671.89 637.493 685.463 645.614 685.463 645.614C685.463 645.614 694.417 628.102 696.437 629.077C698.846 630.229 693.287 649.419 693.287 649.419C693.287 649.419 705.038 657.859 705.113 658.861C705.188 659.863 689.44 655.223 689.44 655.223ZM430.215 145.209C430.215 145.209 425.11 153.028 423.787 151.668C422.463 150.308 425.216 141.348 425.216 141.348C425.216 141.348 420.071 140.736 418.349 140.183C416.626 139.629 422.884 136.003 422.884 136.003C422.884 136.003 414.322 127.739 414.26 127.143C414.199 126.547 425.275 134.377 425.275 134.377C425.275 134.377 423.625 129.207 424.454 128.443C425.283 127.679 429.398 133.522 429.398 133.522C429.398 133.522 432.95 125.666 434.008 126.212C435.066 126.757 433.822 136.018 433.822 136.018C433.822 136.018 440.312 134.48 441.207 135.399C442.103 136.319 434.851 140.016 434.851 140.016C434.851 140.016 447.262 146.477 446.919 148.099C446.576 149.721 433.656 144.179 433.656 144.179C433.656 144.179 438.884 152.882 438.009 153.324C437.032 153.796 430.215 145.209 430.215 145.209ZM84.6244 232.815C84.6244 232.815 79.5243 240.63 78.206 239.276C76.8877 237.921 79.6254 228.953 79.6254 228.953C79.6254 228.953 74.4808 228.342 72.7581 227.788C71.0355 227.235 77.2979 223.605 77.2979 223.605C77.2979 223.605 68.7368 215.351 68.6741 214.745C68.6114 214.139 79.6849 221.983 79.6849 221.983C79.6849 221.983 78.0344 216.813 78.8637 216.049C79.693 215.285 83.8073 221.128 83.8073 221.128C83.8073 221.128 87.3597 213.272 88.423 213.823C89.4864 214.374 88.237 223.629 88.237 223.629C88.237 223.629 94.7216 222.085 95.617 223.005C96.5123 223.925 89.2658 227.627 89.2658 227.627C89.2658 227.627 101.676 234.079 101.329 235.705C100.982 237.331 88.0655 231.784 88.0655 231.784C88.0655 231.784 93.2986 240.493 92.4236 240.936C91.4143 241.373 84.6244 232.815 84.6244 232.815Z" fill="white"/>
<path d="M757.962 80.0984C757.962 80.0984 751.069 74.2345 751.588 73.7123C752.107 73.19 759.966 77.3765 759.966 77.3765C759.966 77.3765 766.522 73.2311 766.75 73.6015C767.365 74.5944 762.89 79.4359 762.89 79.4359C762.89 79.4359 771.358 85.0223 770.808 85.7674C770.156 86.6555 760.741 82.3187 760.741 82.3187C760.741 82.3187 756.16 86.3644 755.659 86.2933C755.158 86.2221 757.962 80.0984 757.962 80.0984ZM553.538 218.19C553.538 218.19 546.635 212.341 547.159 211.803C547.682 211.265 555.537 215.467 555.537 215.467C555.537 215.467 562.093 211.322 562.323 211.695C562.939 212.684 558.461 217.527 558.461 217.527C558.461 217.527 566.929 223.113 566.379 223.858C565.729 224.749 556.317 220.41 556.317 220.41C556.317 220.41 551.736 224.456 551.233 224.383C550.731 224.309 553.538 218.19 553.538 218.19ZM816.327 162.806C816.327 162.806 812.58 159.847 813.301 159.434C814.021 159.021 818.411 161.113 818.411 161.113C818.411 161.113 818.876 159.019 819.206 158.355C819.536 157.69 821.153 160.694 821.153 160.694C821.153 160.694 825.546 157.967 825.846 158.004C826.146 158.04 821.89 161.867 821.89 161.867C821.89 161.867 824.524 161.715 824.88 162.143C825.236 162.571 822.189 163.685 822.189 163.685C822.189 163.685 826.003 165.997 825.697 166.383C825.392 166.77 820.805 165.28 820.805 165.28C820.805 165.28 821.372 168.162 820.885 168.442C820.397 168.721 818.777 165.293 818.777 165.293C818.777 165.293 815.164 169.823 814.364 169.509C813.565 169.196 816.735 164.357 816.735 164.357C816.735 164.357 812.225 165.639 812.031 165.226C811.826 164.767 816.327 162.806 816.327 162.806ZM783.315 8.70305C783.315 8.70305 779.57 5.74676 780.287 5.3355C781.005 4.92423 785.399 7.01027 785.399 7.01027C785.399 7.01027 785.864 4.91658 786.194 4.25195C786.524 3.58734 788.142 6.59346 788.142 6.59346C788.142 6.59346 792.531 3.86609 792.836 3.90317C793.14 3.94023 788.878 7.76416 788.878 7.76416C788.878 7.76416 791.512 7.61256 791.868 8.04029C792.224 8.46803 789.177 9.58252 789.177 9.58252C789.177 9.58252 792.99 11.8939 792.682 12.2823C792.374 12.6706 787.79 11.1787 787.79 11.1787C787.79 11.1787 788.36 14.0599 787.872 14.3392C787.385 14.6185 785.761 11.1921 785.761 11.1921C785.761 11.1921 782.153 15.7224 781.352 15.4067C780.55 15.091 783.722 10.254 783.722 10.254C783.722 10.254 779.21 11.538 779.016 11.1248C778.829 10.6557 783.315 8.70305 783.315 8.70305Z" fill="white"/>
<path d="M312.782 617.26C312.791 615.443 331.778 612.444 331.778 612.444C331.778 612.444 336.7 595.568 337.56 596.148C338.42 596.728 339.186 611.547 339.186 611.547C339.186 611.547 359.647 615.235 359.289 618.026C358.991 620.335 338.079 620.587 338.079 620.587C338.079 620.587 337.509 637.004 335.116 638.262C334.222 638.733 330.663 620.959 330.663 620.959C330.663 620.959 312.774 619.076 312.782 617.26Z" fill="white"/>
<path d="M-79.9499 640.79C-79.3879 638.536 -54.9082 643.297 -54.9082 643.297C-54.9082 643.297 -43.6347 624.571 -42.7321 625.676C-41.8296 626.782 -45.3802 645.529 -45.3802 645.529C-45.3802 645.529 -21.1048 659.265 -22.3905 662.548C-23.4634 665.284 -49.5098 656.255 -49.5098 656.255C-49.5098 656.255 -55.1806 676.371 -58.5354 676.864C-59.7956 677.061 -58.8249 653.399 -58.8249 653.399C-58.8249 653.399 -80.5118 643.045 -79.9499 640.79Z" fill="white"/>
<path d="M-127.998 296.946C-128.194 295.272 -111.165 289.012 -111.165 289.012C-111.165 289.012 -108.176 272.573 -107.342 272.934C-106.507 273.295 -104.472 286.823 -104.472 286.823C-104.472 286.823 -85.544 286.451 -85.6122 289.088C-85.6803 291.277 -104.668 295.359 -104.668 295.359C-104.668 295.359 -103.706 310.583 -105.758 312.181C-106.533 312.783 -111.378 297.056 -111.378 297.056C-111.378 297.056 -127.803 298.621 -127.998 296.946Z" fill="white"/>
<path d="M48.1793 505.669C48.1793 501.543 69.0318 506.534 69.0318 506.534C69.0318 506.534 66.503 482.806 68.8445 482.193C70.9476 481.613 76.3034 503.218 76.3034 503.218C76.3034 503.218 88.6412 475.364 91.8002 477.432C94.9591 479.501 84.9118 508.077 84.9118 508.077C84.9118 508.077 102.708 503.327 102.708 506.096C102.708 508.865 89.6034 515.946 89.6034 515.946C89.6034 515.946 106.437 528.959 105.577 531.4C104.717 533.841 86.3507 526.519 86.3507 526.519C86.3507 526.519 88.9392 541.841 86.3507 541.841C83.7623 541.841 78.2192 531.159 78.2192 531.159C78.2192 531.159 72.5654 559.954 71.714 558.914C70.8625 557.875 71.714 532.089 71.714 532.089C71.714 532.089 55.6382 535.581 57.5881 532.089C59.5379 528.598 66.9968 520.05 66.9968 520.05C66.9968 520.05 48.1793 509.795 48.1793 505.669Z" fill="white"/>
<path d="M444.235 639.215C445.348 639.603 443.188 651.717 443.188 651.717C443.188 651.717 452.505 658.247 451.968 658.645C451.431 659.043 442.179 656.385 442.179 656.385C442.179 656.385 435.607 667.982 433.97 667.178C432.616 666.511 436.866 653.812 436.866 653.812C436.866 653.812 426.915 650.01 426.647 648.298C426.547 647.658 438.2 649.249 438.2 649.249C438.2 649.249 443.122 638.827 444.235 639.215Z" fill="white"/>
<path d="M512.51 396.766C513.775 397.58 505.699 411.381 505.699 411.381C505.699 411.381 514.812 422.142 513.944 422.455C513.076 422.768 502.322 416.673 502.322 416.673C502.322 416.673 488.784 428.46 487.04 426.991C485.588 425.766 496.612 411.916 496.612 411.916C496.612 411.916 485.466 404.251 485.871 402.118C486.015 401.315 500.326 406.885 500.326 406.885C500.326 406.885 511.245 395.951 512.51 396.766Z" fill="white"/>
<path d="M733.562 440.124C734.63 440.358 734.884 451.974 734.884 451.974C734.884 451.974 744.339 457.244 743.942 457.672C743.545 458.101 734.818 456.483 734.818 456.483C734.818 456.483 731.06 468.007 729.456 467.411C728.128 466.908 729.622 454.566 729.622 454.566C729.622 454.566 720.08 451.942 719.532 450.364C719.326 449.769 729.994 450.152 729.994 450.152C729.994 450.152 732.493 439.889 733.562 440.124Z" fill="white"/>
<path d="M568.416 502.705C570.948 503.574 563.494 515.133 563.494 515.133C563.494 515.133 578.583 518.601 578.466 520.146C578.379 521.54 563.997 520.228 563.997 520.228C563.997 520.228 578.486 533.555 576.552 535.03C574.618 536.505 559.203 524.411 559.203 524.411C559.203 524.411 558.369 536.173 556.671 535.589C554.972 535.006 553.388 525.591 553.388 525.591C553.388 525.591 541.86 533.03 540.544 531.996C539.228 530.962 547.587 521.397 547.587 521.397C547.587 521.397 537.643 519.736 538.188 518.17C538.733 516.605 546.453 515.502 546.453 515.502C546.453 515.502 529.979 506.019 530.796 505.723C531.614 505.427 547.252 511.373 547.252 511.373C547.252 511.373 548.496 500.916 550.227 502.83C551.958 504.745 555.631 511.056 555.631 511.056C555.631 511.056 565.885 501.836 568.416 502.705Z" fill="white"/>
<path d="M535.652 604.312L569.941 587.694L569.562 584.898L535.273 601.517L535.652 604.312ZM512.88 490.02L547.544 430.03L546.652 427.755L511.991 487.752L512.88 490.02ZM342.672 378.426L343.448 376.199L325.58 346.714L324.803 348.934L342.672 378.426ZM548.683 262.559C548.683 262.559 549.559 242.611 548.84 242.153C548.12 241.695 545.41 259.389 545.41 259.389C545.41 259.389 537.951 258.599 538.042 259.625C538.285 262.351 544.749 266.977 544.749 266.977C544.749 266.977 542.567 288.195 543.458 289.069C544.522 290.116 548.223 270.341 548.223 270.341C548.223 270.341 554.203 273.227 554.524 272.498C554.845 271.77 548.683 262.559 548.683 262.559ZM594.792 363.541C594.792 363.541 595.829 346.555 594.536 346.555C593.243 346.555 590.49 361.883 590.49 361.883C590.49 361.883 587.616 355.8 586.471 354.254C585.326 352.707 586.828 365.754 586.828 365.754C586.828 365.754 578.705 365.06 578.397 365.754C578.088 366.447 587.285 371.053 587.285 371.053C587.285 371.053 584.066 375.575 584.131 377.677C584.197 379.778 588.945 377.677 588.945 377.677C588.945 377.677 587.11 392.645 587.898 393.345C588.687 394.046 592.349 380.326 592.349 380.326C592.349 380.326 594.909 391.008 595.776 391.008C596.642 391.008 594.707 376.511 594.707 376.511C594.707 376.511 603.939 384.696 604.509 382.123C605.079 379.549 596.015 369.499 596.015 369.499C596.015 369.499 602.668 365.136 602.432 363.416C602.19 361.481 594.792 363.541 594.792 363.541ZM633.15 332.891L633.93 330.664L616.062 301.179L615.281 303.399L633.15 332.891ZM772.128 218.765C772.128 218.765 773.004 198.817 772.281 198.359C771.559 197.901 768.858 215.574 768.858 215.574C768.858 215.574 761.399 214.784 761.49 215.803C761.733 218.536 768.197 223.162 768.197 223.162C768.197 223.162 766.015 244.373 766.905 245.247C767.97 246.301 771.671 226.519 771.671 226.519C771.671 226.519 777.651 229.405 777.972 228.67C778.293 227.934 772.128 218.765 772.128 218.765ZM786.772 662.603C786.772 662.603 787.809 645.617 786.516 645.617C785.223 645.617 782.47 660.945 782.47 660.945C782.47 660.945 779.596 654.869 778.451 653.316C777.306 651.762 778.808 664.823 778.808 664.823C778.808 664.823 770.686 664.129 770.377 664.823C770.068 665.516 779.271 670.087 779.271 670.087C779.271 670.087 776.052 674.602 776.117 676.711C776.183 678.819 780.931 676.711 780.931 676.711C780.931 676.711 779.096 691.672 779.884 692.373C780.673 693.073 784.335 679.361 784.335 679.361C784.335 679.361 786.892 690.035 787.762 690.035C788.632 690.035 786.693 675.539 786.693 675.539C786.693 675.539 795.925 683.723 796.495 681.15C797.065 678.577 788.001 668.526 788.001 668.526C788.001 668.526 794.654 664.164 794.418 662.45C794.17 660.543 786.772 662.603 786.772 662.603ZM820.023 362.411L820.803 360.184L802.935 330.699L802.155 332.918L820.023 362.411ZM301.725 575.812L302.855 574.411L292.461 538.933L291.336 540.334L301.725 575.812ZM276.659 742L315.382 733.704L315.159 730.854L276.437 739.142L276.659 742Z" fill="white"/>
</g>
</svg>
