<svg width="353" height="360" viewBox="0 0 353 360" fill="none" xmlns="http://www.w3.org/2000/svg">
<path d="M-35.9929 216.393C-35.9929 216.393 -27.4965 232.199 -28.5337 233.005C-29.5709 233.81 -40.289 220.964 -40.289 220.964C-40.289 220.964 -52.3775 226.063 -52.587 225.175C-53.1502 222.792 -44.0688 215.145 -44.0688 215.145C-44.0688 215.145 -55.1733 199.076 -53.9953 197.826C-52.5972 196.333 -39.478 210.318 -39.478 210.318C-39.478 210.318 -30.5571 204.375 -29.7935 204.788C-29.03 205.202 -35.9929 216.393 -35.9929 216.393ZM344.607 39.0905C344.607 39.0905 353.125 54.8706 352.074 55.7062C351.023 56.5417 340.319 43.6651 340.319 43.6651C340.319 43.6651 328.23 48.7649 328.019 47.8708C327.452 45.4958 336.539 37.8467 336.539 37.8467C336.539 37.8467 325.434 21.7778 326.612 20.5271C328.009 19.0289 341.122 33.0156 341.122 33.0156C341.122 33.0156 350.043 27.0726 350.809 27.4917C351.574 27.9108 344.607 39.0905 344.607 39.0905ZM-94.3071 14.1031C-94.3071 14.1031 -89.5944 22.2209 -90.9053 22.6932C-92.2163 23.1654 -98.3044 16.5009 -98.3044 16.5009C-98.3044 16.5009 -99.9044 20.589 -100.701 21.7899C-101.497 22.9908 -102.819 15.9111 -102.819 15.9111C-102.819 15.9111 -110.899 19.2227 -111.359 18.9876C-111.818 18.7525 -103.503 13.0902 -103.503 13.0902C-103.503 13.0902 -107.735 12.0044 -108.122 10.9295C-108.51 9.85461 -103.227 9.16595 -103.227 9.16595C-103.227 9.16595 -108.311 2.35273 -107.669 1.71432C-107.026 1.07591 -100.378 6.59972 -100.378 6.59972C-100.378 6.59972 -100.087 0.328775 -99.1999 0.00937301C-98.3132 -0.310039 -97.1601 7.65033 -97.1601 7.65033C-97.1601 7.65033 -89.5722 0.19063 -88.4355 1.26474C-87.2988 2.33888 -94.313 10.6748 -94.313 10.6748C-94.313 10.6748 -86.6444 10.4163 -86.508 11.375C-86.3723 12.4341 -94.3071 14.1031 -94.3071 14.1031ZM-105.569 350.761C-105.569 350.761 -100.858 358.873 -102.164 359.343C-103.469 359.814 -109.566 353.158 -109.566 353.158C-109.566 353.158 -111.166 357.247 -111.963 358.448C-112.759 359.648 -114.083 352.563 -114.083 352.563C-114.083 352.563 -122.156 355.878 -122.623 355.64C-123.09 355.401 -114.765 349.748 -114.765 349.748C-114.765 349.748 -118.997 348.662 -119.384 347.587C-119.771 346.512 -114.489 345.824 -114.489 345.824C-114.489 345.824 -119.573 339.01 -118.925 338.37C-118.277 337.73 -111.634 343.255 -111.634 343.255C-111.634 343.255 -111.349 336.986 -110.462 336.667C-109.575 336.348 -108.417 344.306 -108.417 344.306C-108.417 344.306 -100.836 336.843 -99.6975 337.922C-98.5588 339.002 -105.575 347.332 -105.575 347.332C-105.575 347.332 -97.901 347.072 -97.7645 348.031C-97.6615 349.101 -105.569 350.761 -105.569 350.761Z" fill="white"/>
</svg>
