<svg width="380" height="303" viewBox="0 0 380 303" fill="none" xmlns="http://www.w3.org/2000/svg">
<path d="M165.57 223.443L192.734 213.81L192.408 212.311L165.244 221.944L165.57 223.443ZM146.451 162.303L173.54 129.29L172.81 128.081L145.724 161.098L146.451 162.303ZM9.9423 105.529L10.5417 104.314L-3.94182 88.7777L-4.54146 89.9892L9.9423 105.529ZM173.005 39.0191C173.005 39.0191 173.531 28.252 172.954 28.0195C172.378 27.787 170.372 37.3756 170.372 37.3756C170.372 37.3756 164.425 37.0969 164.506 37.6483C164.723 39.1124 169.91 41.4778 169.91 41.4778C169.91 41.4778 168.356 52.9547 169.072 53.408C169.929 53.9514 172.706 43.2219 172.706 43.2219C172.706 43.2219 177.493 44.6587 177.743 44.2599C177.992 43.8611 173.005 39.0191 173.005 39.0191ZM210.594 92.526C210.594 92.526 211.274 83.3517 210.244 83.3773C209.214 83.4028 207.154 91.7177 207.154 91.7177C207.154 91.7177 204.813 88.4964 203.888 87.6855C202.963 86.8746 204.271 93.8757 204.271 93.8757C204.271 93.8757 197.796 93.6624 197.557 94.0423C197.317 94.4222 204.681 96.7223 204.681 96.7223C204.681 96.7223 202.156 99.2229 202.226 100.354C202.296 101.485 206.06 100.259 206.06 100.259C206.06 100.259 204.727 108.361 205.361 108.723C205.995 109.085 208.794 101.62 208.794 101.62C208.794 101.62 210.924 107.325 211.614 107.308C212.304 107.291 210.638 99.5173 210.638 99.5173C210.638 99.5173 218.061 103.745 218.493 102.347C218.924 100.949 211.62 95.7125 211.62 95.7125C211.62 95.7125 216.88 93.23 216.678 92.3077C216.468 91.2697 210.594 92.526 210.594 92.526ZM240.877 75.2509L241.48 74.0356L226.996 58.4995L226.394 59.711L240.877 75.2509ZM350.572 11.0037C350.572 11.0037 351.098 0.236584 350.519 0.00417012C349.94 -0.228244 347.941 9.34892 347.941 9.34892C347.941 9.34892 341.994 9.0702 342.075 9.61787C342.292 11.0857 347.479 13.4511 347.479 13.4511C347.479 13.4511 345.925 24.9243 346.641 25.3776C347.498 25.9247 350.275 15.1915 350.275 15.1915C350.275 15.1915 355.062 16.6283 355.311 16.2257C355.561 15.8232 350.572 11.0037 350.572 11.0037ZM366.055 249.893C366.055 249.893 366.735 240.719 365.705 240.745C364.675 240.77 362.615 249.085 362.615 249.085C362.615 249.085 360.274 245.868 359.348 245.053C358.423 244.238 359.732 251.247 359.732 251.247C359.732 251.247 353.257 251.033 353.018 251.413C352.778 251.793 360.146 254.075 360.146 254.075C360.146 254.075 357.621 256.571 357.691 257.706C357.762 258.841 361.525 257.611 361.525 257.611C361.525 257.611 360.192 265.71 360.826 266.072C361.46 266.434 364.259 258.972 364.259 258.972C364.259 258.972 366.387 264.674 367.079 264.657C367.772 264.639 366.103 256.866 366.103 256.866C366.103 256.866 373.526 261.094 373.958 259.696C374.389 258.298 367.085 253.061 367.085 253.061C367.085 253.061 372.345 250.579 372.143 249.66C371.929 248.637 366.055 249.893 366.055 249.893ZM389.951 87.4662L390.553 86.251L376.07 70.7148L375.467 71.9263L389.951 87.4662ZM-20.9667 212.707L-20.0796 211.93L-28.6618 193.017L-29.5462 193.794L-20.9667 212.707ZM-39.4979 302.759L-8.73215 297.524L-8.93399 295.992L-39.7 301.224L-39.4979 302.759Z" fill="white"/>
</svg>
